<?xml version="1.0" encoding="utf-8"?>
<!-- Generator: Adobe Illustrator 23.1.0, SVG Export Plug-In . SVG Version: 6.00 Build 0)  -->
<svg version="1.1" id="Layer_1" xmlns="http://www.w3.org/2000/svg" xmlns:xlink="http://www.w3.org/1999/xlink" x="0px" y="0px"
	 viewBox="0 0 2156.6 1768.8" style="enable-background:new 0 0 2156.6 1768.8;" xml:space="preserve">
<style type="text/css">
	.st0{fill:#5564A3;}
	.st1{fill:#94C5C5;}
	.st2{fill:#C3C6E2;}
	.st3{fill:#141415;}
	.st4{fill:#C8524A;}
</style>
<g>
	<path class="st0" d="M451.2,470.1c2.3-4.7-1.2-8-3.2-11.6c-1.8-3.3-5.2-5.5-7.6-8.4c-0.1-0.5-0.4-0.8-0.9-0.8c0,0-0.1-0.1-0.1-0.1
		c-0.4-0.8-1.2-0.4-1.8-0.7c-0.4-0.4-0.7-0.9-1.1-1.3c0.1-0.6-0.3-0.9-0.8-0.9c0,0-0.1,0-0.1,0c-0.4-0.7-0.8-1.5-1.8-1
		c-3.8-2.6-7.7-5.1-11.5-7.7c-0.4-0.9-1.2-1.3-2-1.7c0,0-0.1-0.2-0.1-0.2c0.1-0.6-0.3-0.9-0.8-1c0,0-0.1,0-0.1,0
		c-0.1-0.5-0.4-0.8-0.9-0.8c0,0-0.1-0.1-0.1-0.1c-0.1-0.5-0.3-0.8-0.9-0.8c0,0-0.1-0.1-0.1-0.1c0-0.5-0.3-0.8-0.9-0.9
		c0,0-0.1-0.1-0.1-0.1c0-0.5-0.3-0.8-0.9-0.9c0,0-0.1-0.1-0.1-0.1c0-0.5-0.3-0.8-0.8-0.9c0,0-0.1-0.1-0.1-0.1c0-0.6-0.3-0.9-0.9-0.9
		c-2.9-2.9-3-6.2-1.2-9.6c1.9-3.8,3.8-7.5,5.2-11.5c0.2-0.4,0.4-0.7,0.6-1.1c1.1-0.7,1.1-1.8,1.2-2.9c0.5-0.6,0.7-1.3,0.4-2
		c0.8-2.5,0.8-5,0-7.4c0.3-0.8,0.1-1.4-0.4-2c-2.8-5.7-2.4-12.1-4.6-17.9c-1.4-3.8-1.6-7.9-2.8-11.7c0.2-0.7,0.2-1.4-0.4-2
		c-0.2-0.6-0.3-1.2-0.5-1.8c0.3-0.8,0.1-1.4-0.4-2c0-1-0.1-1.9-0.6-2.8c0.3-0.7,0.1-1.4-0.3-2c-0.3-1.9-0.5-3.8-0.8-5.8
		c0.4-0.7,0.3-1.3-0.2-1.9c0-1.6-0.1-3.2-0.6-4.7c0.3-0.7,0.2-1.4-0.2-2c0.1-1.9-0.1-3.8-0.8-5.7c0.4-1,0.3-2-0.2-3
		c-0.2-2.2-0.5-4.5-0.7-6.7c0.5-1.3,0.3-2.6-0.3-3.8c-0.1-2.3,0.3-4.6-0.6-6.8c0.1-0.1,0.2-0.2,0.2-0.3c-0.1-0.2-0.3-0.3-0.4-0.5
		c0-12.3,0-24.5,0-36.8c0,0,0.3-0.3,0.3-0.3l-0.1-0.4c1-1.5,0.7-3.3,0.7-5c0.6-1.3,0.8-2.6,0.3-3.9c0.2-1.9,0.4-3.8,0.6-5.7
		c0.6-1.2,0.6-2.5,0.2-3.8c0.5-2.2,0.9-4.5,0.8-6.7c0.5-0.9,0.7-1.9,0.3-3c0.5-1.2,0.6-2.5,0.6-3.8c0.6-0.6,0.7-1.2,0.3-1.9
		c0.3-1.6,0.5-3.2,0.8-4.8c0.4-0.6,0.6-1.3,0.3-2c0.5-0.9,0.6-1.8,0.6-2.8c0.5-0.6,0.7-1.3,0.4-2c0.8-3.2,1.6-6.4,2.4-9.5
		c0.5-0.6,0.7-1.2,0.4-2c0.5-0.9,0.8-1.8,0.8-2.8c0.3-0.2,0.5-0.4,0.2-0.8c1.6-5.1,3.1-10.3,4.7-15.4c0.4-0.2,0.6-0.5,0.5-1
		c0.5-1.6,1-3.1,1.5-4.7c0.4-0.2,0.6-0.6,0.4-1c0.1-0.4,0.2-0.8,0.4-1.2c0,0,0.3-0.2,0.3-0.2l-0.1-0.3c0.9-1.6,1.4-3.3,1.9-5.1
		c0.4-0.2,0.5-0.4,0.3-0.8c0.2-0.5,0.4-0.9,0.6-1.4c0,0,0.3-0.1,0.3-0.1s-0.2-0.2-0.2-0.2c0.7-1.7,1.3-3.3,2-5
		c0.4-0.2,0.7-0.5,0.5-1c0.5-1.2,1-2.5,1.5-3.7c0.5-0.2,0.7-0.6,0.6-1.1c0.4-1,0.8-1.9,1.2-2.9c0.4-0.2,0.6-0.5,0.5-0.9
		c0.1-0.4,0.3-0.7,0.4-1.1c0.4-0.2,0.6-0.4,0.4-0.8c1.5-2.8,2.9-5.7,4.4-8.5c12.4-23.9,27.4-46.2,46-65.8
		c33.3-35,72.9-60.3,118.9-75.5c22.4-7.4,45.3-12,68.9-13.4c3.3-0.2,6.7-0.6,10-0.9c0.8-0.1,1.6-0.1,1.9-1c8.6,0,17.3,0,25.9,0
		c0.3,0.7,0.8,0.9,1.5,0.9c6.2,0.3,12.4,0.5,18.6,0.8c0.4,0,0.8,0.1,1.2,0.1c4.4,1,8.7,1.7,13.2,1.8c0.4,0,0.8,0.1,1.1,0.1
		c1.1,0.7,2.3,0.8,3.6,0.6c0.7,0.1,1.4,0.2,2.2,0.4c3.4,1.1,6.8,1.6,10.4,1.7c0.4,0.1,0.8,0.1,1.2,0.2c1.1,0.6,2.3,0.9,3.6,0.7
		c0.7,0.1,1.4,0.2,2,0.3c0.8,0.7,1.7,1,2.8,0.7c0.4,0.1,0.8,0.1,1.1,0.2c0.6,0.2,1.2,0.5,1.8,0.7c14,3.6,27.7,8,41,13.7
		c8.3,3.6,16.1,8,24.3,11.6c0.2,0.4,0.4,0.7,1,0.6c0.1,0.2,0.3,0.3,0.5,0.3c0,0.3,0.1,0.5,0.5,0.6c12.8,7.4,25,15.7,36.1,25.6
		c1.1,0.9,2.2,1.8,3.3,2.7c0.1,0.5,0.4,0.8,0.9,0.8c0,0,0.2,0.1,0.2,0.1c0,0.5,0.3,0.7,0.8,0.8c5.2,5.2,10.3,10.4,15.5,15.5
		c0.1,0.5,0.3,0.8,0.8,0.8c0,0,0.1,0.1,0.1,0.1c0,0.6,0.3,0.9,0.8,0.9c1,1.9,2.6,3.3,4.1,4.8c0,0.5,0.3,0.7,0.8,0.8
		c0,0,0.1,0.1,0.1,0.1c0,0.5,0.3,0.8,0.8,0.9c1.4,1.9,2.8,3.9,4.2,5.8c0.2,0.2,0.5,0.4,0.7,0.6c0,0,0.2,0.3,0.2,0.3
		c0,0.5,0.2,0.8,0.7,1c5.6,9.3,11,18.7,16.8,27.9c1.4,2.1,0.7,3.5-0.7,4.4c-6.7,4.3-12.5,9.7-18.9,14.2c-0.2,0.2-0.5,0.5-0.7,0.7
		c0,0-0.2,0.2-0.2,0.2c-0.5,0-0.8,0.2-0.9,0.7c-0.7,0.4-1.3,0.8-2,1.3c-0.2,0.2-0.5,0.5-0.7,0.7c0,0-0.3,0.2-0.3,0.2
		c-0.5,0-0.8,0.2-0.9,0.7c-1.9,1.4-3.9,2.8-5.8,4.1c-0.2,0.2-0.5,0.5-0.7,0.7c0,0-0.2,0.1-0.2,0.1c-0.5,0-0.8,0.3-1,0.8
		c-0.6,0.4-1.3,0.9-1.9,1.3c-0.2,0.2-0.5,0.5-0.7,0.7c0,0-0.3,0.2-0.3,0.2c-0.5,0-0.8,0.2-0.9,0.7c-0.7,0.4-1.3,0.8-2,1.3
		c-0.2,0.2-0.5,0.5-0.7,0.7c0,0-0.3,0.2-0.3,0.2c-0.5,0-0.8,0.2-0.9,0.7c-7.5,5.7-15.1,11.3-22.6,17.1c-1.1,0.9-2.7,1.1-3.4,2.4
		c-0.2,0.2-0.5,0.5-0.7,0.7c0,0-0.2,0.2-0.2,0.2c-0.5,0-0.8,0.2-0.9,0.7c-9.3,6.8-18.8,13.3-27.5,20.9c-0.3,0.3-0.9,0.4-1.3,0.5
		c-0.2,0.2-0.5,0.5-0.7,0.7c0,0-0.3,0.1-0.3,0.1c-0.3,0-0.7-0.1-1-0.1c-3.4-3.2-5.1-7.5-7.5-11.3c-3.6-6.1-7.9-11.7-11.9-17.5
		c0-0.6-0.3-0.8-0.8-0.9c0,0,0-0.1,0-0.1c-0.1-0.5-0.3-0.9-0.9-0.8c-5.1-5.2-10.3-10.3-15.4-15.5c-0.4-0.7-0.8-1.3-1.8-1
		c0,0,0,0,0,0c-0.3-0.2-0.7-0.4-1-0.6c-12.4-10.1-26.5-17.3-41.2-23.4c-5.5-2.3-11.4-3.4-16.8-5.9c-0.6-0.3-1.5,0.1-2.3,0.2
		c-2.6-2.9-6.2-2.5-9.6-2.8c0,0-0.1,0-0.1,0c-0.8-0.6-1.7-0.7-2.7-0.8c-6.7-0.6-13.3-1.4-20-1.8c-9.1-0.5-18.1-0.4-27.1,1.7
		c0,0-0.1,0-0.1,0c-2-0.1-3.9-0.1-5.6,1c0,0-0.1,0-0.1,0c-2.9,0-5.7,0.6-8.3,1.9c-0.5,0.8-1.4,0.9-2.2,0.9c-0.3-0.4-0.6-0.6-0.9,0
		c0,0,0,0,0,0c-1.3-0.2-2.5,0.1-3.5,1.1c-15.3,4.5-28.8,12.4-41.6,21.5c-3.1,2.2-5.7,4.9-8.6,7.4c-0.5,0-0.8,0.3-0.8,0.8
		c0,0-0.1,0.1-0.1,0.1c-0.5,0-0.8,0.3-0.9,0.8c0,0-0.1,0.1-0.1,0.1c-0.6,0-0.9,0.3-0.9,0.9c0,0-0.1,0.1-0.1,0.1
		c-0.5,0.1-0.8,0.4-0.9,0.9c0,0-0.1,0.1-0.1,0.1c-0.5,0.1-0.8,0.4-0.9,0.9c0,0-0.1,0.1-0.1,0.1c-0.5,0.1-0.8,0.4-0.9,0.9
		c0,0-0.1,0.1-0.1,0.1c-0.5,0.1-0.8,0.4-0.9,0.9c0,0-0.1,0.1-0.1,0.1c-0.5,0.1-0.8,0.3-0.9,0.9c0,0-0.1,0.1-0.1,0.1
		c-0.5,0.1-0.8,0.4-0.8,0.9c0,0-0.1,0.1-0.1,0.1c-0.5,0.1-0.8,0.3-0.8,0.8c-5.5,6-10.2,12.4-14.6,19.2c-0.5,0.1-0.8,0.4-0.7,1
		c0,0-0.2,0.2-0.2,0.2c-0.2,0.2-0.5,0.5-0.7,0.7c-2.2,2.9-4,6-5.7,9.3c-5,9.8-10.2,19.6-13.3,30.3c-0.4,1.4-0.7,2.7-0.9,4.1
		c-0.5,0.4-0.6,0.8-0.5,1.4c-0.2,0.3-0.2,0.6-0.2,0.9c-0.2,0.3-0.4,0.7-0.6,1c-1.3,6.4-3.6,12.6-4.1,19.2c-0.4,0.6-0.6,1.3-0.4,2
		c-0.2,0.9-0.3,1.9-0.5,2.8c-0.5,0.6-0.6,1.3-0.3,2c-0.8,3.4-1.6,6.9-1.7,10.5c-0.4,0.6-0.6,1.3-0.2,2c-0.7,2.2-0.7,4.4-0.7,6.6
		c-0.6,0.9-0.6,1.9-0.2,2.9c-1,8.3-0.7,16.6,0,24.9c-0.5,1-0.4,1.9,0.2,2.9c0,2.2,0,4.5,0.6,6.6c-0.4,1-0.3,2,0.3,3
		c0,2.6,0,5.1,0.8,7.6c-0.3,0.7-0.2,1.4,0.2,2c-0.1,1.6,0.2,3.2,0.7,4.7c-0.3,0.7-0.2,1.4,0.3,2c0,1,0,1.9,0.5,2.8
		c-0.3,0.7-0.1,1.4,0.4,2c0.4,2.2,0.8,4.5,1.2,6.7c0.3,0.6,0.5,1.1,0.8,1.7c0.2,0.8,0.5,1.5,0.7,2.3c-0.1,0.1-0.2,0.2-0.2,0.3
		c0.1,0.2,0.2,0.4,0.3,0.6c2.8,12.7,7.9,24.6,13.6,36.1c4.3,8.6,9.4,16.8,15.5,24.3c0.2,0.2,0.5,0.5,0.7,0.7c0,0,0.2,0.2,0.2,0.2
		c0,0.5,0.2,0.8,0.7,0.9c2.4,4,5.5,7.4,8.9,10.6c0.1,0.4,0.3,0.7,0.8,0.8c0,0,0.1,0.2,0.1,0.2c0,0.5,0.3,0.8,0.8,0.8
		c0,0,0.1,0.1,0.1,0.1c0,0.5,0.3,0.8,0.8,0.8c0,0,0.1,0.1,0.1,0.1c0,0.5,0.3,0.8,0.8,0.8c0,0,0.1,0.1,0.1,0.1c0,0.5,0.3,0.8,0.8,0.8
		c0,0,0.1,0.1,0.1,0.1c0,0.5,0.3,0.8,0.8,0.8c0,0,0.1,0.1,0.1,0.1c0,0.5,0.3,0.8,0.8,0.8c0,0,0.2,0.1,0.2,0.1c0,0.5,0.3,0.7,0.8,0.8
		c17.1,15.9,36.6,27.6,59.6,32.8c1.2,0.5,2.4,1,3.7,0.8c0.4,0.1,0.8,0.1,1.2,0.2c1.1,0.8,2.3,1.1,3.6,0.8c0.4,0.1,0.7,0.1,1.1,0.2
		c8.6,2.4,17.5,3.4,26.5,3.5c12.3,0.1,24.5-0.7,36.6-3.5c0.4-0.1,0.8-0.1,1.2-0.2c1.3,0.3,2.5,0,3.6-0.8c0.4-0.1,0.8-0.1,1.2-0.2
		c1.1,0.2,1.9-0.2,2.8-0.7c22-6.4,42-16.8,60.2-30.7c1.9-1.4,3.7-2.8,5.3-4.6c0.7,1.1,1,0.1,1.4-0.3c0,0,0.2-0.1,0.2-0.1
		c0.5,0,0.8-0.3,0.9-0.8c2.8-3.2,6.5-5.6,9.5-8.6c3.9-3.9,8.1-7.7,11.8-11.8c1.5-1.6,3.1-3.1,4.7-4.7c0.5-0.1,0.8-0.4,0.8-0.9
		c0,0,0.1-0.1,0.1-0.1c0.8-0.3,0.8-1,0.8-1.7c1-1,2-2,3-3.1c1.6-0.6,1.3-2,1.3-3.3c0.1-3.5,0.1-7,0-10.5c0-3.7-0.1-3.7-3.7-3.7
		c-36.4,0-72.7,0-109.1,0.1c-0.1-1.9-0.3-3.8-0.3-5.7c0-28.7,0-57.5,0-86.2c0-1.9-0.1-3.8-0.1-5.7c1.6-0.9,3.4-0.6,5.2-0.6
		c71.5,0,142.9,0,214.4,0c1.7,0,3.5-0.4,5.2,0.6c0,1.3-0.1,2.6-0.1,3.8c0,53.4,0,106.7,0,160.1c0,2.4-0.3,4.8,0.8,7.1
		c-0.1,0.7,0.3,1.2,0.8,1.6c4.7,2.8,10.1,3.5,15.1,5.2c1.5,0.5,3,0.8,4.5,1.4c2.7,1,2.7,1,0.5,3.6c-0.6,0.2-1.2,0.5-1.8,0.7
		c0,0-0.1,0-0.1,0c-1.3-0.2-2.5,0-3.5,1c-0.6,0.8-1.3,0.9-2.2,0.9c-0.3-0.5-0.6-0.7-1-0.1c-0.3,0-0.6,0-0.9,0.2
		c-1.1-0.2-2,0.2-2.8,0.8c0,0-0.1,0-0.1,0c-1.4-0.2-2.6,0.2-3.8,0.9c-6.6,2.8-5.6,2.6-2.9,7.9c2.8,5.6,7.3,9.9,11.8,14.1
		c0.1,0.5,0.3,0.7,0.8,0.8c1.8,2,3.6,3.9,5.4,5.9c-1.5,1.9-3.6,1-5.3,1c-16.6,0-33.2-1.2-49.8-2.4c-22.2-1.5-44.4-2-66.5-0.2
		c-4.7,0.4-9.6,0.3-14.2,1.7c0,0-0.1,0-0.1,0c-1.7,0.1-3.5,0-5.2,0.2c-37.8,5.7-76,7.6-114.2,7.9c-21.2,0.2-42.5-0.3-63.7-1.1
		c-29.5-1.2-59.1-2.4-88.6-3.7c-31.6-1.4-63.2-2.6-94.9-2.5c0,0-0.1,0-0.1,0c-0.6-0.7-1.2-0.6-1.9,0c-5.2-2-9.5-5.5-14.1-8.5
		c-1.5-1-2-2.6-2.3-4.5c-0.4-2.4,0-4.7,0.2-7.1c1.4-1.7,1.3-3.8,1.4-5.9c0.8-0.4,0.8-1.1,0.6-1.8
		C450.3,471.5,451.7,471.3,451.2,470.1z"/>
	<path class="st1" d="M2156.6,750.5c-22.5,0-45.1,0-67.6,0c-1.3,0-2.6,0-3.8,0c-1.9,0.1-2.6-0.9-2.5-2.7c0-1,0-1.9,0-2.9
		c0-31.8,0-63.6,0-95.4c0-1,0-1.9,0-2.9c-0.1-1.8,0.9-2.6,2.6-2.6c1,0,1.9,0,2.9,0c20.1,0,40.3,0,60.4,0c1.1,0,2.2,0,3.4,0
		c1.7,0.1,2.6,1,2.7,2.7c0,0.2,0,0.3,0,0.5c0,11.5,1.2,9.7-9,9.8c-14.5,0.1-29.1,0-43.6,0c-1.1,0-2.2,0-3.4,0
		c-1.8,0-2.6,0.9-2.6,2.6c0,2.6,0,5.1,0,7.7c0,5.6,0,11.2,0,16.8c0,4.9,0,4.9,5.1,4.9c14.4,0,28.8,0,43.2,0c1,0,1.9,0,2.9,0
		c3.6,0.1,3.7,0.1,3.7,3.8c-0.1,10.4,1.4,8.5-8.5,8.6c-13.9,0.1-27.8,0-41.7,0c-4.5,0-4.6,0-4.6,4.4c0,9.3,0,18.5,0,27.8
		c0,3.9,0.1,4,4,4c17.6,0,35.2,0,52.8,0c1.3,0,2.6,0,3.8,0.1C2156.6,742.2,2156.6,746.4,2156.6,750.5z"/>
	<path class="st0" d="M0,684.3c1.7,0,1.5-1.5,1.7-2.4c2.7-11.4,8.4-20.8,17.5-28.2c3.6-2.9,7.7-4.9,12.2-5.8
		c1.7-0.4,3.4-0.8,5.1-1.2c3.8,0,7.7,0,11.5,0c0.7,0.1,1.3,0.2,2,0.2c0.9,0.6,1.8,0.8,2.8,0.6c4.1,1.2,8,2.7,11.7,5
		c4.8,3,8.1,7.4,11,12.2c1.9,3,1.8,3.1-1.5,5.3c-1,0.1-1.9,0.2-2.9,0.3c-0.5-0.6-1.2-1.1-1.5-1.8c-3.4-6.8-9.8-10-16-13.4
		c-1.2-0.7-2.7-0.9-4.1-1.2c-14.4-2.4-26.3,1.8-34.6,14.2c-9.8,14.7-11.1,37,4.8,52.8c13.1,13,31.3,13.9,45.6,2.3
		c1.9-1.5,3.4-3.3,5.2-4.9c1.3-1.2,1.7-2.6,1.7-4.3c-0.1-4-0.1-8,0-12c0.1-2.2-0.7-3.2-3-3.1c-4.5,0.1-9,0-13.4,0.1
		c-3.7,0.1-3.7,0-3.7-4.2c0-1.4,0.6-2.1,2-2.1c8.1,0,16.2,0,24.6,0c0,8,0,15.6,0,23.1c0,5.9,0,11.8,0,17.8c0,3.9,0,3.9-4,3.9
		c-0.6,0-1.3-0.1-2.3-0.2c0-3.5,0-6.9,0-10.4c-2.4-0.5-3.2,1.2-4.3,2.1c-11.4,8.7-24,11.4-37.5,6.9C18,731.6,9.8,722.6,4.6,710.8
		c-1.2-2.8-2.2-5.7-2.9-8.6c-0.2-0.8-0.2-2.1-1.7-1.5C0,695.2,0,689.8,0,684.3z"/>
	<path class="st2" d="M728.5,1.7c-6.2-0.3-12.4-0.5-18.6-0.8c-0.7,0-1.2-0.3-1.5-0.9c4.5,0,9,0,13.4,0c0.8,1.1,2,0.7,3.1,0.8
		C726.1,1,727.5,0.6,728.5,1.7z"/>
	<path class="st2" d="M1865,0.9c0-0.3,0-0.6-0.1-0.9c6.7,0,13.4,0,20.2,0c0,0.2,0,0.5,0,0.7C1878.3,0.8,1871.7,0.9,1865,0.9z"/>
	<path class="st1" d="M1865,0.9c6.7-0.1,13.4-0.1,20-0.2c15.1,1,29.7,4.2,43.2,11.1c12,6.1,22.8,13.8,31.3,24.5
		c4.1,5.1,8,10.3,11.2,16c1.7,3,1.7,3.2-1,5.3c-5.4,4.1-11,8.2-16.4,12.3c-4.9,3.7-9.9,7.5-14.8,11.3c-3.9,3.1-4.6,2.9-7.2-1.3
		c-9.2-14.9-21.2-26.4-38.4-31.6c-5.2-1.6-10.4-2.6-15.9-2.3c-8.2,0.5-16,2.6-23.3,6c-20.5,9.6-32.6,26.3-38.9,47.6
		c-5.6,19-5,37.8,1.8,56.3c7.8,21.2,22,36.3,43.5,44.1c4.3,1.6,8.8,2.7,13.5,2.6c4.1,1.3,8.2,1.3,12.3,0c6.1-0.4,12-1.8,17.5-4.1
		c9.8-4.1,19.1-9.2,27-16.7c2.6-2.5,5.6-4.5,7.8-7.5c1.7-2.4,2.8-4.5,2.5-7.3c-0.1-1.4-0.1-2.9,0-4.3c0-1.6-0.7-2.4-2.3-2.4
		c-1.1,0-2.2,0-3.4,0c-12.6,0-25.3,0-37.9,0c-4.5,0-4.6,0-4.6-4.4c0-11.3,0.1-22.7,0.2-34c19.2,0,38.3,0.1,57.5,0.1
		c11.5,0,23-0.1,34.5-0.1c1.2,6.2,0.9,12.4,0.9,18.6c0.1,34.9,0.2,69.7,0.2,104.6c0,0.8-0.1,1.6,0,2.4c0.2,2.3-0.8,3.3-3.1,3.1
		c-1-0.1-1.9,0-2.9,0c-10.9,0-21.8,0-32.6,0c-7.3,0-6.4,0.9-6.5-6.3c0-5.1,0-10.2,0-15.4c0-1.1,0.3-2.4-0.9-2.9
		c-1.3-0.6-2.5-0.2-3.5,0.8c-1.5,1.5-3,2.9-4.4,4.4c-5.3,5.7-11.7,9.8-18.5,13.4c-4.4,2.4-9.2,3.6-14.1,4.3
		c-1.3-0.1-2.7-0.4-3.7,0.7c-1.6,0.1-3.3,0.2-4.9,0.3c-7.6,0-15.3,0-22.9,0c-12.9-0.7-25.5-3.1-37.3-8.4
		c-9.6-4.3-18.6-9.6-26.8-16.1c-11.4-8.9-20.9-19.6-28.6-31.8c-7.9-12.5-14-26.2-16.3-40.7c-2-12.7-3.7-25.6-1.8-38.6
		c1-6.4,0.9-13,2.4-19.4c4.5-18.6,12.8-35.3,24.9-50.3c8.3-10.2,17.8-19,28.9-26c13.7-8.6,28.6-14.4,44.7-16.7
		C1860.3,1.6,1862.6,1.3,1865,0.9z"/>
	<path class="st0" d="M818.7,506.8c3.2-0.1,6.4-0.1,9.6-0.2c7,0.1,14.1,0.2,21.1-0.8c1.9-0.1,3.9-0.1,5.8-0.2
		c7.7,0.2,15.4,0.4,23-0.7c4.5-0.1,9-0.2,13.4-0.2c3.9,0.5,7.9,0.2,11.8,0c7.6-0.3,15.1,0.2,22.7-0.8c11.5-0.1,23.1-0.2,34.6-0.3
		c3.2,0.3,6.4,0.3,9.6,0c5.4,2.2,10.2,5.5,15.2,8.4c1.5,0.8,3.4,1.4,3.2,3.6c-0.2,2.3-1.9,3.4-3.9,4c-1.8,0.6-4,0.2-5.6,1.6
		c0,0-0.2,0.1-0.2,0.1c-0.6,0.2-1.4,0.1-1.8,0.8c0,0-0.1,0.1-0.1,0.1c-0.6,0-0.9,0.3-1,0.8c0,0,0,0,0,0c-0.6,0.1-0.9,0.4-0.9,1
		c0,0-0.1,0.1-0.1,0.1c-0.5,0.1-0.7,0.4-0.7,0.9c-1,1.6,1.1,2.9,0.5,4.5c-1.8,0-3.5,0.1-5.3,0c-10.5-0.5-21.1-1.1-31.6-1.5
		c-4.9-0.2-9.9-0.7-14.8-0.1c-0.6,0-1.3,0-1.9-0.1c-0.8-0.1-1.6-0.3-2.3-0.3c-20.6-0.5-41.2-1.1-61.8-1.3
		c-33.6-0.2-67.1-0.3-100.7,0.4c-20.3,0.4-40.6,0.3-60.9,0.8c-24.6,0.6-49.2,1-73.8,1.2c-35,0.2-70,1.2-105,1
		c-1.8,0-3.5,0.1-5.3,0.1c0,0,0,0,0,0c-0.8-0.6-1.7-1.2-2.7-0.4c-3.6-3.7-7.3-7.2-12.7-8.2c-0.8-1.6-2.1-2.2-3.8-1.9c0,0,0,0,0,0
		c-1.1-1-2.5-1-3.8-0.9c0,0-0.1,0-0.1,0c-1.5-0.8-3-1.2-4.7-0.9l-0.4-0.1c0,0-0.4,0-0.4,0c-1.2-1-2.5-1-3.9-0.9c0,0-0.1,0-0.1,0
		c-1.4-1-3.1-1-4.7-0.9l-0.4-0.1c0,0-0.4,0-0.4,0c-1.2-0.9-2.5-1-3.9-0.8l-0.4-0.2c0,0-0.5,0-0.5,0c-1.2-0.9-2.5-0.9-3.9-0.8
		c-1.1-0.5-2.7,0-3.1-1.6c3.2-1.5,6.7-2.4,9.8-4.2c1.6-0.9,2.5-1.8,2.2-3.7c1.2-0.2,2.5-0.3,3.7-0.5c1,0.1,1.9,0.2,2.9,0.2
		c2.8,0.7,5.7,1,8.6,0.7c1.6,0.1,3.2,0.2,4.8,0.3c2.8,1,5.7,1,8.6,0.7c1,0.1,2,0.1,2.9,0.2c3.5,0.9,7,0.9,10.5,0.8
		c1,0.1,2,0.1,3,0.2c4.7,0.8,9.5,1.2,14.3,0.8c1,0,1.9,0.1,2.9,0.1c4.4,1,8.9,1,13.4,0.8c0.6,0,1.3,0,1.9,0.1c0.3,0,0.6,0,1,0
		c1.6,0.1,3.2,0.1,4.8,0.2c5.7,0.9,11.5,1,17.3,0.7c3.5,0.1,7.1,0.1,10.6,0.2c10.5,1.3,21.1,1,31.7,0.8c5.5,0.5,10.9,0.2,16.4,0.2
		c1.3,0.8,2.8,0.5,4.2,0.5c9.3,0,18.7,0,28,0c1.4,0,2.9,0.3,4.2-0.4c5.6,0,11.3,0.2,16.9-0.3c14.9,0.6,29.7,0.3,44.6-0.8
		c2.2,0,4.5-0.1,6.7-0.1c8,0.2,16,0.1,24-0.8c3.5-0.1,7-0.2,10.6-0.2c7,0.1,14.1,0.3,21.1-0.8c1.9,0,3.9-0.1,5.8-0.1
		C805.3,507.8,812,507.8,818.7,506.8z"/>
	<path class="st3" d="M1033.8,1646.9c-0.4-2.3,0-3.5,2.8-3.5c23,0.4,46.1-0.8,69.1,0.9c8,0.6,16,1.7,22.9,6.5
		c14.6,10.3,17.4,28.2,8.5,41.5c-4.1,6.1-10.1,9.9-17.1,12.2c-0.7,0.2-1.6,0.1-2.2,0.7c-0.3,0.3-0.9,0.4-1.5,0.7
		c5.3,7.6,10.4,15.1,15.7,22.5c4.9,6.8,9.8,13.6,14.9,20.3c1.4,1.9,3,3.7,4.7,5.4c1.8,1.8,3.8,3.4,6.6,3.3c1.5,0,2.4,0.5,2.3,2.3
		c-0.1,1.8-1.3,1.5-2.4,1.5c-10.9,0-21.8-0.1-32.6,0.1c-2.5,0-3.3-1.5-4.4-3c-8.5-12-17-24-25.4-36c-3-4.3-6.1-8.6-9.1-12.9
		c-1.1-1.5-6.4-2.5-7.8-1.6c-0.8,0.5-0.7,1.4-0.7,2.2c0,12.5-0.1,25,0.2,37.4c0.2,6.9,3.2,9.6,10.1,10.2c1.6,0.1,3.2,0.3,4.8,0.5
		c1,0.1,1.1,1,1.1,1.8c0,0.9-0.4,1.5-1.4,1.5c-0.8,0-1.6,0-2.4,0c-17.6,0-35.2,0-52.8,0c-0.8,0-1.6,0-2.4,0c-0.9,0-1.5-0.3-1.6-1.3
		c0-1,0.2-1.9,1.4-2.1c1.7-0.2,3.5-0.3,5.3-0.5c5.8-0.6,8.6-3.2,9.3-9c0.2-1.9,0.2-3.8,0.2-5.7c0-26.9,0-53.7,0-80.6
		c0-0.8,0-1.6,0-2.4c0.2-5.8-2.3-9.9-8-11.7C1039.4,1646.5,1036.5,1647.2,1033.8,1646.9z M1077.9,1675.4c0,7.5,0.1,15-0.1,22.6
		c0,2.3,0.7,3.1,3,3c5.3-0.2,10.5-0.1,15.8-1c8.5-1.6,13.5-6.7,15.8-14.8c1.5-5.3,1.4-10.8,0.5-16.2c-1.9-11.2-7.2-16.3-18.3-18.5
		c-4.5-0.9-8.9-0.5-13.4-0.6c-3.2,0-3.3,0.1-3.3,3.5C1077.9,1660.7,1077.9,1668.1,1077.9,1675.4z"/>
	<path class="st3" d="M1253.8,1122.9c-6.4-1.4-12.8-2.7-19-4.7c-1-0.8-2.1-1.1-3.4-0.9c-8.3-1.4-16.4-3.7-24.6-5.8
		c-5.8-1.4-11.7-2.6-17.5-4c-8.8-2.1-17.5-4.2-26.3-6.4c-7-1.7-14-3.5-21.1-5c-6-1.3-12-3.1-18-4.4c-7.4-1.5-14.7-3.4-22-5.3
		c-8.9-2.2-17.9-3.7-26.7-6.7c-1.4-0.5-2.8-0.1-4.3,0.1c-2.9-0.3-5.8,0-8.6,0.9c-0.3,0-0.7,0-1,0.1c-2.9-0.2-5.9-0.2-8.7,0.9
		c-0.6,0-1.3,0.1-1.9,0.1c-2.9-0.2-5.8,0-8.6,0.9c-0.3,0-0.6,0-1,0.1c-3.2-0.2-6.4-0.1-9.5,0.9c-0.3,0-0.7,0-1,0.1
		c-3.2-0.2-6.4,0-9.5,0.9c-0.7,0-1.3,0.1-2,0.1c-2.6-0.2-5.2-0.1-7.7,0.8c-0.3,0-0.6,0-1,0.1c-3.2-0.2-6.4-0.1-9.6,0.9
		c-0.3,0-0.7,0-1,0.1c-2.9-0.2-5.9-0.1-8.7,0.9c-0.6,0-1.3,0.1-1.9,0.1c-2.9-0.2-5.8-0.1-8.6,0.9c-0.6,0-1.3,0.1-1.9,0.1
		c-2.9-0.2-5.8,0-8.6,0.9c-0.3,0-0.7,0-1,0.1c-3.2-0.2-6.5-0.1-9.6,0.9c-1.2,0-2.1-0.4-2.1-1.9c0-2.6,0.2-5.1-0.1-7.7
		c-0.3-2.9,1-3.9,3.5-4.5c7.7-1.9,15.3-3.9,22.9-5.9c11.7-3,23.5-6.1,35.2-9.1c17.1-4.4,34.1-8.7,51.1-13.3c2.1-0.6,3.7-0.2,5.4,0.3
		c16.6,5.5,33.1,11,49.7,16.5c20.6,6.9,41.2,13.8,61.9,20.6c1.2,0.4,2.2,1.3,3.5,1.3c1.5,1.1,3.3,0.6,5,0.7c0.9,1.2,2.2,1.5,3.5,2
		c26,8.6,52.1,17.2,78.1,25.9c1.3,0.4,2.7,1,4,1.5c-6.2,2.3-12.8,3.4-19.2,5.3C1259.5,1122.8,1256.7,1123.2,1253.8,1122.9z"/>
	<path class="st3" d="M1236.3,1071.2c-5.7-1.2-10.9-3.7-16.3-5.5c-11.4-3.8-22.7-8-34.1-11.9c-9.3-3.2-18.6-6.6-27.9-9.8
		c-15-5.3-29.9-10.7-44.8-16c-11.3-4-22.8-7.7-34-12.1c-5.4-2.1-10.3-2.1-15.7-0.5c-7.8,2.3-15.7,3.9-23.6,5.8
		c-13.3,3.2-26.5,6.5-39.7,9.9c-7.6,2-15.3,3.6-22.9,5.4c-6.4,1.5-12.6,3.5-19.1,4.5c-1-2.3-0.6-4.8-0.4-7.1
		c0.2-2.1-1.7-5.2,2.2-6.2c2.2-0.6,4.4-1.6,6.6-2.5c18.7-7.6,37.4-15.2,56-22.8c14.6-6,29.2-12,43.7-18.1c3.9-1.6,7.2-1.6,11.2,0.2
		c18.1,8.1,36.3,15.7,54.5,23.6c15.6,6.7,31.1,13.6,46.6,20.4c3.5,1.5,6.9,3,10.4,4.5c0.7,1,1.8,0.7,2.7,0.7
		c6.4,4,13.7,6.2,20.5,9.4c10.8,5,21.9,9.5,32.8,14.2c5.1,2.2,10.2,4.2,15.3,6.3c-0.6,1.4-1.9,1.5-3,1.9c-4.6,1.5-9.3,3-13.9,4.5
		C1241,1070.9,1238.7,1071.3,1236.3,1071.2z"/>
	<path class="st3" d="M1215.1,1763.2c-14.3-1.9-26.1-8-35.4-19.5c-6.4-8-11.3-16.7-13.2-26.5c-1.3-6.7-1.6-13.9-1-21
		c0.6-7.2,2.1-14,4.6-20.7c1.5-3.9,4.2-7.3,6.6-10.7c8.6-11.8,20.2-19.3,34.5-21.9c16.4-3,32.8-2.7,47.9,5.2
		c15.7,8.2,25.7,21.2,29.7,38.6c4.4,19.3,0.9,37.1-10.6,53.2c-8.5,11.8-19.8,19.3-34.2,22.1c-1.1,0.2-2.1,0.7-3.1,1
		c-2-0.3-3.9,0.2-5.7,0.9c-4.8,0-9.6,0-14.4,0C1219,1763.2,1217.1,1762.9,1215.1,1763.2z M1259.2,1700.7c0.2-4.7-0.4-10.8-1-16.8
		c-0.9-8.3-3.1-16.2-7.3-23.6c-9-16-32.9-17.2-43.5-1.9c-3.7,5.3-6.1,11.2-7.5,17.5c-3.2,14.5-3.4,29.2-1.7,43.9
		c1.1,9.1,3.5,17.8,8.3,25.8c8.8,14.8,32.9,16.3,42.9,0.8c2.7-4.2,4.8-8.6,6.2-13.4C1258.5,1722.8,1259.2,1712.4,1259.2,1700.7z"/>
	<path class="st3" d="M1089.4,1147c-0.3,0-0.6-0.1-1-0.1c-1.5-0.9-3.1-1.1-4.8-0.9c-0.3,0-0.6-0.1-1-0.1c-1.5-0.9-3.1-1.1-4.8-0.9
		c-0.4-0.1-0.8-0.1-1.2-0.2c-0.6-0.6-1.4-0.7-2.2-0.7c-6.2,0.2-12.4,0-18.5,0.7c-2.3,0.1-4.6,0.1-7,0.2c-7.1,0-14.3-0.1-21.4,0
		c-10.5,0.1-20.9,0-31.4,0.9c-2.2-0.2-4.5-0.3-6.7,0.1c-10.6-0.5-21.1,0.1-31.7,0c-0.6-8-0.6-8,7-9.7c30.6-6.7,61.1-13.4,91.7-20.2
		c3.5-0.8,7-1.7,10.5-2.6c4.5-1.2,8.8-0.7,13.4,0.6c28.9,8,57.9,15.5,86.8,23.2c5.7,1.5,11.5,3.1,17.2,4.7c1,0.1,2.1,0.3,3.1,0.4
		c1.8,0.2,3.3,1.7,5.3,1.5c5.5,2.2,11.4,3.3,17.1,4.8c17.2,4.7,34.5,9.2,51.7,13.9c8.8,2.4,17.5,4.9,26.2,7.2
		c0.9,0.2,1.9,0.1,2.9,0.2c0.1,0.3,0.2,0.5,0.3,0.7c-10.3,2.3-20.6,3.8-31.1,4.8c-1.4-1.1-3-1-4.6-0.8l-0.4-0.2c0,0-0.4,0.1-0.4,0.1
		c-1.2-0.9-2.5-0.9-3.9-0.8c-0.6-0.1-1.2-0.1-1.8-0.2c-1.2-0.9-2.5-1-3.9-0.8c-0.3,0-0.7-0.1-1-0.1c-1.5-0.7-3-1.1-4.7-0.9
		c-0.3,0-0.7-0.1-1-0.1c-1.5-0.8-3-1.1-4.7-0.9c-0.6-0.1-1.2-0.1-1.8-0.2c-1.2-0.9-2.6-1-4-0.8c-0.3,0-0.7-0.1-1-0.1
		c-1.5-0.8-3.1-1.1-4.7-0.9c-0.3,0-0.7-0.1-1-0.1c-1.5-0.8-3-1.1-4.7-0.9c-0.3,0-0.7-0.1-1-0.1c-1.5-0.8-3.1-1.1-4.7-0.9
		c-0.3,0-0.7-0.1-1-0.1c-1.5-0.8-3.1-1.1-4.7-0.9c-0.3,0-0.7-0.1-1-0.1c-1.5-0.8-3.1-1.1-4.7-0.9c-0.3,0-0.7-0.1-1-0.1
		c-1.5-0.8-3.1-1.1-4.7-0.9c-0.3,0-0.7-0.1-1-0.1c-1.5-0.8-3.1-1.1-4.7-0.9c-0.3,0-0.7-0.1-1-0.1c-1.5-0.8-3.1-1.1-4.7-0.9
		c-0.3,0-0.7-0.1-1-0.1c-1.5-0.8-3.1-1.1-4.8-0.9c-0.3,0-0.7-0.1-1-0.1c-1.5-0.8-3.1-1.1-4.8-0.9c-0.3,0-0.7-0.1-1-0.1
		c-1.5-0.8-3.1-1.1-4.8-0.9c-0.3,0-0.7-0.1-1-0.1c-1.5-0.8-3.1-1.1-4.7-0.9c-0.3,0-0.7-0.1-1-0.1c-1.5-0.8-3.1-1.1-4.8-0.9
		c-0.3,0-0.7-0.1-1-0.1c-1.5-0.8-3.1-1.1-4.8-0.9c-0.3,0-0.7-0.1-1-0.1c-1.5-0.8-3.1-1.1-4.8-0.9c-0.3,0-0.7-0.1-1-0.1
		c-1.5-0.9-3.1-1.1-4.8-0.9c-0.3,0-0.7-0.1-1-0.1c-1.5-0.8-3.1-1.1-4.8-0.9c-0.3,0-0.7-0.1-1-0.1c-1.5-0.8-3.1-1.1-4.8-0.9
		c-0.3,0-0.6-0.1-1-0.1c-1.5-0.9-3.1-1.1-4.8-0.9c-0.3,0-0.6-0.1-1-0.1c-1.5-0.9-3.1-1.1-4.8-0.9c-0.3,0-0.7-0.1-1-0.1
		c-1.5-0.9-3.1-1.1-4.8-0.9c-0.3,0-0.7-0.1-1-0.1c-1.5-0.8-3.1-1.1-4.8-0.9c-0.3,0-0.7-0.1-1-0.1c-1.5-0.9-3.1-1.1-4.8-0.9
		c-0.3,0-0.6-0.1-1-0.1C1092.7,1147,1091.1,1146.8,1089.4,1147z"/>
	<path class="st3" d="M1222.9,1018.3c-4.2-2.4-9-3.6-13.2-5.9c-3.4-1.9-7-3.1-10.5-4.7c-5.2-2.4-10.6-4.4-15.9-6.7
		c-5.1-2.2-10.2-4.3-15.3-6.3c-8.2-3.3-16.2-6.9-24.3-10.3c-7.3-3.1-14.6-6.1-21.9-9.3c-7.7-3.4-15.5-6.8-23.4-9.9
		c-7.5-3-14.9-6.4-22.3-9.6c-2.1-0.9-3.9-1.5-6.4-0.9c-4.1,1-8.2,2-12.1,3.6c-3.5,1.4-7.4,1.9-11,3.1c-4.8,1.7-10,2.3-14.7,4.4
		c-2.4,1-5.1,1.7-7.5,2.2c-6.7,1.3-13.2,3.5-19.7,5.5c-8.6,2.7-17.4,4.9-25.9,7.8c-6.2,2.1-12.8,3.6-19.1,5.6
		c-0.6,0-1.3,0.1-1.9,0.1c-0.1-2.5,0-5.1-0.2-7.6c-0.3-2.9,0.9-4.7,3.6-5.8c14.2-5.9,28-12.7,42.1-18.7c12-5.1,24-10.3,36-15.4
		c10.2-4.4,20.6-8.5,30.9-12.7c2.6-1.1,4.9-0.3,7.2,0.9c18.5,9.2,37,18.3,55.5,27.5c17.7,8.8,35.4,17.8,53.1,26.7
		c0.7,0.3,1.4,0.7,2,1.1c0.6,1.1,1.7,0.7,2.6,0.8c0.7,0.5,1.3,1.1,2.3,1.1c8.9,5.2,18.3,9.3,27.4,14.2c5.9,3.2,11.9,6.3,17.9,9.3
		c1.4,0.7,2.7,1.8,4.4,1.6c0,1.7-1.5,1.9-2.6,2.4c-3.7,1.6-7.4,3-11.1,4.5C1227,1017.7,1225.1,1018.4,1222.9,1018.3z"/>
	<path class="st3" d="M1000.1,1711.4c8,0,16,0,24,0c1.1,0,2.2,0,3.4,0.1c1,0.1,1.2,0.9,1.2,1.8c0,0.8-0.1,1.6-1.1,1.8
		c-1.9,0.4-3.8,0.6-5.7,1c-4,0.9-6,3-6.6,7.2c-0.3,2-0.4,4.1-0.4,6.2c-0.1,7-0.1,14.1,0,21.1c0.1,2.5-0.8,3.7-3,4.6
		c-9.1,3.6-18.5,6.2-28.1,7.6c-12.2,1.8-24.6,2.5-36.7-0.7c-23.1-6-40.3-19.2-46-43.2c-10.1-42.3,20.4-72.1,49.4-76.8
		c14.1-2.3,28-2,41.4,3.6c2.6,1.1,5.4,2.1,8.1,2.9c4.9,1.5,7.4,0.4,9.4-4.3c0.8-2,1.7-3.3,4-3.2c1.1,0,1.8,0.3,1.8,1.6
		c0,12.6,0,25.3,0,37.9c0,0.8-0.2,1.7-1.2,1.7c-0.9,0.1-2,0.3-2.5-0.8c-0.6-1.1-1.1-2.3-1.5-3.5c-3.7-9.1-9.1-16.8-17.2-22.6
		c-8.9-6.3-18.8-8.9-29.5-7.4c-13.1,1.8-21.6,9.6-26.5,21.5c-3.4,8.2-4.8,16.9-5.5,25.7c-0.9,11.7,0.1,23.3,3,34.7
		c6.1,24.4,26.5,30,44,26.1c8.1-1.8,8.1-1.9,8.1-10.2c0-5.9,0-11.8,0-17.7c0-8-1.1-12.2-12.4-13.1c-0.3,0-0.6,0-1,0
		c-1.1,0-1.8-0.4-1.8-1.7c0-1.4,0.6-2.1,2-2c1,0,1.9,0,2.9,0C984.1,1711.4,992.1,1711.4,1000.1,1711.4z"/>
	<path class="st3" d="M1190.7,937.6c6.4,4.9,13.8,8.2,20.5,12.6c4.4,2.8,8.9,5.4,13.4,8c1.3,0.8,2.6,1.9,4.3,1.8
		c-0.3,0.5-0.4,1.4-0.8,1.6c-5.5,2.9-10.7,6.6-16.7,8.5c-6-3.5-12.1-6.9-18.3-10.1c-9.7-4.9-19.1-10.2-28.7-15.2
		c-7.5-4-15-7.9-22.6-11.8c-9.5-5-18.9-10.1-28.3-15c-7.3-3.8-14.6-7.5-21.9-11.4c-5.7-3-11.2-6.1-16.8-9.2
		c-1.2-1.9-2.4-1.2-3.7-0.1c-6.2,1.7-11.9,4.5-17.9,6.7c-7.1,2.6-14.1,5.3-21.2,8c-9.9,3.8-19.7,7.7-29.6,11.5
		c-7.1,2.8-14.3,5.5-21.4,8.2c-6,2.3-12.1,4.1-17.8,7c-2,1-4.2,0.5-6.1,1.6c1.2-1.7,0.8-3.6,0.7-5.3c0-2.1,0.7-3.1,2.6-4.4
		c11.7-7.8,23.9-14.8,36.1-21.9c18.3-10.7,36.9-20.9,55.6-31.1c5.3-2.9,10.9-5.3,15.9-8.6c2.6-1.7,4.5-1.6,6.8-0.2
		c6.2,3.7,12.5,7.4,18.7,11.1c19.1,11.4,38.2,22.7,57.2,34.1c11.2,6.7,22.5,13.4,33.7,20.1c1.5,0.9,2.9,2,4.8,1.8
		C1188.9,937.3,1189.5,937.8,1190.7,937.6z"/>
	<path class="st3" d="M1529,1254.4c-3.2,0.3-5.5,2.1-7.7,4.2c-5.5,5.1-9.9,11.3-14.8,16.9c-6,6.8-11.5,14.1-17.4,20.9
		c-1.5,1.7-1.4,3-0.3,4.5c9,13.2,17.9,26.4,26.9,39.6c3.2,4.7,6.6,9.3,9.9,14c3.2,4.4,6.5,8.7,12.5,9.4c1.2,0.2,1.4,1.1,1.4,2.1
		c0.1,1.3-0.7,1.6-1.8,1.6c-0.8,0-1.6,0-2.4,0c-16.5,0-33,0-49.4,0c-0.8,0-1.6,0-2.4,0c-0.9,0-1.6-0.3-1.5-1.3c0-0.9-0.1-2,1.2-2.3
		c1.4-0.3,2.8-0.3,4.2-0.7c2.1-0.6,3.2-1.7,4.3-3.3c1.5-2,0.2-3.4-0.6-5c-3.6-7.6-9-14.1-13.6-21.1c-2.7-4.2-5.7-8.2-8.8-12.5
		c-2.9,2.9-5.4,6.1-7.9,9.3c-4.7,6-9.9,11.6-14.2,17.9c-0.3,0.4-0.7,0.7-0.9,1.1c-4.6,7.3-1.9,13,6.7,14.1c1.6,0.2,3.2,0.2,4.8,0.2
		c1.2,0,1.6,0.7,1.6,1.9c0,1.2-0.5,1.8-1.7,1.8c-0.6,0-1.3,0-1.9,0c-12.8,0-25.6,0-38.4,0c-0.5,0-1,0-1.4,0c-1,0-1.9-0.2-2-1.5
		c-0.1-1.3,0.2-2.1,1.6-2.4c1.5-0.3,3-0.9,4.5-1.4c4.6-1.5,7.9-4.7,11.3-7.9c6.7-6.5,12.4-14,18.3-21.2c3.7-4.5,7.4-9,11.2-13.5
		c0.5-0.6,1.2-1.1,1.7-1.7c2.4-3.1,2.2-3.4-0.2-6.8c-4.1-5.9-8-11.9-12.1-17.9c-7.2-10.6-14.4-21.2-21.6-31.8
		c-2.3-3.4-5.3-7.3-10.4-7.3c-1.2,0-1.4-1.3-2.2-1.7c-0.9-0.5-0.9-1.2-0.8-2c0.2-1.1,1.1-0.9,1.8-1c1-0.1,1.9-0.1,2.9-0.1
		c16.8,0,33.6,0,50.4,0c1,0,1.9,0,2.9,0c0.9,0,1.5,0.4,1.5,1.4c0,1-0.1,2-1.4,2.1c-1.4,0.1-2.9,0.1-4.3,0.2c-5.7,0.5-8,4.8-4.8,9.6
		c3.8,5.8,7.7,11.5,11.5,17.4c2.5,3.8,4.6,7.9,7.7,11.6c3.8-2.3,6-6.1,8.5-9.3c3.6-4.5,7.5-8.8,10.5-13.9c1.2-2,1.9-4.2,2.9-6.2
		c0.8-1.7-1.4-5.5-3.2-6.5c-0.9-0.5-2.2-0.6-2.9-1.6c-1.9-1.8-4.2-0.8-6.4-1.1c0-3.5,0-3.6,2.9-3.6c12.4,0,24.7,0,37.1,0
		c3,0,3,0.1,3,3.5C1533.3,1253.5,1531,1253,1529,1254.4z"/>
	<path class="st3" d="M1221.8,1564.4c-0.6-2.3-0.1-3.7,2.7-3.5c2.6,0.2,5.2,0,7.5-1.1c3.6-1.6,5-5,5.7-8.6c0.3-1.4,0.3-2.9,0.3-4.3
		c0-28.1-0.1-56.2,0.1-84.2c0-4.3-1.5-7.6-4.7-10.2c-0.8-0.6-1.8-1-2.7-1.5c-2.8-1.7-5.8-0.8-8.7-0.9c-0.4-3.6-0.4-3.6,2.7-3.6
		c30.8,0,61.7,0,92.5-0.1c2.3,0,3.1,0.7,3,3c-0.1,9.9,0,19.8-0.1,29.7c0,1,0.3,2.3-1.4,2.6c-1.5,0.2-2.1-0.4-2.7-1.9
		c-1.1-3.1-1.8-6.4-3.2-9.4c-3.5-7.9-9-13.1-17.7-14.8c-0.3-0.1-0.5-0.4-0.7-0.6c-2.3-1.4-4.8-1.1-7.3-0.9
		c-5.7-0.5-11.5-0.2-17.2-0.4c-2.5-0.1-3.3,0.6-3.2,3.2c0.1,9.6,0.1,19.2,0.1,28.7c0,4.2,0.2,8.3-0.1,12.4c-0.2,2.7,0.9,3.2,3.3,3.1
		c7.1-0.2,12.3-3.4,15.8-9.5c2.5-4.4,4.2-9,4.3-14.1c0-1.3,1.2-2.1,1.2-3.5c0-0.8,1.3-0.6,2.1-0.6c1,0,1.4,0.5,1.5,1.4
		c0.1,1,0.1,1.9,0.1,2.9c0,17.7,0,35.4,0,53.2c0,0.8,0,1.6,0,2.4c0,1.2-0.2,2.1-1.8,2.2c-1.4,0-1.8-0.6-2.1-1.9
		c-0.8-3.7-1.8-7.3-2.8-10.9c-1.6-6.1-5.6-10.3-11.1-13.1c-1.2-0.6-2.9,0.8-3.9-0.9c-2-0.8-4.1-1.5-6.2-0.1
		c-0.4,13.6-0.4,27.1,0.1,40.7c0.2,6,1.2,7.5,7.2,8.1c10.5,1,21.1,1.2,30.9-4.2c7.9-4.3,13.7-10.2,16.8-18.8c0.6-1.7,1.5-3.3,2-5.1
		c0.5-1.4,1.5-2.8,3.5-2.2c2,0.6,0.9,2.2,0.8,3.2c-1.5,11.4-3.2,22.8-4.8,34.1c-1,0-1.9,0.1-2.9,0.1
		C1287.7,1564.4,1254.8,1564.4,1221.8,1564.4z"/>
	<path class="st3" d="M1297.7,1367.7c-0.4-1.9-0.6-3.6,2.2-3.4c1.1,0.1,2.2,0,3.3-0.1c6.3-0.6,9.5-3.7,10.3-10.1
		c0.1-1.1,0.2-2.2,0.2-3.3c0-28.2,0-56.4,0-84.7c0-5.6-2.4-9.5-7.4-11.7c-2.8-1.7-5.8-0.7-8.7-0.9c-0.9-2.2-0.8-3.8,2.2-3.7
		c1,0,1.9,0,2.9,0c29.1,0,58.2,0,87.3,0c1.1,0,2.2,0.1,3.4,0c2-0.2,2.5,0.8,2.4,2.6c0,5.3,0,10.5,0,15.8c0,4.5,0.1,9,0,13.4
		c0,1.2,0.7,3.1-1.4,3.4c-2.3,0.4-3.4-1.6-3.3-3c0.2-3-1.3-5.3-2.3-7.8c-3-8.1-8.7-13.3-17.3-15.1c-0.4-0.1-0.8-0.5-1.2-0.8
		c-2.6-1.5-5.5-1.1-8.3-1c-5.6-0.5-11.2-0.1-16.7-0.3c-1.9-0.1-2.9,0.4-2.8,2.6c0.1,14.1,0.1,28.1,0,42.2c0,2.2,0.8,2.7,2.8,2.6
		c7.4-0.1,12.9-3.3,16.4-9.7c2.8-5,4.4-10.4,5.2-16.1c0.2-1.2,0.3-2.1,1.9-2c1.5,0.1,1.9,0.8,1.9,2.1c0,1,0,1.9,0,2.9
		c0,17.4,0,34.8,0,52.2c0,1.3,0,2.6-0.1,3.8c-0.1,1-1,1-1.8,1c-0.8,0-1.6,0-1.7-1.1c-0.4-4.5-2.4-8.6-3.6-12.9
		c-1.6-5.6-5.3-8.9-10-11.6c-1.4-0.8-3.3,0.7-4.3-1.2c-2-0.8-4.1-1.5-6.2-0.1c-0.4,13.7-0.4,27.4,0,41.1c0.2,5.1,1.8,7.2,6.7,7.7
		c12.8,1.1,25.5,1,36.4-7.2c5.3-4,9.4-9,11.7-15.4c0.7-2,1.7-3.9,2.3-5.9c0.6-1.8,1.8-2,3.3-1.8c1.7,0.3,1,1.7,0.9,2.7
		c-1,7.7-2.1,15.5-3.2,23.2c-0.5,3.8-1.1,7.6-1.7,11.4c-1.1,0.1-2.2,0.1-3.3,0.1C1363.2,1367.7,1330.4,1367.7,1297.7,1367.7z"/>
	<path class="st3" d="M1494.4,1707.4c-0.3,0-0.7,0-1,0.1c-6.5,0-13.1,0.1-19.6,1c-0.1,0.1-0.2,0.3-0.2,0.4
		c-0.5,12.9-0.6,25.9,0,38.8c0.3,7.1,3.1,9.3,10.2,9.8c1.1,0.1,2.2,0.3,3.3,0.2c2.6,0,2.8,1.5,2.3,3.5c-19.8,0-39.6,0.1-59.5,0.1
		c-1.1-2.6,0-3.5,2.6-3.6c4.2-0.1,7.9-1.2,11-4.3c1.1-1.1,1.8-2.1,1.9-3.6c0.1-2.9,0.4-5.7,0.4-8.6c0-25.6,0-51.1,0-76.7
		c0-3.8-0.2-7.5-1.2-11.2c-0.5-1.7-1.8-2.4-3-3.4c-1.3-1-3.1-0.6-4.3-1.8c-2.3-1.5-4.9-0.8-7.3-1c-0.8-2.3-0.4-3.6,2.5-3.6
		c20,0.3,40-0.8,59.9,0.7c7.1,0.5,14,2.1,20.4,5.5c17.5,9,21.5,33.1,6.8,47.1c-4.6,4.4-10.1,7.6-16.5,8.8c-0.7,0.1-1.4,0.6-2.1,1
		C1498.8,1706.3,1496.6,1706.6,1494.4,1707.4z M1473.3,1675.3c0,7.5,0,15,0,22.5c0,1.4-0.3,2.9,1.9,3.1c11.1,0.7,19.8-3.5,22.8-14.6
		c1.9-7.2,1.9-14.6,0-21.8c-1.9-7.3-6.8-11.8-14.1-13.4c-2.5-0.6-5.1-0.5-7.6-0.7c-2.3-0.2-3.1,0.6-3,3
		C1473.4,1660.6,1473.3,1668,1473.3,1675.3z"/>
	<path class="st3" d="M963.7,1564.4c-1.7-1.9-1-3.1,1.1-3.6c1.4-0.3,2.9,0,4.3-0.2c6.7-1.3,10-5.1,11.7-12.4
		c0.5-2.1,0.3-4.5,0.3-6.7c0-24.9-0.2-49.8,0.1-74.8c0.1-6.7-3.6-10.3-8.1-13.8c-2.2-1.7-5.1-1.7-7.5-2.8c-0.8-0.4-2-0.2-2.4-1.2
		c-0.5-1-0.8-2.2,1-2.4c1.1-0.1,2.2-0.1,3.3-0.1c11.5,0,23,0.1,34.5-0.1c2.7,0,4.4,0.8,6,2.8c12.3,15.6,24.6,31,36.9,46.6
		c5.2,6.6,10.4,13.2,15.6,19.8c0.7,0.9,1.6,1.7,2.4,2.6c0.9-1.2,0.6-2.2,0.6-3.1c0-15.5,0-31,0-46.5c0-2.4,0-4.8-0.6-7.1
		c-1.2-5.2-4.3-8.6-9.4-10.2c-1.9-1.7-4.2-0.9-6.4-1c-1.1-1.1-0.8-2.3-0.4-3.7c12,0,24.1,0.1,36.1-0.1c3.1,0,2.8,1.6,2.5,3.6
		c-1.6,0.1-3.2,0.1-4.7,1.1c-6,0.6-8.6,3-9.8,8.5c-0.8,3.8-0.8,7.6-0.8,11.4c0,30.2,0,60.4,0,90.6c0,1.7,0.3,3.5-0.3,5.2
		c-2.9,1.1-4.5-1-6-2.8c-4.4-5.3-8.8-10.7-13.1-16.1c-5.1-6.4-10.3-12.7-15.4-19.1c-9.5-11.7-19.3-23.3-28.4-35.3
		c-5.2-6.8-10.7-13.4-16-20.2c-0.7-1-1.3-2.2-2.8-2.7c-0.6,1.2-0.3,2.5-0.3,3.6c0,22.7,0,45.4,0,68.1c0,2.6,0.2,5.1,0.7,7.6
		c1.1,5.8,5.7,10,11.7,10.5c1,0.1,1.9,0.2,2.9,0.1c2.9-0.4,3.2,1.3,2.8,3.5C991.7,1564.3,977.7,1564.4,963.7,1564.4z"/>
	<path class="st1" d="M1807.3,587.6c-0.1-1.8-0.2-3.5-0.2-5.3c0-32.8,0-65.6,0-98.3c0-1.1,0-2.2,0-3.4c0-1.8,0.8-2.6,2.6-2.6
		c5.1,0,10.2,0,15.3,0c2.2,0,2.9,1.3,3.5,3.2c3.4,10.9,6.9,21.8,10.3,32.7c5.6,17.7,11.1,35.5,16.8,53.2c0.3,1.1,0.1,2.6,1.9,3.4
		c1.9-9.2,5.4-17.8,8.2-26.6c6.6-20.7,13.2-41.3,20.3-61.7c1.6-4.7,0.4-4.1,5.9-4.2c3.7,0,7.4,0.1,11,0c2.2-0.1,3.3,0.7,3.2,3
		c-0.1,1,0,1.9,0,2.9c0,32.8,0,65.6,0,98.3c0,1.1,0,2.2,0,3.4c0.1,1.8-0.8,2.6-2.6,2.6c-2.9,0-5.8,0-8.6,0c-1.7,0-2.2-0.9-2.2-2.4
		c0-1.1,0-2.2,0-3.4c0-25.3,0-50.5,0-75.8c0-1.7,0.3-3.4-0.4-5.3c-2,1-1.9,2.9-2.4,4.2c-8.4,25.2-16.8,50.4-25.2,75.6
		c-2.8,8.4-1.9,7-9.9,7c-4.7,0-4.8,1.3-6.6-5.1c-1.9-6.8-4.5-13.5-6.7-20.3c-6.4-19.7-12.7-39.4-19.1-59.1c-0.5-1.6-0.6-3.1-1-4.6
		c0-1.2-0.4-2.2-1.5-3c-0.4,1.3-0.2,2.2,0,3.1c-0.1,1.9-0.2,3.8-0.2,5.7c0,25.7,0,51.3,0,77c0,1.9-0.1,3.8-0.2,5.7
		C1815.6,587.6,1811.5,587.6,1807.3,587.6z"/>
	<path class="st0" d="M828.2,538.3c-0.9,0.7-1.8,1.5-2.7,2.2c-0.5,0.1-0.7,0.3-0.8,0.8c0,0-0.2,0.1-0.2,0.1c-0.5,0-0.8,0.3-0.9,0.8
		c0,0-0.1,0.1-0.1,0.1c-0.6,0-0.8,0.3-0.9,0.9c0,0-0.1,0.1-0.1,0.1c-0.5,0.1-0.8,0.3-0.9,0.9c-0.3,0.4-0.7,0.8-1,1.1
		c-0.5,0-0.8,0.3-0.8,0.8c-1.8,1.8-3.3,3.8-4.1,6.1c-0.5,1.6-1.7,2.6-2.8,3.7c-2.6,0.5-5.1-0.2-7.7-0.2c0,0-0.1,0-0.1,0
		c-1.1-0.9-2.4-1-3.8-0.9l-0.4-0.2c0,0-0.5,0-0.5,0c-1.2-0.9-2.5-1-3.9-0.8c-0.3,0-0.6-0.1-1-0.1c-1.8-1.1-3.8-1-5.7-0.9
		c0,0-0.1,0-0.1,0c-3.4-1.2-6.9-1.2-10.4-1c0,0-0.1,0-0.1,0c-4.8-1.3-9.8-0.9-14.7-1c-19-0.2-37.9,1.7-56.8,3.4
		c-23.6,2.1-47.1,2.4-70.8,0.9c-16.9-1.1-33.8-1.9-50.7-1.5c-5.1,0.1-10.2-0.2-15.2,1.1c0,0,0,0,0,0c-3.2-0.1-6.5-0.3-9.6,0.9
		l-0.5,0c0,0-0.4,0.1-0.4,0.1c-3.2-0.1-6.4,0.2-9.6,0.9c-9.2-3.6-18.2-7.7-27.5-11c-5.3-1.9-10.7-3.2-15.8-5.5
		c-0.5-0.2-1.2,0.1-1.9,0.2c-0.3-0.3-0.6-0.6-1-0.9c0,0,0-0.1,0-0.1c0.1-0.7-0.4-0.9-0.9-1c-0.2-0.7-0.4-1.3,0-2
		c0.7-0.1,1.2-0.3,1.6-0.9c4-2.5,8.4-2.7,12.9-2.8c2.8,0.8,5.7,0.9,8.5,0.8c1.3,0.1,2.6,0.1,3.9,0.2c7.3,1.2,14.6,1.7,22,1.7
		c1,0.1,2,0.1,2.9,0.2c3.5,0.8,7,1,10.5,0.8c1.6,0.1,3.2,0.1,4.8,0.2c3.8,1.1,7.6,1,11.5,0.8c1.3,0.1,2.6,0.1,3.9,0.2
		c4.8,0.9,9.6,0.9,14.4,0.7c3.5,0.1,7.1,0.2,10.6,0.3c0.8,0.1,1.5,0.4,2.3,0.4c23.4,0.8,46.8,0.3,70.2,0.2c3,0,6,0.2,9-0.7
		c2.6,0.1,5.2,0.1,7.8-0.3c3.9,0.3,7.7,0.2,11.5-0.7c1-0.1,1.9-0.1,2.9-0.2c3.2,0.2,6.5,0.3,9.6-0.8c1.3-0.1,2.6-0.1,3.9-0.2
		c2.9,0.3,5.8,0,8.6-0.8c1.3-0.1,2.6-0.2,3.9-0.3c6.7-0.1,13.5-0.5,20.1-1.7c1.6-0.1,3.2-0.2,4.8-0.2c4.2,0.1,8.3,0.1,12.4-0.8
		c1,0,1.9-0.1,2.9-0.1c1.4,0,2.8,0.1,4.3,0.1c8.9-0.1,17.7-0.3,26.6-0.4c5.7,0,11.4,0.7,17.1,0.2c0.6,0.1,1.2,0.2,1.9,0.2
		c1.7,0,2.6,0.4,1,2c-0.3,0.3-0.6,0.7-0.9,1.1c-0.4,0.1-0.7,0.3-0.8,0.8c0,0-0.2,0.1-0.2,0.1c-0.5,0-0.8,0.3-0.9,0.8
		c0,0-0.1,0.1-0.1,0.1C828.7,537.6,828.4,537.9,828.2,538.3z"/>
	<path class="st4" d="M1187.7,1142.5c-1-0.1-2.1-0.3-3.1-0.4c8.9-3.1,18.2-4.9,27.2-7.4c12.8-3.4,25.7-6.5,38.5-9.8
		c1.4-0.3,2.8-0.6,3.6-2c2.9,0.3,5.6-0.1,8.4-0.9c6.4-1.9,12.9-3,19.2-5.3c0.9-0.2,2-0.2,2.8-0.6c7.1-3,14.3-2.4,21.7-0.8
		c19.2,4.2,38.5,8.3,57.8,12.4c14,3,28.1,5.9,42.1,8.8c4.1,0.9,4.1,0.9,4.1,5.2c0,7.3,0,14.7,0,22.7c-4.3-1.6-8.4-1.3-12.3-2.1
		c-4.2-0.8-8.5-1.5-12.8-2.3c-3.3-0.6-6.6-0.8-9.9-1.9c-1.7-0.5-3.4-0.8-5.2-0.9c-4-0.3-7.9-0.9-11.8-2.1c-3.7-1.2-7.7-1.2-11.6-1.8
		c-4.4-0.7-8.7-1.6-13.1-2.3c-4.3-0.7-8.8-1.5-13.1-2.4c-3.7-0.7-7.2-2.3-11-2.3c-1.1,0-2.2-0.3-3.3-0.4
		c-37.1-1.1-74.1-2.2-111.2-3.3c-0.6,0-1.3,0.1-1.9,0.2C1191.2,1142.1,1189.4,1142.6,1187.7,1142.5z"/>
	<path class="st3" d="M1347.6,1763.1c-14.4-1.6-25.6-9.8-30.1-24.3c-1.6-5-1.6-10.7-1.6-16.1c0.1-19,0-38,0-57.1c0-3,0-6.1-0.2-9.1
		c-0.4-5.3-4.5-9.3-9.8-9.6c-1.3-0.1-2.6-0.1-3.8-0.1c-1.3-0.1-1.5-1-1.4-2c0-0.9,0.4-1.5,1.4-1.5c1,0,1.9-0.1,2.9-0.1
		c17.6,0,35.2,0,52.7,0c1,0,1.9,0,2.9,0.1c1,0,1.3,0.7,1.3,1.6c0,1.1-0.2,1.9-1.5,2c-1.8,0.1-3.5,0-5.3,0.1
		c-7.5,0.3-10.2,3.2-10.4,10.2c-0.1,1.9-0.1,3.8-0.1,5.8c0,20.3,0,40.6,0,60.9c0,4,0.4,8,0.5,12c0.4,9.3,8.2,17,17.5,18.5
		c11.6,1.9,22.9-2,29.5-12c3.3-5,5-10.7,5.3-16.7c0.4-5.7,0.7-11.5,0.7-17.2c-0.1-13.3-0.1-26.5,0-39.8c0-4.7,0-9.5-1.6-14
		c-1.2-3.5-3.8-6.1-7.6-6.5c-1.2-0.1-2-0.8-3-1c-1.6-0.3-3.1-0.7-4.7-1c-0.2-1.7-0.2-3.1,2.3-3.1c12.1,0.1,24.3,0.1,36.4,0
		c2.5,0,2.5,1.3,2.1,3.1c-1.7,0.3-3.6-0.2-5.2,0.8c-4.5,0.8-8.4,2.3-10.1,7.2c-0.4,1.2-0.6,2.4-0.8,3.7c-0.5,4.6-0.3,9.3-0.4,13.9
		c-0.2,17.1,0.4,34.2-0.4,51.3c-0.2,4.2-0.6,8.3-1.5,12.4c-2.2,11.1-9.6,18.1-19,23.6c-4.2,2.4-8.9,2.8-13.3,4.4
		c-2-0.2-3.9,0.1-5.8,0.8c-3.8,0-7.6,0-11.4,0C1352.1,1763.2,1349.9,1762.9,1347.6,1763.1z"/>
	<path class="st3" d="M1378.3,1566.5c-4.6-0.4-8.7-2.4-12.9-4.1c-2.5-1-5.2-1.6-8-1.8c-3.1-0.3-5.1,1.2-6.9,3.4
		c-0.5,0.6-0.7,1.4-1.2,2c-0.6,0.8-1.5,1.2-2.6,1c-1.3-0.3-1.2-1.3-1.2-2.3c0-13.4,0-26.8,0-40.3c0-1.2,0.1-2.2,1.8-2.1
		c1.4,0,1.9,0.7,2.1,2c1.7,8.4,4.8,16.3,10.5,22.9c8.3,9.7,18.7,15.1,31.7,13.3c7.6-1,16-8.9,16.4-16.3c0.3-4.8-2-8.7-5.1-12.1
		c-5.4-6-12.7-9.2-19.7-12.8c-6.3-3.2-12.7-6.4-18.7-10.2c-7.2-4.5-12.8-10.5-16.7-18c-1.4-2.8-2.1-6-2.1-9.3
		c-0.1-5-0.7-10.2,1.2-14.9c4.8-12.3,13.6-19.9,26.8-22.4c11-2.1,21,0.7,30.7,5.1c1.4,0.6,2.7,1.5,4.3,1.8c4.1,0.7,6-0.2,7.1-4.1
		c0.3-0.9,0.6-1.7,0.9-2.5c0.3-1,1-1.1,1.9-1c0.7,0.1,1.1,0.7,1.3,1.3c0.2,0.8,0.2,1.6,0.2,2.4c0.2,11.7,0.5,23.3,0.7,35
		c0,0.3-0.2,0.6-0.3,0.9c-1.3,0-2.6,0-3.8-0.5c-0.9-3-1.9-5.9-2.8-8.9c-1.6-5.2-4.9-9.5-8.7-13.1c-4.6-4.4-9.9-7.8-16.4-9
		c-0.4-0.1-0.8-0.4-1.2-0.7c-2.8-1.1-5.6-1.1-8.5,0c-4.4,0.5-7.9,2.4-11.1,5.5c-4.3,4.1-5,13.4-0.3,18.7c3.7,4.1,8.1,7.1,12.9,9.6
		c9,4.7,18.1,9,26.7,14.4c7,4.4,13.4,9.4,17.2,17.2c6.3,13,3.6,27.2-5.5,37.4c-4.4,5-10,8.3-15.9,11c-2.1,1-4.7,0.5-6.8,1.7
		c-2.3-0.2-4.5,0.3-6.7,0.8c-1.6,0-3.3,0-4.9,0C1382.7,1566.8,1380.5,1566.3,1378.3,1566.5z"/>
	<path class="st3" d="M1003,1369.7c-6.1-0.3-11.4-3.4-17-5.3c-5.3-1.7-8.4-0.7-11.1,3.8c-0.6,1-0.7,2.8-2.9,2.1
		c-1.8-0.6-1.5-1.8-1.5-3c0-13,0-25.9,0-38.9c0-1.2-0.5-2.7,1.5-2.9c2.1-0.2,2.2,1.3,2.5,2.7c1.5,6.7,3.9,13,7.8,18.7
		c5.5,8.1,12.7,14,22.4,16.3c7.4,1.8,14.8,1.3,20.9-3.4c8.1-6.2,9.9-16.3,1.9-24.9c-4.5-4.8-10.3-7.6-15.9-10.6
		c-7.6-4-15.3-7.6-22.5-12.3c-7.5-5-13.9-10.9-16.7-19.8c-4.1-12.9-2-24.7,7.3-34.7c5.2-5.6,12-8.4,19.5-9.8c10.7-2,20.4,0.6,30,5
		c1.4,0.7,2.8,1.4,4.3,1.8c3.7,1,5.9,0,7.2-3.6c0.6-1.4,0.3-3.9,2.4-3.8c2.9,0.1,2,2.7,2,4.4c0.3,11.5,0.5,23,0.7,34.5
		c-1.1,0.1-2.2,0.2-3.3,0.2c-0.9-1.6-1.5-3.3-2-5c-2.9-8.5-7.1-16.3-15.1-21.5c-3.9-2.5-8-4-12.3-5.5c-3-1.3-6-1.2-9-0.1
		c-6.5,1-11.7,3.8-13.6,10.6c-0.4,0.2-0.7,0.5-0.4,1c-2.1,8.2,2.4,13.3,8.4,17.5c6.6,4.7,14.1,7.8,21.1,11.6c8.5,4.5,17.1,9,24,15.9
		c12.7,12.6,12.6,33.7,0.2,46.3c-3.4,3.4-7.1,6.4-11.1,8.9c-2.3,1.4-5.3,1.9-8,2.5c-1,0.2-1.8,0.6-2.6,1.1c-2.6-0.2-5.1,0.4-7.6,0.9
		c-1.9,0-3.8,0-5.8,0C1006.9,1369.9,1005,1369.5,1003,1369.7z"/>
	<path class="st4" d="M1211.3,970.2c6-1.9,11.2-5.6,16.7-8.5c0.4-0.2,0.6-1.1,0.8-1.6c1.3-0.4,2.7-0.6,3.9-1.3
		c17.8-9.8,35.6-19.5,53.6-28.9c2.7-1.4,5.2-3.8,8.1-4.1c3-0.4,5.8,2.2,8.6,3.6c16.7,8.1,33.3,16.6,50.2,24.5
		c13,6.2,25.8,12.6,38.7,19c5.1,2.5,10.3,4.9,15.5,7.3c1.7,0.8,2.7,1.7,2.7,3.9c-0.2,6.1,0,12.2-0.1,18.2c0,2.8-0.5,2.9-3.1,1.8
		c-7.3-3.2-14.6-6.4-21.8-9.7c-9-4.1-18.2-8-27.3-11.9c-6.6-2.8-13-6.1-19.8-8.5c-6.3-2.3-12.2-5.5-18.4-8.3c-6.7-3-13.8-5.4-20.2-9
		c-5.8-3.2-10.6-0.6-15.7,0.8c-14.3,3.8-28.6,7.8-42.9,11.8c-9.5,2.7-18.9,5.7-28.5,8c-5.9,1.4-11.6,3.9-17.7,4.6
		c-0.6,0.1-1.1,0.6-1.7,0.9c-0.9-0.1-1.7-0.1-2.3,0.8c-0.9-0.1-2,0.3-2.6-0.8C1195.8,978.7,1203.5,974.4,1211.3,970.2z"/>
	<path class="st3" d="M1248.8,1258.2c0,11-0.1,22.1-0.1,33.1c0,19.7,0,39.3,0.1,59c0,1.8,0,3.5,0.2,5.3c0.6,5.1,3.5,7.8,8.7,8.3
		c1.6,0.1,3.2,0.1,4.8,0.1c1.3,0,2.6-0.2,2.7,1.8c0.1,2-1.2,1.9-2.5,1.9c-1.8,0-3.5,0-5.3,0c-16.3,0-32.6,0-48.9,0
		c-1.1,0-2.2,0-3.4,0c-1.2,0-1.6-0.7-1.6-1.8c0-1.1,0.5-1.8,1.7-1.8c0.8,0,1.6,0,2.4,0c8.5-0.2,12.3-3.9,12.3-12.5
		c0.1-23.3,0.1-46.7,0.1-70c0-7.2-0.1-14.4,0-21.6c0-2.3-0.4-3.5-3.1-3.4c-4.1,0.2-8.3-0.2-12.4,0.9c-1.1-0.2-2.1-0.1-3,0.8
		c-9,2.1-12.5,9.3-15.2,17c-0.5,1.4-1.2,2.9-1.1,4.6c0.1,1.6-1.1,2.2-2.6,2c-1.3-0.1-1.2-1.3-1.2-2.2c0-9.3,0-18.5,0-27.8
		c0-1.7,0.8-2.2,2.3-2.1c1,0.1,1.9,0,2.9,0c31.8,0,63.6,0,95.5,0c1,0,1.9,0.1,2.9,0c1.9-0.2,2.7,0.8,2.6,2.5c0,9.4,0,18.9-0.1,28.3
		c0,0.4-0.4,0.9-0.6,1.3c-0.9-0.1-1.7-0.1-2.6-0.2c-1-2.9-2-5.8-3.1-8.6c-2.7-6.5-7-11.6-13.6-14.7c-0.9-1.4-2.3-1-3.5-0.9
		c-0.6,0-1.2-0.1-1.9-0.1c-4-1.1-8.2-0.4-12.3-0.6C1248.9,1256.6,1248.7,1257.3,1248.8,1258.2z"/>
	<path class="st4" d="M1236.3,1071.2c2.4,0.1,4.7-0.3,6.9-1.1c4.6-1.6,9.2-3.1,13.9-4.5c1.2-0.4,2.5-0.5,3-1.9
		c6.2-0.8,11.9-3.5,17.9-5.1c5.2-1.4,10.3-3,15.3-4.9c2.1-0.8,3.9-0.8,6-0.2c21.9,6.5,43.8,12.9,65.7,19.3
		c13.6,4,27.2,7.8,40.8,11.8c4.3,1.2,4.3,1.3,4.3,5.7c0,6.4,0,12.7,0,19.2c-4.9,0.6-9.1-1.4-13.4-2.4c-9.8-2.3-19.4-5.4-29.3-7.8
		c-9.2-2.2-18.4-4.8-27.5-7.2c-9-2.4-18.2-4.2-27-7.2c-4.4-1.5-9.1-1.6-13.3-3.7c-0.9-0.4-2.2,0-3.3,0.1
		c-19.5,1.1-38.9,2.1-58.4,3.4c-14,0.9-28.1,1.2-42.1,2.8c-1.7-0.2-3.5,0.4-5-0.7c13.8-4.5,27.6-9.1,41.5-13.6
		C1233.8,1072.7,1235.3,1072.4,1236.3,1071.2z"/>
	<path class="st3" d="M1524.2,1454.1c-4.4-0.8-8.9-0.4-13.4-0.5c-1.7-0.1-2.2,0.8-2.1,2.3c0.1,0.8,0,1.6,0,2.4c0,29,0,58.1,0,87.1
		c0,1.9,0,3.8,0.1,5.7c0.4,6.1,3.4,9.1,9.6,9.5c1.3,0.1,2.6,0.3,3.8,0.1c2.9-0.3,3.1,1.3,2.8,3.5c-20.4,0-40.9,0.1-61.3,0.1
		c-0.7-2.2-0.6-3.8,2.4-3.6c1.9,0.1,3.9,0.1,5.7-0.4c4.7-1.4,7.3-4.8,7.9-9.7c0.2-1.4,0.2-2.9,0.2-4.3c0-29.8,0-59.6,0-89.4
		c0-0.9-0.2-1.9-0.3-2.8c-4.4-1.7-8.8-1-13.2-0.1c-0.6,0.1-1.2,0.1-1.8,0.2c-1.4-0.3-2.6,0.1-3.7,0.9c-7.4,1.6-10.9,7.2-13.5,13.6
		c-1.3,3.1-2,6.5-3,9.8c-0.9,0.1-1.8,0.1-2.7,0.2c-0.9-5.2-0.2-10.5-0.4-15.7c-0.1-4.6,0-9.3,0-13.9c0-1.7,0.3-2.8,2.4-2.6
		c0.9,0.1,1.9,0,2.9,0c31.9,0,63.8,0,95.8,0c1,0,1.9,0.1,2.9,0c1.6-0.1,2.3,0.4,2.3,2.1c0,9.3,0,18.5,0,27.8c0,1.1,0.2,2.3-1.5,2.4
		c-1.3,0.1-1.8-0.4-2.4-1.6c-0.9-1.5-1.4-3.2-1.7-4.7c-1.8-8.3-7.2-13.4-14.1-17.4C1526.7,1453.9,1525.5,1453.9,1524.2,1454.1z"/>
	<path class="st3" d="M1086.4,1350.2c-1.1,1.7-1,3.7-0.9,5.6c0.2,3.7,2.3,6.2,6,7.1c2.3,0.5,4.7,0.8,7.1,1c1.6,0.1,2.4,0.6,2.3,2.3
		c-0.1,1.8-1.4,1.4-2.4,1.4c-11.5,0-23,0-34.5,0c-1.1,0-2.3,0.3-2.4-1.5c0-1.3,0.3-2,1.6-2.4c6-1.9,9.7-6.3,12.8-11.7
		c3.3-5.8,5.3-12.2,8.4-18c2.4-4.3,3.9-9,6.2-13.4c2.3-4.4,3.7-9.1,5.7-13.6c2-4.3,4-8.7,6-13c2.2-4.9,4.2-9.9,6.4-14.8
		c1.5-3.4,3.1-6.7,4.8-10c2.5-4.8,3.7-10.1,6.8-14.6c1-1.4,0.8-3.3,1.7-4.8c0.7-1.4,1.7-2.5,3.1-2.5c1.2,0,1.3,1.5,1.8,2.5
		c9.9,22.8,19.7,45.6,29.9,68.3c5.3,11.8,10,23.8,16.1,35.2c0.7,1.2,1.5,2.4,2.2,3.6c2.2,3.7,5,6.5,9.6,6.8c1.4,0.1,1.9,0.8,1.9,2.1
		c0,1.7-1.1,1.7-2.2,1.7c-1,0-1.9,0-2.9,0c-15.7,0-31.3,0-47,0c-1,0-1.9,0-2.9,0c-1.4,0.1-2.1-0.4-2-1.9c0.1-1.5,1-1.8,2.2-1.8
		c2.2-0.1,4.3,0,6.4-1c4.9-2.2,5.9-2.7,4.3-7.9c0,0,0.1-0.4,0.1-0.4l-0.4-0.1c-2.5-4.2-3.7-9-5.5-13.5c-0.7-1.8-2.4-3.3-2.2-5.6
		c0.1-1.6-1.4-1.4-2.5-1.4c-3.8,0-7.7,0-11.5,0c-8.3,0-16.6,0-24.9,0c-1.4,0-2.9-0.3-3.6,1.5c-1.8,4.7-4.5,9-5.5,13.9
		c0,0-0.3,0.3-0.3,0.3L1086.4,1350.2z M1113.7,1287.6c-6.1,13.6-11.8,26.5-17.7,39.7c11.8,0,23,0,34.8,0
		C1125.1,1314.2,1119.6,1301.4,1113.7,1287.6z"/>
	<path class="st4" d="M1190.7,937.6c-1.2,0.2-1.8-0.3-1.6-1.6c3.3-0.5,5.8-2.8,8.4-4.5c17.3-10.9,34.8-21.5,52.2-32.2
		c13.9-8.5,27.8-17.2,41.6-25.9c2.1-1.3,3.6-1.6,5.9-0.2c13.5,8,27,15.8,40.6,23.6c13.1,7.6,26.3,15.1,39.4,22.7
		c10.3,5.9,20.5,11.9,30.8,17.8c1.2,0.7,2,1.4,2,2.9c-0.1,5.4,0,10.8,0,16.1c-2.2,1-3.6-0.5-5-1.2c-35.8-17.9-71.6-35.7-107.3-53.7
		c-2.7-1.4-5.1-1.6-8-0.5c-9.1,3.5-18.3,6.7-27.4,10.1c-6.9,2.5-13.9,5-20.8,7.5c-11,4-22.1,8-33,12.2
		C1202.5,933.1,1196.4,934.8,1190.7,937.6z"/>
	<path class="st3" d="M1137.4,1451.2c-1.5-0.2-2.5,0.5-3,1.8c-0.4,0.2-0.8,0.5-0.6,1c-1.2,4.6,1.3,8.4,2.9,12.2
		c7.7,18.5,15.7,36.9,23.7,55.3c0.8,1.9,1.1,4.2,2.5,5.6c1.6,0,1.6-1,1.8-1.7c2.1-5.8,5.2-11.1,7.4-16.8c2.9-7.6,6.8-14.8,9.8-22.3
		c1.5-3.8,3.1-7.7,5-11.3c2.2-4.3,3.9-8.9,5.2-13.5c1-3.4-0.1-6.5-3.5-8.5c-0.9-0.5-1.8-1.1-2.8-1.7c-1.3-1.2-2.8-1.2-4.4-1
		c-1-0.1-1.9-0.2-2.8-0.3c-1.3-0.2-1.2-1.3-1.2-2.3c0-1.1,0.7-1.3,1.6-1.3c0.3,0,0.6,0,1,0c11.2,0,22.4,0,33.6,0
		c1,0,2.4-0.4,2.5,1.3c0.1,1.4-0.1,2.1-1.9,2.6c-5.8,1.7-9.8,5.8-12.6,10.9c-6.4,11.8-11.5,24.2-17.2,36.4
		c-5.4,11.7-10.5,23.6-15.8,35.4c-4.4,9.8-8.9,19.5-13.3,29.2c-0.5,1.1-1.2,2.2-1.6,3.4c-0.5,1.3-1.3,1.6-2.5,1.6
		c-1.3-0.1-1.9-0.7-2.4-1.9c-2.4-6.1-5.2-12.1-7.6-18.2c-2.5-6.3-5.3-12.4-7.9-18.6c-2.3-5.5-4.9-10.9-7.2-16.4
		c-2.4-5.6-5.2-11.1-7.1-17c-1.2-3.8-3.4-7.3-4.8-11c-1.4-3.7-3-7.3-4.7-10.9c-2.5-5.3-4.2-11-7.3-16.1c-1.7-2.7-4-4.4-6.5-5.9
		c-0.9-1.1-2.2-1.1-3.4-0.9c-1.7-3.6-1.6-3.9,1.8-3.9c16.6,0,33.2,0,49.8,0c1.3,0,3.5-1.2,3.8,1.4c0.4,3-2.2,1.9-3.6,2.4
		C1141.7,1450,1139.5,1449.8,1137.4,1451.2z"/>
	<path class="st1" d="M1937.9,419.4c-0.1-1.8-0.1-3.5-0.1-5.3c0-32,0-63.9,0-95.9c0-1.1,0.1-2.2,0-3.4c-0.2-2.2,0.8-3.3,3.1-3.1
		c0.2,0,0.3,0,0.5,0c10.8-0.5,10.6-0.3,16.4,9.1c6.2,10.2,12.9,20.1,19.3,30.2c8.4,13.1,16.7,26.3,25.1,39.5c0.9,1.4,2,2.8,3.3,4.7
		c0.9-1.8,0.6-3.2,0.6-4.5c0-24.1,0-48.3,0-72.4c0-1.1,0.1-2.2,0-3.4c-0.2-2.2,0.8-3,3-3.1c10.3-0.6,10.3-0.7,10.3,9.8
		c0,30.8,0,61.7,0,92.5c0,1.8,0.7,3.9-0.9,5.5c-4.4,0-8.8,0-13.3-0.1c-3.3-2.9-5.1-6.8-7.4-10.4c-7.3-11.1-14.5-22.4-21.6-33.6
		c-7.2-11.4-14.4-22.8-21.6-34.2c-0.8-1.3-1.7-2.5-3.3-3.6c0,1.5,0,3,0,4.6c0,24,0,47.9,0,71.9c0,1.8,0.7,3.9-0.9,5.5
		C1946.1,419.5,1942,419.5,1937.9,419.4z"/>
	<path class="st4" d="M1222.9,1018.3c2.1,0.1,4-0.7,6-1.5c3.7-1.5,7.4-3,11.1-4.5c1.1-0.5,2.6-0.7,2.6-2.4c4.5-0.3,8.3-2.6,12.3-4.2
		c13.4-5.4,26.7-11.2,40.1-16.8c1.9-0.8,3.9-0.8,6,0c35.5,14.3,70.9,28.6,106.4,42.8c1.4,0.5,2.7,0.9,2.7,2.8c0,7,0,14,0,20.9
		c-3.9,1.2-6.6-1.3-9.6-2.3c-11.6-4.2-23.1-8.8-34.6-13.3c-11.4-4.4-22.6-9.1-34.1-13.4c-8.7-3.3-17.5-6.4-26-10.2
		c-5.1-2.3-9.8-2.4-15.3-1.3c-11.8,2.4-23.7,4.5-35.5,6.7c-11.5,2.2-23,4.1-34.5,6.2c-9.6,1.8-19.2,3.9-28.8,5.8
		c-0.9-0.1-2,0.3-2.7-0.7c10.2-4.2,20.3-8.4,30.5-12.7C1220.7,1019.8,1222.1,1019.6,1222.9,1018.3z"/>
	<path class="st1" d="M1751.9,372.4c-0.1,13.7-0.1,27.5-0.2,41.2c0,6.4,0.4,5.9-6,5.9c-8.5-0.1-7.4,1.1-7.4-7.3c0-31.3,0-62.6,0-94
		c0-1.3,0-2.6,0-3.8c-0.1-1.8,0.8-2.6,2.6-2.6c0.8,0,1.6,0,2.4,0c14.7,0,29.4,0.1,44.1,0c4.3,0,8.7,0.5,12.8,1.3
		c8.5,1.7,14.7,6.9,17.9,15c4.3,10.8,3.8,21.1-3.2,30.8c-4.2,5.7-10.3,8.4-16.7,10.4c-1.5,0.5-3.1,0.8-5,1.2
		c2.4,2.5,5.2,3.9,7.5,6.1c5.1,5,9,10.7,12.6,16.7c4.6,7.6,9.3,15.2,13.9,22.8c0.4,0.7,1.3,1.5,0.7,2.9c-4.9,0.6-10,0.2-15,0.2
		c-1.5,0-2.1-1.2-2.8-2.3c-3.3-5.4-6.6-10.8-10.1-16.2c-4.9-7.6-9.1-15.6-15.5-22.2c-3.1-3.1-6.5-5.5-10.8-6.5
		c-0.6-0.2-1.1-0.7-1.7-0.7c-6.2-0.1-12.4,0-18.6,0C1752.7,371.5,1752.2,371.8,1751.9,372.4z M1771.3,359.1
		C1771.3,359.1,1771.3,359,1771.3,359.1c4.9-0.1,9.9-0.1,14.8,0c3.1,0,6-0.6,8.9-1.6c7.1-2.3,11.2-8.2,11.3-16
		c0.1-8-3.7-13.6-11-16.1c-2.9-1-5.9-1.7-8.9-1.7c-10.5-0.2-21.1,0-31.6-0.1c-2.6,0-3.2,1.2-3.2,3.5c0.1,9.6,0.1,19.2,0,28.7
		c0,2.4,0.8,3.4,3.3,3.4C1760.4,359,1765.9,359.1,1771.3,359.1z"/>
	<path class="st3" d="M1126.7,1176.5c0.8,0.1,1.5,0.2,2.3,0.2c1.4,0.5,2.9,0.9,4.4,0.6c1,0.4,2.1,0.5,3.2,0.3c1.4,0.5,2.9,1,4.5,0.7
		c1.1,0.1,2.1,0.2,3.1,0.3c1.5,0.6,2.9,1,4.5,0.7c0.8,0.1,1.5,0.2,2.3,0.2c1.4,0.5,2.9,0.9,4.4,0.7c1.1,0.1,2.1,0.2,3.2,0.3
		c1.4,0.5,2.9,1,4.5,0.6c1,0.4,2.1,0.5,3.2,0.3c1.1,0.5,2.3,0.8,3.5,0.5c1.3,0.5,2.7,0.6,4.1,0.4c1.1,0.5,2.3,0.9,3.5,0.6
		c1,0.4,2.1,0.5,3.2,0.4c1.4,0.5,2.9,1,4.5,0.6c1,0.4,2.1,0.5,3.2,0.3c1.1,0.5,2.3,0.9,3.5,0.5c0.6,0.1,1.1,0.2,1.7,0.3
		c1.4,3.3,1.4,6.6-0.1,9.8c-0.5,0.1-1,0.2-1.4,0.3c-6-0.7-12.1-0.2-18.1-0.1c-3.6,0.1-7.3-0.5-10.9,0.5c-4.4-0.2-8.8-0.3-13.2,0.1
		c-0.8-0.1-1.6-0.3-2.3-0.3c-27.8,0.2-55.6,0.4-83.4,0.6c-6.1,0.1-12.1-0.3-18.2,0.5c-0.8-0.3-1.6-0.3-2.4,0
		c-0.5-0.5-0.9-0.4-1.4,0.1c-2.8-0.2-5.7-0.3-8.5,0c-1.1-0.5-2.2-0.2-3.3-0.2c-24.1,0.1-48.3,0.2-72.4,0.4c0-2.3-0.1-4.6-0.1-7
		c0-4.1,0-4.1,4.1-4.9c1.3,0.3,2.4-0.1,3.5-0.6c1.1,0.2,2.1,0,3.2-0.3c1.6,0.3,3-0.1,4.4-0.7c1.1,0.1,2.2,0.1,3.3-0.4
		c1.5,0.3,2.9-0.2,4.3-0.6c0.8-0.1,1.6-0.2,2.4-0.3c1.5,0.3,3-0.1,4.4-0.7c0.8-0.1,1.5-0.2,2.3-0.3c1.6,0.3,3-0.1,4.5-0.7
		c1.1,0.1,2.2,0.1,3.2-0.4c1.3,0.3,2.4,0,3.5-0.6c1.1,0.1,2.2,0,3.2-0.3c1.6,0.3,3-0.1,4.4-0.6c0.8-0.1,1.5-0.2,2.3-0.2
		c1.6,0.3,3-0.1,4.5-0.7c1.1,0.2,2.2,0,3.2-0.3c1.5,0.3,3-0.1,4.4-0.6c0.8-0.1,1.5-0.2,2.3-0.3c1.6,0.3,3-0.2,4.5-0.7
		c0.7-0.1,1.5-0.2,2.2-0.2c1.6,0.3,3.1-0.1,4.5-0.7c1.1,0.1,2.2,0.1,3.2-0.4c1.6,0.3,3-0.1,4.4-0.6c0.8-0.1,1.5-0.2,2.3-0.2
		c1.6,0.3,3-0.1,4.5-0.7c1.1,0.2,2.2,0,3.2-0.4c1.5,0.3,3-0.1,4.4-0.6c0.8-0.1,1.5-0.2,2.3-0.3c1.6,0.3,3-0.2,4.5-0.7
		c1.1-0.1,2.2-0.2,3.2-0.4c1.3,0.3,2.4,0,3.5-0.6c1.7,0,3.4,0,5.2-0.1c1.4,0.5,2.9,0.9,4.4,0.6c1.1,0.4,2.1,0.5,3.2,0.4
		c1.4,0.5,2.9,0.9,4.4,0.6c1,0.4,2.1,0.5,3.2,0.3c1.4,0.6,2.9,1,4.5,0.6c1,0.4,2.1,0.5,3.2,0.3c1.1,0.5,2.3,0.9,3.5,0.6
		c1,0.4,2.1,0.5,3.2,0.4c1.4,0.5,2.9,0.9,4.4,0.6c1,0.4,2.1,0.5,3.2,0.4c1.4,0.6,2.9,1,4.5,0.7c0.8,0.1,1.5,0.2,2.3,0.2
		C1123,1176.2,1124.8,1176.7,1126.7,1176.5z"/>
	<path class="st1" d="M1669.1,322.4c-13,1.3-22.6,7.8-27.5,19.8c-6.2,15-6.3,30.5-0.4,45.7c3.5,9,10.3,14.8,19.2,18.1
		c3.1,1.1,6.3,2.4,9.7,2.1c3.1,1.2,6.3,1.2,9.4,0c8.9-1.1,16.7-4.9,23.8-10c1-0.7,1.3-1.7,1.3-2.9c0-5-0.1-9.9,0-14.9
		c0-2.4-1.1-3-3.2-3c-7.5,0.1-15,0-22.5,0c-4.2,0-4.3-0.1-4.2-4.3c0.1-9.6-1.2-8.2,8-8.3c10.6-0.1,21.1-0.1,31.7,0
		c3.6,0,3.7,0.1,3.7,3.8c0,11,0,22.1,0,33.1c0,2.1-0.5,3.7-2.3,4.9c-7.2,5.2-14.6,10.3-23.4,12.6c-8.2,2.2-16.6,2.8-25.1,1.7
		c-5.7-0.7-11.2-1.8-16.5-4.2c-11.7-5.2-19.4-14.1-23.9-25.8c-4.4-11.6-4.5-23.5-3.2-35.7c1.2-11.1,5-20.8,11.8-29.6
		c4-5.3,9.2-8.8,15.1-11.3c13-5.4,26.3-5.9,39.8-2.2c13.9,3.8,21.9,13.4,25.7,27c0.4,1.4,0,2.4-1.4,3.2c-2.8,1.6-6,1.9-9,3
		c-1.5,0.5-1.7-0.9-2.1-2c-1.1-3.1-2.3-6.3-4.1-9.1c-3.9-6.1-9.8-9.3-16.7-10.7c-1.1-0.2-2.1-0.6-3.1-1
		C1676.1,321.1,1672.6,321.1,1669.1,322.4z"/>
	<path class="st1" d="M2042.5,419.5c-1.4-1.3-0.9-3-0.9-4.5c0-32.8,0-65.6,0-98.4c0-0.8,0-1.6,0-2.4c0-1.6,0.7-2.4,2.3-2.4
		c15.2,0.1,30.4-0.5,45.6,0.4c4.1,0.2,8.2,1.1,12,2.9c11.7,5.6,18.7,15.1,22.4,27.2c3.7,12.3,4.2,24.9,2,37.4
		c-1.9,10.8-5.7,20.8-13.6,28.9c-6.9,6.9-15.3,10-24.8,10.7c-1.3,0.1-2.6,0.1-3.8,0.2C2069.9,419.6,2056.2,419.5,2042.5,419.5z
		 M2055.7,365.5c0,12.5,0,24.9,0,37.4c0,3.8,0.1,3.9,3.6,4c7.2,0.1,14.4,0.2,21.6-0.1c4.6-0.2,9.2-0.7,13.6-2.4
		c8.2-3.1,12.7-9.6,15.1-17.5c4.2-13.6,4.5-27.5,0.7-41.1c-2.7-9.6-8.3-17.3-18.8-20c-3.4-0.8-6.9-1.4-10.4-1.4
		c-7,0-14.1-0.1-21.1,0c-4.3,0-4.4,0.1-4.4,4.7C2055.7,341.2,2055.7,353.4,2055.7,365.5z"/>
	<path class="st1" d="M2013.7,655.4c-1.8,0.4-3.7,0.8-5.5,1.3c-8.8,2.5-15,8.3-18.7,16.5c-2.9,6.4-4.7,13.1-4.7,20.3
		c0,8,0,15.8,2.7,23.6c5.1,14.2,16.6,21.7,31.1,22.7c9.8,0.7,18.3-2.9,26.5-7.8c3.8-2.3,5.8-4.9,5.1-9.5c-0.5-3.3-0.2-6.7-0.1-10
		c0.1-2.5-0.8-3.4-3.3-3.4c-7,0.1-14,0.1-21.1,0c-4.5,0-4.6-0.1-4.6-4.4c0-2.7,0.1-5.4,0.2-8.1c13.7,0,27.4,0,41.1,0
		c0.1,12.3,0.1,24.6,0.3,36.9c0,2.3-1.4,3.5-2.9,4.7c-7.3,5.8-15.5,9.9-24.3,12.9c-1.1,0.4-2.2,0.3-3.3,0.3
		c-6.1,0.5-12.1,0.4-18.2,0.2c-11.7-0.4-21.7-5-29.5-13.5c-7.8-8.5-12.1-18.7-13.3-30.4c-1-9.3,0.1-18.5,1.2-27.6
		c0.6-4.9,3-9.4,5.2-13.7c3.6-6.9,8.4-13,15.4-17.1c5.1-2.9,10.4-4.9,16-5.7c12.3-1.7,24.6-1.6,35.6,5.3
		c8.7,5.5,13.6,13.6,16.1,23.4c0.3,1.3,0.2,2.1-1.3,2.5c-0.9,0.2-1.8,0.6-2.7,0.9c-2.4,0.7-4.9,2.3-7.3,1.4
		c-2.4-0.9-1.9-4.1-2.8-6.2c-3.4-7.9-9.3-12.6-17.6-14.6c-0.8-0.2-1.5-0.6-2.2-0.9C2022.6,654.1,2018.1,654.1,2013.7,655.4z"/>
	<path class="st3" d="M911.9,1308.1c0-14.5-0.2-29.1,0.1-43.6c0.1-5-2.3-7.8-6.2-10.1c-1.7-1-3.3-1-5-1.1c-1.3-0.1-2.6,0-3.8-0.1
		c-1.3-0.1-1.3-1.1-1.3-2.1c0-1,0.6-1.4,1.5-1.4c1,0,1.9,0,2.9,0c17.7,0,35.5,0,53.2,0c1,0,1.9,0,2.9,0c1.2,0,1.6,0.7,1.6,1.8
		c0,1.2-0.6,1.7-1.7,1.8c-2.9,0.1-5.7-0.1-8.5,0.9c-3.5,1.2-5.6,3.5-5.9,7.2c-0.3,2.9-0.3,5.7-0.3,8.6c0,25.9,0,51.8,0,77.7
		c0,2.4,0.1,4.8,0.2,7.2c0.4,5.6,3.3,8.6,9,9.1c1.7,0.1,3.5,0,5.3,0.1c1.3,0.1,1.9,1,2,2.2c0,1.5-1.1,1.3-2,1.3
		c-1.1,0.1-2.2,0-3.4,0c-17.1,0-34.2,0-51.3,0c-0.8,0-1.6,0-2.4,0c-1.3-0.1-3.1,0.5-3-1.9c0.1-2.3,1.9-1.8,3.2-1.7
		c3.9,0.2,7.5-0.4,10.3-3.5c1.6-1.7,2.8-3.4,2.7-5.9c-0.1-2.1,0.1-4.2,0.1-6.2C912,1335,912,1321.6,911.9,1308.1
		C912,1308.1,912,1308.1,911.9,1308.1z"/>
	<path class="st3" d="M948,1451c-4,1-6.1,3.2-6.5,7c-0.2,2.5-0.3,5.1-0.3,7.7c0,26.5,0,53,0,79.6c0,2.2,0.1,4.5,0.3,6.7
		c0.4,5.1,3.2,8,8.4,8.7c1.9,0.2,3.8,0.1,5.7,0.3c1.3,0.1,2.1,0.7,2.1,2.1c0.1,1.8-1.3,1.5-2.3,1.5c-9.7,0-19.5,0-29.2,0
		c-8.6,0-17.3,0-25.9,0c-1.1,0-2.2,0-3.4-0.1c-1,0-1.3-0.7-1.3-1.6c0-0.9,0.2-1.7,1.1-1.8c1.6-0.2,3.2-0.1,4.8-0.2
		c7.1-0.4,10.2-3.3,10.4-10.4c0.2-8.1,0.1-16.3,0.1-24.4c0-20.1,0-40.3,0-60.4c0-1.1-0.1-2.2,0-3.4c0.6-5.5-2-8.9-6.7-11.1
		c-0.8-1-1.9-0.9-3.1-0.7c-1.6-0.1-3.2-0.2-4.8-0.2c-1.5,0-1.9-0.8-1.9-2.1c0-1.4,0.9-1.5,1.9-1.5c0.6,0,1.3,0,1.9,0
		c18.1,0,36.3,0,54.4,0.1c1.3,0,3.5-1.1,3.8,1.4c0.3,3-2.1,2-3.7,2.2c-0.9,0.1-1.9,0.2-2.8,0.2C950,1450.1,948.9,1450,948,1451z"/>
	<path class="st4" d="M1260,1175.6c10.5-1,20.8-2.5,31.1-4.8c0.3-0.1,0.6-0.2,0.8-0.3c10.3-0.2,20.3,1.7,30.5,2.6
		c13.5,1.3,27,2.9,40.5,4.4c14.8,1.6,29.5,3.2,44.3,4.7c2,0.2,2.9,0.7,2.8,2.9c-0.1,2.6-0.1,5.1,0,7.7c0.1,1.7-0.6,2.3-2.2,2.2
		c-1.3-0.1-2.6,0-3.8,0c-67.5,0-134.9,0-202.4,0c-1.9,0-3.8,0.2-5.7,0.2c-0.3-0.2-0.5-0.2-0.8,0.1c-0.5-0.1-1-0.2-1.6-0.3
		c-1.6-3.3-1.8-6.6,0.2-9.9c4.1,0.8,7.9-0.5,11.9-1.1c14-2,28-4.2,42-6.4c2.7-0.4,5.3-0.9,8-1.3
		C1257.1,1176.7,1258.5,1175.6,1260,1175.6z"/>
	<path class="st0" d="M923.3,537.5c1.3,0,2.6-0.1,3.9-0.1c3.2,0.2,6.5,0.3,9.6-0.8c1-0.1,1.9-0.1,2.9-0.2c2.6,0.3,5.1-0.1,7.6-0.8
		c0.7-0.1,1.4-0.1,2-0.2c5.1-0.1,10.2-0.5,15.3-1.7c1-0.1,2-0.1,3-0.2c3.8,0.1,7.6,0,11.4-0.8c2.2,0,4.3,0,6.8,0
		c-0.8,3-2.8,3.8-4.7,4.4c-6.4,1.9-12.4,4.9-18.9,6.5c-1.7,0.4-3.6,1.1-5.3,3.1c5.1,3.6,11.1,4.4,16.5,6.2c0.3,0.2,0.7,0.5,1,0.7
		c0.1,0.4,0.1,0.8,0.2,1.2c-0.7,0.3-1.4,0.6-2,0.9c0,0-0.1,0-0.1,0c-1.4-0.2-2.6,0.2-3.7,0.9c0,0-0.1,0-0.1,0
		c-1.4-0.2-2.6,0-3.7,0.9c0,0-0.1,0-0.1,0c-1.4-0.2-2.7,0.1-3.8,0.9c-2.8,0.9-5.5,1.9-8.3,2.8c-2.6,0.9-3.7,2.7-3.4,5.5
		c-0.6,0.1-1.3,0.3-1.9,0.3c-11.8,0-23.6-0.5-35.4-1.4c-5.4-0.4-10.8-1.6-16.2-1.4c0,0-0.1,0-0.1,0c-2.5-0.9-5-1.2-7.7-0.9l-0.4-0.1
		c0,0-0.4,0-0.4,0c-1.4-1-3.1-0.7-4.6-0.9c-14.7-1.7-29.5-1-44.3-1.1c-0.7-8.7-0.1-17.5-0.3-26.3c-0.1-3.3,2.6-1.9,4.1-2.5
		c9.6,0,19.2,0,28.8,0c0.4,0,0.8,0.1,1.1,0.1c2.1,0.8,4.3,0.9,6.5,0.8c0.7,0.1,1.4,0.1,2,0.2c1.8,0.8,3.7,1.2,5.7,0.9
		c0.3,0,0.7,0.1,1,0.1c0.5,0.5,1.2,0.6,1.9,0.6c1,0.1,1.9,0.2,2.9,0.3c1.5,0.6,3.1,1,4.8,0.7c0.7,0,1.3,0.1,2,0.1
		c2.8,1.1,5.7,1.2,8.6,0.9c1.3,0.1,2.6,0.1,3.9,0.2C915,538.1,919.1,538.2,923.3,537.5z"/>
	<path class="st1" d="M1746.2,478c9.1,0.2,6.7-1.5,10.2,7.3c7.9,19.8,15.6,39.7,23.3,59.5c4.9,12.6,9.8,25.2,14.6,37.8
		c0.4,1,0.7,2.1,1.1,3.1c0.5,1.4,0,2.2-1.5,2.3c-4,0.1-8,0.1-12,0c-1.4,0-2-1-2.5-2.4c-3.4-9.5-7.1-19-10.3-28.5
		c-0.7-2-1.5-2.5-3.3-2.5c-12.6,0-25.3,0.1-37.9,0c-2.7,0-3.5,1.4-4.2,3.6c-2.8,8.5-5.8,16.9-8.7,25.3c-1.6,4.6-1.6,4.6-6.3,4.7
		c-2.4,0-4.8,0.1-7.2,0c-2.4-0.1-3.1-1.1-2.3-3.4c2.6-7.1,5.2-14.3,7.8-21.4c4.6-12.5,9.3-24.9,13.8-37.4
		c5.2-14.4,10.4-28.8,15.6-43.3c1.7-4.7,1.8-4.7,6.8-4.8C1744.2,478,1745.2,478,1746.2,478z M1746.2,491.4c-0.6,1.6-1,2.3-1.1,3.1
		c-1.5,6.5-3.4,12.9-5.7,19.2c-3.1,8.5-6.1,17.2-9,25.8c-1.1,3.3-0.9,3.5,2.5,3.6c9.4,0.1,18.9,0.1,28.3,0c2.9,0,3.1-0.4,2.1-3.1
		c-2.6-7.2-5.2-14.4-7.7-21.6C1752.5,509.6,1749.5,500.8,1746.2,491.4z"/>
	<path class="st1" d="M1831.3,419.5c-0.7-4.4,1.9-8,3.1-11.8c3.4-10.2,7.4-20.1,11.1-30.2c6.3-17,12.6-34,18.8-51.1
		c1.4-3.9,2.8-7.7,4.1-11.6c0.8-2.3,2-3,4.1-3c2.9,0,5.8,0.1,8.6,0c2.6-0.1,3.9,0.7,4.9,3.3c4.2,11.5,8.8,22.8,13.3,34.2
		c8.4,21.4,16.8,42.9,25.2,64.3c0.7,1.9,2,3.7,1.6,5.9c-4.8,0-9.5,0-14.3,0c-0.8-0.5-1.5-1.1-1.9-2.1c-3.3-9.1-6.6-18.1-9.8-27.2
		c-0.8-2.3-1.7-3.6-4.7-3.5c-11.8,0.2-23.6,0.2-35.4,0c-2.7,0-4,0.9-4.9,3.4c-2.8,8.4-5.8,16.8-8.6,25.2c-0.5,1.5-0.7,3.1-2.1,4.2
		C1840.2,419.5,1835.8,419.5,1831.3,419.5z M1877.5,325.1c-4.1,17-11.3,32.9-16.6,49.7c1.1,0.2,1.7,0.4,2.3,0.4
		c9.4,0,18.8,0.1,28.3,0c3.3,0,3.7-0.6,2.6-3.7C1888.5,356.1,1882.7,340.8,1877.5,325.1z"/>
	<path class="st1" d="M1895.7,718.8c-3.5,8.2-5.8,16.8-8.8,25.2c-2.8,7.8-1.3,6.4-9.2,6.5c-7.8,0.1-7.6,0.1-4.8-7.3
		c3.3-8.9,6.2-17.9,9.5-26.8c4.2-10.9,7.7-22.1,12.1-33c2.9-7.3,5.2-14.9,7.8-22.4c1.8-5.1,3.9-10,5.6-15.1c0.5-1.6,1.3-2,2.8-1.9
		c1.3,0,2.6,0,3.8,0c8.8,0,8.6,0.1,11.8,8.5c6.3,16.8,12.8,33.5,19.2,50.3c5.9,15.6,11.9,31.1,18,47.1c-4.8,0.9-9.4,0.5-13.9,0.3
		c-1.8-0.1-2-1.7-2.5-3.1c-3-8.5-6.1-17-9.1-25.4c-0.4-1-0.9-2-1.3-3c-0.8-1.1-2-0.8-3.1-0.8c-11.6,0-23.3,0-34.9,0
		C1897.7,718,1896.5,717.7,1895.7,718.8z M1916.2,657.5c-0.7,1-1.1,1.4-1.1,1.8c-1.2,7-3.6,13.6-5.9,20.2c-2.8,8-5.6,16-8.3,24
		c-1.1,3.2-0.7,3.7,2.6,3.7c8.9,0.1,17.9,0.1,26.8,0c2.6,0,2.8-0.5,2-2.9C1926.8,689,1921.3,673.7,1916.2,657.5z"/>
	<path class="st1" d="M1629.9,533.2c0-16.5,0-32.9,0-49.4c0-1.1,0-2.2,0-3.4c0-1.6,0.7-2.4,2.3-2.3c1,0,1.9,0,2.9,0
		c20.2,0,40.3,0,60.5,0c0.5,0,1,0,1.4,0c3.6,0.1,3.7,0.1,3.7,3.9c-0.2,11.4,1.7,9.3-9.2,9.4c-13.6,0.1-27.2,0-40.8,0
		c-1.1,0-2.2,0.1-3.4,0c-2.5-0.2-3.3,0.9-3.3,3.4c0.1,7.7,0,15.4,0,23c0,1.4,0.1,2.9,0,4.3c-0.2,2.3,1,3,3.2,3
		c5.9-0.1,11.8,0,17.8,0c8.2,0,16.3,0,24.5,0c3.4,0,3.6,0.1,3.6,3.5c-0.1,12,1.7,9.6-9.3,9.8c-11.4,0.1-22.7,0-34.1,0
		c-6.1,0-5.6-0.4-5.6,5.8c0,13,0,25.9,0,38.9c0,5-0.2,5.1-5.1,5.2c-1.6,0-3.2,0-4.8,0c-4.2,0-4.3-0.1-4.3-4.2c0-7.7,0-15.4,0-23
		C1629.9,551.7,1629.9,542.4,1629.9,533.2z"/>
	<path class="st1" d="M1676.5,644.1c-1.6,6.6-4.1,12.2-6.2,18c-4,11.4-8.4,22.7-12.5,34c-6.2,17-12.4,34.1-18.6,51.1
		c-0.8,2.3-1.9,3.5-4.5,3.2c-3.5-0.3-7.5,1.2-10.3-0.7c-2.9-1.9-2.9-6.1-4.1-9.3c-4.8-12.9-9.3-25.9-13.9-38.8
		c-4.7-13.1-9.7-26.1-14.3-39.2c-2.1-5.8-4.6-11.5-6.2-17.9c4.3-1,8.7-0.5,13.1-0.3c1.8,0.1,1.8,2,2.3,3.3
		c4.2,12.5,8.4,25,12.5,37.6c4.9,14.6,9.8,29.2,14.7,43.8c0.7,2.2,0.9,4.6,2.5,7.3c1.5-4.4,2.9-8.1,4.2-11.9
		c4.5-14,9.7-27.8,14.5-41.7c4-11.5,8.1-23,11.9-34.6c1.6-4.8,0.7-3.9,5.6-4C1670.2,644.1,1673.2,644.1,1676.5,644.1z"/>
	<path class="st1" d="M2029,478c4.5,0,9.1,0.1,13.7,0c2.1-0.1,3,1.1,4,2.7c6.3,10.3,12.8,20.5,19.1,30.8c2.8,4.6,5.4,9.4,8.1,14.1
		c1.6,2.8,2.5,2.8,4.2-0.1c8.7-15.4,18.6-29.9,27.8-45c1.1-1.9,2.4-2.7,4.6-2.6c3.2,0.2,6.4,0,9.6,0.1c3.2,0.1,3.5,0.7,1.9,3.3
		c-3.6,5.6-7.4,11.2-11,16.8c-8.8,13.3-17.5,26.6-26.3,39.8c-1.4,2.1-2,4.2-2,6.7c0.1,12.8,0,25.6,0,38.4c0,5-0.2,5.1-5.1,5.2
		c-2.1,0-4.2-0.1-6.2,0c-2,0.1-3-0.7-2.9-2.8c0.1-1.1,0-2.2,0-3.4c0-11.2-0.2-22.4,0.1-33.6c0.1-4.4-1-8.1-3.3-11.6
		c-7.6-11.9-15.3-23.8-22.9-35.7c-4.1-6.4-8.1-12.9-12.1-19.4C2029.5,480.8,2028.6,479.8,2029,478z"/>
	<path class="st0" d="M543.1,565.3c0.1-0.3,0.1-0.7,0.2-1c0.7,0,1.3-0.3,1.7-1c2.6-0.7,5.3-1.3,7.9-2c7.3,0.2,14.7,0.5,22,0
		c2.6,0.1,5.1,0.1,7.7,0.2c8.3,1,16.6,0.9,24.9,0.8c7.6,0.3,15.2,0.5,22.8,0.3c5.1,1.3,10.3,0.4,15.5,0.5c2.3,0.1,4.7,0.6,7-0.6
		c5.4,0.3,10.8,0.1,16.1-0.3c3.9,0.2,7.7,0.3,11.5-0.8c1-0.1,1.9-0.1,2.9-0.2c3.9,0.3,7.7,0.1,11.5-0.8c1.6-0.1,3.2-0.1,4.8-0.2
		c0.9,0.1,1.9,0.2,2.8,0.2c12.4-0.4,24.8-0.6,37.2-0.3c7.5,0.1,14.9,0.7,22.4,0.2c2.6,0,5.1,0.1,7.7,0.1c6,0.8,12.1,0.6,18.1,0.9
		c8,0.4,15.9-0.4,23.9,0.5c-1.2,3.4-2.2,6.8-4.5,9.8c-1.1,1.4-2.2,2.1-3.8,2.2c-2.9-1.2-6-0.4-9-0.6c-8.6-0.5-17.1-0.8-25.7-1.2
		c-0.6,0-1.2-0.1-1.8-0.1c-4.1-1.1-8.3-1.1-12.6-0.9l-0.4-0.1c0,0-0.4,0.1-0.4,0.1c-5.1-1.3-10.2-1.1-15.4-1c0,0,0,0,0,0
		c-1.6-1-3.2-0.5-4.9-0.4c-3.5-0.6-7-0.5-10.5,0c-1.6-0.1-3.3-0.5-4.8,0.4c0,0-0.1,0-0.1,0c-5.5-0.1-11-0.4-16.4,0.9
		c-0.9,0-1.8,0.1-2.8,0.1c-6.8-0.1-13.5-0.2-20.2,0.9c-0.9,0-1.9,0-2.8,0.1c-9.9-0.2-19.7,0.6-29.6,0.7c-21.2,0.3-42.3,1.1-63.5,0.2
		c0,0-0.1,0-0.1,0c-1.5-1-3.1-0.9-4.8-0.8l-0.4-0.2c0,0-0.5,0-0.5,0c-1.8-1.1-3.8-1.1-5.8-1c0,0,0,0,0,0c-1.8-1.2-3.8-1-5.8-0.9
		l-0.4-0.2c0,0-0.4,0-0.4,0c-1.9-1-3.9-0.9-5.9-0.8c0,0-0.1,0-0.1,0c-2.1-0.9-4.3-1.2-6.6-1c0,0-0.1,0-0.1,0c-1.5-1-3.1-1-4.8-0.9
		c-1-0.5-2.3,0.3-3.1-0.9C544,565.8,543.6,565.5,543.1,565.3z"/>
	<path class="st1" d="M1968.5,532.9c0-16.3,0-32.6,0-48.9c0-1.1,0-2.2,0-3.4c-0.1-1.8,0.8-2.6,2.6-2.5c2.9,0,5.8,0,8.6,0
		c1.6,0,2.3,0.8,2.3,2.4c0,1.3,0,2.6,0,3.8c0,27.8,0,55.6,0,83.4c0,1,0,1.9,0,2.9c0.1,4.3,0.1,4.3,4.2,4.3c7.8,0,15.7,0,23.5,0
		c6.9,0,13.7,0.1,20.6,0c2.5,0,3.4,0.8,3.3,3.3c-0.2,11.5,1.2,9.9-9.4,10c-16.6,0.1-33.2,0-49.9,0c-1.1,0-2.2,0-3.4,0
		c-1.8,0.1-2.7-0.8-2.6-2.6c0-1.3,0-2.6,0-3.8C1968.5,565.5,1968.5,549.2,1968.5,532.9z"/>
	<path class="st1" d="M1803.6,696.8c0-15.7,0-31.3,0-47c0-1.1,0-2.2,0-3.4c0-1.6,0.8-2.3,2.3-2.3c2.9,0,5.8,0,8.6,0
		c1.6,0,2.4,0.7,2.4,2.3c0,1.3,0,2.6,0,3.8c0,27.5,0,55,0,82.5c0,5.2,0,5.2,5.2,5.2c12.6,0,25.3,0,37.9,0c1.1,0,2.2,0,3.4,0
		c1.5,0,2.5,0.5,2.4,2.2c-0.1,3.2,1.2,6.9-0.6,9.4c-1.7,2.3-5.4,0.9-8.2,0.9c-16,0.1-32,0.1-48,0c-6.1,0-5.6,0.4-5.6-5.8
		C1803.6,728.7,1803.6,712.8,1803.6,696.8z"/>
	<path class="st1" d="M1726.6,697.7c0-16.2,0-32.3,0-48.5c0-5.1,0-5.1,4.8-5.1c9.5,0,8.5-0.7,8.5,8.5c0,26.4,0,52.8,0,79.2
		c0,1.3,0,2.6,0,3.8c0,1.6,0.7,2.4,2.3,2.4c1.1,0,2.2,0,3.4,0c13,0,25.9,0,38.9,0c4.4,0,4.5,0.1,4.4,4.6c-0.1,9.3,1.2,7.9-7.8,7.9
		c-16.6,0.1-33.3,0-49.9,0c-4.6,0-4.7,0-4.7-4.8C1726.6,729.7,1726.6,713.7,1726.6,697.7z"/>
	<path class="st0" d="M1154.6,669.7c11.8,1.9,16.5,12.4,17.2,23.7c0.6,10.3,0.3,20.7,0.4,31.1c0,3.5,0.4,7-0.3,10.5
		c-0.6,0.1-1.1,0.3-1.1,1c-0.2,0.1-0.2,0.3-0.1,0.5c-1.4,0.6-3,0.4-4.5,0.4c-0.1-12.3,0-24.6-0.2-36.8c-0.1-4.7-0.4-9.3-2.2-13.9
		c-1.6-3.9-3.7-6.7-7.3-8.6c-0.9-1.5-2.4-1.1-3.8-1l-0.4-0.1c0,0-0.4,0.1-0.4,0.1c-0.4-0.5-0.8-0.5-1.2,0l-0.4,0l-0.4,0.1
		c-1.4-0.2-2.8-0.2-4,0.8c-3.7,1.1-6.7,3.3-9.4,5.9c-0.5,0.1-0.8,0.4-0.9,0.9c0,0-0.1,0.1-0.1,0.1c-0.5,0.1-0.8,0.4-0.8,0.9
		c0,0-0.2,0.2-0.2,0.2c-0.2,0.2-0.5,0.5-0.7,0.7c-3.1,4-4.7,8.4-4.6,13.6c0.3,12.3,0.2,24.5,0.2,36.8c-2.1,0.9-4.3,0.4-6.5,0.5
		c-0.1-12.4-0.2-24.8-0.2-37.1c0-6.2-1.1-12-3.9-17.6c-0.1-0.6,0-1.4-0.8-1.8c0,0-0.1-0.1-0.1-0.1c0-0.5-0.3-0.8-0.8-0.9
		c0,0-0.1-0.1-0.1-0.1c0-0.5-0.3-0.8-0.9-0.8c0,0-0.2-0.1-0.2-0.1c-0.2-0.6-0.4-0.4-0.7-0.1c-0.8-0.1-1.6-0.2-2-0.9
		c-0.6-1.4-1.8-1-2.8-0.9c-1.6-0.4-3.2-0.4-4.8,0c-1.2-0.2-2.3-0.2-3.2,0.7c-8.3,2.8-13.9,8.2-16.5,16.7c-0.6,1.9-0.5,3.8-0.5,5.7
		c0,12.4,0,24.8,0,37.2c-2.2,0.4-4.4,0.4-6.5,0c0-21.9,0-43.9,0-65.8c2.2-0.2,4.3-0.3,6.5,0c0.1,2.1,0.1,4.3,0.2,6.4
		c-0.2,1-0.8,2.1,0.4,2.7c0.4,0.2,0.9-0.5,1.1-1.1c3.8-5.9,9.9-7.7,16.2-9.2c0.5-0.1,0.9-0.2,1.4-0.2c1.9,0,3.8,0,5.7,0
		c0.7,0.1,1.3,0.1,2,0.2c0.3,0.2,0.6,0.4,1,0.6c6.3,1.7,10.4,5.9,13.3,11.8c1.4-0.2,2.3-0.9,3-1.9c0.5-0.1,0.8-0.4,0.8-0.9
		c0,0,0.1-0.2,0.1-0.2c0.8-0.3,0.8-1,0.9-1.7c0.4-0.4,0.8-0.8,1.1-1.2c0.6-0.1,1.4,0.1,1.7-0.8c3.8-3.8,8.7-4.8,13.7-5.9
		C1150.1,669.7,1152.4,669.7,1154.6,669.7z"/>
	<path class="st0" d="M501,737.2c-0.1-1.1-0.3-2.2-0.3-3.3c0-19.7,0-39.5,0-59.2c0-1.3,0.2-2.5,0.3-3.8c1.9,0,3.8,0,5.7,0
		c1.1,2.8,0,5.7,0.7,8.5c-0.3,0.4-0.2,0.8,0.3,0.9c0.5,0.1,0.8-0.3,0.8-0.8c4.5-5.6,10.3-8.7,17.4-9.8c2.2,0,4.5,0,6.7,0
		c7.5,1.6,12.7,6,16.2,12.7c0.1,0.2,0.3,0.6,0.4,0.6c0.5,0.1,0.6-0.3,0.6-0.7c0,0,0-0.1,0-0.1c1.3-0.5,1.4-1.7,1.6-2.8
		c4.7-5.4,10.6-8.6,17.6-9.7c2.2,0,4.5,0,6.7-0.1c11.2,1.8,15.6,9.7,17.3,19.8c0.8,4.6,0.9,9.2,0.9,13.8c0,10.3,0,20.7,0.1,31
		c-0.5,0.7-1.9,0.6-1.7,1.9c-0.1,0.2-0.2,0.5-0.3,0.8c-1.3,0.1-2.5,0.1-3.8,0.2c-0.9-2.3-0.5-4.7-0.5-7c-0.1-10.8-0.2-21.5-0.2-32.3
		c0.5-1,0.4-2-0.2-2.9c0.3-5-2-9.2-4.2-13.4c-0.9-1.8-2.9-2.7-4.7-3.8c-0.6-1.3-1.7-1.1-2.7-0.9c-0.6-0.1-1.3-0.1-1.9-0.2
		c-2.4-0.6-4.7-0.2-6.8,1c-5.2,2.2-9.6,5.2-12.6,10.1c-2.3,3.7-3.6,7.6-3.6,12.1c0.1,12.4,0,24.9-0.1,37.3c-2.2,0.1-4.4,0.4-6.5-0.3
		c0-12.9,0.1-25.7,0-38.6c0-4.9-0.4-9.7-3-14.2c-1.5-2.7-3.4-4.8-6.1-6.3c-3.8-2.2-7.6-1.7-11.5-0.2c-3.8,1.8-7.9,3.1-10.4,6.9
		c-0.5,0.1-0.8,0.4-0.8,1c0,0-0.1,0.1-0.1,0.1c-0.5,0.1-0.7,0.3-0.8,0.8c-1.4,2-3.2,3.7-3.4,6.3c-0.5,0.3-0.6,0.8-0.5,1.3
		c-0.8,1.8-0.7,3.7-0.7,5.6c0,11,0,22-0.1,32.9c0,1.6,0.3,3.2-0.4,4.7C504.9,737.2,502.9,737.2,501,737.2z"/>
	<path class="st0" d="M893.6,738.1l-0.4-0.1c0,0-0.4,0-0.4,0c-0.9-0.8-1.9-0.9-3-0.8c-3-0.5-5.7-1.5-7.8-3.8
		c0.1-0.6-0.3-0.8-0.8-0.9c0,0-0.1-0.1-0.1-0.1c-0.1-0.5-0.4-0.8-0.9-0.8c0,0-0.2-0.1-0.2-0.1c-0.2-0.6-0.4-0.5-0.8-0.1
		c-0.8-0.4-1.5-1.1-2-1.8c0.1-0.9-0.6-1.5-1.3-1.4c-0.7,0-0.7,0.8-0.4,1.4c0,9.9-0.1,19.8-0.1,29.7c0,3.2-2.9,4.9-5.7,3.6
		c-0.7-0.3-0.8-0.9-0.8-1.6c0-1.1,0-2.2,0-3.3c0-27.4,0-54.9,0-82.3c0-0.5,0-1,0-1.4c-0.3-4.2,1-3.7,4.2-3.8c1.6,0,2.4,0.6,2.3,2.2
		c0,1,0,1.9,0,2.9c0,0.9,0.1,1.8,0.2,3.7c4.6-5.6,10.2-7.8,16.1-9.3c1.4,0.2,2.6-0.2,3.8-0.7c23.6,0.5,39.1,21.8,32.8,44.7
		c-1.3,4.7-3.6,8.7-5.9,12.8c-0.5,0.1-0.8,0.5-0.9,1c0,0-0.1,0.1-0.1,0.1c-0.5,0.1-0.8,0.4-0.9,0.9c0,0-0.1,0.1-0.1,0.1
		c-0.5,0.1-0.8,0.3-0.9,0.9c0,0-0.1,0.1-0.1,0.1c-0.5,0.1-0.8,0.3-0.9,0.9c0,0-0.1,0.1-0.1,0.1c-0.5,0-0.8,0.3-0.9,0.9
		c0,0-0.1,0.1-0.1,0.1c-0.5,0-0.9,0.3-1.1,0.8c-3.7,2.9-7.9,4.6-12.3,5.8C900.6,738,897.1,738.1,893.6,738.1z M875.3,703.4
		c0,1.9,0.2,3.9,0,5.7c-0.9,7.4,2.9,12.5,8.2,16.8c8.5,7,19.3,7.7,27.5,2.1c14-9.7,16.3-30.4,4.7-42.9c-10.9-11.7-26.9-11.3-37.1,1
		c-2.1,2.5-3.4,5.3-3.2,8.7C875.5,697.6,875.3,700.5,875.3,703.4z"/>
	<path class="st0" d="M310.6,678.5c0-10.1,0.1-20.1,0.2-30.2c0-3.2,0.2-3.3,3.2-3.3c3.1,0,3.2,0.1,3.2,3.8c0,16.1,0,32.3,0,48.4
		c0,8.5-0.1,16.9,0,25.4c0,3-0.7,6.2,1.6,9c0.9,1.1,0.5,3.4-0.2,5.1c-1.3-0.1-2.7-0.5-3.9,0.3c-2.5-1.5-4-3.6-4.1-6.6
		c0.2-0.6,0.2-1.4-0.3-1.5c-0.7-0.1-1.3,0.5-1.6,1.2c-4.4,3.8-9.3,6.7-15.1,7.9c-3.2,0-6.4,0-9.6,0.1c-8.3-0.5-14.5-4.8-19.6-11
		c-1.6-1.9-3-4.1-4.3-6.3c-3.4-5.8-4-12.2-3.9-18.7c0.1-7.4,1.8-14.4,6.3-20.4c4.9-6.5,11.3-10.8,19.5-12.1c3.5,0,7,0,10.5,0
		c6.3,1.4,11.5,4.9,16.4,8.9c0.2,0.6,0.6,1,1.2,0.9C310.7,679.4,310.8,678.9,310.6,678.5z M310.5,704.8c0-2.4-0.2-4.8,0-7.2
		c0.5-5.5-1.9-9.6-5.6-13.2c-2.6-2.6-5.7-4.7-9.1-6.2c-8.7-3.8-16.6-2.6-23.6,3.7c-11.1,9.9-12.6,27.4-3.6,39.2
		c9.8,12.8,26.1,14,37.1,2.9c3.1-3.1,4.9-6.6,4.7-11.1C310.3,710.2,310.5,707.5,310.5,704.8z"/>
	<path class="st0" d="M779.3,737.1c-0.3-4.5,2.3-8,3.9-11.8c4.9-11.5,10.3-22.9,15.1-34.5c5-12.2,10.7-24,15.7-36.3
		c1-2.4,1.7-5,3.8-6.8c1.6,0,3.2-0.1,4.8-0.1c9.1,20.8,18.1,41.6,27.2,62.4c3.9,8.9,8,17.8,12,26.7c-2.2,0.2-4.4,0.3-6.5,0.5
		c-1.3-0.2-1.7-1.2-2.1-2.2c-3.7-8.6-7.5-17.2-11.2-25.8c-0.3-0.7-0.4-1.5-0.6-2.2c-0.9-1-2.1-0.7-3.1-0.7c-12,0-23.9,0-35.9,0
		c-1.1,0-2.3-0.3-3.1,0.8c-4.9,9.7-9,19.7-13.2,29.7C783.7,736.9,781.5,737,779.3,737.1z M820.2,658.5
		c-6.1,14.2-11.9,27.5-17.8,41.1c12,0,23.5,0,35.6,0C832.1,685.9,826.3,672.6,820.2,658.5z"/>
	<path class="st0" d="M1223,730.6c5.8-2,10-5.9,12.9-11.3c0.2-0.3,0.8-0.4,1.3-0.5c0.3,0,0.6,0,1,0c1.5,0.5,3,1.1,4.7,1.7
		c-3.7,9.9-10.8,15.6-21,17.6c-3.8,0-7.7,0-11.5,0c-8.7-0.7-14.8-5.6-19.8-12.2c-6.5-8.5-7.8-18.2-6.6-28.6c1-9,5.2-15.9,12-21.6
		c0.3,0.4,0.6,0.4,0.7-0.1c0,0,0.2-0.1,0.2-0.1c0.5,0,0.8-0.2,1-0.7c3.8-2.7,8-4.3,12.5-5.1c3.5,0,7,0.1,10.5,0.1
		c5.7,1.9,11.2,4,15.6,8.5c7.8,8.1,11.5,17.6,10.3,28.9c-16.9,0-33.9,0-50.8,0c-1.7,0-3.5-0.6-5.1,0.6c-0.9,8.3,10.4,22.3,18.4,22.8
		c0.6,0.7,1.3,0.8,2.1,0.6c3.2,0.8,6.4,0.6,9.6,0C1221.7,731.4,1222.4,731.3,1223,730.6z M1190.4,700.3c16.4,0,32.8,0,49.2,0
		c-0.2-12.1-11.1-24.4-24.8-24.5C1202.1,675.8,1190.8,687,1190.4,700.3z"/>
	<path class="st0" d="M599.9,583.6c-0.6-0.1-1.2-0.1-1.8-0.2c-2.2-1.2-4.5-1-6.8-0.9c0,0,0,0,0,0c-1.1-0.9-2.5-0.9-3.8-0.8
		c0,0-0.1,0-0.1,0c-0.8-0.8-1.9-0.8-3-1c-0.1-2.8,1.9-3.5,4-4.1c0.2,0,0.3,0.1,0.5,0.1c22,0.1,43.9-1.3,65.9-1.6
		c0.7,0,1.2-0.2,1.3-1c0.8,1.1,2,0.8,3,0.8c3.6,0,7.3,0,10.9,0c5.1,0.7,10.2,1.1,15.4,0.8c1.3,0.1,2.5,0.2,3.8,0.2
		c1.9,0.8,3.8,0.9,5.8,0.6c1.6,0.1,3.2,0.2,4.8,0.4c2.5,0.9,5.1,1,7.7,0.7c2.6,0.1,5.1,0.2,7.7,0.3c1.9,1,4.1,0.5,6.1,0.6
		c8.2,0.1,16.4,0.6,24.6-0.6c3.5-0.1,7-0.1,10.6-0.2c4.8,0.2,9.7,0.2,14.5-0.7c3.5,0.1,7,0.1,10.5-0.3c5.2,0.6,10.4-0.2,15.6,0.2
		c1.5,0.1,3.2-0.8,4.3,0.9c-4.7,2.2-9.5,4.5-14.2,6.7c-30.4,0-60.8,0-91.2,0c-2.9,0-5.7,0.1-8.6,0.1l-0.4-0.1c0,0-0.4,0-0.4,0
		c-2.9-1-5.8-0.9-8.8-0.8l-0.4-0.1c0,0-0.5,0-0.5,0c-7-1.4-14.1-1.9-21.1,0c0,0-0.1,0-0.1,0c-1.4-0.2-2.7,0-3.8,0.9c0,0-0.1,0-0.1,0
		c-14.7,0-29.4,0.1-44.1,0.1c-0.3,0-0.6-0.1-0.9-0.1C604.4,583.4,602.2,583.5,599.9,583.6z"/>
	<path class="st0" d="M939.7,730.3c-4.4-5.4-4.4-11.5-3.1-17.8c1.6-8,7.6-11.2,14.4-13.7c1.9-0.7,4-0.8,6-1.2c5.1,0,10.2,0,15.3,0
		c0.7,0.1,1.3,0.2,2,0.2c1.2,0.7,2.5,0.9,3.8,0.7c0.6,0.1,1.2,0.2,1.8,0.3c0.7,0.6,1.5,1.4,2.2,0c1-10-2.2-16.4-10.9-21.2
		c-0.3-1-1-1-1.8-0.9c-0.3-0.1-0.6-0.1-0.9-0.2c-0.2-0.4-0.6-0.5-1-0.4c-2.2-0.5-4.4-0.8-6.5,0.2c-0.4,0.1-0.7,0.2-1.1,0.2
		c-1.1-0.2-2.2,0-3,0.8c-2.3,1.1-4.6,2.1-6.8,3.2c-2.3,1.2-4.6,2.6-7,4c-1.9-1.3-2.6-3.7-4.4-5.4c6.6-5,13.5-8.3,21.3-9.7
		c3.2,0,6.4,0,9.6,0.1c13.7,3.1,19.7,13.8,19.8,26.7c0,9.9,0,19.8,0,29.7c0,1.7,0,3.3,1.1,4.9c1.6,2.3,0.9,5.3-1,6.3
		c-1.3,0.7-4.8-0.7-5.9-2.7c-0.6-1.1-0.8-2.4-1.1-3.6c-0.6-1.2-1.2-0.8-1.7,0.1c-3.9,2.2-7.5,5.3-12.1,6c-1.1-0.1-2.2-0.1-3.1,0.7
		c-0.6,0.1-1.1,0.1-1.7,0.2c-3.5-0.1-7-0.1-10.5-0.2c-3.4,0-6.3-1.3-8.7-3.7c-0.1-0.5-0.4-0.8-1-0.7c-0.2-0.3-0.4-0.4-0.7-0.3
		c-0.4-0.2-0.8-0.5-1.2-0.7c-0.4-0.4-0.7-0.7-1.1-1.1C940.2,731,939.9,730.7,939.7,730.3z M982.4,714.2c0-1.4,0-2.2,0-3
		c0-4.5-0.1-4.5-4.6-5.6c-4.5-1.2-9.1-1.6-13.7-1.7c-5.6-0.1-11.1,0.9-16,4c-5.7,3.6-7.3,9.3-4.5,15.4c2.1,4.5,5.6,7.3,10.5,8.1
		c7.2,1.2,14-0.1,20.3-3.7C979.6,724.4,983.3,720.3,982.4,714.2z"/>
	<path class="st0" d="M158.3,676.8c-0.6-0.1-1.3-0.3-1.9-0.4c-1.9-0.8-3.9-0.8-5.8,0c-0.6,0.1-1.2,0.2-1.9,0.4
		c-0.9-0.2-1.6-0.1-2.3,0.6c-4.2,1.3-8,3.6-11.8,5.8c-2.8,1.7-2.7,1.8-4.5-0.7c-0.7-1-1.5-2-2.3-3c6.1-5.3,13.2-8.2,20.9-9.8
		c3.2,0,6.4,0,9.6,0.1c13.9,2.9,20,14.8,19.9,26.5c-0.1,9.9-0.1,19.8,0,29.7c0,1.8-0.5,3.6,1.5,5.1c1.4,1,0.3,3.3,0.6,5
		c-1.4,1-3.3,0.1-4.7,1.1c-0.4-0.3-0.8-0.6-1.1-0.9c0.1-0.6-0.3-0.8-0.8-0.9c0,0-0.1-0.1-0.1-0.1c0-0.5-0.3-0.8-0.8-1
		c-0.4-0.9-0.8-1.9-1.2-2.8c-0.4-1.8-1.1-1.3-1.9-0.2c-4,2.2-7.5,5.2-12.2,6c-1.4-0.1-2.7-0.1-3.9,0.9c0,0,0,0,0,0
		c-3.5,0-7,0.1-10.5,0.1c-9.3-0.4-14.2-6.4-18-13.9c0.1-6.6-1.6-13.2,4.4-18.9c4.9-4.6,10.4-6.5,16.5-7.7c5.1,0,10.2,0,15.3-0.1
		c0.7,0.1,1.3,0.2,2,0.2c1.2,0.6,2.4,0.9,3.8,0.7c4.4,0.7,4.7,0.6,4.3-3.3c-0.8-7.5-3.3-14.3-11.1-17.5
		C159.9,676.6,159.1,676.7,158.3,676.8z M171.2,714c0-1.6,0-2.4,0-3.2c-0.1-4.1-0.1-4.2-3.9-5.2c-5-1.3-10.1-1.9-15.2-1.9
		c-5.1,0-10.2,0.9-14.7,3.6c-6.4,3.8-8.2,10.4-4.4,16.8c2.3,4,5.7,6.4,10.3,7.1c6.7,1,13,0,19-3.3C168,724.9,172.4,720.7,171.2,714z
		"/>
	<path class="st0" d="M449.2,738c-5.4-0.6-9.9-2.6-12.7-7.6c0-0.5-0.3-0.8-0.7-0.9c-2.3-2.6-3.8-5.5-3.8-9.1c0-3.9-0.4-7.9,1.8-11.4
		c3.2-5,7.5-8.5,13.2-10.2c2-0.6,4-0.8,6-1.2c5.1,0,10.2,0,15.3-0.1c0.7,0.1,1.3,0.1,2,0.2c1.2,0.7,2.4,0.9,3.7,0.7
		c0.9,0.2,1.7,0.3,2.6,0.5c0.7,0.6,1.5,1.2,1.8-0.4c0.5-3.2,0-6.4-0.8-9.5c0.2-0.6,0-1-0.5-1.3c-1.9-4.7-5.1-8.3-9.9-10.2
		c-0.2-1.1-1-1-1.8-0.9c-0.6-0.1-1.3-0.3-1.9-0.4c-2.2-0.7-4.4-0.8-6.6,0.1c-0.4,0.1-0.7,0.2-1.1,0.3c-0.9-0.2-1.7-0.1-2.3,0.6
		c-4.3,1.5-8.2,3.7-12,6.1c-2.5,1.6-2.5,1.6-4.2-1c-2.2-3.4-2.1-3.3,1.4-5.8c4.1-2.9,8.6-4.6,13.3-6.2c0.6-0.2,1.4,0,1.9-0.6
		c0.7-0.1,1.3-0.2,2-0.3c3.2,0,6.4,0,9.6,0c13.8,3,19.8,14.1,20,26.5c0.1,9.7,0,19.5,0.1,29.2c0,1.9-0.5,3.9,1.5,5.6
		c1.3,1.1,0.3,3.3,0.5,5.1c-0.4,0.3-0.7,0.6-1.1,0.9c-4.3,0.6-6.4-2-7.8-5.6c-0.4-2-1.1-1.2-1.9-0.3c-4,2.2-7.5,5.2-12.2,6
		c-1.4-0.1-2.7-0.1-3.8,0.9c0,0,0,0,0,0C456.8,738,453,738,449.2,738z M462.7,704c-6.5-0.4-12.7,0.3-18.4,3.7
		c-6.1,3.6-7.8,9.8-4.5,16c2.2,4.2,5.6,6.8,10.4,7.6c8.3,1.4,15.8-0.5,22.6-5.4c3.7-2.7,6-6.1,5.5-11c-0.2-1.7-0.1-3.5,0-5.3
		c0.2-2.1-0.8-3.1-2.8-3.7C471.3,704.8,467,704.3,462.7,704z"/>
	<path class="st1" d="M1931.1,587.5c0-15.6-0.1-31.3-0.1-46.9c0-18.7,0-37.4,0-56c0-1.1,0.1-2.2,0-3.4c-0.2-2.2,0.7-3.2,3-3.1
		c2.5,0.1,5.1,0.1,7.7,0c2.4-0.1,3.1,1.1,3,3.2c0,0.5,0,1,0,1.4c0,34,0,68,0,102c0,1-0.1,1.9-0.2,2.9
		C1940,587.5,1935.6,587.5,1931.1,587.5z"/>
	<path class="st1" d="M1691,697.1c0-15.5,0-31,0-46.5c0-1.1,0.1-2.2,0-3.4c-0.1-2.2,0.7-3.3,3-3.2c2.4,0.1,4.8,0.1,7.2,0
		c2.2,0,3.2,1.1,3.1,3.3c0,1,0,1.9,0,2.9c0,31.3,0,62.7,0,94c0,0.6,0,1.3,0,1.9c-0.1,4-0.4,4.4-4.5,4.3c-10.6-0.1-8.8,1.5-8.8-8.8
		C1691,726.9,1691,712,1691,697.1z"/>
	<path class="st0" d="M828.3,581.7c0,0-0.4-0.1-0.4-0.1s-0.5,0-0.5,0c-1.2-0.7-2.5-1-3.9-0.9c0,0-0.1,0-0.1,0c-0.6-0.7-1.3-0.6-2,0
		c-1.4-1.1-4.5-0.9-4.2-3.1c0.3-2,3.1-2,4.9-2.8c5.1-2.2,10.3-2.6,15.8-2.6c35.3,0.1,70.6,0.1,105.9,0c3.1,0,5.8,0.5,8.5,2.3
		c3.5,2.3,7.8,3.2,12,4.3c1.9,0.5,3.7,0.9,4.9,2.6c-2.1,0.1-4.2,0.1-6.2,0.1c-43.2,0-86.3,0-129.5,0
		C831.8,581.5,830,581.6,828.3,581.7z"/>
	<path class="st0" d="M708.9,671.8c0.1-0.3,0.3-0.6,0.4-0.9c2.4-0.2,5-1.6,7,1c-2.6,5.7-5.4,11.4-7.9,17.2
		c-5.1,11.6-10.1,23.2-15.1,34.7c-4.3,10-8.7,20-13.1,30c-0.8,1.7-1.7,3.4-2.5,5.1c-1.2,2.5-3,4-5.8,4.4c-2,0.2-4,0.4-6,0.5
		c-0.1-0.1-0.2-0.3-0.2-0.4c-0.5-5.9-0.5-5.9,5.2-6.4c0.6,0.1,0.9-0.1,0.8-0.7c2.6-6.1,5-12.3,7.7-18.4c1-2.2,1.2-4,0.1-6.2
		c-6.5-13.8-12.9-27.7-19.4-41.6c-2.6-5.6-5.3-11.3-7.9-16.9c-0.7-1.6,0-2.7,1.7-3c3.5-0.5,4.7,0,6.1,3.1
		c7.5,16.2,14.9,32.5,22.4,48.7c0.2,0.4,0.5,0.8,0.7,1.2c0.3,0.6,0.3,1.2,1.1,1.3c1.2,0.2,1.2-0.8,1.5-1.5c4-9.1,8-18.2,12.1-27.2
		c3.5-7.8,7-15.5,10.5-23.3C708.8,672.6,709,672.3,708.9,671.8z"/>
	<path class="st0" d="M1355.4,728.1c0-0.3-0.1-0.5-0.3-0.6c0-0.6-0.3-0.9-0.8-1c0.3-0.7,0.5-1.5,0.9-2.1c2.2-2.9,2.8-3,5.4-0.5
		c3.6,3.4,7.5,6,12.5,6.7c0.6,0.7,1.4,0.7,2.2,0.5c3.5,0.7,7,0.7,10.6,0c1.1,0.2,2.1,0.2,3-0.7c3.8-1.5,7.1-3.7,9-7.6
		c2.1-4.1,1.5-7.7-2.2-10.3c-3.4-2.4-7.2-4.1-11.4-4.4c-0.9-0.1-1.3-0.8-2-1c-0.9-0.9-2-1-3.1-0.8l-0.3-0.2c0,0-0.4,0-0.4,0
		c-0.6-0.7-1.3-0.8-2.2-0.6c-0.3-0.1-0.6-0.1-0.9-0.2c-1.1-0.9-2.4-1.1-3.8-0.9c-5.2-0.3-9.3-2.5-12.4-6.6
		c-2.3-3.1-2.6-6.6-1.8-10.3c0.7-3.4,1-6.8,2.8-9.9c0.3-0.3,0.9-0.4,0.9-1c0,0,0.1-0.1,0.1-0.1c0.8,0,1.3-0.4,1.6-1
		c0,0,0.2-0.2,0.2-0.2c0.5,0,0.8-0.2,0.9-0.7c2.3-2.7,5.6-3.3,8.8-4.2c0.6-0.2,1.2-0.4,1.8-0.6c0.7-0.1,1.3-0.2,2-0.2
		c3.8,0,7.7,0,11.5,0.1c4.1,1.1,8.1,2.6,11.6,5c0.1,0.5,0.4,0.8,0.9,0.8c0,0,0.1,0.1,0.1,0.1c0.1,0.5,0.3,0.8,0.8,0.8
		c0,0,0.1,0.1,0.1,0.1c0,0.5,0.3,0.8,0.8,0.9c0,0,0.1,0.1,0.1,0.1c0,0.5,0.3,0.9,0.8,1.1c0.1,1,1.4,1.6,1,2.8
		c-0.4,0.3-0.8,0.5-1.2,0.8c-0.2,0-0.3,0-0.5,0c-1.4,0.6-2.8,1.7-4.1,1.6c-1.4,0-1.7-2-2.7-3.1c-1.4-1.5-3.6-1.8-5.1-3.2
		c-0.6-1.2-1.6-1.1-2.7-1c0,0-0.1,0-0.1,0c-4.8-1.7-9.6-1.7-14.4-0.1c-1.2,0.5-2.3,0.9-3.5,1.5c-4.7,2.5-6.9,7-5.9,12.2
		c0.7,3.5,3.2,5.5,6.4,6.5c5.1,1.5,10.4,2.6,15.6,4c4.7,1.3,9.4,2.6,13.5,5.4c5,3.4,7,9.3,5.8,15.3c-1.5,7.6-6.8,11.8-13,15.2
		c-1.5,0.8-3.6,0.8-5.4,1.4c-3.8,0-7.7,0.1-11.5,0.1c-0.6-0.1-1.1-0.1-1.7-0.2c-0.9-0.9-2-0.9-3.1-0.8c-4.7-0.1-8-3-11.5-5.4
		c-0.6-0.4-1.2-0.9-1.9-1.4C1356.9,729.4,1356.5,728.5,1355.4,728.1z"/>
	<path class="st0" d="M1308.8,686.7c1.8,9.8,1.2,19.7,1.2,29.6c0,6.9,0,13.7,0,20.6c-2.2,0.1-4.4,0.1-6.5,0.2
		c-0.1-12.7,0-25.4-0.2-38.2c-0.1-4.4-0.5-8.7-2-13c-1.8-4.9-4.8-7.8-9.5-9.3c-1.5-1.1-3.1-0.6-4.6-0.3c-0.7-0.1-1.3,0-1.9,0.5
		c0,0-0.1,0-0.1,0c-1.1-0.2-2.2,0-3,0.8c-5,2-9.6,4.6-13.1,8.9c-3.2,3.7-5.1,7.8-5.1,12.9c0.1,12.6,0,25.1,0,37.7
		c-2.2,0.4-4.3,0.4-6.5,0c0-21.9,0-43.8,0-65.7c2.1-0.3,4.3-0.3,6.4,0c0.1,2.8,0.1,5.6,0.2,8.4c-0.3,0.6-0.3,1.3,0.4,1.4
		c0.7,0,1.3-0.6,1.3-1.5c8.7-8.8,19.2-11.4,31-8.2c5,1.4,8.1,5.3,10.1,10c0.6,1.3,1,2.7,1.5,4
		C1308.2,685.8,1308.4,686.3,1308.8,686.7z"/>
	<path class="st0" d="M373.5,695.9c-0.1,13.7-0.1,27.4-0.2,41c-2.1,0.2-4.3,0.3-6.4-0.1c0-29.5,0-59,0-88.6c1.9-0.6,3.8-0.4,5.7-0.4
		c17.6-0.1,35.1-0.1,52.7-0.1c1.1,1.7,0.3,3.7,0.7,5.5c-1.6,0.9-3.4,0.6-5.1,0.6c-14.1,0-28.3,0-42.4,0c-1.3,0-2.5,0-3.8,0.1
		c-1,0.1-1.3,0.8-1.1,1.7c-0.1,10.5-0.3,21.1,0.1,31.6c0.5,1.5,1.8,1,2.8,1c13.7,0,27.4,0,41.1-0.1c0.8,2.1,0.8,4.2,0,6.2
		c-11.9,0-23.8-0.1-35.7-0.1c-2.2,0-4.4,0-6.7,0C374.1,694.2,373.3,694.6,373.5,695.9z"/>
	<path class="st0" d="M239.2,736.7c0-13.2,0-26.4,0.1-39.7c0-4.7-1.1-9.2-3-13.5c-1.1-2.6-2.7-4.5-5.1-5.9c-0.2-1.1-1-1-1.8-0.9
		c-0.4-0.1-0.7-0.2-1.1-0.3c-1.9-0.9-3.7-0.8-5.6-0.1c-0.6,0.1-1.3,0.3-1.9,0.4c-0.8-0.2-1.6-0.1-2.2,0.6c-3,1-5.8,2.4-8.3,4.3
		c-0.5,0.1-0.7,0.3-0.8,0.8c0,0-0.2,0.1-0.2,0.1c-0.5,0-0.8,0.3-0.9,0.8c0,0-0.1,0.1-0.1,0.1c-0.6,0-0.8,0.3-0.9,0.9
		c0,0-0.1,0.1-0.1,0.1c-0.5,0.1-0.8,0.3-0.9,0.9c0,0-0.1,0.1-0.1,0.1c-0.5,0.1-0.8,0.4-0.8,0.9c0,0-0.1,0.1-0.1,0.1
		c-0.5,0.1-0.7,0.3-0.8,0.8c-3.2,3.3-4.7,7.3-4.7,11.9c0.1,11.1,0,22.2,0,33.3c0,1.6,0.3,3.2-0.3,4.7c-1.9,0-3.8,0-5.8-0.1
		c-0.1-2.2-0.2-4.4-0.2-6.7c0-18.1,0-36.2,0-54.3c0-1.7,0.2-3.5,0.3-5.2c1.9,0,3.8,0,5.7-0.1c0.9,2.8,0,5.7,0.6,8.5
		c-0.3,0.6-0.4,1.2,0.2,1.5c0.2,0.1,0.9-0.1,1.1-0.4c0.5-0.5,0.8-1.2,1.2-1.8c0.3,0.1,0.6-0.1,0.7-0.4c0.5,0,0.8-0.3,0.8-0.7
		c4.9-6,21.6-10.6,30.6-5.4c3.7,2.1,6.4,5,8,9.1c2.3,5.9,3.2,11.9,3.2,18.1c0,11.2,0,22.3,0,33.5c0,1.4,0.2,2.9-0.4,4.3
		C243.5,736.9,241.3,737.4,239.2,736.7z"/>
	<path class="st0" d="M745.7,593.1c-0.6,0-1.3,0.1-1.9,0.1c-0.8,0-1.6-0.2-2.4-0.1c-8.5,0.9-17.1,1.3-25.6,1c-1.9-0.1-3.8,0-5.7,0.3
		c-1.1,0.2-0.7,1.1,0,1.7c1.7,2.3,4.8,1.8,6.7,3.6c-4.3,0.6-8.6,0.1-12.9,0.1c-11.6,0-23.3-0.1-34.9-0.1c-0.1-1.4,1-2,1.7-2.8
		c0.6-0.1,1.4-0.1,0.8-1c-0.2-0.3-0.8-0.5-1.3-0.5c-5.3-0.1-10.5-0.7-15.8-0.3c-1.7-0.6-3.5-0.8-5-1.8c-1-1.4-2.6-1-3.9-1
		c-8.9,0-17.7,0-26.6,0c0,0-0.1,0-0.1,0c-0.8-0.7-1.8-0.8-2.8-0.9c0,0-0.1-0.1-0.1-0.1c-0.1-0.5-0.3-0.9-0.8-1c0-0.8,0-1.7,1-2
		c1.3,0,2.6,0,3.8,0c54.4,0,108.8,0,163.1,0c1.9,0,3.8,0.1,5.8,0.2c0,0.3,0,0.6,0.1,0.9c-0.7,0.1-1.4,0.3-1.9,0.9c0,0-0.1,0-0.1,0
		c-1.7-0.2-3.3,0.1-4.7,1c0,0-0.1,0-0.1,0c-11.2,0.4-22.5,0.9-33.7,1.3C747.6,592.6,746.6,592.5,745.7,593.1z"/>
	<path class="st0" d="M1045.1,668.9c0-5.6,0-11.1,0.1-16.7c0-1.2-0.6-2.8,1.2-3.2c1.5-0.4,3.2-0.5,4.7,0.1c1.2,0.5,0.8,2,0.8,3
		c0.1,5.9,0.2,11.7,0.2,17.6c0.4,1.6,1.8,1,2.8,1c3.8,0.1,7.6,0,11.4,0c0,0.2,0.1,0.3,0.1,0.5c0.5,5.9,0.5,5.9-5.2,5.9
		c-1.9,0-3.8,0-5.7,0c-3.5,0.1-3.6,0.1-3.6,3.8c0,14.4,0,28.7,0,43.1c0,2.8,0.1,5.5,3.6,6.4c0.3,0.5,0.7,0.7,1.2,0.6
		c1.6,0.4,3.2,0.4,4.8,0c0.8,0.2,1.5,0.1,2.1-0.6c1.1-0.9,2.7-1,3.7-2.2c0.7,0,1.3,0,2-0.1c0,0,0.2,0.2,0.2,0.2
		c0.2,0.4,0.5,0.7,0.7,1.1c2.3,3.5,2.3,3.7-1.5,5.7c-1.6,0.9-3.1,2.2-5.1,1.9c-3.2,0-6.4,0.1-9.6,0.1c-5.7-1.3-8.3-4-8.4-9.6
		c-0.2-14.8-0.1-29.6-0.2-44.4c0-1.3-0.1-2.5,0-3.8c0.1-1.6-0.7-2.3-2.3-2.2c-0.3,0-0.6,0-1,0c-5.6-0.2-5.6-0.2-5.4-6.2
		c2.2,0,4.4-0.1,6.7-0.1C1044.6,670.9,1045.5,670.5,1045.1,668.9z"/>
	<path class="st0" d="M1348.4,671.1c0,1.8,0.1,3.7,0.1,5.5c-2.6,0.7-5.3,0.2-7.9,0.4c-2.1,0.2-4.4-0.7-6.4,0.6
		c-1,0.9-0.7,2.1-0.7,3.1c0,14.4,0,28.7,0,43.1c0,2.8,0.3,5.5,3.4,6.7c0.5,0.7,1.2,0.9,2,0.7c1.3,0.3,2.6,0.3,3.9,0
		c1,0.2,2,0.2,2.6-0.9c2-1.2,3.9-2.8,6.3-0.9c0.1,0.4,0.3,0.7,0.7,0.7c0,0,0.2,0.2,0.2,0.2c0,0.5,0.3,0.8,0.7,0.9
		c0.6,3.1-2.3,3.3-3.8,4.4c-1.3,0.9-3.2,1.1-4.8,1.6c-3.2,0.1-6.4,0.3-9.6-0.1c-3.7,0.1-4.7-3.4-6.9-5.2c-1.4-1.2-0.9-3.6-0.9-5.4
		c0-14.8,0-29.7-0.1-44.5c0-1.5,0.7-3.2-0.7-4.5c-2.6-1.6-5.8,0.4-8.5-1.3c0.5-1.8-0.3-3.8,0.8-5.4c1.7,0,3.4,0.2,5.1,0.1
		c1.1-0.1,2.6,0.7,3.1-1.1c0.1-5.9,0.1-11.7,0.2-17.6c0.1-3.3,0.4-3.4,3.6-3.4c2.1,0,2.7,0.9,2.7,2.9c-0.1,5.2,0,10.5,0,15.7
		c0,0.8,0.2,1.6,0.2,2.4c0.3,1.7,1.6,1.1,2.6,1.1C1340.3,671,1344.4,671,1348.4,671.1z"/>
	<path class="st0" d="M121.9,670.8c0.3,2,0.3,3.9,0,5.9c-1.6,0.3-3.4-0.2-4.9,0.9l-0.4,0c0,0-0.4,0.1-0.4,0.1
		c-1.1-0.2-2.2,0-3.1,0.8c-5.7,2.4-10.4,5.8-13.1,11.7c-1.2,2.8-2,5.6-2,8.8c0.1,11.3,0,22.7,0,34c0,4.4-0.8,5-4.9,4.3
		c-1.1-0.2-1.7-0.6-1.7-1.8c0-1.3,0-2.6,0-3.8c0-20.1,0-40.3-0.1-60.4c2.1-0.8,4.4-0.5,6.6-0.4c0.1,2.6,0.2,5.1,0.3,7.7
		c-0.1,0.7-0.7,1.6,0.5,1.7c0.8,0.1,1.3-0.7,1.2-1.6c4-4.7,9.4-6.9,15.3-7.9C117.4,670.7,119.7,670.7,121.9,670.8z"/>
	<path class="st0" d="M1000.3,736.6c0-21.8,0-43.6,0-65.4c2.1-0.9,4.3-0.6,6.5-0.3c0.6,2.4-1.2,5.9,1.2,7c1.7,0.8,3.7-2.3,5.6-3.6
		c3.2-2.1,6.8-3.1,10.5-3.7c2.2,0.1,4.5,0.1,6.7,0.2c0,1.9,0,3.8,0,5.7c-1.6,0.4-3.4-0.2-4.9,1l-0.4,0l-0.4,0.1
		c-1.2-0.2-2.2,0-3.1,0.8c-7.4,3-12.9,7.8-14.5,16c-0.5,0.4-0.6,0.8-0.5,1.4c-0.1,11.8-0.1,23.6-0.2,35.3c0,1.9-0.1,3.8-0.1,5.7
		C1004.6,737,1002.4,737.3,1000.3,736.6z M1007.8,680c-0.1-0.1-0.2-0.3-0.3-0.3c-0.2,0-0.4,0.2-0.6,0.3c0.1,0.1,0.2,0.3,0.3,0.3
		C1007.4,680.2,1007.6,680.1,1007.8,680z"/>
	<path class="st0" d="M641.1,737.1c-5.1-1.1-7.1-3.2-7.7-8.1c-0.2-1.9-0.4-3.8-0.4-5.7c0-23.8,0-47.6,0-71.5c0-1.3,0-2.6,0.2-3.8
		c0.3-1.8,1.4-2.8,3.2-3c1.6-0.2,2.9,0.1,2.8,2.2c0,1.1,0,2.2,0,3.4c0,24,0,48,0,71.9c0,8,2.2,9.7,9.8,7.9c3.7-0.9,3.7-0.9,6.1,4.4
		c-1.5,1.3-3.1,2.6-5.4,2.3C646.9,737.1,644,737.1,641.1,737.1z"/>
	<path class="st2" d="M730.4,509.6c-14.8,1-29.7,1.4-44.6,0.8c1.8-1.1,3.7-0.7,5.6-0.7c7.8,0,15.6,0,23.4-0.3c-1-1-2.2-0.7-3.3-0.7
		c-20,0.5-39.9-0.8-59.9-1.2c-8.9-0.2-17.9-0.3-26.8-0.9c-13.1-0.9-26.1-1.1-39.2-2c-8.3-0.5-16.6-0.4-24.9-0.9
		c-16.9-1.1-33.8-1.3-50.7-2c-13.1-0.6-26.2-0.4-39.3-0.7c-1.5,0-3.2,0.4-4.5-0.9c31.6-0.1,63.3,1,94.9,2.5
		c29.5,1.3,59.1,2.5,88.6,3.7c21.2,0.9,42.5,1.3,63.7,1.1c38.2-0.4,76.3-2.3,114.2-7.9c1.7-0.3,3.5-0.2,5.2-0.2
		c-2.5,1.5-5.5,1.3-8.2,1.7c-12.6,1.7-25.2,3.2-37.9,4.2c-9.2,0.7-18.4,1.3-27.6,1.9c-8.8,0.6-17.5,0.6-26.2,0.8
		C731.9,507.8,730.5,507.8,730.4,509.6z"/>
	<path class="st2" d="M511.6,529.8c1.8-0.1,3.5-0.2,5.3-0.1c35,0.2,70-0.7,105-1c24.6-0.2,49.2-0.6,73.8-1.2
		c20.3-0.5,40.6-0.4,60.9-0.8c33.6-0.7,67.1-0.7,100.7-0.4c20.6,0.1,41.2,0.8,61.8,1.3c0.8,0,1.6,0.2,2.3,0.3
		c-0.6,0.6-1.3,1-2.1,0.8c-9-1.4-18.2-0.6-27.3-0.8c-8.5-0.2-17,0.3-25.4-0.1c-26.8-1.5-53.7-1.1-80.4-0.5
		c-28.6,0.6-57.2-0.1-85.7,1c-17.4,0.7-34.8,0-52.2,0.9c-23.9,1.2-47.9-0.1-71.8,1c-20,0.9-39.9,0.2-59.9,0.6
		C514.9,530.7,513,531.3,511.6,529.8z"/>
	<path class="st0" d="M616.1,671c0,21.9,0,43.9-0.1,65.8c-2.1,0.3-4.3,0.3-6.4-0.1c0-21.9,0-43.8,0-65.7
		C611.7,670.5,613.9,670.6,616.1,671z"/>
	<path class="st2" d="M948.8,283c-1.6-1-3.4-0.6-5.2-0.6c-71.5,0-142.9,0-214.4,0c-1.7,0-3.5-0.4-5.2,0.6c-0.4-1,0.1-1.5,1.1-1.6
		c1.3-0.1,2.5-0.1,3.8-0.1c71.7,0,143.4,0,215,0c1.3,0,2.6,0,3.8,0.1C948.7,281.4,949.2,282,948.8,283z"/>
	<path class="st0" d="M960,584.7c-1.4,1.6-2.3,2.7-4.1,2.6c-2.1-0.1-4.1,0-6.2,0c-36.3,0-72.6-0.1-108.8-0.2c-0.8,0-1.6-0.1-2.4,0
		c-1.2,0.2-1.8-0.6-1.9-1.6c-0.1-1.1,0.9-1.1,1.7-1.1c0.8,0,1.6,0,2.4,0c38.4,0,76.7,0,115.1,0C957,584.5,958.2,584.6,960,584.7z"/>
	<path class="st2" d="M724.5,380.7c36.4,0,72.7-0.1,109.1-0.1c3.6,0,3.6,0.1,3.7,3.7c0,3.5,0,7,0,10.5c0,1.2,0.3,2.6-1.3,3.3
		c0-4.1,0.1-8.3,0.1-12.4c0-3.6-0.1-3.6-3.9-3.7c-1.1,0-2.2,0-3.4,0c-33,0-66.1,0-99.1,0C727.9,381.9,725.8,382.8,724.5,380.7z"/>
	<path class="st2" d="M571.1,554.7c5-1.2,10.1-0.9,15.2-1.1c16.9-0.4,33.8,0.4,50.7,1.5c23.6,1.5,47.2,1.2,70.8-0.9
		c18.9-1.7,37.8-3.5,56.8-3.4c4.9,0,9.9-0.4,14.7,1c-4,0-8,0.2-12,0c-11.4-0.5-22.7,0.6-33.9,1.3c-12.1,0.7-24.1,1.9-36.2,2.8
		c-10.8,0.8-21.6,2.3-32.4,1.5c-10-0.7-20-0.6-30.1-1.4c-16.7-1.4-33.5-1.5-50.2-1.3C580,554.8,575.6,554.7,571.1,554.7z"/>
	<path class="st2" d="M685.3,575.7c-5.2,0.3-10.3-0.1-15.4-0.8c-0.1-0.6-0.1-1.5-0.8-1.6c-4.4-0.2-8.8-1.2-13.1,0.7
		c-0.1,0.8-0.6,1-1.3,1c-22,0.3-43.9,1.7-65.9,1.6c-0.2,0-0.3,0-0.5-0.1c1.2-1.2,2.7-0.8,4-0.8c5.1-0.1,10.2-0.1,15.2-0.1
		c1,0,2.2,0.4,3.2-0.7c-0.7-1.2-1.9-0.8-2.8-0.9c-6.8-0.1-13.7,0-20.5-0.1c-1.7,0-3.5,0.5-5-1c21.2,0.9,42.3,0.1,63.5-0.2
		c9.9-0.2,19.7-0.9,29.6-0.7c-0.5,1.1-2.1,0.7-2.6,2.1c1.5,1.1,3.3,0.5,4.9,0.7C680.4,575.1,683,574.2,685.3,575.7z"/>
	<path class="st2" d="M788.9,588.4c-1.9-0.1-3.8-0.2-5.8-0.2c-54.4,0-108.8,0-163.1,0c-1.3,0-2.6,0-3.8,0c1.3-1.4,3-0.9,4.5-0.9
		c54.4,0,108.9,0,163.3,0C785.7,587.3,787.6,586.7,788.9,588.4z"/>
	<path class="st2" d="M833.2,499.1c4.6-1.4,9.5-1.3,14.2-1.7c22.2-1.8,44.3-1.3,66.5,0.2c16.6,1.1,33.1,2.4,49.8,2.4
		c1.8,0,3.9,0.9,5.3-1c0.9,0.4,1.4,1.2,0.4,1.7c-0.9,0.4-2.2,0.3-3.3,0.4c-11.5,0.4-22.9-0.5-34.3-1.1c-11.4-0.6-22.9-1.1-34.3-2
		c-10.8-0.8-21.6-0.7-32.5-0.5c-8.9,0.1-17.7,1.2-26.6,1.8C836.7,499.2,835,499.1,833.2,499.1z"/>
	<path class="st2" d="M828.3,581.7c1.8-0.1,3.5-0.2,5.3-0.2c43.2,0,86.3,0,129.5,0c2.1,0,4.2-0.1,6.2-0.1c-1,1.9-2.8,1.2-4.3,1.2
		c-8.3,0.1-16.6,0-24.9,0c-35.4,0-70.9,0-106.3,0C831.9,582.5,829.9,583.2,828.3,581.7z"/>
	<path class="st2" d="M1045.9,1196.6c6-0.8,12.1-0.5,18.2-0.5c27.8-0.3,55.6-0.4,83.4-0.6c0.8,0,1.6,0.2,2.3,0.3
		c-0.9,1.2-2.3,0.9-3.5,0.9c-32.5,0.1-65,0.2-97.5,0.2C1047.8,1197,1046.8,1196.8,1045.9,1196.6z"/>
	<path class="st0" d="M683.6,603.9c10.7,0,21.4,0,32.7,0c-3.8,2.9-8.1,2.3-11.8,3.8c-0.9-0.2-1.6,0-2.3,0.6c-0.6,0-1.1,0.4-1.7,0.7
		c-3,1.1-4.5,0.6-6.8-2.3c-0.9-1.4-2.4-1-3.7-1C687.9,605.1,685.7,604.5,683.6,603.9l-0.2-0.2L683.6,603.9z"/>
	<path class="st2" d="M1297.7,1367.7c32.8,0,65.5,0,98.3,0c1.1,0,2.2-0.1,3.3-0.1c-0.8,1.4-2.2,1.1-3.4,1.1c-31.6,0-63.1,0-94.7,0
		C1299.9,1368.6,1298.6,1369,1297.7,1367.7z"/>
	<path class="st2" d="M1221.8,1564.4c32.9,0,65.8,0,98.7,0c1,0,1.9-0.1,2.9-0.1c-0.8,1.4-2.2,1.1-3.4,1.1c-31.6,0-63.1,0-94.7,0
		C1224.1,1565.4,1222.7,1565.7,1221.8,1564.4z"/>
	<path class="st2" d="M687.2,584.5c2.9,0,5.7-0.1,8.6-0.1c30.4,0,60.8,0,91.2,0c-1.1,1.4-2.6,1-4,1c-30.6,0-61.2,0-91.8,0
		C689.8,585.4,688.3,585.8,687.2,584.5z"/>
</g>
</svg>
