<?xml version="1.0" encoding="utf-8"?>
<!-- Generator: Adobe Illustrator 23.1.0, SVG Export Plug-In . SVG Version: 6.00 Build 0)  -->
<svg version="1.1" id="Layer_1" xmlns="http://www.w3.org/2000/svg" xmlns:xlink="http://www.w3.org/1999/xlink" x="0px" y="0px"
	 viewBox="0 0 489.1 265.9" style="enable-background:new 0 0 489.1 265.9;" xml:space="preserve">
<style type="text/css">
	.st0{fill:#5163A9;}
	.st1{fill:#678DC1;stroke:#5163A9;stroke-width:1.4173;stroke-miterlimit:22.9256;}
</style>
<g>
	<path class="st0" d="M245.9,0c0.2,0.1,0.4,0.1,0.6,0.2c2.3,0.1,4.6,0.1,6.9,0.4c3.6,0.4,7.1,1,10.7,1.6c4.4,0.7,8.8,2,13,3.4
		c4.5,1.5,8.8,3.5,13,5.7c4.2,2.2,8.2,4.9,12,7.8c1.8,1.4,3.5,3,5.2,4.6c1.1,1,2.1,2.1,3.2,3.2c2.7,2.7,5.2,5.7,7.3,9
		c1.7,2.6,3.2,5.4,4.9,8.1c0.3,0.5,0.3,0.7-0.3,1.1c-3.1,2.3-6.1,4.7-9.2,7c-2.3,1.7-4.5,3.4-6.8,5.1c-3,2.3-6,4.6-9.1,6.9
		c-2.1,1.6-4.2,3.1-6.3,4.7c-1,0.8-2,1.6-3,2.3c-1.4-2.2-2.6-4.4-4-6.5c-2.2-3.4-5-6.3-7.9-9c-3.2-2.8-6.7-5.2-10.5-7.1
		c-3.8-2-7.8-3.5-11.9-4.6c-2.2-0.6-4.5-1-6.8-1.2c-3-0.3-6-0.6-9-0.5c-5.6,0.2-11.1,1.3-16.3,3.4c-4.1,1.7-7.9,3.9-11.4,6.6
		c-2.6,2.1-5.1,4.3-7.2,7c-1.8,2.4-3.7,4.8-5.3,7.3c-1.6,2.6-2.8,5.3-4.1,8.1C192.1,78,191,82,190.1,86c-0.5,2.4-0.9,4.9-1.3,7.3
		c-0.6,4.1-0.8,8.3-0.6,12.5c0.1,2.5,0.4,4.9,0.6,7.4c0.5,5,1.7,9.8,3.4,14.6c1.5,4.3,3.5,8.4,5.9,12.3c1.7,2.6,3.6,5.1,5.6,7.4
		c2.6,3,5.6,5.6,8.9,7.9c4.3,3,9,5.4,14,6.7c2.5,0.7,5,1.1,7.6,1.6c3.4,0.7,7,0.6,10.4,0.5c2.8-0.1,5.6-0.6,8.4-1
		c3.8-0.6,7.5-1.9,11-3.4c3.2-1.4,6.3-3,9.3-5c3.2-2.1,6.3-4.4,9.1-7c1.6-1.5,3.2-2.9,4.7-4.4c1.4-1.4,2.6-2.9,3.9-4.4
		c0.1-0.2,0.3-0.4,0.3-0.6c0-1.8,0-3.6,0-5.6c-13.2,0-26.3,0-39.4,0c0-11.5,0-22.8,0-34.3c26.1,0,52.1,0,78.3,0c0,0.3,0,0.7,0,1
		c0,19.3,0,38.5,0,57.8c0,1.1,0.4,1.8,1.4,2.1c1.3,0.4,2.6,0.8,3.9,1.2c1,0.3,2,0.6,3.1,1c-0.3,0.7-0.7,0.9-1.2,1
		c-2,0.5-3.9,1-5.9,1.6c-1.2,0.4-1.4,0.9-0.8,2c0.6,1.2,1.4,2.4,2.3,3.4c1.2,1.4,2.6,2.7,3.9,4.1c0.2,0.2,0.3,0.4,0.6,0.8
		c-0.5,0-0.8,0-1.1,0c-16.7,0-28.3-3-50,0c-40.7,5.7-82.2,0-123.3,0c-1.5,0-2.7-0.6-3.9-1.4c-0.7-0.5-1.5-1-2.2-1.4
		c-1.7-1-1.7-2.6-1.3-4.2c0.2-0.8,0.5-1.7,0.8-2.5c0.8-2.3,0.2-4.1-1.4-5.9c-2.4-2.7-5.5-4.6-8.5-6.7c-1.2-0.8-2.2-1.8-3.1-2.9
		c-0.7-0.8-0.7-2-0.2-3c0.5-1,1-2,1.4-3c1-2.2,1.5-4.4,0.8-6.8c-1.1-3.9-2-7.8-2.9-11.8c-0.5-2.2-0.7-4.5-1-6.7
		c-0.3-2.2-0.5-4.4-0.7-6.6c-0.1-0.9-0.1-1.8-0.2-2.7c0-0.2-0.1-0.3-0.2-0.5c0-4.2,0-8.5,0-12.7c0.1-0.1,0.1-0.2,0.2-0.3
		c0.3-2.9,0.5-5.8,0.8-8.6c0.4-2.9,0.8-5.8,1.5-8.6c1-4.1,2.2-8.1,3.6-12.1c1.6-4.6,3.6-9.1,6-13.4c1.3-2.3,2.5-4.5,3.9-6.7
		c2.1-3.1,4.3-6.1,6.5-9c1.7-2.2,3.5-4.2,5.4-6.2c2.3-2.3,4.7-4.5,7.1-6.6c1.8-1.6,3.7-3.1,5.6-4.5c3.5-2.4,7-4.7,10.6-6.8
		c2.9-1.7,6-3.1,9-4.4c3.2-1.4,6.4-2.5,9.7-3.6c5.9-2,11.9-3.2,18.1-3.9c2.8-0.3,5.6-0.4,8.4-0.7c0.2,0,0.4-0.1,0.7-0.2
		C240.6,0,243.3,0,245.9,0L245.9,0z"/>
	<path class="st0" d="M339.5,184.8c-0.2,0-0.5,0-0.8,0c-51.4-2.7-106.9,0-160.3,0c-1,0-1.7-0.4-2.3-1c-2-2.2-4.6-2.7-7.3-3.2
		c-2.7-0.6-5.5-1.1-8.2-1.6c-0.1,0-0.2-0.1-0.4-0.3c0.9-0.3,1.7-0.6,2.6-1c0.3-0.1,0.6-0.2,0.9-0.3c0.7-0.3,1.2-0.7,0.6-1.6
		c0.4,0,0.7,0,1,0c65.2,5.6,114.8,0,172.3,0c0.4,0,0.9,0.2,1.2,0.4c1.4,0.7,2.7,1.5,4,2.3c0.6,0.4,1.5,0.6,1.4,1.5
		c-0.1,0.9-1,1.1-1.7,1.3c-0.7,0.3-1.6,0.3-2.2,0.7c-0.5,0.3-1,0.8-1.2,1.4C339.1,183.6,339.4,184.2,339.5,184.8L339.5,184.8z"/>
	<path class="st0" d="M290.2,185.9c-0.7,0.6-1.1,1.1-1.6,1.5c-1.8,1.4-3.5,2.9-4.6,4.9c-0.1,0.1-0.2,0.2-0.2,0.3
		c-0.3,1.4-1.2,1.5-2.5,1.5c-15.5-4.2-32.5,0-48.7,0c-13.3,0-25.8-2.1-40,0c-1,0-1.8-0.2-2.7-0.7c-1.6-0.8-3.3-1.4-5-2.1
		c-1.2-0.5-2.4-1-3.7-1.4c-1.7-0.6-3.5-1.2-5.3-1.7c-0.3-0.1-0.5-0.1-0.7-0.3c-0.4-0.2-0.5-0.6,0-0.8c1.4-0.6,2.6-1.2,4.2-1.2
		c31,2.6,37.7,2.2,55.1,2.2c19.1,0,34-3.3,54.4-2.2C289.2,185.9,289.6,185.9,290.2,185.9L290.2,185.9z"/>
	<path class="st0" d="M291.5,195.8c0-4,0-5.8,0-9.9c6.1,0,8.6-0.8,18.6,1c12.2,2.2,22-1,33.1-1c-0.2,0.9-1.1,1.1-1.8,1.4
		c-2.2,0.8-4.4,1.5-6.6,2.3c-0.4,0.1-0.8,0.3-1.2,0.5c-0.7,0.4-0.7,0.8,0,1.1c1.2,0.5,2.5,0.9,3.7,1.3c0.7,0.3,1.6,0.1,2,1.1
		c-1.2,0.3-2.4,0.6-3.6,0.9c-1.2,0.3-2.5,0.6-3.6,1c-1,0.4-2.1,0.9-1.8,2.4c-7.4,0-11.3-0.1-22.7-1.6
		C301.6,195.7,297.1,195.8,291.5,195.8L291.5,195.8z"/>
	<path class="st0" d="M188.5,197.1c1.6-0.9,3.1-1.2,4.7-1.2c15.1,0,29.7,1.3,45.2,0c14.2-1.1,28.5,0,42.8,0c0.4,0,0.7,0,1.2,0
		c-0.3,1.5-0.9,2.8-1.8,3.9c-0.1,0.2-0.4,0.2-0.6,0.3c-0.2,0.1-0.5,0-0.7,0c-9.9,0-20.5-1.8-29.6-1.3c-14.5,0.8-29,1.3-43.5,1.3
		c-2.1,0-4.1-0.3-6.1-0.7c-2-0.4-4-0.6-6-0.9c-1.4-0.2-2.8-0.4-4.2-0.7C189.3,197.7,189,197.4,188.5,197.1L188.5,197.1z"/>
	<path class="st0" d="M279,201.4c-0.8,0.4-1.6,0.7-2.4,1.1c-0.9,0.4-1.8,0.9-2.7,1.3c-0.2,0.1-0.4,0.1-0.6,0.1c-4.8,0-9.7,0-14.5,0
		c-3.1,0-6.2,0-9.3,0c-3,0-5.9,0-8.9,0c-4.7,0-9.5-1.6-14.2,0c-4.1,0-8.2,0-12.2,0.1c-2.8,0.1-5.5-0.5-8.3-0.8c-1-0.1-1.9-0.4-3-0.6
		c0.6-1,1.3-1.4,2.3-1.4c11.9,0,23.9-1.2,35.8,0c13.1,1.4,24.8,0,37.2,0c0.3,0,0.5,0,0.8,0C279,201.2,279,201.3,279,201.4L279,201.4
		z"/>
	<path class="st0" d="M337.4,202.9c-0.3,0-0.5,0-0.8,0c-15.9,0-31.8,0-47.7,0c-1.5,0-2.9-0.5-4.5-1.3c0.4-0.3,0.7-0.6,1.1-0.8
		c1.1-0.4,2.3-0.8,3.5-1.1c0.4-0.1,0.9,0,1.3,0c13.1,0,26.1,0,39.2,0c0.6,0,1.1,0.1,1.6,0.5c0.7,0.5,1.5,0.8,2.3,1.1
		c1,0.3,2.1,0.6,3.1,0.9c0.4,0.1,0.7,0.4,1,0.5C337.5,202.7,337.5,202.8,337.4,202.9L337.4,202.9z"/>
	<path class="st0" d="M232.5,209.3c0.5-0.5,1-0.8,1.5-1.3c-0.2-0.1-0.4-0.2-0.6-0.2c-0.5-0.1-1-0.1-1.5-0.1c-1.9,0-3.9,0-5.7-0.8
		c-0.8-0.3-1.7-0.2-2.6-0.2c-2.1,0-4.1,0-6.2,0c-1,0-2-0.1-3-0.3c-0.2,0-0.4-0.4-0.6-0.6c0.2-0.2,0.4-0.5,0.7-0.6
		c0.2-0.1,0.4,0,0.6,0c19.4,0,38.8,0,58.2,0c0.4,0,0.8,0.1,1.2,0.1c0,0.1,0,0.3,0,0.4c-1.1,0.2-2.1,0.5-3.2,0.6
		c-3.8,0.2-7.6,0.3-11.4,0.5c-2,0.1-4,0.4-6,0.5c-1.6,0.1-3.1,0-4.7,0c-0.9,0-1.7,0.1-2.8,0.1c0.8,1.4,2.2,1.2,3.2,2
		C243.9,209.3,238.3,209.3,232.5,209.3L232.5,209.3z"/>
	<path class="st0" d="M334.3,204.3c-0.9,0.2-1.7,0.6-2.6,0.6c-10.9,0-21.9,0-32.8-0.1c-2.3,0-4.5,0-6.8,0c-0.6,0-0.9-0.1-1.1-0.8
		c14.4,0,28.8,0,43.2,0C334.2,204.2,334.2,204.2,334.3,204.3L334.3,204.3z"/>
	<path class="st0" d="M242.1,212.7c0-0.9-0.5-1.2-1.2-1.3c-1.2-0.2-2.4-0.4-3.6-0.7c4,0,8.1,0,12.1,0c0,0,0,0.1,0,0.1
		C247.1,211.4,244.6,212,242.1,212.7L242.1,212.7z"/>
	<path class="st1" d="M24.8,251.4c-3.1,3.5-6.7,5.3-10.7,5.3c-2.1,0-4-0.4-5.7-1.3c-1.7-0.9-3.2-2-4.4-3.5c-1.2-1.4-2.2-3-2.9-4.9
		c-0.7-1.8-1-3.6-1-5.5c0-1.9,0.3-3.8,1-5.6c0.7-1.8,1.6-3.4,2.8-4.9c1.2-1.4,2.6-2.5,4.3-3.4c1.7-0.8,3.5-1.3,5.5-1.3
		c1.5,0,2.9,0.2,4.1,0.5c1.2,0.3,2.3,0.8,3.2,1.3c0.9,0.6,1.7,1.3,2.4,2.1c0.7,0.8,1.2,1.7,1.7,2.6l-0.8,0.3
		c-1.1-2.1-2.6-3.6-4.4-4.5c-1.8-0.9-3.8-1.4-6.2-1.4c-2,0-3.7,0.4-5.3,1.2c-1.6,0.8-2.9,1.9-4,3.3c-1.1,1.3-2,2.9-2.5,4.6
		c-0.6,1.7-0.9,3.4-0.9,5.2c0,1.9,0.3,3.7,1,5.4c0.7,1.7,1.6,3.2,2.8,4.6c1.2,1.3,2.6,2.4,4.2,3.2c1.6,0.8,3.3,1.2,5.2,1.2
		c2,0,3.8-0.4,5.6-1.3c1.8-0.9,3.5-2.3,5.2-4.3v-7.1h-7v-0.8h7.8v14.2h-0.8V251.4L24.8,251.4z"/>
	<path class="st1" d="M41,235.5c-2.1,0.1-3.9,0.8-5.3,2c-1.5,1.3-2.5,3-3.1,5.2v13.8h-0.8v-21.8h0.8v5.6c0.8-1.5,1.8-2.8,3-3.8
		c1.3-1,2.6-1.6,4-1.7c0.3,0,0.5,0,0.8-0.1c0.2,0,0.4,0,0.6,0V235.5L41,235.5z"/>
	<path class="st1" d="M50.4,256.9c-1,0-1.9-0.2-2.8-0.5c-0.9-0.4-1.6-0.8-2.2-1.4c-0.6-0.6-1.1-1.3-1.5-2.1
		c-0.4-0.8-0.5-1.7-0.5-2.6c0-0.9,0.2-1.8,0.7-2.5c0.4-0.8,1-1.4,1.8-2c0.8-0.5,1.7-1,2.9-1.3c1.1-0.3,2.3-0.5,3.6-0.5
		c1.3,0,2.5,0.1,3.8,0.3c1.3,0.2,2.4,0.5,3.5,0.9v-2.5c0-1.1-0.2-2.1-0.5-3.1c-0.3-0.9-0.8-1.7-1.4-2.4c-0.6-0.7-1.4-1.2-2.3-1.5
		c-0.9-0.4-1.9-0.5-2.9-0.5c-1.1,0-2.2,0.2-3.4,0.7c-1.2,0.5-2.4,1.1-3.7,2l-0.5-0.7c2.8-1.9,5.3-2.9,7.6-2.9c1.2,0,2.3,0.2,3.3,0.6
		c1,0.4,1.8,1,2.5,1.7c0.7,0.7,1.2,1.6,1.6,2.6c0.4,1,0.6,2.2,0.6,3.5v12.1c0,0.6,0.2,0.8,0.7,0.8v0.8c-0.3,0-0.5,0-0.6-0.1
		c-0.3-0.1-0.5-0.3-0.7-0.6c-0.2-0.3-0.3-0.6-0.3-1v-2c-1,1.3-2.3,2.3-3.9,3C54.1,256.6,52.3,256.9,50.4,256.9L50.4,256.9z
		 M50.4,256.1L50.4,256.1c1.9,0,3.6-0.3,5.1-1.1c1.6-0.7,2.7-1.6,3.5-2.8c0.4-0.6,0.6-1.2,0.6-1.7v-4.3c-2.2-0.9-4.7-1.3-7.3-1.3
		c-1.2,0-2.3,0.1-3.3,0.4c-1,0.3-1.8,0.6-2.6,1.1c-0.7,0.5-1.3,1-1.7,1.7c-0.4,0.7-0.6,1.4-0.6,2.2c0,0.8,0.2,1.6,0.5,2.3
		c0.3,0.7,0.8,1.3,1.3,1.9c0.6,0.5,1.2,0.9,2,1.2C48.7,255.9,49.6,256.1,50.4,256.1L50.4,256.1z"/>
	<path class="st1" d="M84.2,256.5h-0.8v-12.1c0-3.2-0.4-5.5-1.3-7c-0.9-1.5-2.3-2.2-4.3-2.2c-1.1,0-2.1,0.2-3.1,0.6
		c-1,0.4-2,0.9-2.8,1.6c-0.9,0.7-1.6,1.5-2.3,2.4c-0.6,0.9-1.1,1.9-1.4,3v13.8h-0.8v-21.8h0.8v5.6c0.4-0.9,1-1.7,1.7-2.4
		c0.7-0.7,1.5-1.4,2.3-1.9c0.8-0.5,1.7-0.9,2.7-1.2c1-0.3,1.9-0.4,2.9-0.4c2.2,0,3.9,0.8,4.9,2.4c1,1.6,1.6,4.1,1.6,7.6V256.5
		L84.2,256.5z"/>
	<path class="st1" d="M99.8,256.9c-1.5,0-2.9-0.3-4.2-1c-1.3-0.6-2.4-1.5-3.3-2.6c-0.9-1.1-1.7-2.3-2.2-3.6
		c-0.5-1.3-0.8-2.7-0.8-4.1c0-1.5,0.3-2.9,0.8-4.3c0.5-1.4,1.2-2.6,2.1-3.6c0.9-1,2-1.9,3.2-2.5c1.2-0.6,2.6-0.9,4-0.9
		c1,0,2,0.1,2.8,0.4c0.9,0.3,1.7,0.7,2.5,1.2c0.8,0.5,1.4,1.1,2,1.7c0.6,0.7,1.1,1.4,1.6,2.1v-13.9h0.8v29c0,0.6,0.2,0.8,0.7,0.8
		v0.8c-0.3,0-0.4,0-0.5-0.1c-0.3-0.1-0.5-0.4-0.7-0.7c-0.2-0.3-0.3-0.6-0.3-0.9V252c-0.5,0.7-1,1.4-1.7,2c-0.6,0.6-1.3,1.1-2.1,1.6
		c-0.7,0.4-1.5,0.8-2.3,1C101.5,256.8,100.7,256.9,99.8,256.9L99.8,256.9z M99.8,256.1L99.8,256.1c0.8,0,1.7-0.2,2.7-0.5
		c1-0.4,1.9-0.8,2.7-1.4c0.8-0.6,1.5-1.3,2.1-2.1c0.6-0.8,0.9-1.7,0.9-2.6v-7.9c-0.3-0.9-0.8-1.7-1.4-2.5c-0.6-0.8-1.4-1.4-2.2-2
		c-0.8-0.6-1.7-1-2.6-1.4c-0.9-0.3-1.8-0.5-2.7-0.5c-1.4,0-2.7,0.3-3.8,0.9c-1.1,0.6-2.1,1.4-2.9,2.4c-0.8,1-1.4,2.1-1.9,3.4
		c-0.4,1.3-0.6,2.5-0.6,3.8c0,1.4,0.3,2.7,0.8,3.9c0.5,1.2,1.2,2.4,2.1,3.3c0.9,1,1.9,1.7,3.1,2.3C97.2,255.8,98.5,256.1,99.8,256.1
		L99.8,256.1z"/>
	<polygon class="st1" points="127.9,256.5 127.9,226.7 147,226.7 147,227.5 128.7,227.5 128.7,240.8 144.3,240.8 144.3,241.6 
		128.7,241.6 128.7,256.5 127.9,256.5 	"/>
	<path class="st1" d="M157.6,256.9c-1,0-1.9-0.2-2.8-0.5c-0.9-0.4-1.6-0.8-2.2-1.4c-0.6-0.6-1.1-1.3-1.5-2.1
		c-0.4-0.8-0.5-1.7-0.5-2.6c0-0.9,0.2-1.8,0.7-2.5c0.4-0.8,1-1.4,1.8-2c0.8-0.5,1.7-1,2.9-1.3c1.1-0.3,2.3-0.5,3.6-0.5
		c1.3,0,2.5,0.1,3.8,0.3c1.3,0.2,2.4,0.5,3.5,0.9v-2.5c0-1.1-0.2-2.1-0.5-3.1c-0.3-0.9-0.8-1.7-1.4-2.4c-0.6-0.7-1.4-1.2-2.3-1.5
		c-0.9-0.4-1.9-0.5-2.9-0.5c-1.1,0-2.2,0.2-3.4,0.7c-1.2,0.5-2.4,1.1-3.7,2l-0.5-0.7c2.8-1.9,5.3-2.9,7.6-2.9c1.2,0,2.3,0.2,3.3,0.6
		c1,0.4,1.8,1,2.5,1.7c0.7,0.7,1.2,1.6,1.6,2.6c0.4,1,0.6,2.2,0.6,3.5v12.1c0,0.6,0.2,0.8,0.7,0.8v0.8c-0.3,0-0.5,0-0.6-0.1
		c-0.3-0.1-0.5-0.3-0.7-0.6c-0.2-0.3-0.3-0.6-0.3-1v-2c-1,1.3-2.3,2.3-3.9,3C161.3,256.6,159.5,256.9,157.6,256.9L157.6,256.9z
		 M157.6,256.1L157.6,256.1c1.9,0,3.6-0.3,5.1-1.1c1.6-0.7,2.7-1.6,3.5-2.8c0.4-0.6,0.6-1.2,0.6-1.7v-4.3c-2.2-0.9-4.7-1.3-7.3-1.3
		c-1.2,0-2.3,0.1-3.3,0.4c-1,0.3-1.8,0.6-2.6,1.1c-0.7,0.5-1.3,1-1.7,1.7c-0.4,0.7-0.6,1.4-0.6,2.2c0,0.8,0.2,1.6,0.5,2.3
		c0.3,0.7,0.8,1.3,1.3,1.9c0.6,0.5,1.2,0.9,2,1.2C156,255.9,156.8,256.1,157.6,256.1L157.6,256.1z"/>
	<path class="st1" d="M205.8,256.5h-0.8v-12.1c0-3.1-0.5-5.4-1.4-6.9c-0.9-1.5-2.4-2.2-4.4-2.2c-1,0-2,0.2-2.9,0.6
		c-0.9,0.4-1.7,0.9-2.5,1.6c-0.7,0.7-1.4,1.5-1.9,2.4c-0.5,0.9-1,1.9-1.2,3v13.7h-0.8v-12.1c0-3.2-0.5-5.5-1.4-7
		c-0.9-1.5-2.4-2.2-4.4-2.2c-1,0-2,0.2-2.9,0.5c-0.9,0.4-1.7,0.9-2.5,1.5c-0.7,0.7-1.4,1.4-2,2.4c-0.6,0.9-1,1.9-1.3,3.1v13.8h-0.8
		v-21.8h0.8v5.6c1-1.9,2.2-3.4,3.6-4.4c1.5-1,3.1-1.6,4.8-1.6c1.8,0,3.4,0.6,4.5,1.7c1.2,1.1,1.9,2.7,2.1,4.6
		c2.2-4.2,5.1-6.3,8.7-6.3c2.3,0,3.9,0.8,5,2.5c1.1,1.6,1.6,4.2,1.6,7.5V256.5L205.8,256.5z"/>
	<path class="st1" d="M212.6,229.1v-3.2h0.8v3.2H212.6L212.6,229.1z M212.6,256.5L212.6,256.5v-21.8h0.8v21.8H212.6L212.6,256.5z"/>
	<path class="st1" d="M220.7,225.8h0.8v27.4c0,0.8,0.3,1.5,0.8,1.9c0.5,0.5,1.2,0.7,2,0.7c0.3,0,0.7,0,1.1-0.1
		c0.4-0.1,0.8-0.2,1.2-0.3l0.3,0.7c-0.4,0.1-0.9,0.3-1.4,0.4c-0.6,0.1-1.1,0.1-1.4,0.1c-1,0-1.8-0.3-2.4-0.9
		c-0.6-0.6-0.9-1.5-0.9-2.5V225.8L220.7,225.8z"/>
	<path class="st1" d="M232.3,265c0.5,0,0.9,0,1.2-0.1c0.3,0,0.6-0.2,0.7-0.4c0.1-0.1,0.2-0.2,0.3-0.5c0.1-0.2,0.3-0.6,0.5-1.2
		c0.3-0.6,0.6-1.4,1-2.4c0.4-1,1-2.4,1.8-4l-10.1-21.8h0.9l9.6,20.8l9.1-20.8h0.9l-13,29.6c-0.3,0.7-0.8,1.2-1.4,1.3
		c-0.6,0.1-1.1,0.2-1.7,0.2V265L232.3,265z"/>
	<path class="st1" d="M285,226.7h0.8l13,29.8h-0.9l-4.7-10.7h-15.6l-4.7,10.7H272L285,226.7L285,226.7z M292.8,245L292.8,245
		l-7.4-17.1L278,245H292.8L292.8,245z"/>
	<path class="st1" d="M312.8,256.9c-1,0-1.9-0.1-2.8-0.4c-0.9-0.3-1.7-0.7-2.4-1.2c-0.8-0.5-1.4-1.1-2.1-1.7
		c-0.6-0.7-1.2-1.4-1.6-2.1v13.9h-0.8v-30.8h0.8v4.6c0.4-0.7,1-1.4,1.6-2c0.6-0.6,1.3-1.1,2.1-1.6c0.7-0.4,1.5-0.8,2.3-1
		c0.8-0.2,1.6-0.4,2.5-0.4c1.5,0,3,0.3,4.2,1c1.3,0.7,2.4,1.5,3.3,2.6c0.9,1.1,1.6,2.3,2.2,3.6c0.5,1.3,0.8,2.7,0.8,4.1
		c0,1.5-0.2,2.9-0.7,4.3c-0.5,1.4-1.2,2.6-2.1,3.6c-0.9,1-1.9,1.9-3.2,2.5C315.7,256.6,314.3,256.9,312.8,256.9L312.8,256.9z
		 M312.8,256.1L312.8,256.1c1.4,0,2.7-0.3,3.8-0.9c1.1-0.6,2.1-1.4,2.9-2.4c0.8-1,1.4-2.1,1.9-3.3c0.4-1.2,0.7-2.5,0.7-3.8
		c0-1.4-0.3-2.7-0.8-3.9c-0.5-1.3-1.2-2.4-2.1-3.3c-0.9-1-1.9-1.7-3.1-2.3c-1.2-0.6-2.4-0.9-3.8-0.9c-0.8,0-1.7,0.2-2.7,0.5
		c-1,0.4-1.9,0.9-2.7,1.5c-0.8,0.6-1.5,1.3-2.1,2.1c-0.6,0.8-0.9,1.7-0.9,2.5v7.9c0.4,0.9,0.9,1.7,1.5,2.5c0.6,0.8,1.3,1.4,2.1,2
		c0.8,0.6,1.6,1,2.5,1.3C310.9,255.9,311.8,256.1,312.8,256.1L312.8,256.1z"/>
	<path class="st1" d="M333.5,256.9c-1,0-1.9-0.2-2.8-0.5c-0.9-0.4-1.6-0.8-2.2-1.4c-0.6-0.6-1.1-1.3-1.5-2.1
		c-0.4-0.8-0.5-1.7-0.5-2.6c0-0.9,0.2-1.8,0.6-2.5c0.4-0.8,1-1.4,1.8-2c0.8-0.5,1.7-1,2.9-1.3c1.1-0.3,2.3-0.5,3.6-0.5
		c1.3,0,2.5,0.1,3.8,0.3c1.3,0.2,2.4,0.5,3.5,0.9v-2.5c0-1.1-0.2-2.1-0.5-3.1c-0.3-0.9-0.8-1.7-1.4-2.4c-0.6-0.7-1.4-1.2-2.3-1.5
		c-0.9-0.4-1.9-0.5-2.9-0.5c-1.1,0-2.2,0.2-3.4,0.7c-1.2,0.5-2.4,1.1-3.7,2l-0.5-0.7c2.8-1.9,5.3-2.9,7.6-2.9c1.2,0,2.3,0.2,3.3,0.6
		c1,0.4,1.8,1,2.5,1.7c0.7,0.7,1.2,1.6,1.6,2.6c0.4,1,0.6,2.2,0.6,3.5v12.1c0,0.6,0.2,0.8,0.7,0.8v0.8c-0.3,0-0.5,0-0.6-0.1
		c-0.3-0.1-0.5-0.3-0.7-0.6c-0.2-0.3-0.3-0.6-0.3-1v-2c-1,1.3-2.3,2.3-3.9,3C337.2,256.6,335.4,256.9,333.5,256.9L333.5,256.9z
		 M333.5,256.1L333.5,256.1c1.9,0,3.6-0.3,5.1-1.1c1.6-0.7,2.7-1.6,3.5-2.8c0.4-0.6,0.6-1.2,0.6-1.7v-4.3c-2.2-0.9-4.7-1.3-7.3-1.3
		c-1.2,0-2.3,0.1-3.3,0.4c-1,0.3-1.8,0.6-2.6,1.1c-0.7,0.5-1.3,1-1.7,1.7c-0.4,0.7-0.6,1.4-0.6,2.2c0,0.8,0.2,1.6,0.5,2.3
		c0.3,0.7,0.8,1.3,1.3,1.9c0.6,0.5,1.2,0.9,2,1.2C331.9,255.9,332.7,256.1,333.5,256.1L333.5,256.1z"/>
	<path class="st1" d="M358.2,235.5c-2.1,0.1-3.9,0.8-5.3,2c-1.5,1.3-2.5,3-3.1,5.2v13.8h-0.8v-21.8h0.8v5.6c0.8-1.5,1.8-2.8,3-3.8
		c1.3-1,2.6-1.6,4-1.7c0.3,0,0.5,0,0.8-0.1c0.2,0,0.4,0,0.6,0V235.5L358.2,235.5z"/>
	<path class="st1" d="M372.4,255.5c-0.4,0.3-0.8,0.5-1.2,0.6c-0.4,0.1-0.8,0.3-1.2,0.4c-0.5,0.1-1,0.2-1.6,0.2c-1,0-1.9-0.3-2.6-0.9
		c-0.8-0.6-1.1-1.4-1.1-2.4v-17.8h-3.1v-0.8h3.1v-7.6h0.8v7.6h5.2v0.8h-5.2v17.8c0.1,0.8,0.4,1.4,1,1.9c0.6,0.4,1.2,0.7,2,0.7
		c0.5,0,0.9,0,1.3-0.1c0.4-0.1,0.8-0.2,1.1-0.3c0.3-0.1,0.6-0.2,0.8-0.4c0.2-0.1,0.3-0.2,0.3-0.2L372.4,255.5L372.4,255.5z"/>
	<path class="st1" d="M407.6,256.5h-0.8v-12.1c0-3.1-0.5-5.4-1.4-6.9c-0.9-1.5-2.4-2.2-4.4-2.2c-1,0-2,0.2-2.9,0.6
		c-0.9,0.4-1.7,0.9-2.5,1.6c-0.7,0.7-1.4,1.5-1.9,2.4c-0.5,0.9-1,1.9-1.2,3v13.7h-0.8v-12.1c0-3.2-0.5-5.5-1.4-7
		c-0.9-1.5-2.4-2.2-4.4-2.2c-1,0-2,0.2-2.9,0.5c-0.9,0.4-1.7,0.9-2.5,1.5c-0.7,0.7-1.4,1.4-2,2.4c-0.6,0.9-1,1.9-1.3,3.1v13.8h-0.8
		v-21.8h0.8v5.6c1-1.9,2.2-3.4,3.6-4.4c1.5-1,3.1-1.6,4.8-1.6c1.8,0,3.4,0.6,4.5,1.7c1.2,1.1,1.9,2.7,2.1,4.6
		c2.2-4.2,5.1-6.3,8.7-6.3c2.3,0,3.9,0.8,5,2.5c1.1,1.6,1.6,4.2,1.6,7.5V256.5L407.6,256.5z"/>
	<path class="st1" d="M423.3,256.9c-1.4,0-2.8-0.3-4-0.9c-1.3-0.6-2.4-1.4-3.3-2.5c-1-1.1-1.7-2.3-2.3-3.7c-0.6-1.4-0.8-2.9-0.8-4.4
		c0-1.5,0.3-3,0.8-4.3c0.5-1.3,1.3-2.5,2.2-3.5c0.9-1,2-1.8,3.3-2.4c1.2-0.6,2.6-0.9,4-0.9c1.5,0,2.8,0.3,4.1,0.9
		c1.3,0.6,2.4,1.4,3.3,2.4c0.9,1,1.7,2.2,2.2,3.6c0.6,1.4,0.8,2.8,0.8,4.4v0.5h-19.9c0.1,1.4,0.4,2.7,1,3.9c0.5,1.2,1.3,2.3,2.1,3.2
		c0.9,0.9,1.9,1.6,3,2.1c1.1,0.5,2.3,0.8,3.6,0.8c0.8,0,1.7-0.1,2.5-0.3c0.8-0.2,1.5-0.5,2.2-0.9c0.7-0.4,1.3-0.9,1.8-1.5
		c0.5-0.6,1-1.2,1.3-1.8l0.8,0.2c-0.3,0.8-0.7,1.4-1.3,2.1c-0.6,0.6-1.2,1.2-2,1.6c-0.8,0.5-1.6,0.8-2.5,1.1
		C425.2,256.8,424.2,256.9,423.3,256.9L423.3,256.9z M432.7,245.2L432.7,245.2c-0.1-1.5-0.4-2.8-0.9-4c-0.5-1.2-1.2-2.3-2.1-3.2
		c-0.9-0.9-1.8-1.6-3-2.1c-1.1-0.5-2.3-0.8-3.6-0.8c-1.3,0-2.5,0.3-3.6,0.8c-1.1,0.5-2.1,1.2-3,2.1c-0.9,0.9-1.5,2-2,3.2
		c-0.5,1.2-0.8,2.6-0.9,4H432.7L432.7,245.2z"/>
	<path class="st1" d="M455.5,256.5h-0.8v-12.1c0-3.2-0.4-5.5-1.3-7c-0.9-1.5-2.3-2.2-4.3-2.2c-1.1,0-2.1,0.2-3.1,0.6
		c-1,0.4-2,0.9-2.8,1.6c-0.9,0.7-1.6,1.5-2.3,2.4c-0.6,0.9-1.1,1.9-1.4,3v13.8h-0.8v-21.8h0.8v5.6c0.4-0.9,1-1.7,1.7-2.4
		c0.7-0.7,1.5-1.4,2.3-1.9c0.8-0.5,1.7-0.9,2.7-1.2c1-0.3,1.9-0.4,2.9-0.4c2.2,0,3.9,0.8,4.9,2.4c1,1.6,1.6,4.1,1.6,7.6V256.5
		L455.5,256.5z"/>
	<path class="st1" d="M470.7,255.5c-0.4,0.3-0.8,0.5-1.2,0.6c-0.4,0.1-0.8,0.3-1.2,0.4c-0.5,0.1-1,0.2-1.6,0.2c-1,0-1.9-0.3-2.6-0.9
		c-0.8-0.6-1.1-1.4-1.1-2.4v-17.8h-3.1v-0.8h3.1v-7.6h0.8v7.6h5.2v0.8h-5.2v17.8c0.1,0.8,0.4,1.4,1,1.9c0.6,0.4,1.2,0.7,2,0.7
		c0.5,0,0.9,0,1.3-0.1c0.4-0.1,0.8-0.2,1.1-0.3c0.3-0.1,0.6-0.2,0.8-0.4c0.2-0.1,0.3-0.2,0.3-0.2L470.7,255.5L470.7,255.5z"/>
	<path class="st1" d="M481,256.9c-3.4,0-6.2-1.2-8.3-3.5l0.6-0.5c1.1,1.1,2.3,1.9,3.5,2.4c1.2,0.5,2.6,0.8,4.2,0.8
		c2.2,0,3.9-0.5,5.2-1.4c1.3-0.9,2-2.2,2-3.9c0-0.8-0.2-1.4-0.5-2c-0.3-0.5-0.8-1-1.5-1.3c-0.6-0.4-1.4-0.7-2.4-1
		c-1-0.3-2-0.5-3.2-0.8c-1.2-0.3-2.2-0.5-3.1-0.8c-0.9-0.2-1.6-0.5-2.2-0.9c-0.6-0.4-1-0.8-1.3-1.4c-0.3-0.5-0.4-1.3-0.4-2.1
		c0-1.1,0.2-2,0.6-2.8c0.4-0.8,1-1.4,1.7-1.9c0.7-0.5,1.5-0.9,2.4-1.1c0.9-0.2,1.9-0.4,2.9-0.4c1.8,0,3.3,0.3,4.5,0.9
		c1.2,0.6,2.1,1.4,2.6,2.2l-0.8,0.3c-0.5-0.9-1.4-1.5-2.6-2c-1.2-0.4-2.5-0.7-3.9-0.7c-0.9,0-1.7,0.1-2.6,0.3
		c-0.8,0.2-1.5,0.5-2.1,0.9c-0.6,0.4-1.1,1-1.4,1.6c-0.3,0.7-0.5,1.4-0.5,2.4c0,0.7,0.1,1.3,0.4,1.8c0.2,0.5,0.6,0.8,1.1,1.2
		c0.5,0.3,1.1,0.6,1.9,0.8c0.8,0.2,1.7,0.5,2.8,0.7c1.3,0.3,2.5,0.6,3.5,0.9c1,0.3,1.9,0.6,2.6,1.1c0.7,0.4,1.3,0.9,1.7,1.5
		c0.4,0.6,0.6,1.4,0.6,2.3c0,1-0.2,1.8-0.6,2.6c-0.4,0.8-0.9,1.4-1.6,2c-0.7,0.5-1.6,1-2.6,1.3C483.3,256.8,482.2,256.9,481,256.9
		L481,256.9z"/>
</g>
</svg>
