<?xml version="1.0" encoding="utf-8"?>
<!-- Generator: Adobe Illustrator 23.1.0, SVG Export Plug-In . SVG Version: 6.00 Build 0)  -->
<svg version="1.1" id="Layer_1" xmlns="http://www.w3.org/2000/svg" xmlns:xlink="http://www.w3.org/1999/xlink" x="0px" y="0px"
	 viewBox="0 0 533.9 699.2" style="enable-background:new 0 0 533.9 699.2;" xml:space="preserve">
<style type="text/css">
	.st0{fill-rule:evenodd;clip-rule:evenodd;fill:#94CBCA;stroke:#FFFFFF;stroke-width:0.216;stroke-miterlimit:22.9256;}
	.st1{fill:#94CBCA;}
</style>
<g>
	<path class="st0" d="M333,159.4c-13.8,16.8-35.4,29-57.1,29c-35,0-63.4-31.9-63.4-72.4s28.4-73.3,63.5-73.3
		c22.4,0,39.7,15.4,51,35.6l35.8-27.1C344.1,16.7,312,0,273.1,0c-61.7,0-111.8,52-111.8,116.2c0,64.2,50.1,116.2,111.8,116.2
		c22.8,0,37.4-1.6,57.1-23h2.8v23h42.1l-0.6-120h-86.6v36.2h45V159.4L333,159.4z"/>
	<path class="st1" d="M85.3,350.5v-11.8l40.6-0.1v37.2c-6.2,5.2-12.6,9.1-19.3,11.8c-6.6,2.6-13.4,3.9-20.4,3.9
		c-9.4,0-18-2.1-25.6-6.3c-7.7-4.2-13.5-10.3-17.4-18.3c-3.9-8-5.9-16.9-5.9-26.8c0-9.8,2-18.9,5.9-27.4c3.9-8.5,9.5-14.8,16.8-18.9
		c7.3-4.1,15.7-6.1,25.3-6.1c6.9,0,13.2,1.2,18.8,3.5c5.6,2.3,10,5.6,13.2,9.8c3.2,4.2,5.6,9.7,7.3,16.4l-11.4,3.3
		c-1.4-5.1-3.2-9.1-5.4-12.1c-2.1-2.9-5.2-5.3-9.2-7c-3.9-1.8-8.4-2.6-13.2-2.6c-5.8,0-10.8,0.9-15,2.8c-4.2,1.8-7.6,4.3-10.2,7.3
		c-2.6,3-4.6,6.3-6,9.9c-2.4,6.2-3.7,12.9-3.7,20.2c0,9,1.5,16.4,4.4,22.5c2.9,6,7.2,10.5,12.8,13.4c5.6,2.9,11.6,4.4,17.9,4.4
		c5.5,0,10.9-1.1,16.1-3.3c5.2-2.2,9.2-4.6,11.9-7.1v-18.7H85.3L85.3,350.5z"/>
	<path class="st1" d="M144.8,389.9V289.5h42.4c8.5,0,15,0.9,19.5,2.7c4.4,1.8,8,5,10.7,9.5c2.7,4.6,4,9.6,4,15.1
		c0,7.1-2.2,13.1-6.6,18c-4.4,4.9-11.2,8-20.4,9.3c3.4,1.7,5.9,3.3,7.6,5c3.7,3.6,7.2,8,10.5,13.3l16.7,27.3h-15.9L200.5,369
		c-3.7-6-6.8-10.6-9.2-13.8c-2.4-3.2-4.5-5.4-6.4-6.7c-1.9-1.3-3.8-2.2-5.8-2.7c-1.4-0.3-3.8-0.5-7.1-0.5h-14.7v44.6H144.8
		L144.8,389.9z M157.4,333.8h27.2c5.8,0,10.3-0.6,13.6-1.9c3.3-1.3,5.8-3.3,7.4-6c1.7-2.8,2.5-5.8,2.5-9c0-4.7-1.6-8.6-4.9-11.7
		c-3.3-3.1-8.5-4.6-15.6-4.6h-30.3V333.8L157.4,333.8z"/>
	<path class="st1" d="M230.6,389.9l36.8-100.4h13.6l39.2,100.4h-14.4l-11.2-30.4h-40l-10.5,30.4H230.6L230.6,389.9z M258.3,348.6
		h32.5l-10-27.8c-3-8.4-5.3-15.4-6.8-20.8c-1.2,6.5-2.9,12.8-5.2,19.2L258.3,348.6L258.3,348.6z"/>
	<polygon class="st1" points="330.2,389.9 330.2,289.5 343.2,289.5 393.5,368.3 393.5,289.5 405.7,289.5 405.7,389.9 392.7,389.9 
		342.4,311 342.4,389.9 330.2,389.9 	"/>
	<path class="st1" d="M427,389.9V289.5h33c7.4,0,13.1,0.5,17.1,1.4c5.5,1.3,10.2,3.7,14,7.2c5,4.5,8.8,10.2,11.3,17.2
		c2.5,7,3.8,14.9,3.8,23.9c0,7.6-0.8,14.4-2.6,20.3c-1.7,5.9-3.9,10.8-6.5,14.6c-2.7,3.9-5.6,6.9-8.7,9.1c-3.1,2.2-7,3.9-11.4,5
		c-4.5,1.1-9.6,1.7-15.4,1.7H427L427,389.9z M439.6,378h20.4c6.3,0,11.3-0.6,14.9-1.8c3.6-1.2,6.4-3,8.6-5.2c3-3.1,5.4-7.4,7-12.7
		c1.7-5.3,2.5-11.8,2.5-19.4c0-10.5-1.6-18.6-4.9-24.2c-3.3-5.7-7.3-9.4-12-11.3c-3.4-1.4-8.9-2.1-16.4-2.1h-20.1V378L439.6,378z"/>
	<polygon class="st1" points="44.1,546.3 44.1,444.3 109.5,444.3 109.5,456.3 56.9,456.3 56.9,487.9 102.4,487.9 102.4,500 
		56.9,500 56.9,546.3 44.1,546.3 	"/>
	<path class="st1" d="M108,546.3l37.2-102H159l39.7,102h-14.6l-11.3-30.9h-40.5l-10.6,30.9H108L108,546.3z M136,504.4h32.9
		l-10.1-28.3c-3.1-8.6-5.4-15.6-6.9-21.2c-1.2,6.6-3,13-5.2,19.5L136,504.4L136,504.4z"/>
	<path class="st1" d="M208.5,546.3v-102h19.3l22.9,72.3c2.1,6.7,3.7,11.8,4.6,15.1c1.1-3.7,2.8-9.2,5.2-16.4l23.2-71H301v102h-12.4
		v-85.4l-28.2,85.4h-11.6l-28-86.9v86.9H208.5L208.5,546.3z"/>
	<polygon class="st1" points="323.9,546.3 323.9,444.3 336.7,444.3 336.7,546.3 323.9,546.3 	"/>
	<polygon class="st1" points="358.8,546.3 358.8,444.3 371.6,444.3 371.6,534.3 419.3,534.3 419.3,546.3 358.8,546.3 	"/>
	<path class="st1" d="M451.8,546.3v-43.2l-37.3-58.8h15.6l19.1,30.8c3.5,5.8,6.8,11.5,9.8,17.3c2.9-5.3,6.4-11.4,10.6-18l18.8-30
		h14.9l-38.7,58.8v43.2H451.8L451.8,546.3z"/>
	<path class="st1" d="M38.8,697.5L3,598.8h13.3l24,71.7c1.9,5.7,3.6,11.1,4.8,16.2c1.4-5.4,3.1-10.8,5-16.2l25-71.7h12.5l-36.2,98.7
		H38.8L38.8,697.5z"/>
	<polygon class="st1" points="100.6,697.5 100.6,598.8 112.9,598.8 112.9,697.5 100.6,697.5 	"/>
	<polygon class="st1" points="133.9,697.5 133.9,598.8 146.1,598.8 146.1,685.8 191.7,685.8 191.7,697.5 133.9,697.5 	"/>
	<polygon class="st1" points="205.7,697.5 205.7,598.8 218,598.8 218,685.8 263.5,685.8 263.5,697.5 205.7,697.5 	"/>
	<path class="st1" d="M267.9,697.5l35.5-98.7h13.2l37.8,98.7h-13.9l-10.8-29.9H291l-10.1,29.9H267.9L267.9,697.5z M294.6,657h31.4
		l-9.7-27.3c-2.9-8.3-5.1-15.1-6.5-20.5c-1.2,6.3-2.8,12.6-5,18.9L294.6,657L294.6,657z"/>
	<path class="st1" d="M407.5,658.8v-11.6l39.1-0.1v36.6c-6,5.1-12.2,9-18.6,11.6c-6.4,2.6-13,3.9-19.7,3.9c-9.1,0-17.3-2.1-24.8-6.2
		c-7.4-4.1-13-10.2-16.8-18c-3.8-7.9-5.7-16.6-5.7-26.3c0-9.6,1.9-18.6,5.7-26.9c3.7-8.3,9.2-14.5,16.2-18.6c7.1-4,15.2-6,24.4-6
		c6.7,0,12.7,1.1,18.1,3.5c5.4,2.3,9.6,5.5,12.7,9.7c3.1,4.1,5.4,9.5,7,16.2l-11,3.2c-1.4-5-3.1-9-5.2-11.9c-2.1-2.9-5-5.2-8.8-6.9
		c-3.8-1.7-8.1-2.6-12.7-2.6c-5.6,0-10.4,0.9-14.5,2.7c-4.1,1.8-7.4,4.2-9.9,7.2c-2.5,3-4.4,6.2-5.8,9.8c-2.3,6.1-3.5,12.7-3.5,19.9
		c0,8.8,1.4,16.2,4.3,22.1c2.8,5.9,7,10.3,12.4,13.2c5.4,2.9,11.2,4.3,17.3,4.3c5.3,0,10.5-1.1,15.5-3.3c5.1-2.2,8.9-4.5,11.5-7
		v-18.4H407.5L407.5,658.8z"/>
	<polygon class="st1" points="464.9,697.5 464.9,598.8 531.7,598.8 531.7,610.4 477.1,610.4 477.1,640.7 528.3,640.7 528.3,652.2 
		477.1,652.2 477.1,685.8 533.9,685.8 533.9,697.5 464.9,697.5 	"/>
</g>
</svg>
