<?xml version="1.0" encoding="utf-8"?>
<!-- Generator: Adobe Illustrator 23.1.0, SVG Export Plug-In . SVG Version: 6.00 Build 0)  -->
<svg version="1.1" id="Layer_1" xmlns="http://www.w3.org/2000/svg" xmlns:xlink="http://www.w3.org/1999/xlink" x="0px" y="0px"
	 viewBox="0 0 213.8 232.4" style="enable-background:new 0 0 213.8 232.4;" xml:space="preserve">
<style type="text/css">
	.st0{fill-rule:evenodd;clip-rule:evenodd;fill:#FFFFFF;stroke:#FFFFFF;stroke-width:0.216;stroke-miterlimit:22.9256;}
</style>
<path class="st0" d="M171.7,159.4c-13.8,16.8-35.4,29-57.1,29c-35,0-63.4-31.9-63.4-72.4s28.4-73.3,63.5-73.3
	c22.4,0,39.7,15.4,51,35.6l35.8-27.1C182.9,16.7,150.8,0,111.8,0C50.1,0,0,52,0,116.2c0,64.2,50.1,116.2,111.8,116.2
	c22.8,0,37.4-1.6,57.1-23h2.8v23h42.1l-0.6-120h-86.6v36.2h45V159.4L171.7,159.4z"/>
</svg>
