<?xml version="1.0" encoding="utf-8"?>
<!-- Generator: Adobe Illustrator 23.1.0, SVG Export Plug-In . SVG Version: 6.00 Build 0)  -->
<svg version="1.1" id="Layer_1" xmlns="http://www.w3.org/2000/svg" xmlns:xlink="http://www.w3.org/1999/xlink" x="0px" y="0px"
	 viewBox="0 0 421.2 577.4" style="enable-background:new 0 0 421.2 577.4;" xml:space="preserve">
<style type="text/css">
	.st0{fill-rule:evenodd;clip-rule:evenodd;fill:#FFFFFF;stroke:#46433E;stroke-width:0.5669;stroke-miterlimit:22.9256;}
	.st1{fill-rule:evenodd;clip-rule:evenodd;fill:#FFFFFF;stroke:#000000;stroke-width:0.5669;stroke-miterlimit:22.9256;}
	.st2{fill-rule:evenodd;clip-rule:evenodd;fill:#D24A43;stroke:#D24A43;stroke-width:0.5669;stroke-miterlimit:22.9256;}
	.st3{fill:#FFFFFF;}
</style>
<polygon class="st0" points="40.2,205.6 115.7,195.4 194.1,205.6 194.1,211.3 40.2,212.6 40.2,205.6 "/>
<polygon class="st1" points="40.2,179.6 116,178.4 245.8,200.1 256.2,196.1 115.2,158.3 40.2,174.8 40.2,179.6 "/>
<polygon class="st1" points="44,143 115.6,136.3 236,165.3 249.7,161.2 114.4,116.3 40.2,135.6 40.2,143.3 44,143 "/>
<polygon class="st1" points="40.2,111.7 114.5,93.5 221.2,131.2 237.1,127.7 114.1,74.3 40.2,104.3 40.2,111.7 "/>
<path class="st1" d="M40.2,76.7L114.5,55l104.4,44.4c0,0,17.5,1.6,11.2-3.3c-6.3-4.9-115.3-58.4-115.3-58.4S65.8,57.4,40.2,70V76.7
	L40.2,76.7z"/>
<path class="st1" d="M40.2,46.5l74.5-28.6l96.2,50.8l9.6-5.3L113.9,0c0,0-54.8,29.2-73,41.8l-0.6,0.4V46.5L40.2,46.5z"/>
<polygon class="st2" points="192.6,211.3 332.2,211.3 332.2,203.7 258.6,195.8 192.7,205.8 192.6,211.3 "/>
<polygon class="st2" points="332.2,174.5 258.4,158.9 187.2,177.2 266.6,179.7 332.2,191.3 332.2,174.5 "/>
<polygon class="st2" points="332.2,140.9 259.2,119.7 191.3,141.6 261.1,137.5 332.2,156.2 332.2,140.9 "/>
<polygon class="st2" points="332.2,106.8 260.2,77.9 189.8,107 260.6,93.8 332.2,121.5 332.2,106.8 "/>
<polygon class="st2" points="332.2,73.6 258.2,37.5 189.1,74.7 258,55.6 332.2,88.2 332.2,73.6 "/>
<polygon class="st2" points="332.2,45.8 258.1,2.8 190.2,44.7 257.5,20 332.2,57.4 332.2,45.8 "/>
<path class="st3" d="M39.8,320.9v2.1H0v-2.1h2.5c2.2,0,4-0.4,5.3-1.2c1-0.5,1.7-1.4,2.2-2.7c0.4-0.9,0.6-3.2,0.6-7.1v-50
	c0-3.9-0.2-6.3-0.6-7.3c-0.4-1-1.2-1.8-2.5-2.5c-1.2-0.7-2.9-1.1-5.1-1.1H0v-2.1h39.8v2.1h-2.5c-2.2,0-4,0.4-5.3,1.2
	c-1,0.5-1.7,1.4-2.3,2.7c-0.4,0.9-0.6,3.3-0.6,7.1v50c0,3.9,0.2,6.3,0.6,7.3c0.4,1,1.3,1.8,2.5,2.5c1.3,0.7,2.9,1.1,5.1,1.1H39.8
	L39.8,320.9z"/>
<path class="st3" d="M96.3,245.2l0.6,25.3h-2.3c-1.1-6.4-3.7-11.5-8-15.4c-4.2-3.9-8.8-5.8-13.8-5.8c-3.8,0-6.8,1-9.1,3.1
	c-2.2,2-3.3,4.4-3.3,7c0,1.7,0.4,3.2,1.2,4.5c1.1,1.8,2.8,3.5,5.2,5.2c1.8,1.2,5.8,3.4,12.2,6.6c8.9,4.4,14.9,8.5,18,12.4
	c3.1,3.9,4.6,8.3,4.6,13.3c0,6.4-2.5,11.8-7.4,16.4c-5,4.6-11.3,6.9-18.9,6.9c-2.4,0-4.7-0.2-6.8-0.7c-2.1-0.5-4.8-1.4-8-2.8
	c-1.8-0.7-3.3-1.1-4.4-1.1c-1,0-2,0.4-3.1,1.1c-1.1,0.7-2,1.9-2.6,3.4h-2.1V296h2.1c1.6,8.1,4.8,14.2,9.5,18.5
	c4.7,4.2,9.7,6.4,15.2,6.4c4.2,0,7.5-1.1,10-3.4c2.5-2.3,3.7-4.9,3.7-8c0-1.8-0.5-3.5-1.4-5.2c-1-1.7-2.4-3.3-4.3-4.8
	c-2-1.5-5.4-3.5-10.3-5.9c-6.9-3.4-11.9-6.3-14.9-8.7c-3-2.4-5.4-5.1-7-8c-1.6-2.9-2.5-6.2-2.5-9.8c0-6,2.2-11.2,6.7-15.5
	c4.5-4.2,10.1-6.4,16.8-6.4c2.5,0,4.9,0.3,7.2,0.9c1.8,0.5,3.9,1.3,6.4,2.5c2.5,1.2,4.3,1.8,5.3,1.8c1,0,1.7-0.3,2.3-0.9
	c0.6-0.6,1.1-2,1.6-4.3H96.3L96.3,245.2z"/>
<path class="st3" d="M154.1,301.3h-26.9l-3.2,7.4c-1.1,2.5-1.6,4.5-1.6,6.1c0,2.1,0.9,3.7,2.6,4.7c1,0.6,3.5,1.1,7.4,1.4v2.1h-25.3
	v-2.1c2.7-0.4,5-1.6,6.7-3.4c1.8-1.8,3.9-5.7,6.5-11.5l27.2-60.7h1.1l27.4,62.4c2.6,5.9,4.8,9.6,6.5,11.2c1.3,1.2,3.1,1.8,5.4,2v2.1
	h-36.8v-2.1h1.5c2.9,0,5-0.4,6.2-1.2c0.8-0.6,1.2-1.5,1.2-2.6c0-0.7-0.1-1.4-0.3-2.1c-0.1-0.3-0.6-1.7-1.7-4.2L154.1,301.3
	L154.1,301.3z M152.1,297.2L140.8,271l-11.7,26.2H152.1L152.1,297.2z"/>
<path class="st3" d="M253.2,246.9v20.6h-2c-1.2-4.8-2.5-8.2-4-10.2c-1.5-2.1-3.5-3.7-6-5c-1.4-0.7-3.9-1-7.4-1H228V310
	c0,3.9,0.2,6.3,0.6,7.3c0.4,1,1.3,1.8,2.5,2.5c1.3,0.7,3,1.1,5.1,1.1h2.5v2.1H199v-2.1h2.5c2.2,0,4-0.4,5.3-1.2
	c1-0.5,1.7-1.4,2.3-2.7c0.4-0.9,0.6-3.2,0.6-7.1v-58.7h-5.5c-5.1,0-8.8,1.1-11.2,3.3c-3.3,3-5.3,7.4-6.2,13h-2.1v-20.6H253.2
	L253.2,246.9z"/>
<path class="st3" d="M288.6,251.3v31h1.5c4.8,0,8.3-1.5,10.5-4.5c2.2-3,3.5-7.5,4.2-13.4h2.1v39.8h-2.1c-0.5-4.3-1.4-7.9-2.8-10.7
	c-1.5-2.8-3.1-4.6-5-5.6c-1.9-0.9-4.7-1.4-8.3-1.4v21.4c0,4.2,0.2,6.7,0.5,7.7c0.3,0.9,1,1.7,2,2.3c1,0.6,2.5,0.9,4.7,0.9h4.5
	c7.1,0,12.8-1.6,17.1-4.9c4.3-3.3,7.4-8.3,9.2-15h2.1l-3.4,24.2h-65.7v-2.1h2.5c2.2,0,4-0.4,5.3-1.2c1-0.5,1.7-1.4,2.2-2.7
	c0.4-0.9,0.6-3.2,0.6-7.1v-50c0-3.4-0.1-5.6-0.3-6.3c-0.4-1.3-1.1-2.3-2.1-3c-1.4-1.1-3.4-1.6-5.8-1.6h-2.5v-2.1h63.6v22.5h-2.1
	c-1.1-5.5-2.6-9.4-4.6-11.8c-2-2.4-4.7-4.2-8.3-5.3c-2.1-0.7-6-1-11.8-1H288.6L288.6,251.3z"/>
<path class="st3" d="M382.4,278.4l21,31.1c3.5,5.1,6,8.3,7.4,9.4c1.5,1.1,3.2,1.8,5.2,2v2.1H379v-2.1c3-0.2,4.9-0.7,5.7-1.4
	c0.9-0.7,1.3-1.5,1.3-2.5c0-0.7-0.1-1.3-0.4-1.8c-0.5-1.1-1.8-3.2-3.9-6.3l-11.1-16.4L359,306.8c-3.5,4.3-5.2,7.2-5.2,8.7
	c0,1.1,0.5,2.1,1.3,3c0.9,0.9,2.2,1.6,4,2c0.8,0.2,2.4,0.3,4.8,0.3v2.1h-29.2v-2.1c3.3-0.5,6-1.4,7.8-2.7c2.5-1.7,6-5.3,10.5-10.8
	l15.1-18.4l-19.4-28.4c-3.2-4.7-5-7.3-5.4-7.8c-1-1.2-2-2.1-3-2.6c-1-0.5-2.3-0.9-4-1.2v-2.1h37.7v2.1h-1.9c-2.2,0-3.7,0.3-4.5,1
	c-0.9,0.7-1.3,1.6-1.3,2.6c0,0.8,0.1,1.5,0.4,2.1l3.9,5.8L380,275l8-9.8c4.1-5,6.2-8.6,6.2-10.6c0-1-0.3-2-0.9-2.8
	c-0.6-0.9-1.4-1.5-2.5-2c-1.1-0.5-2.8-0.7-5.1-0.7v-2.1h28v2.1c-2.2,0-4,0.3-5.3,0.8c-1.4,0.5-2.8,1.5-4.3,2.8
	c-1,0.9-3.4,3.7-7.3,8.4L382.4,278.4L382.4,278.4z"/>
<path class="st3" d="M39.8,448.1v2.1H0v-2.1h2.5c2.2,0,4-0.4,5.3-1.2c1-0.5,1.7-1.4,2.2-2.7c0.4-0.9,0.6-3.2,0.6-7.1v-50
	c0-3.9-0.2-6.3-0.6-7.3c-0.4-1-1.2-1.8-2.5-2.5c-1.2-0.7-2.9-1.1-5.1-1.1H0v-2.1h39.8v2.1h-2.5c-2.2,0-4,0.4-5.3,1.2
	c-1,0.5-1.7,1.4-2.3,2.7c-0.4,0.9-0.6,3.3-0.6,7.1v50c0,3.9,0.2,6.3,0.6,7.3c0.4,1,1.3,1.8,2.5,2.5c1.3,0.7,2.9,1.1,5.1,1.1H39.8
	L39.8,448.1z"/>
<path class="st3" d="M71,374.1l37.5,47.2v-32.7c0-4.6-0.7-7.6-2-9.2c-1.8-2.2-4.8-3.2-9-3.1v-2.1h25.1v2.1c-3.2,0.4-5.4,0.9-6.5,1.6
	c-1.1,0.7-2,1.7-2.6,3.2c-0.6,1.5-0.9,4-0.9,7.6v63.3h-1.9l-51.4-63.3V437c0,4.4,1,7.3,3,8.8c2,1.6,4.3,2.3,6.9,2.3H71v2.1H44v-2.1
	c4.2,0,7.1-0.9,8.7-2.6c1.6-1.7,2.5-4.5,2.5-8.6v-53.7l-1.6-2c-1.6-2-3-3.3-4.3-4c-1.2-0.6-3-1-5.3-1.1v-2.1H71L71,374.1z"/>
<path class="st3" d="M207.1,374.1v2.1c-2.8,0.4-5.2,1.9-7.4,4.4c-1.6,1.9-3.9,6.3-7,13.2l-26.2,58.1h-1.8l-26.1-60.5
	c-3.1-7.3-5.2-11.6-6.3-12.8c-1.1-1.3-3.1-2.1-6-2.4v-2.1h36.4v2.1h-1.2c-3.3,0-5.5,0.4-6.7,1.2c-0.9,0.6-1.3,1.4-1.3,2.5
	c0,0.7,0.2,1.5,0.4,2.4c0.3,0.9,1.3,3.4,3,7.4l16.2,37.8l15-33.7c1.8-4.1,2.9-6.8,3.3-8.2c0.4-1.4,0.6-2.6,0.6-3.5
	c0-1.1-0.3-2.1-0.9-3c-0.6-0.9-1.5-1.5-2.6-2c-1.6-0.7-3.8-1-6.4-1v-2.1H207.1L207.1,374.1z"/>
<path class="st3" d="M239.6,378.5v31h1.5c4.8,0,8.3-1.5,10.5-4.5c2.2-3,3.5-7.5,4.2-13.4h2.1v39.8h-2.1c-0.5-4.3-1.4-7.9-2.8-10.7
	c-1.5-2.8-3.1-4.6-5-5.6c-1.9-0.9-4.7-1.4-8.3-1.4v21.4c0,4.2,0.2,6.7,0.5,7.7c0.3,0.9,1,1.7,2,2.3c1,0.6,2.5,0.9,4.7,0.9h4.5
	c7.1,0,12.8-1.6,17.1-4.9c4.3-3.3,7.4-8.3,9.2-15h2.1l-3.4,24.2h-65.7v-2.1h2.5c2.2,0,4-0.4,5.3-1.2c1-0.5,1.7-1.4,2.2-2.7
	c0.4-0.9,0.6-3.2,0.6-7.1v-50c0-3.4-0.1-5.6-0.3-6.3c-0.4-1.3-1.1-2.3-2.1-3c-1.4-1.1-3.4-1.6-5.8-1.6h-2.5v-2.1h63.6v22.5h-2.1
	c-1.1-5.5-2.6-9.4-4.6-11.8c-2-2.4-4.7-4.2-8.3-5.3c-2.1-0.7-6-1-11.8-1H239.6L239.6,378.5z"/>
<path class="st3" d="M338.8,372.4l0.6,25.3h-2.3c-1.1-6.4-3.7-11.5-8-15.4c-4.2-3.9-8.8-5.8-13.8-5.8c-3.8,0-6.8,1-9.1,3.1
	c-2.2,2-3.3,4.4-3.3,7c0,1.7,0.4,3.2,1.2,4.5c1.1,1.8,2.8,3.5,5.2,5.2c1.8,1.2,5.8,3.4,12.2,6.6c8.9,4.4,14.9,8.5,18,12.4
	c3.1,3.9,4.6,8.3,4.6,13.3c0,6.4-2.5,11.8-7.4,16.4c-5,4.6-11.3,6.9-18.9,6.9c-2.4,0-4.7-0.2-6.8-0.7c-2.1-0.5-4.8-1.4-8-2.8
	c-1.8-0.7-3.3-1.1-4.4-1.1c-1,0-2,0.4-3.1,1.1c-1.1,0.7-2,1.9-2.6,3.4h-2.1v-28.7h2.1c1.6,8.1,4.8,14.2,9.5,18.5
	c4.7,4.2,9.7,6.4,15.2,6.4c4.2,0,7.5-1.1,10-3.4c2.5-2.3,3.7-4.9,3.7-8c0-1.8-0.5-3.5-1.4-5.2c-1-1.7-2.4-3.3-4.3-4.8
	c-2-1.5-5.4-3.5-10.3-5.9c-6.9-3.4-11.9-6.3-14.9-8.7c-3-2.4-5.4-5.1-7-8c-1.6-2.9-2.5-6.2-2.5-9.8c0-6,2.2-11.2,6.7-15.5
	c4.5-4.2,10.1-6.4,16.8-6.4c2.5,0,4.9,0.3,7.2,0.9c1.8,0.5,3.9,1.3,6.4,2.5c2.5,1.2,4.3,1.8,5.3,1.8c1,0,1.7-0.3,2.3-0.9
	c0.6-0.6,1.1-2,1.6-4.3H338.8L338.8,372.4z"/>
<path class="st3" d="M421.2,374.1v20.6h-2c-1.2-4.8-2.5-8.2-4-10.2c-1.5-2.1-3.5-3.7-6-5c-1.4-0.7-3.9-1-7.4-1h-5.7v58.7
	c0,3.9,0.2,6.3,0.6,7.3c0.4,1,1.3,1.8,2.5,2.5c1.3,0.7,3,1.1,5.1,1.1h2.5v2.1h-39.8v-2.1h2.5c2.2,0,4-0.4,5.3-1.2
	c1-0.5,1.7-1.4,2.3-2.7c0.4-0.9,0.6-3.2,0.6-7.1v-58.7h-5.5c-5.1,0-8.8,1.1-11.2,3.3c-3.3,3-5.3,7.4-6.2,13h-2.1v-20.6H421.2
	L421.2,374.1z"/>
<path class="st3" d="M77,499.6v26.8h-2.1c-2.5-7.3-6.3-12.9-11.3-16.7c-5-3.8-10.5-5.7-16.4-5.7c-5.7,0-10.4,1.6-14.2,4.8
	c-3.8,3.2-6.5,7.6-8,13.4c-1.6,5.7-2.4,11.6-2.4,17.6c0,7.3,0.9,13.7,2.6,19.2c1.7,5.5,4.5,9.5,8.3,12.1c3.8,2.6,8.4,3.9,13.6,3.9
	c1.8,0,3.7-0.2,5.6-0.6c1.9-0.4,3.9-1,5.9-1.7v-15.8c0-3-0.2-4.9-0.6-5.8c-0.4-0.9-1.3-1.7-2.5-2.4c-1.3-0.7-2.9-1.1-4.7-1.1h-2
	v-2.1h36.9v2.1c-2.8,0.2-4.7,0.6-5.9,1.1c-1.1,0.6-2,1.6-2.5,2.9c-0.3,0.7-0.5,2.5-0.5,5.2v15.8c-4.9,2.2-9.9,3.8-15.2,4.9
	c-5.2,1.1-10.7,1.7-16.3,1.7c-7.2,0-13.2-1-18-2.9c-4.8-2-9-4.5-12.6-7.7c-3.6-3.2-6.5-6.8-8.6-10.8c-2.6-5.2-3.9-10.9-3.9-17.3
	c0-11.4,4-21.1,12.1-29c8-7.9,18.1-11.8,30.3-11.8c3.8,0,7.2,0.3,10.2,0.9c1.6,0.3,4.3,1.2,8,2.6c3.7,1.4,5.9,2.1,6.5,2.1
	c1.1,0,2-0.4,2.9-1.1c0.9-0.8,1.7-2.2,2.5-4.3H77L77,499.6z"/>
<path class="st3" d="M117.6,542.7V564c0,4.1,0.2,6.7,0.7,7.8c0.5,1.1,1.4,1.9,2.7,2.6c1.3,0.6,3.7,1,7.1,1v2.1H89.2v-2.1
	c3.5,0,5.9-0.3,7.2-1c1.2-0.7,2.1-1.5,2.6-2.5c0.5-1.1,0.7-3.6,0.7-7.7v-49.3c0-4.1-0.2-6.7-0.7-7.8c-0.5-1.1-1.4-1.9-2.7-2.5
	c-1.3-0.7-3.6-1-7.1-1v-2.1h35.3c9.2,0,15.9,0.7,20.2,1.9c4.2,1.3,7.7,3.6,10.4,7c2.7,3.4,4,7.4,4,12c0,5.6-2,10.2-6.1,13.9
	c-2.6,2.3-6.2,4.1-10.8,5.2l18.3,25.7c2.4,3.3,4.1,5.4,5.1,6.2c1.6,1.2,3.3,1.8,5.3,1.9v2.1h-23.9l-24.5-34.7H117.6L117.6,542.7z
	 M117.6,505.4v33.3h3.2c5.2,0,9.1-0.5,11.7-1.4c2.6-1,4.6-2.7,6.1-5.2c1.5-2.5,2.2-5.7,2.2-9.7c0-5.8-1.4-10.1-4.1-12.8
	c-2.7-2.8-7.1-4.2-13.1-4.2H117.6L117.6,505.4z"/>
<path class="st3" d="M214.3,500.3c12.1-0.5,22,3.1,29.5,10.6c7.6,7.5,11.4,16.9,11.4,28.2c0,9.6-2.8,18.1-8.5,25.5
	c-7.5,9.7-18.1,14.6-31.7,14.6c-13.7,0-24.3-4.6-31.7-13.9c-5.9-7.3-8.9-16-8.9-26.1c0-11.3,3.8-20.7,11.5-28.2
	C193.7,503.4,203.1,499.8,214.3,500.3L214.3,500.3z M215,503.9c-7,0-12.3,3.6-15.9,10.7c-2.9,5.8-4.4,14.2-4.4,25.1
	c0,13,2.3,22.6,6.8,28.8c3.2,4.3,7.6,6.5,13.4,6.5c3.8,0,7.1-0.9,9.6-2.8c3.3-2.4,5.8-6.2,7.7-11.5c1.8-5.2,2.8-12.1,2.8-20.5
	c0-10.1-0.9-17.6-2.8-22.6c-1.9-5-4.2-8.5-7.2-10.6C222.1,504.9,218.8,503.9,215,503.9L215,503.9z"/>
<path class="st3" d="M262,501.3h39.2v2.1h-2c-2.9,0-5,0.3-6.1,0.9c-1.1,0.6-1.9,1.5-2.4,2.5c-0.5,1.1-0.7,3.8-0.7,8.1v37.2
	c0,6.8,0.5,11.3,1.6,13.5c1,2.2,2.7,4,5.1,5.5c2.4,1.5,5.3,2.2,8.9,2.2c4.1,0,7.6-0.9,10.5-2.8c2.9-1.9,5.1-4.4,6.5-7.7
	c1.4-3.3,2.2-8.9,2.2-17v-31c0-3.4-0.4-5.8-1.1-7.3c-0.7-1.5-1.6-2.5-2.7-3c-1.7-0.9-4.1-1.3-7.1-1.3v-2.1h26.3v2.1h-1.6
	c-2.1,0-3.9,0.4-5.3,1.3c-1.4,0.9-2.5,2.1-3.1,3.9c-0.5,1.2-0.7,3.3-0.7,6.5v28.9c0,8.9-0.6,15.4-1.8,19.4c-1.2,4-4.1,7.6-8.6,10.9
	c-4.6,3.3-10.8,5-18.7,5c-6.6,0-11.7-0.9-15.3-2.6c-4.9-2.4-8.3-5.5-10.4-9.2c-2-3.8-3-8.8-3-15.1V515c0-4.4-0.2-7.1-0.7-8.2
	c-0.5-1.1-1.3-1.9-2.5-2.5c-1.2-0.7-3.4-0.9-6.6-0.9V501.3L262,501.3z"/>
<path class="st3" d="M373.3,543V564c0,4.1,0.2,6.7,0.8,7.8c0.5,1.1,1.4,1.9,2.7,2.6c1.3,0.6,3.7,1,7.1,1v2.1h-38.6v-2.1
	c3.5,0,5.9-0.3,7.2-1c1.2-0.7,2.1-1.5,2.6-2.5c0.5-1.1,0.7-3.6,0.7-7.7v-49.3c0-4.1-0.2-6.7-0.7-7.8c-0.5-1.1-1.4-1.9-2.7-2.5
	c-1.3-0.7-3.6-1-7.1-1v-2.1h33.2c10.9,0,18.7,2,23.5,5.8c4.7,3.9,7.1,8.7,7.1,14.6c0,4.9-1.5,9.2-4.6,12.7
	c-3.1,3.5-7.3,5.9-12.7,7.2C388.1,542.5,381.9,543,373.3,543L373.3,543z M373.3,505.7v32.9c1.2,0.1,2.2,0.1,2.8,0.1
	c4.6,0,8.1-1.4,10.5-4.1c2.5-2.7,3.7-6.9,3.7-12.6c0-5.6-1.2-9.8-3.7-12.4c-2.5-2.6-6.1-3.9-11-3.9H373.3L373.3,505.7z"/>
</svg>
