<?xml version="1.0"?>
<svg xmlns="http://www.w3.org/2000/svg" id="Objects" viewBox="0 0 64 64" width="512" height="512"><path d="M6.693,61.675H47.075a1,1,0,0,0,1-1V52.849H59.748a2.986,2.986,0,0,0,2.983-2.984V32.891a2.986,2.986,0,0,0-2.983-2.984H45.28a8.384,8.384,0,0,0-8.236-6.678H32.588a9.755,9.755,0,0,0,4.065-7.915,9.641,9.641,0,0,0-.8-3.831V3.391a1,1,0,0,0-1-1H18.918a1,1,0,0,0-1,1v8.094a9.647,9.647,0,0,0-.8,3.829,9.756,9.756,0,0,0,4.066,7.915H16.725A8.43,8.43,0,0,0,8.3,31.65v10.6H4.488a1,1,0,0,0-1,1v6.926a1,1,0,0,0,1,1h1.2v9.5A1,1,0,0,0,6.693,61.675ZM33.85,4.391v6.216H19.918V4.391ZM19.114,15.314a7.652,7.652,0,0,1,.494-2.707H34.16a7.669,7.669,0,0,1,.493,2.707,7.77,7.77,0,1,1-15.539,0ZM46.075,59.675H7.693v-8.5H25.725a2.977,2.977,0,0,0,2.667,1.672h2.024l.063,4.775a1,1,0,0,0,1.436.887l11.668-5.662h2.492ZM28.392,29.907a2.983,2.983,0,0,0-.538.055V25.229h5.274l-3.979,4.678Zm-2.538,1.434c-.024.04-.044.083-.067.125l-5.269-6.237h5.336Zm34.877,1.55V49.865a.985.985,0,0,1-.983.984H43.354a1,1,0,0,0-.437.1L32.458,56.024,32.4,51.836a1,1,0,0,0-1-.987H28.392a.986.986,0,0,1-.984-.984V33.427l.021-.018-.021-.024v-.494a.986.986,0,0,1,.984-.984H59.748A.985.985,0,0,1,60.731,32.891ZM43.223,29.907H31.775l3.98-4.678h1.289A6.393,6.393,0,0,1,43.223,29.907ZM10.3,31.65a6.429,6.429,0,0,1,6.421-6.421H17.9l7.508,8.887v8.135H17.725V31.622h-2V42.251H10.3Zm-4.816,12.6h19.92v4.926H5.488Z"/><path d="M42.67,47.365h-8.3a.535.535,0,0,1-.535-.535v-1a.532.532,0,0,1,.151-.372L38.6,40.7A4.128,4.128,0,0,0,40.118,38.2c0-.938-.668-1.425-2.021-1.48A5.11,5.11,0,0,0,35.065,37.9a.539.539,0,0,1-.808-.168l-.461-.878a.547.547,0,0,1,.156-.689A7.472,7.472,0,0,1,38.439,34.6c2.311,0,4.207,1.046,4.207,3.23,0,1.155-.8,2.546-2.4,4.17l-3.249,3.231H42.67a.536.536,0,0,1,.535.536V46.83A.535.535,0,0,1,42.67,47.365Z"/><path d="M52.357,47.365h-1.05a.594.594,0,0,1-.594-.594v-2.4H45.26a.594.594,0,0,1-.594-.594V42.749a.586.586,0,0,1,.071-.281l4-7.444a.594.594,0,0,1,.523-.313h.985a.594.594,0,0,1,.525.873l-3.562,6.709h3.5V39.981a.594.594,0,0,1,.594-.594h1.054a.593.593,0,0,1,.594.59l.015,2.316h1.21a.594.594,0,0,1,.594.594v.888a.594.594,0,0,1-.594.594H52.951v2.4A.594.594,0,0,1,52.357,47.365Z"/></svg>
