<?xml version="1.0"?>
<svg xmlns="http://www.w3.org/2000/svg" id="_01-Payment" data-name="01-Payment" viewBox="0 0 64 64" width="512" height="512"><path d="M25,64H11a1,1,0,0,1-.949-1.316l1.878-5.632L4.086,39.406a1,1,0,0,1,.095-.979l7-10,1.638,1.146L6.144,39.11l7.77,17.484a1,1,0,0,1,.035.722L12.387,62H24V57a.984.984,0,0,1,.03-.242A37.11,37.11,0,0,0,25,49a12.962,12.962,0,0,0-1.833-6.447A1.009,1.009,0,0,1,23,42V34.5a1.5,1.5,0,0,0-3,0V42a1,1,0,0,1-.2.6l-3,4-1.6-1.2L18,41.667V34.5a3.5,3.5,0,0,1,7,0v7.216A14.918,14.918,0,0,1,27,49a38.509,38.509,0,0,1-1,8.12V63A1,1,0,0,1,25,64Z"/><path d="M36,42H24V40H35V2H13V40h6v2H12a1,1,0,0,1-1-1V1a1,1,0,0,1,1-1H36a1,1,0,0,1,1,1V41A1,1,0,0,1,36,42Z"/><path d="M33.739,51a1,1,0,0,1-.485-.126l-8.26-4.59.972-1.748,7.388,4.106,5.773-10.33,1.746.976-6.26,11.2A1,1,0,0,1,33.739,51Z"/><path d="M44.513,32.768l-1.746-.976,8.871-15.875L35.514,6.954l.972-1.748,17,9.45a1,1,0,0,1,.387,1.362Z"/><path d="M31,45a.994.994,0,0,1-.514-.143l-5-3,1.03-1.714L30.7,42.652l1.471-2.207,1.664,1.11-2,3A1,1,0,0,1,31,45Z"/><path d="M36.865,36.5l-1.73-1L45.621,17.387l-10.1-5.509.958-1.756,11,6a1,1,0,0,1,.386,1.379Z"/><path d="M28,38H24V36h3.1A5.013,5.013,0,0,1,31,32.1V9.9A5.013,5.013,0,0,1,27.1,6H20.9A5.013,5.013,0,0,1,17,9.9V32.117a5.192,5.192,0,0,1,2.734,1.434l-1.449,1.378A3.593,3.593,0,0,0,16,34,1,1,0,0,1,15,33V9a1,1,0,0,1,1-1,3,3,0,0,0,3-3,1,1,0,0,1,1-1h8a1,1,0,0,1,1,1,3,3,0,0,0,3,3,1,1,0,0,1,1,1V33a1,1,0,0,1-1,1,3,3,0,0,0-3,3A1,1,0,0,1,28,38Z"/><path d="M26,25V23a1,1,0,0,0,1-1V20a1,1,0,0,0-2,0v2a3,3,0,0,1-6,0V20a3,3,0,0,1,3-3v2a1,1,0,0,0-1,1v2a1,1,0,0,0,2,0V20a3,3,0,0,1,6,0v2A3,3,0,0,1,26,25Z"/><rect x="18" y="20" width="2" height="2"/><rect x="28" y="20" width="2" height="2"/><path d="M35,57a1,1,0,0,1-.485-.126l-9-5,.972-1.748,8.13,4.517,2.562-4.553,1.743.98-3.049,5.42A1,1,0,0,1,35,57Z"/><path d="M45.872,38.711l-1.744-.982,7.486-13.3L48.553,22.9l.894-1.79,4,2a1,1,0,0,1,.425,1.385Z"/><path d="M53,64H39a1,1,0,0,1-1-1V57.12A38.509,38.509,0,0,1,37,49a14.918,14.918,0,0,1,2-7.284V34.5a3.5,3.5,0,0,1,7,0v7.167L48.8,45.4l-1.6,1.2-3-4A1,1,0,0,1,44,42V34.5a1.5,1.5,0,0,0-3,0V42a1.006,1.006,0,0,1-.168.555A12.957,12.957,0,0,0,39,49a36.958,36.958,0,0,0,.97,7.757A1,1,0,0,1,40,57v5H51.613l-1.562-4.684a1,1,0,0,1,.035-.722l7.77-17.484L51.479,30H50V28h2a1,1,0,0,1,.819.427l7,10a1,1,0,0,1,.095.979L52.071,57.052l1.878,5.632A1,1,0,0,1,53,64Z"/></svg>
