<svg height="512" viewBox="0 0 64 64" width="512" xmlns="http://www.w3.org/2000/svg"><g id="_02-Growth" data-name="02-Growth"><path d="m32 50a3.887 3.887 0 0 1 -4-4 1 1 0 0 1 .36-.768c.256-.214 6.34-5.232 11.64-5.232 5.26 0 12.285 4.975 12.581 5.186l-1.162 1.628c-.067-.048-6.801-4.814-11.419-4.814-3.869 0-8.563 3.376-9.954 4.447a1.8 1.8 0 0 0 1.954 1.553 11.647 11.647 0 0 0 5.445-1.832l1.11 1.664a13.611 13.611 0 0 1 -6.555 2.168z"/><path d="m27.125 57a1 1 0 0 1 -.571-.179l-12.923-9a1 1 0 0 1 -.378-.507 3.267 3.267 0 0 1 .248-3.062 3.5 3.5 0 0 1 2.69-1.252 1 1 0 0 1 .517.144l9.467 5.714 3.483-1.752.9 1.788-3.976 2a1 1 0 0 1 -.966-.038l-9.662-5.832a1.33 1.33 0 0 0 -.833.4 1.266 1.266 0 0 0 -.055.955l12.313 8.576c2.412-.318 14.861-1.955 17.639-1.955a1.014 1.014 0 0 1 .318.052l2.982 1-.636 1.9-2.822-.952c-3.223.065-17.456 1.97-17.6 1.989a.98.98 0 0 1 -.135.011z"/><path d="m60 64a.99.99 0 0 1 -.419-.092l-13-6a1 1 0 0 1 -.5-1.3l6-14a1 1 0 0 1 1.5-.42l7 5a1 1 0 0 1 .419.812v15a1 1 0 0 1 -1 1zm-11.7-7.5 10.7 4.937v-12.922l-5.57-3.979z"/><path d="m47.067 52h14.866v2h-14.866z" transform="matrix(.336 -.942 .942 .336 -13.744 86.497)"/><path d="m17.822 45.569-1.644-1.138.251-.362c1.554-2.14 7.162-9.069 14.571-9.069 4.792 0 8.848 2.965 11.407 5.453l-1.394 1.434c-2.293-2.229-5.892-4.887-10.013-4.887-6.63 0-11.943 6.854-12.941 8.228z"/><path d="m31 26a13 13 0 1 1 13-13 13.015 13.015 0 0 1 -13 13zm0-24a11 11 0 1 0 11 11 11.013 11.013 0 0 0 -11-11z"/><path d="m31 22a9 9 0 1 1 9-9 9.011 9.011 0 0 1 -9 9zm0-16a7 7 0 1 0 7 7 7.008 7.008 0 0 0 -7-7z"/><path d="m32 18h-2a3 3 0 0 1 -3-3h2a1 1 0 0 0 1 1h2a1 1 0 0 0 0-2h-2a3 3 0 0 1 0-6h2a3 3 0 0 1 3 3h-2a1 1 0 0 0 -1-1h-2a1 1 0 0 0 0 2h2a3 3 0 0 1 0 6z"/><path d="m30 7h2v2h-2z"/><path d="m30 17h2v2h-2z"/><path d="m30 1h2v4h-2z"/><path d="m30 21h2v4h-2z"/><path d="m39 12h4v2h-4z"/><path d="m19 12h4v2h-4z"/><path d="m36.071 4.929h4v2h-4z" transform="matrix(.707 -.707 .707 .707 6.958 28.657)"/><path d="m21.929 19.071h4v2h-4z" transform="matrix(.707 -.707 .707 .707 -7.184 22.799)"/><path d="m37.071 18.071h2v4h-2z" transform="matrix(.707 -.707 .707 .707 -3.042 32.799)"/><path d="m22.929 3.929h2v4h-2z" transform="matrix(.707 -.707 .707 .707 2.816 18.657)"/><path d="m30 25h2v11h-2z"/><path d="m42.248 36a9.454 9.454 0 0 1 -2.408-.31 6.522 6.522 0 0 1 -4.523-3.558c-.786-1.869-.077-4 1.9-5.689a6.06 6.06 0 0 1 3.545-1.189l.2-.021a12.873 12.873 0 0 1 3.171-.044 14.069 14.069 0 0 1 1.6.352 10.16 10.16 0 0 0 1.624.334 4.888 4.888 0 0 0 3.913-1.556 1 1 0 0 1 1.611 1.156 25.518 25.518 0 0 0 -1.192 2.715 16.6 16.6 0 0 1 -2.438 4.651 9.119 9.119 0 0 1 -7.003 3.159zm.629-8.894a15.984 15.984 0 0 0 -1.705.116l-.2.021a4.431 4.431 0 0 0 -2.453.718c-.615.528-1.979 1.916-1.356 3.395a4.734 4.734 0 0 0 3.189 2.4 7.259 7.259 0 0 0 7.361-2.191 14.537 14.537 0 0 0 2.075-4 6.59 6.59 0 0 1 -2.606.3 11.731 11.731 0 0 1 -1.952-.391 12.474 12.474 0 0 0 -1.379-.307 7.127 7.127 0 0 0 -.974-.067z"/><path d="m31.806 33.591-1.638-1.146c.232-.352 2.648-3.445 14.832-3.445v2c-10.984 0-13.173 2.565-13.194 2.591z"/><path d="m19.753 36a9.12 9.12 0 0 1 -7-3.16 16.6 16.6 0 0 1 -2.438-4.652 25.8 25.8 0 0 0 -1.192-2.714 1 1 0 0 1 1.611-1.156 4.894 4.894 0 0 0 3.913 1.556 10.171 10.171 0 0 0 1.625-.334 13.858 13.858 0 0 1 1.605-.352 12.865 12.865 0 0 1 3.17.044l.2.021a6.06 6.06 0 0 1 3.545 1.189c1.975 1.694 2.684 3.82 1.9 5.688a6.526 6.526 0 0 1 -4.522 3.559 9.461 9.461 0 0 1 -2.417.311zm-7.539-8.437a14.516 14.516 0 0 0 2.075 4 7.259 7.259 0 0 0 7.361 2.192 4.734 4.734 0 0 0 3.189-2.4c.623-1.479-.741-2.867-1.356-3.395a4.431 4.431 0 0 0 -2.453-.718l-.2-.021a11 11 0 0 0 -2.677-.053 12.458 12.458 0 0 0 -1.378.307 11.845 11.845 0 0 1 -1.953.391 6.565 6.565 0 0 1 -2.608-.304z"/><path d="m30.194 33.591c-.021-.026-2.21-2.591-13.194-2.591v-2c12.184 0 14.6 3.093 14.832 3.445z"/><path d="m55 23h-2v-16a1 1 0 0 1 1-1h.586l-2.586-2.586-2.586 2.586h.586a1 1 0 0 1 1 1v9h-2v-8h-2a1 1 0 0 1 -.707-1.707l5-5a1 1 0 0 1 1.414 0l5 5a1 1 0 0 1 -.707 1.707h-2z"/><path d="m8 28h-2v-14h-2a1 1 0 0 1 -.707-1.707l5-5a1 1 0 0 1 1.414 0l5 5a1 1 0 0 1 -.707 1.707h-2v8h-2v-9a1 1 0 0 1 1-1h.586l-2.586-2.586-2.586 2.586h.586a1 1 0 0 1 1 1z"/><path d="m6 30h2v2h-2z"/><path d="m49 18h2v2h-2z"/></g></svg>