<svg height="512" viewBox="0 0 128 128" width="512" xmlns="http://www.w3.org/2000/svg"><path d="m128 23.5a1.751 1.751 0 0 0 -1.75-1.75h-124.496a1.751 1.751 0 0 0 -1.754 1.75v80.994a1.751 1.751 0 0 0 1.75 1.75h124.496a1.751 1.751 0 0 0 1.75-1.75c-.002-14.784.004-73.414.004-80.994zm-35.095 40.5a8.006 8.006 0 0 1 6.247-7.8v15.6a8.007 8.007 0 0 1 -6.247-7.8zm15.995 0a8.007 8.007 0 0 1 -6.247 7.8v-15.6a8.006 8.006 0 0 1 6.247 7.8zm.246-8h15.354v16h-15.355a11.456 11.456 0 0 0 0-16zm15.354-3.5h-23.6a11.42 11.42 0 0 0 -6 1.709 24.779 24.779 0 0 1 22.721-14.955h6.879zm-23.6 23h23.6v13.241h-6.874a24.779 24.779 0 0 1 -22.726-14.955 11.42 11.42 0 0 0 6 1.714zm-38.65 2.878a14.486 14.486 0 0 1 0-28.762zm3.5-28.762a14.486 14.486 0 0 1 0 28.762zm-30.65 14.384a8.008 8.008 0 0 1 -6.247 7.8v-15.6a8.007 8.007 0 0 1 6.247 7.8zm-16 0a8.006 8.006 0 0 1 6.247-7.8v15.6a8.007 8.007 0 0 1 -6.247-7.8zm-.246 8h-15.354v-16h15.355a11.456 11.456 0 0 0 0 16zm-15.354 3.5h23.6a11.42 11.42 0 0 0 6-1.709 24.779 24.779 0 0 1 -22.722 14.95h-6.878zm23.6-23h-23.6v-13.247h6.874a24.779 24.779 0 0 1 22.726 14.955 11.42 11.42 0 0 0 -6-1.708zm-23.6 39.741h6.874a28.244 28.244 0 0 0 0-56.488h-6.874v-10.503h58.75v20.839a17.993 17.993 0 0 0 0 35.816v20.839h-58.75zm62.246 10.5v-20.836a17.993 17.993 0 0 0 0-35.816v-20.839h58.754v10.5h-6.874a28.244 28.244 0 0 0 0 56.488h6.874v10.5z"/></svg>