<?xml version="1.0" encoding="iso-8859-1"?>
<!-- Generator: Adobe Illustrator 19.0.0, SVG Export Plug-In . SVG Version: 6.00 Build 0)  -->
<svg version="1.1" id="Capa_1" xmlns="http://www.w3.org/2000/svg" xmlns:xlink="http://www.w3.org/1999/xlink" x="0px" y="0px"
	 viewBox="0 0 512 512" style="enable-background:new 0 0 512 512;" xml:space="preserve">
<g>
	<g>
		<g>
			<path d="M508.333,237.278L263,23.945c-4-3.479-10-3.479-14,0L3.666,237.278c-3.354,2.927-4.542,7.625-3,11.792
				c1.563,4.167,5.542,6.927,10,6.927H64v224c0,5.896,4.771,10.667,10.667,10.667h362.667c5.896,0,10.667-4.771,10.667-10.667v-224
				h53.333c4.458,0,8.438-2.76,10-6.927C512.875,244.903,511.687,240.205,508.333,237.278z M437.333,234.664
				c-5.896,0-10.667,4.771-10.667,10.667v224H85.333v-224c0-5.896-4.771-10.667-10.667-10.667H39.187L256,46.133l216.813,188.531
				H437.333z"/>
			<circle cx="298.666" cy="256" r="21.333"/>
			<path d="M213.333,266.664c0,8.031,1.313,15.958,3.938,23.646l-64.813,64.813c-2,2-3.125,4.708-3.125,7.542v32
				c0,5.896,4.771,10.667,10.667,10.667h32c2.833,0,5.542-1.125,7.542-3.125l64.813-64.802c7.688,2.604,15.604,3.927,23.646,3.927
				c41.167,0,74.667-33.5,74.667-74.667s-33.5-74.667-74.667-74.667S213.333,225.497,213.333,266.664z M288,213.33
				c29.417,0,53.333,23.927,53.333,53.333S317.416,319.997,288,319.997c-7.458,0-14.813-1.615-21.854-4.802
				c-4.083-1.854-8.833-0.969-11.938,2.177l-66.625,66.625h-16.917v-16.917l66.625-66.625c3.146-3.135,4-7.885,2.188-11.927
				c-3.188-7.063-4.813-14.427-4.813-21.865C234.666,237.258,258.583,213.33,288,213.33z"/>
		</g>
	</g>
</g>
<g>
</g>
<g>
</g>
<g>
</g>
<g>
</g>
<g>
</g>
<g>
</g>
<g>
</g>
<g>
</g>
<g>
</g>
<g>
</g>
<g>
</g>
<g>
</g>
<g>
</g>
<g>
</g>
<g>
</g>
</svg>
