<svg id="Layer_2" enable-background="new 0 0 64 64" height="512" viewBox="0 0 64 64" width="512" xmlns="http://www.w3.org/2000/svg"><g><path d="m57.616 19.874c-.59-.771-3.293-3.883-8.663-4.223-1.061-.067-2.028-.009-2.909.125.434-.738.825-1.591 1.127-2.579 1.578-5.167-.872-8.638-.977-8.783-.223-.307-.601-.46-.975-.4-.374.062-.682.331-.792.694l-2.655 8.689c-.316-1.108-.826-2.305-1.63-3.54-3.263-5.012-7.952-5.447-8.15-5.463-.386-.031-.745.158-.94.485-.195.328-.188.738.021 1.057l5.062 7.774c-.797-.348-1.678-.654-2.673-.877-1.067-.238-2.137-.359-3.181-.359-4.435 0-7.093 2.148-7.204 2.24-.294.243-.425.632-.336 1.004s.381.66.754.744l14.085 3.151c-10.1 7.307-11.84 19.922-11.994 26.645-11.356 1.165-19.515 6.442-19.515 12.742 0 .552.448 1 1 1h46.26c.553 0 1-.448 1-1 0-6.915-9.799-12.508-22.48-12.954-.209-5.994.797-16.766 9.439-23.909l8.01 12.262c.186.285.502.453.837.453.039 0 .078-.002.117-.007.377-.044.696-.299.824-.656.071-.199 1.705-4.941-1.815-10.329-.782-1.196-1.638-2.138-2.499-2.898l10.082.637c.021.001.043.002.063.002h.02c.553 0 1-.448 1-1 0-.287-.12-.545-.313-.727zm-31.039-4.773c.959-.342 2.208-.627 3.705-.627.897 0 1.82.104 2.744.312 2.764.618 4.58 1.912 5.696 3.033zm3.318 31.841c-.002.022-.014.04-.014.063-.001.048.019.089.025.135.133 2.249.404 3.668.415 3.723.11.541.637.886 1.178.781.541-.109.891-.637.782-1.178-.008-.042-.177-.938-.307-2.404 10.65.426 19.281 4.688 20.264 9.938h-44.072c.893-4.71 8.023-8.719 17.417-9.733.033 1.534.135 2.471.14 2.517.061.508.493.881.992.881.04 0 .08-.002.12-.007.548-.066.94-.563.875-1.112-.026-.214-2.3-20.894 12.24-30.119.058.032.117.062.181.082-9.796 7.998-10.573 20.219-10.236 26.433zm4.354-39.796c1.294.627 2.89 1.76 4.218 3.801 1.335 2.051 1.719 3.958 1.76 5.38zm11.27.832c.249 1.187.31 2.767-.261 4.634-.571 1.868-1.506 3.149-2.378 4zm2.07 16.976c1.546 2.367 1.929 4.557 1.935 6.131l-6.635-10.156c.046-.032.093-.064.14-.096 1.402.685 3.116 1.911 4.56 4.121zm-3.619-6.173c-.083-.086-.182-.154-.292-.207.04-.033.079-.063.119-.098 1.241-.539 2.92-.96 5.028-.829 2.446.154 4.217.973 5.397 1.782z"/><path d="m35.147 56.899h8.511c.497 0 .9-.403.9-.9s-.403-.9-.9-.9h-8.511c-.497 0-.9.403-.9.9s.403.9.9.9z"/><path d="m46.658 56.899h2.14c.497 0 .9-.403.9-.9s-.403-.9-.9-.9h-2.14c-.497 0-.9.403-.9.9s.403.9.9.9z"/></g></svg>