<svg xmlns="http://www.w3.org/2000/svg" height="640pt" version="1.1" viewBox="-1 0 640 640" width="640pt">
<g id="surface1">
<path d="M 575.4375 491.519531 L 575.4375 373.335938 C 575.4375 367.441406 570.660156 362.664062 564.773438 362.664062 L 436.769531 362.664062 C 430.878906 362.664062 426.105469 367.441406 426.105469 373.335938 L 426.105469 490.667969 L 394.101562 490.667969 L 394.101562 373.335938 C 394.101562 367.441406 389.328125 362.664062 383.433594 362.664062 L 255.4375 362.664062 C 249.546875 362.664062 244.773438 367.441406 244.773438 373.335938 L 244.773438 490.667969 L 212.769531 490.667969 L 212.769531 373.335938 C 212.769531 367.441406 207.996094 362.664062 202.101562 362.664062 L 74.101562 362.664062 C 68.214844 362.664062 63.4375 367.441406 63.4375 373.335938 L 63.4375 491.519531 C 22.667969 497.730469 -5.34375 535.8125 0.859375 576.578125 C 6.382812 612.835938 37.429688 639.71875 74.101562 640 L 564.773438 640 C 606.007812 639.683594 639.175781 605.996094 638.859375 564.761719 C 638.574219 528.082031 611.695312 497.039062 575.4375 491.519531 Z M 447.4375 384 L 554.101562 384 L 554.101562 490.667969 L 447.4375 490.667969 Z M 266.105469 384 L 372.769531 384 L 372.769531 490.667969 L 266.105469 490.667969 Z M 84.773438 384 L 191.4375 384 L 191.4375 490.667969 L 84.773438 490.667969 Z M 564.773438 618.667969 L 74.101562 618.667969 C 44.648438 618.667969 20.769531 594.789062 20.769531 565.332031 C 20.769531 535.878906 44.648438 512 74.101562 512 L 564.773438 512 C 594.226562 512 618.101562 535.878906 618.101562 565.332031 C 618.101562 594.789062 594.226562 618.667969 564.773438 618.667969 Z M 564.773438 618.667969 " style=" stroke:none;fill-rule:nonzero;fill:rgb(0%,0%,0%);fill-opacity:1;" />
<path d="M 266.105469 522.664062 C 242.539062 522.664062 223.433594 541.765625 223.433594 565.332031 C 223.433594 588.898438 242.539062 608 266.105469 608 C 289.667969 608 308.769531 588.898438 308.769531 565.332031 C 308.769531 541.765625 289.667969 522.664062 266.105469 522.664062 Z M 266.105469 586.664062 C 254.324219 586.664062 244.773438 577.113281 244.773438 565.332031 C 244.773438 553.550781 254.324219 544 266.105469 544 C 277.886719 544 287.4375 553.550781 287.4375 565.332031 C 287.4375 577.113281 277.886719 586.664062 266.105469 586.664062 Z M 266.105469 586.664062 " style=" stroke:none;fill-rule:nonzero;fill:rgb(0%,0%,0%);fill-opacity:1;" />
<path d="M 372.769531 522.664062 C 349.207031 522.664062 330.105469 541.765625 330.105469 565.332031 C 330.105469 588.898438 349.207031 608 372.769531 608 C 396.335938 608 415.4375 588.898438 415.4375 565.332031 C 415.4375 541.765625 396.335938 522.664062 372.769531 522.664062 Z M 372.769531 586.664062 C 360.988281 586.664062 351.4375 577.113281 351.4375 565.332031 C 351.4375 553.550781 360.988281 544 372.769531 544 C 384.550781 544 394.101562 553.550781 394.101562 565.332031 C 394.101562 577.113281 384.550781 586.664062 372.769531 586.664062 Z M 372.769531 586.664062 " style=" stroke:none;fill-rule:nonzero;fill:rgb(0%,0%,0%);fill-opacity:1;" />
<path d="M 468.769531 522.664062 C 445.207031 522.664062 426.105469 541.765625 426.105469 565.332031 C 426.105469 588.898438 445.207031 608 468.769531 608 C 492.335938 608 511.4375 588.898438 511.4375 565.332031 C 511.4375 541.765625 492.335938 522.664062 468.769531 522.664062 Z M 468.769531 586.664062 C 456.988281 586.664062 447.4375 577.113281 447.4375 565.332031 C 447.4375 553.550781 456.988281 544 468.769531 544 C 480.554688 544 490.105469 553.550781 490.105469 565.332031 C 490.105469 577.113281 480.554688 586.664062 468.769531 586.664062 Z M 468.769531 586.664062 " style=" stroke:none;fill-rule:nonzero;fill:rgb(0%,0%,0%);fill-opacity:1;" />
<path d="M 564.773438 522.664062 C 541.207031 522.664062 522.101562 541.765625 522.101562 565.332031 C 522.101562 588.898438 541.207031 608 564.773438 608 C 588.335938 608 607.4375 588.898438 607.4375 565.332031 C 607.4375 541.765625 588.335938 522.664062 564.773438 522.664062 Z M 564.773438 586.664062 C 552.988281 586.664062 543.433594 577.113281 543.433594 565.332031 C 543.433594 553.550781 552.988281 544 564.773438 544 C 576.554688 544 586.105469 553.550781 586.105469 565.332031 C 586.105469 577.113281 576.554688 586.664062 564.773438 586.664062 Z M 564.773438 586.664062 " style=" stroke:none;fill-rule:nonzero;fill:rgb(0%,0%,0%);fill-opacity:1;" />
<path d="M 170.105469 522.664062 C 146.539062 522.664062 127.4375 541.765625 127.4375 565.332031 C 127.4375 588.898438 146.539062 608 170.105469 608 C 193.667969 608 212.769531 588.898438 212.769531 565.332031 C 212.769531 541.765625 193.667969 522.664062 170.105469 522.664062 Z M 170.105469 586.664062 C 158.320312 586.664062 148.769531 577.113281 148.769531 565.332031 C 148.769531 553.550781 158.320312 544 170.105469 544 C 181.886719 544 191.4375 553.550781 191.4375 565.332031 C 191.4375 577.113281 181.886719 586.664062 170.105469 586.664062 Z M 170.105469 586.664062 " style=" stroke:none;fill-rule:nonzero;fill:rgb(0%,0%,0%);fill-opacity:1;" />
<path d="M 74.101562 522.664062 C 50.539062 522.664062 31.4375 541.765625 31.4375 565.332031 C 31.4375 588.898438 50.539062 608 74.101562 608 C 97.667969 608 116.769531 588.898438 116.769531 565.332031 C 116.769531 541.765625 97.667969 522.664062 74.101562 522.664062 Z M 74.101562 586.664062 C 62.320312 586.664062 52.769531 577.113281 52.769531 565.332031 C 52.769531 553.550781 62.320312 544 74.101562 544 C 85.886719 544 95.4375 553.550781 95.4375 565.332031 C 95.4375 577.113281 85.886719 586.664062 74.101562 586.664062 Z M 74.101562 586.664062 " style=" stroke:none;fill-rule:nonzero;fill:rgb(0%,0%,0%);fill-opacity:1;" />
<path d="M 148.769531 202.664062 C 177.539062 202.648438 203.710938 186.023438 215.96875 160 L 472.898438 160 C 477.824219 164.378906 483.722656 167.519531 490.105469 169.175781 L 490.105469 257.066406 C 465.289062 262.167969 447.46875 284 447.4375 309.332031 C 447.4375 315.226562 452.214844 320 458.101562 320 C 463.996094 320 468.769531 315.226562 468.769531 309.332031 C 468.769531 291.660156 483.097656 277.335938 500.769531 277.335938 C 518.445312 277.335938 532.769531 291.660156 532.769531 309.332031 C 532.769531 315.226562 537.546875 320 543.433594 320 C 549.328125 320 554.101562 315.226562 554.101562 309.332031 C 554.070312 284 536.25 262.167969 511.4375 257.066406 L 511.4375 169.148438 C 534.210938 163.289062 547.921875 140.074219 542.0625 117.300781 C 537.214844 98.46875 520.214844 85.308594 500.769531 85.332031 C 490.480469 85.359375 480.558594 89.15625 472.878906 96 L 215.96875 96 C 212.429688 88.550781 207.671875 81.742188 201.902344 75.851562 C 201.988281 75.460938 202.058594 75.0625 202.101562 74.667969 L 202.101562 10.667969 C 202.101562 4.773438 197.324219 0 191.4375 0 L 106.105469 0 C 100.210938 0 95.4375 4.773438 95.4375 10.667969 L 95.4375 74.667969 C 95.4375 75.039062 95.617188 75.359375 95.652344 75.734375 C 66.699219 104.984375 66.945312 152.167969 96.199219 181.113281 C 110.1875 194.960938 129.089844 202.703125 148.769531 202.664062 Z M 522.101562 128 C 522.101562 139.78125 512.550781 149.335938 500.769531 149.335938 C 494.6875 149.375 488.894531 146.761719 484.898438 142.179688 C 477.570312 134.070312 477.617188 121.71875 485.015625 113.675781 C 489.003906 109.171875 494.753906 106.617188 500.769531 106.671875 C 512.550781 106.664062 522.101562 116.21875 522.101562 128 Z M 459.460938 117.335938 C 459.296875 117.972656 459.226562 118.625 459.082031 119.261719 C 458.945312 119.902344 458.839844 120.4375 458.742188 121.035156 C 457.898438 125.621094 457.898438 130.316406 458.742188 134.902344 C 458.839844 135.515625 458.964844 136.117188 459.09375 136.714844 C 459.21875 137.3125 459.296875 137.992188 459.460938 138.625 L 222.65625 138.625 C 223.683594 131.546875 223.683594 124.367188 222.65625 117.289062 Z M 116.769531 21.332031 L 180.773438 21.332031 L 180.773438 60.523438 C 160.515625 50.9375 137.027344 50.9375 116.769531 60.523438 Z M 119.425781 83.511719 C 136.988281 72.164062 159.523438 71.976562 177.273438 83.027344 C 177.558594 83.222656 177.878906 83.359375 178.175781 83.554688 C 187.859375 89.964844 195.175781 99.367188 199.019531 110.328125 C 203.164062 121.800781 203.164062 134.359375 199.019531 145.835938 C 189.234375 173.617188 158.777344 188.203125 130.996094 178.417969 C 103.214844 168.632812 88.628906 138.179688 98.414062 110.394531 C 102.300781 99.367188 109.699219 89.921875 119.480469 83.511719 Z M 119.425781 83.511719 " style=" stroke:none;fill-rule:nonzero;fill:rgb(0%,0%,0%);fill-opacity:1;" />
<path d="M 148.769531 160 C 166.441406 160 180.769531 145.671875 180.769531 128 C 180.769531 110.328125 166.441406 96 148.769531 96 C 131.09375 96 116.769531 110.328125 116.769531 128 C 116.769531 145.671875 131.09375 160 148.769531 160 Z M 148.769531 117.335938 C 154.660156 117.335938 159.433594 122.109375 159.433594 128 C 159.433594 133.890625 154.660156 138.667969 148.769531 138.667969 C 142.878906 138.667969 138.101562 133.890625 138.101562 128 C 138.101562 122.109375 142.878906 117.335938 148.769531 117.335938 Z M 148.769531 117.335938 " style=" stroke:none;fill-rule:nonzero;fill:rgb(0%,0%,0%);fill-opacity:1;" />
</g>
</svg>