<svg id="Capa_1" enable-background="new 0 0 512 512" height="512" viewBox="0 0 512 512" width="512" xmlns="http://www.w3.org/2000/svg"><path d="m464.583 58.023 45.22-45.22c2.929-2.929 2.929-7.678 0-10.606-2.929-2.929-7.678-2.929-10.606 0l-45.22 45.22-41.354-41.355c-6.824-6.824-17.926-6.823-24.749 0l-29.003 29.002c-3.305 3.305-5.126 7.7-5.126 12.375s1.82 9.069 5.126 12.374l41.354 41.354-10.607 10.607-61.982-61.982c-6.823-6.823-17.926-6.823-24.749 0l-13.91 13.91c-6.823 6.823-6.823 17.926.001 24.749l61.982 61.982-10.859 10.859-41.354-41.354c-6.823-6.824-17.925-6.823-24.749 0l-29.003 29.003c-6.823 6.823-6.823 17.925 0 24.749l41.354 41.354-10.607 10.607-23.781-23.781c-2.929-2.929-7.678-2.929-10.606 0-2.929 2.929-2.929 7.678 0 10.606l96.37 96.37c.975.975.975 2.561 0 3.536l-13.91 13.91c-.975.975-2.561.974-3.536 0l-134.571-134.571c-.975-.975-.975-2.561 0-3.536l13.91-13.91c.973-.975 2.559-.976 3.536 0l15.088 15.089c2.929 2.93 7.678 2.929 10.606 0 2.929-2.929 2.929-7.677 0-10.607l-15.088-15.089c-6.824-6.824-17.926-6.823-24.749 0l-13.91 13.91c-6.823 6.823-6.823 17.925 0 24.749l61.982 61.982-10.607 10.607-41.354-41.354c-3.306-3.306-7.7-5.127-12.375-5.127-4.674 0-9.069 1.82-12.374 5.126l-29.003 29.002c-3.305 3.305-5.126 7.7-5.126 12.375s1.821 9.069 5.126 12.374l41.354 41.354-10.607 10.607-61.982-61.982c-6.823-6.823-17.926-6.823-24.749 0l-13.91 13.91c-6.823 6.823-6.823 17.926 0 24.749l61.982 61.982-32.868 32.872c-22.089-16.883-53.889-15.245-74.075 4.94-10.65 10.649-16.515 24.809-16.515 39.87s5.865 29.221 16.515 39.871 24.809 16.515 39.871 16.515c15.061 0 29.221-5.865 39.871-16.515 20.186-20.186 21.822-51.987 4.94-74.075l32.871-32.871 61.982 61.982c3.412 3.412 7.892 5.118 12.374 5.117 4.481-.001 8.963-1.706 12.375-5.117l13.91-13.91c6.823-6.823 6.823-17.926 0-24.749l-23.435-23.435c-2.929-2.929-7.678-2.929-10.606 0-2.929 2.929-2.929 7.678 0 10.607l23.435 23.434c.975.975.975 2.561 0 3.536l-13.91 13.909c-.975.976-2.562.975-3.536 0l-134.572-134.569c-.975-.975-.975-2.561 0-3.536l13.91-13.91c.976-.975 2.562-.975 3.536 0l88.023 88.023c2.929 2.93 7.678 2.929 10.606 0 2.929-2.929 2.929-7.678 0-10.607l-15.435-15.435 10.607-10.607 41.355 41.354c3.305 3.305 7.7 5.126 12.374 5.126s9.069-1.821 12.374-5.126l29.002-29.002c3.306-3.306 5.126-7.7 5.126-12.374 0-4.675-1.82-9.069-5.126-12.375l-41.354-41.354 10.607-10.607 61.982 61.982c3.412 3.412 7.893 5.118 12.375 5.118 4.48 0 8.963-1.707 12.374-5.118l13.91-13.91c6.823-6.823 6.823-17.925 0-24.749l-61.982-61.982 10.607-10.607 41.354 41.354c3.412 3.412 7.893 5.118 12.374 5.118s8.963-1.706 12.375-5.118l29.003-29.003c6.823-6.823 6.823-17.925 0-24.749l-41.354-41.354 10.859-10.859 61.982 61.982c3.412 3.412 7.893 5.118 12.374 5.118 4.48 0 8.963-1.707 12.374-5.118l13.91-13.91c6.823-6.823 6.823-17.926 0-24.749l-61.982-61.982 10.607-10.607 10.251 10.251c2.929 2.929 7.678 2.929 10.606 0 2.929-2.929 2.929-7.678 0-10.606l-62.212-62.211c-.637-.637-.732-1.381-.732-1.768s.095-1.13.732-1.768l29.003-29.003c.974-.975 2.56-.975 3.536 0l93.315 93.315c.975.975.975 2.561 0 3.536l-29.004 29.003c-.637.637-1.38.732-1.767.732s-1.131-.095-1.767-.732l-7.991-7.991c-2.928-2.929-7.677-2.929-10.606 0s-2.929 7.678 0 10.607l7.991 7.991c3.305 3.305 7.7 5.126 12.374 5.126 4.675 0 9.069-1.82 12.374-5.126l29.003-29.003c6.823-6.823 6.823-17.925 0-24.749zm-378.933 426.855c-7.817 7.817-18.21 12.122-29.264 12.122-11.055 0-21.447-4.305-29.264-12.122s-12.122-18.209-12.122-29.264c0-11.054 4.305-21.447 12.122-29.264 8.068-8.068 18.666-12.102 29.264-12.102s21.196 4.034 29.264 12.102c16.136 16.137 16.136 42.392 0 58.528zm182.914-145.627c0 .386-.095 1.13-.733 1.767l-29.002 29.003c-.637.637-1.381.732-1.768.732s-1.13-.095-1.767-.732l-93.316-93.316c-.637-.637-.732-1.38-.732-1.767s.095-1.131.732-1.768l29.003-29.003c.637-.637 1.381-.732 1.767-.732.387 0 1.13.095 1.768.733l93.315 93.315c.638.638.733 1.382.733 1.768zm112.891-111.856-29.003 29.003c-.974.974-2.56.975-3.536 0l-93.315-93.315c-.975-.975-.975-2.561 0-3.536l29.003-29.003c.487-.487 1.127-.731 1.768-.731.64 0 1.28.244 1.767.731l93.315 93.315c.976.975.976 2.562.001 3.536zm70.146-28.889-13.91 13.91c-.975.975-2.561.974-3.536 0l-134.57-134.571c-.975-.975-.975-2.561 0-3.536l13.91-13.91c.487-.487 1.128-.731 1.768-.731s1.281.244 1.768.731l134.57 134.571c.975.975.975 2.561 0 3.536z"/></svg>