<svg enable-background="new 0 0 128 128" height="512" viewBox="0 0 128 128" width="512" xmlns="http://www.w3.org/2000/svg"><g id="food"><g><g><path d="m107.8 65.5c-.3-1.1-1.1-2-2.2-2.5-.8-19.4-15.3-35.2-34.1-38.1v-3.2c0-3.3-2.7-6-6-6h-.2c-3.3 0-6 2.7-6 6v3.2c-18.8 2.8-33.3 18.7-34.1 38.1-.8.4-1.5 1-1.9 1.9-18.1 3.4-18.1 8-18.1 9.6 0 5.3 10.3 8.4 21.6 10.2-7.2 4.4-7.3 13-7.3 13.1l.1 5.1h-1.1c-2.2 0-4 1.8-4 4v9.7c0 2.2 1.8 4 4 4h29.9c2.2 0 4-1.8 4-4v-9.7c0-2.2-1.8-4-4-4h-.2c1-1.5 3-3.1 7.3-3.1 8.7 0 24.3-1.6 31.8-5.2 3.7-1.7 8.7-5.8 11.8-9.6 23.7-3.5 23.7-8.8 23.7-10.5 0-3.8-4.9-6.7-15-9zm-44.5-43.8c0-1.1.9-2 2-2h.2c1.1 0 2 .9 2 2v2.2h-4.2zm2.1 6.7c19.3 0 35.1 15.2 36.2 34.2h-72.4c1.1-19 16.9-34.2 36.2-34.2zm-37.5 38.2h75c.6 0 1 .4 1 1v1.2c0 .6-.4 1-1 1h-75c-.6 0-1-.4-1-1v-1.2c0-.5.5-1 1-1zm20.6 40.3v9.7h-30v-9.7zm37.2-15.9c-6 2.8-20.4 4.8-30.1 4.8-7.4 0-10.7 4-11.8 7.1h-20.2l-.1-5.2c0-.6.1-10.8 12.4-11.6 6-.4 14.4-.1 22.5.2 14 .5 22.7.7 26.1-.8.7-.3 1.3-.6 2-.9 2.7-1.2 6.8-3.1 9.6-3.8.5-.1.8.4.5.8-1.8 2.3-6.3 7.2-10.9 9.4zm16-10.5c.1-.4.2-.8.2-1.2-.1-1.2-.8-2.2-1.9-2.5-3.1-1.1-8 .9-15.1 4.1-.7.3-1.4.6-2 .9-2.8 1.2-14.2.8-24.3.5-7.6-.3-15.4-.6-21.4-.3-.2 0-.3 0-.4 0-22.7-2.4-27.6-6.6-27.6-7.5 0-.6 2.4-3.1 13.8-5.5v.8c0 2.2 1.8 3.9 3.9 3.9h77.1c2.2 0 3.9-1.8 3.9-3.9v-.2c9 2.1 10.9 4.3 10.9 4.8 0 .8-3 3.7-17.1 6.1z" fill="rgb(0,0,0)"/></g><g><g><path d="m82.9 24.3c-.8-.8-.7-2.1.1-2.8.5-.5.8-1.1.8-1.7s-.3-1.2-.8-1.7l-.9-.8c-1.3-1.2-2-2.9-2-4.6 0-1.8.7-3.4 2-4.6.8-.8 2.1-.7 2.8.1.8.8.7 2.1-.1 2.8-.5.5-.8 1.1-.8 1.7s.3 1.2.8 1.7l.9.8c1.3 1.2 2 2.9 2 4.6 0 1.8-.7 3.4-2 4.6-.3.3-1.8.9-2.8-.1z" fill="rgb(0,0,0)"/></g><g><path d="m92.6 24.3c-.8-.8-.7-2.1.1-2.8.5-.5.8-1.1.8-1.7s-.3-1.2-.8-1.7l-.9-.8c-1.3-1.2-2-2.9-2-4.6 0-1.8.7-3.4 2-4.6.8-.8 2.1-.7 2.8.1.8.8.7 2.1-.1 2.8-.5.5-.8 1.1-.8 1.7s.3 1.2.8 1.7l.9.8c1.3 1.2 2 2.9 2 4.6 0 1.8-.7 3.4-2 4.6-.4.3-1.7.9-2.8-.1z" fill="rgb(0,0,0)"/></g><g><path d="m36.3 24.3c-.7-.8-.7-2.1.1-2.8.5-.5.8-1.1.8-1.7s-.3-1.2-.8-1.7l-.9-.8c-1.3-1.2-2-2.9-2-4.6 0-1.8.7-3.4 2-4.6.8-.8 2.1-.7 2.8.1.8.8.7 2.1-.1 2.8-.5.5-.8 1.1-.8 1.7s.3 1.2.8 1.7l.9.8c1.3 1.2 2 2.9 2 4.6 0 1.8-.7 3.4-2 4.6-.4.3-2 .8-2.8-.1z" fill="rgb(0,0,0)"/></g><g><path d="m45.9 24.3c-.7-.9-.7-2.1.1-2.8.5-.5.8-1.1.8-1.7s-.3-1.2-.8-1.7l-.9-.8c-1.3-1.2-2-2.9-2-4.6 0-1.8.7-3.4 2-4.6.8-.8 2.1-.7 2.8.1.8.8.7 2.1-.1 2.8-.5.5-.8 1.1-.8 1.7s.3 1.2.8 1.7l.9.8c1.3 1.2 2 2.9 2 4.6 0 1.8-.7 3.4-2 4.6-.4.3-1.8 1.1-2.8-.1z" fill="rgb(0,0,0)"/></g></g></g></g></svg>