<svg xmlns="http://www.w3.org/2000/svg" height="639pt" version="1.1" viewBox="-3 1 639 639.99872" width="639pt">
<g id="surface1">
<path d="M 628.957031 346.859375 C 626.285156 344.871094 622.828125 344.261719 619.632812 345.214844 L 422.28125 404.390625 L 422.28125 355.296875 C 422.285156 349.472656 417.5625 344.75 411.742188 344.746094 C 410.714844 344.746094 409.6875 344.898438 408.703125 345.195312 L 339.289062 366.019531 L 327.378906 175.386719 C 327.035156 169.820312 322.414062 165.484375 316.835938 165.492188 L 253.570312 165.492188 C 247.988281 165.484375 243.371094 169.820312 243.023438 175.386719 L 229.054688 399.085938 L 211.386719 404.359375 L 211.386719 355.296875 C 211.390625 349.472656 206.671875 344.75 200.851562 344.75 C 199.710938 344.75 198.589844 344.929688 197.515625 345.289062 L 162.117188 357.089844 L 148.121094 133.207031 C 147.78125 127.640625 143.15625 123.304688 137.578125 123.316406 L 74.3125 123.316406 C 68.730469 123.304688 64.113281 127.640625 63.765625 133.207031 L 47.359375 395.367188 L 7.703125 408.570312 C 3.398438 410.003906 0.5 414.03125 0.5 418.5625 L 0.5 629.457031 C 0.5 635.277344 5.222656 640 11.046875 640 L 622.632812 640 C 628.453125 640 633.175781 635.277344 633.175781 629.457031 L 633.175781 355.296875 C 633.175781 351.976562 631.613281 348.851562 628.957031 346.859375 Z M 84.210938 144.402344 L 127.675781 144.402344 L 141.386719 363.984375 L 68.941406 388.121094 Z M 250.582031 392.636719 L 263.46875 186.582031 L 306.933594 186.582031 L 318.535156 372.242188 L 254.097656 391.582031 Z M 612.085938 618.910156 L 21.589844 618.910156 L 21.589844 426.15625 L 190.296875 369.921875 L 190.296875 418.5625 C 190.296875 424.390625 195.015625 429.109375 200.839844 429.117188 C 201.871094 429.117188 202.894531 428.964844 203.882812 428.667969 L 401.191406 369.480469 L 401.191406 418.5625 C 401.191406 424.390625 405.914062 429.109375 411.734375 429.109375 C 412.757812 429.109375 413.78125 428.960938 414.761719 428.667969 L 612.085938 369.46875 Z M 612.085938 618.910156 " style=" stroke:none;fill-rule:nonzero;fill:rgb(0%,0%,0%);fill-opacity:1;" />
<path d="M 148.121094 471.289062 L 63.765625 471.289062 C 57.941406 471.289062 53.222656 476.003906 53.222656 481.832031 L 53.222656 545.097656 C 53.222656 550.921875 57.941406 555.644531 63.765625 555.644531 L 148.121094 555.644531 C 153.945312 555.644531 158.667969 550.921875 158.667969 545.097656 L 158.667969 481.832031 C 158.667969 476.003906 153.945312 471.289062 148.121094 471.289062 Z M 137.578125 534.554688 L 74.3125 534.554688 L 74.3125 492.375 L 137.578125 492.375 Z M 137.578125 534.554688 " style=" stroke:none;fill-rule:nonzero;fill:rgb(0%,0%,0%);fill-opacity:1;" />
<path d="M 348.472656 471.289062 L 264.113281 471.289062 C 258.292969 471.289062 253.570312 476.003906 253.570312 481.832031 L 253.570312 545.097656 C 253.570312 550.921875 258.292969 555.644531 264.113281 555.644531 L 348.472656 555.644531 C 354.292969 555.644531 359.015625 550.921875 359.015625 545.097656 L 359.015625 481.832031 C 359.015625 476.003906 354.292969 471.289062 348.472656 471.289062 Z M 337.925781 534.554688 L 274.660156 534.554688 L 274.660156 492.375 L 337.925781 492.375 Z M 337.925781 534.554688 " style=" stroke:none;fill-rule:nonzero;fill:rgb(0%,0%,0%);fill-opacity:1;" />
<path d="M 475.003906 555.644531 L 559.359375 555.644531 C 565.1875 555.644531 569.90625 550.921875 569.90625 545.097656 L 569.90625 481.832031 C 569.90625 476.003906 565.1875 471.289062 559.359375 471.289062 L 475.003906 471.289062 C 469.179688 471.289062 464.457031 476.003906 464.457031 481.832031 L 464.457031 545.097656 C 464.457031 550.921875 469.179688 555.644531 475.003906 555.644531 Z M 485.546875 492.375 L 548.820312 492.375 L 548.820312 534.554688 L 485.546875 534.554688 Z M 485.546875 492.375 " style=" stroke:none;fill-rule:nonzero;fill:rgb(0%,0%,0%);fill-opacity:1;" />
<path d="M 332.34375 128.589844 C 321.039062 127.925781 309.984375 132.085938 301.925781 140.039062 C 297.734375 144.085938 297.617188 150.761719 301.664062 154.949219 C 305.714844 159.140625 312.386719 159.253906 316.578125 155.210938 C 316.664062 155.121094 316.75 155.039062 316.835938 154.949219 C 321.132812 150.839844 327.0625 148.902344 332.960938 149.675781 C 354.664062 151.097656 373.410156 134.652344 374.828125 112.949219 C 374.941406 111.234375 374.941406 109.515625 374.828125 107.800781 C 374.054688 101.910156 375.992188 95.980469 380.101562 91.679688 C 384.292969 87.636719 384.410156 80.960938 380.363281 76.773438 C 376.3125 72.582031 369.640625 72.464844 365.449219 76.511719 C 365.363281 76.597656 365.277344 76.683594 365.191406 76.773438 C 357.242188 84.832031 353.078125 95.886719 353.742188 107.191406 C 355.324219 117.425781 348.316406 127.007812 338.082031 128.589844 C 336.183594 128.882812 334.25 128.882812 332.34375 128.589844 Z M 332.34375 128.589844 " style=" stroke:none;fill-rule:nonzero;fill:rgb(0%,0%,0%);fill-opacity:1;" />
<path d="M 277.75 126.40625 C 280.542969 126.40625 283.222656 125.292969 285.199219 123.316406 C 289.496094 119.203125 295.429688 117.265625 301.324219 118.042969 C 323.027344 119.460938 341.777344 103.023438 343.199219 81.316406 C 343.3125 79.605469 343.3125 77.886719 343.199219 76.171875 C 342.421875 70.277344 344.359375 64.34375 348.472656 60.046875 C 352.65625 56 352.773438 49.324219 348.726562 45.136719 C 344.683594 40.953125 338.007812 40.835938 333.820312 44.878906 C 333.730469 44.964844 333.644531 45.046875 333.558594 45.136719 C 325.605469 53.199219 321.445312 64.253906 322.109375 75.5625 C 323.691406 85.789062 316.679688 95.371094 306.445312 96.953125 C 304.546875 97.25 302.613281 97.25 300.714844 96.953125 C 289.410156 96.292969 278.355469 100.453125 270.292969 108.40625 C 266.171875 112.523438 266.175781 119.203125 270.292969 123.320312 C 272.269531 125.292969 274.953125 126.40625 277.75 126.40625 Z M 277.75 126.40625 " style=" stroke:none;fill-rule:nonzero;fill:rgb(0%,0%,0%);fill-opacity:1;" />
<path d="M 153.09375 86.410156 C 141.785156 85.746094 130.730469 89.90625 122.667969 97.859375 C 118.476562 101.910156 118.367188 108.582031 122.410156 112.773438 C 126.457031 116.960938 133.132812 117.074219 137.320312 113.03125 C 137.410156 112.949219 137.492188 112.859375 137.578125 112.773438 C 141.875 108.660156 147.804688 106.722656 153.703125 107.5 C 175.40625 108.921875 194.152344 92.476562 195.570312 70.769531 C 195.683594 69.058594 195.683594 67.339844 195.570312 65.628906 C 194.796875 59.730469 196.734375 53.804688 200.84375 49.5 C 205.035156 45.457031 205.152344 38.785156 201.105469 34.59375 C 197.0625 30.40625 190.382812 30.289062 186.195312 34.335938 C 186.109375 34.417969 186.019531 34.507812 185.933594 34.59375 C 177.984375 42.65625 173.824219 53.710938 174.484375 65.015625 C 176.066406 75.25 169.058594 84.828125 158.824219 86.410156 C 156.925781 86.703125 154.992188 86.703125 153.09375 86.410156 Z M 153.09375 86.410156 " style=" stroke:none;fill-rule:nonzero;fill:rgb(0%,0%,0%);fill-opacity:1;" />
<path d="M 98.488281 84.226562 C 101.285156 84.222656 103.964844 83.113281 105.945312 81.136719 C 110.242188 77.027344 116.171875 75.085938 122.066406 75.863281 C 143.769531 77.285156 162.519531 60.84375 163.941406 39.136719 C 164.050781 37.425781 164.050781 35.703125 163.941406 33.992188 C 163.164062 28.09375 165.105469 22.167969 169.210938 17.871094 C 173.257812 13.679688 173.140625 7.007812 168.953125 2.957031 C 164.863281 -0.984375 158.390625 -0.984375 154.304688 2.957031 C 146.347656 11.019531 142.1875 22.074219 142.847656 33.378906 C 143.625 39.277344 141.6875 45.203125 137.578125 49.5 C 133.277344 53.613281 127.351562 55.550781 121.453125 54.773438 C 110.148438 54.109375 99.09375 58.277344 91.03125 66.230469 C 86.914062 70.347656 86.914062 77.019531 91.035156 81.140625 C 93.015625 83.113281 95.695312 84.226562 98.488281 84.226562 Z M 98.488281 84.226562 " style=" stroke:none;fill-rule:nonzero;fill:rgb(0%,0%,0%);fill-opacity:1;" />
</g>
</svg>