<?xml version="1.0" encoding="iso-8859-1"?>
<!-- Generator: Adobe Illustrator 19.0.0, SVG Export Plug-In . SVG Version: 6.00 Build 0)  -->
<svg version="1.1" id="Capa_1" xmlns="http://www.w3.org/2000/svg" xmlns:xlink="http://www.w3.org/1999/xlink" x="0px" y="0px"
	 viewBox="0 0 512.002 512.002" style="enable-background:new 0 0 512.002 512.002;" xml:space="preserve">
<g>
	<g>
		<g>
			<path d="M258.586,61.62h-45.187c-10.263,0-18.302,7.15-18.302,16.278v146.126c0,9.717,9.005,16.504,21.899,16.504
				c12.69,0,21.9-6.94,21.899-16.502v-44.869h17.892c38.205,0,60.117-21.256,60.117-58.319v-1.349
				C316.904,82.713,295.648,61.62,258.586,61.62z M302.331,120.837c0,15.18-4.288,26.556-12.745,33.812
				c-7.682,6.592-18.717,9.934-32.798,9.934h-25.179c-4.025,0-7.287,3.263-7.287,7.287v52.04c-0.552,0.666-3.181,2.046-7.326,2.046
				c-4.201,0-6.814-1.358-7.326-1.999V77.897c0-0.612,1.246-1.705,3.729-1.705h45.187c29.027,0,43.745,14.567,43.745,43.296V120.837
				z"/>
			<path d="M256.787,87.247h-25.179c-4.025,0-7.287,3.263-7.287,7.287v54.404c0,4.025,3.263,7.287,7.287,7.287h25.179
				c19.343,0,30.891-12.389,30.891-33.141v-2.697C287.678,99.636,276.13,87.247,256.787,87.247z M273.106,123.085
				c0,8.644-1.854,18.567-16.318,18.567h-17.892v-39.831h17.892c14.463,0,16.318,9.923,16.318,18.567V123.085z"/>
		</g>
	</g>
</g>
<g>
	<g>
		<path d="M366.375,28.108h-220.75c-6.943,0-12.591,5.648-12.591,12.591v220.75c0,6.943,5.648,12.591,12.591,12.591h220.75v-0.001
			c6.943,0,12.591-5.648,12.591-12.591V40.699C378.966,33.756,373.318,28.108,366.375,28.108z M364.393,259.467H147.609V42.682
			h216.785V259.467z"/>
	</g>
</g>
<g>
	<g>
		<path d="M399.787,170.612c-4.024,0-7.287,3.262-7.287,7.287v97.829c0,6.533-5.315,11.848-11.848,11.848H131.347
			c-6.533,0-11.848-5.315-11.848-11.848v-97.829c0-4.024-3.262-7.287-7.287-7.287c-4.025,0-7.287,3.262-7.287,7.287v97.829
			c0,14.568,11.852,26.421,26.421,26.421h101.318v160.524h-21.637c-20.599,0-37.357,16.758-37.357,37.357v4.685
			c0,4.024,3.262,7.287,7.287,7.287h150.083c4.024,0,7.287-3.262,7.287-7.287v-4.685c0-20.599-16.758-37.357-37.357-37.357h-21.637
			V302.148h101.318c14.568,0,26.421-11.852,26.421-26.421v-97.829C407.075,173.874,403.813,170.612,399.787,170.612z
			 M247.238,302.148L247.238,302.148h17.524v160.524h-17.524V302.148z M300.972,477.245c11.684,0,21.341,8.84,22.636,20.182H188.393
			c1.295-11.342,10.953-20.182,22.636-20.182H300.972z"/>
	</g>
</g>
<g>
	<g>
		<path d="M380.654,0H131.347c-14.568,0-26.421,11.852-26.421,26.421v104.104c0,4.024,3.262,7.287,7.287,7.287
			s7.287-3.262,7.287-7.287V26.421c0-6.533,5.315-11.848,11.848-11.848h249.306c6.533,0,11.848,5.315,11.848,11.848v103.442
			c0,4.024,3.262,7.287,7.287,7.287c4.025,0,7.287-3.262,7.287-7.287V26.421C407.075,11.852,395.222,0,380.654,0z"/>
	</g>
</g>
<g>
</g>
<g>
</g>
<g>
</g>
<g>
</g>
<g>
</g>
<g>
</g>
<g>
</g>
<g>
</g>
<g>
</g>
<g>
</g>
<g>
</g>
<g>
</g>
<g>
</g>
<g>
</g>
<g>
</g>
</svg>
