<?xml version="1.0" encoding="UTF-8"?>
<svg xmlns="http://www.w3.org/2000/svg" width="512" height="512" viewBox="0 0 128 128"><path d="M126.246,16.872H1.754A1.751,1.751,0,0,0,0,18.622v90.75a1.751,1.751,0,0,0,1.75,1.75H126.246a1.751,1.751,0,0,0,1.75-1.75V18.622A1.751,1.751,0,0,0,126.246,16.872ZM98.739,73.459a9.623,9.623,0,0,1,0-18.924Zm3.5,1.91V38.091H124.5V44.6h-14a1.749,1.749,0,0,0-1.75,1.75v35.3a1.749,1.749,0,0,0,1.75,1.75h14V89.9H102.239ZM124.5,48.1V79.9H112.247V48.1ZM62.25,73.452a9.614,9.614,0,0,1,0-18.91Zm3.5-18.91a9.614,9.614,0,0,1,0,18.91Zm-36.489-.007a9.623,9.623,0,0,1,0,18.924Zm-3.5-1.91V89.9H3.5V83.4h14a1.749,1.749,0,0,0,1.75-1.75v-35.3A1.749,1.749,0,0,0,17.5,44.6H3.5V38.091H25.761ZM3.5,48.1H15.753V79.9H3.5Zm0,45.3H27.511a1.75,1.75,0,0,0,1.75-1.75V76.989a13.107,13.107,0,0,0,0-25.983V36.341a1.75,1.75,0,0,0-1.75-1.75H3.5V20.372H62.25V51.006a13.107,13.107,0,0,0,0,25.983v30.633H3.5ZM65.75,107.622V76.989a13.107,13.107,0,0,0,0-25.983V20.372H124.5V34.591H100.489a1.749,1.749,0,0,0-1.75,1.75V51.006a13.107,13.107,0,0,0,0,25.983V91.653a1.749,1.749,0,0,0,1.75,1.75H124.5v14.219Z"/></svg>
