<?xml version="1.0"?>
<svg xmlns="http://www.w3.org/2000/svg" viewBox="0 0 64 64" width="512" height="512"><g id="_16-Investment" data-name="16-Investment"><path d="M16,16H13a3,3,0,0,1-3-3V11h2v2a1,1,0,0,0,1,1h2.586L17,12.586V6H12V9a1,1,0,0,1-1,1H7A1,1,0,0,1,6,9V3A3,3,0,0,1,9,0H22a1,1,0,0,1,1,1,4.689,4.689,0,0,1-4,4.9V13a1,1,0,0,1-.293.707l-2,2A1,1,0,0,1,16,16ZM8,8h2V5a1,1,0,0,1,1-1h7a2.908,2.908,0,0,0,2.875-2H9A1,1,0,0,0,8,3Z"/><path d="M13,22a1,1,0,0,1-.515-.143l-5-3A1,1,0,0,1,7,18V9H9v8.434L12.445,19.5,13,17.838V15h2v3a1,1,0,0,1-.052.316l-1,3a1,1,0,0,1-.6.622A1.016,1.016,0,0,1,13,22Z"/><path d="M16,32H5a1,1,0,0,1-.939-.658l-4-11a1,1,0,0,1,.665-1.3l7-2,.548,1.922-2.457.7c1.808.675,2.137,1.694,2.178,2.212L8.819,26H16a1,1,0,0,1,1,1v4A1,1,0,0,1,16,32ZM5.7,30H15V28H8a1,1,0,0,1-.98-.8l-1-5c0-.022-.008-.044-.011-.066-.067-.112-.635-.888-3.565-1.085ZM6,22.01H6Zm0,0v0Zm0,0v0Zm0,0v0Z"/><path d="M20,32.639a3.061,3.061,0,0,1-.495-.041l-3.671-.612.328-1.972,3.671.611a.974.974,0,0,0,.811-.223A.985.985,0,0,0,21,29.639V28.361a1,1,0,0,0-1.165-.986l-3.671.611-.328-1.972,3.671-.612A3,3,0,0,1,23,28.361v1.278a3,3,0,0,1-3,3Z"/><path d="M27.7,35a.989.989,0,0,1-.429-.1l-6.26-2.98.859-1.806,5.3,2.521,2.726-6.828-5.321-2.535-2.639,3.969-1.666-1.108,3.12-4.69a1,1,0,0,1,1.262-.349l6.951,3.31a1,1,0,0,1,.5,1.275l-3.47,8.688a1,1,0,0,1-.564.561A.981.981,0,0,1,27.7,35Z"/><path d="M27.937,34.971l-.483-1.942,9.565-2.374.431-.822-7.716-1.049L30,26.8l9.131,1.242a1,1,0,0,1,.75,1.456l-1.3,2.482a1,1,0,0,1-.643.506Z"/><path d="M22.219,24.625l-3.773-4.716L13.8,18.98l.392-1.96,5,1a.991.991,0,0,1,.585.355l4,5Z"/><rect x="18" y="19" width="2" height="8"/><path d="M19,36H6a1,1,0,0,1-.97-.758l-1-4,1.94-.486L6.781,34H18V31h2v4A1,1,0,0,1,19,36Z"/><path d="M7,64a1,1,0,0,1-1-1V45.162l-.948-2.846A1,1,0,0,1,5,42V35H7v6.838l.948,2.846A1,1,0,0,1,8,45V61l6-4.5V42a1,1,0,0,1,.293-.707l4-4,1.414,1.414L16,42.414V57a1,1,0,0,1-.4.8l-8,6A1,1,0,0,1,7,64Z"/><path d="M19,64H7V62H17.132l-2.964-4.445A1,1,0,0,1,15,56h3V35h2V57a1,1,0,0,1-1,1H16.868l2.964,4.445A1,1,0,0,1,19,64Z"/><path d="M23,64H19V62h2.132l-2.964-4.445,1.664-1.11,4,6A1,1,0,0,1,23,64Z"/><path d="M60,52H40a1,1,0,0,1-1-1V47a1,1,0,0,1,1-1H60a1,1,0,0,1,1,1v4A1,1,0,0,1,60,52ZM41,50H59V48H41Z"/><path d="M57,64H43a1,1,0,0,1-1-.917l-1-12L43,50.917,43.92,62H56.08L57,50.917,59,51.083l-1,12A1,1,0,0,1,57,64Z"/><path d="M50,31a9,9,0,1,1,9-9A9.01,9.01,0,0,1,50,31Zm0-16a7,7,0,1,0,7,7A7.008,7.008,0,0,0,50,15Z"/><path d="M51,27H49a3,3,0,0,1-3-3h2a1,1,0,0,0,1,1h2a1,1,0,0,0,0-2H49a3,3,0,0,1,0-6h2a3,3,0,0,1,3,3H52a1,1,0,0,0-1-1H49a1,1,0,0,0,0,2h2a3,3,0,0,1,0,6Z"/><rect x="49" y="16" width="2" height="2"/><rect x="49" y="26" width="2" height="2"/><rect x="49" y="30" width="2" height="17"/><path d="M56,38c-1.384,0-4-.627-4-3,0-1.729,1.254-5,6-5a2.557,2.557,0,0,0,2.1-1.447A1,1,0,0,1,62,29C62,29.368,61.932,38,56,38Zm3.708-6.413A4.465,4.465,0,0,1,58,32c-3.954,0-4,2.878-4,3,0,.944,1.983,1,2,1C58.329,36,59.3,33.581,59.708,31.587Z"/><path d="M50,39V37a6.9,6.9,0,0,0,6.107-3.451l1.788.9A8.9,8.9,0,0,1,50,39Z"/><path d="M44,44c-5.932,0-6-8.633-6-9a1,1,0,0,1,1.9-.447A2.556,2.556,0,0,0,42.012,36C46.746,36,48,39.271,48,41,48,43.373,45.384,44,44,44Zm-3.708-6.413C40.7,39.581,41.673,42,44,42c.017,0,1.993-.056,2-.995C45.993,40.681,45.82,38,42,38A4.487,4.487,0,0,1,40.292,37.587Z"/><path d="M50,45a8.9,8.9,0,0,1-7.9-4.553l1.788-.9A6.9,6.9,0,0,0,50,43Z"/><path d="M35,21H33V7H31a1,1,0,0,1-.707-1.707l5-5a1,1,0,0,1,1.414,0l5,5A1,1,0,0,1,41,7H39v8H37V6a1,1,0,0,1,1-1h.586L36,2.414,33.414,5H34a1,1,0,0,1,1,1Z"/><path d="M61,15H59V6a1,1,0,0,1,1-1h.586L58,2.414,55.414,5H56a1,1,0,0,1,1,1v6H55V7H53a1,1,0,0,1-.707-1.707l5-5a1,1,0,0,1,1.414,0l5,5A1,1,0,0,1,63,7H61Z"/><path d="M31,58H29V43a1,1,0,0,1,1-1h.586L28,39.414,25.414,42H26a1,1,0,0,1,1,1v9H25V44H23a1,1,0,0,1-.707-1.707l5-5a1,1,0,0,1,1.414,0l5,5A1,1,0,0,1,33,44H31Z"/><rect x="37" y="17" width="2" height="2"/><rect x="25" y="54" width="2" height="2"/></g></svg>
