<?xml version="1.0"?>
<svg xmlns="http://www.w3.org/2000/svg" viewBox="0 0 64 64" width="512" height="512"><g id="_19-Money_Bag" data-name="19-Money Bag"><path d="M32,50a3.888,3.888,0,0,1-4-4,1,1,0,0,1,.36-.769C28.616,45.019,34.7,40,40,40c5.26,0,12.285,4.975,12.581,5.187l-1.162,1.626C51.352,46.766,44.618,42,40,42c-3.869,0-8.562,3.376-9.954,4.447A1.8,1.8,0,0,0,32,48a11.635,11.635,0,0,0,5.445-1.832l1.11,1.664A13.6,13.6,0,0,1,32,50Z"/><path d="M27.125,57a1,1,0,0,1-.571-.18l-12.923-9a1,1,0,0,1-.378-.506,3.267,3.267,0,0,1,.248-3.062A3.5,3.5,0,0,1,16.191,43a1,1,0,0,1,.517.144l9.467,5.714,3.483-1.752.9,1.788-3.976,2a1,1,0,0,1-.966-.038l-9.662-5.832a1.33,1.33,0,0,0-.833.4,1.268,1.268,0,0,0-.055.956l12.313,8.574C29.791,54.637,42.24,53,45.018,53a1.014,1.014,0,0,1,.318.052l2.982,1-.636,1.9L44.86,55c-3.223.064-17.456,1.97-17.6,1.989A.98.98,0,0,1,27.125,57Z"/><path d="M60,64a.99.99,0,0,1-.419-.092l-13-6a1,1,0,0,1-.5-1.3l6-14a1,1,0,0,1,1.5-.419l7,5A1,1,0,0,1,61,48V63a1,1,0,0,1-1,1ZM48.3,56.5,59,61.438V48.515l-5.57-3.979Z"/><rect x="47.067" y="52" width="14.866" height="2" transform="translate(-13.728 86.528) rotate(-70.371)"/><path d="M16.117,44.31l-1.994-.159,1.61-20.23A7.044,7.044,0,0,1,22.84,17H41.16a7.064,7.064,0,0,1,7.11,7l1.6,19.96-1.994.16-1.6-20.04A5.082,5.082,0,0,0,41.16,19H22.84a5.061,5.061,0,0,0-5.11,5Z"/><path d="M38,19H26a3,3,0,0,1,0-6H38a3,3,0,0,1,0,6ZM26,15a1,1,0,0,0,0,2H38a1,1,0,0,0,0-2Z"/><path d="M37,15H27a3,3,0,0,1,0-6H37a3,3,0,0,1,0,6ZM27,11a1,1,0,0,0,0,2H37a1,1,0,0,0,0-2Z"/><path d="M37.707,10.707,36.292,9.293c1.155-1.156,3.932-4.439,4.574-7.209a7.408,7.408,0,0,0-4.159,1.623A1,1,0,0,1,35,3c-.047-.31-.737-1-3-1s-2.953.69-3,1.056a.962.962,0,0,1-.617.9,1.007,1.007,0,0,1-1.088-.245,7.408,7.408,0,0,0-4.159-1.623c.642,2.77,3.419,6.053,4.574,7.209l-1.415,1.414C26.077,10.491,21,5.364,21,1a1,1,0,0,1,1-1,12.18,12.18,0,0,1,5.642,1.459C28.273.723,29.523,0,32,0s3.727.723,4.358,1.459A12.18,12.18,0,0,1,42,0a1,1,0,0,1,1,1C43,5.364,37.923,10.491,37.707,10.707Z"/><path d="M32,44a12,12,0,1,1,6.513-1.92L37.427,40.4A10,10,0,1,0,32,42a9.776,9.776,0,0,0,1.632-.136l.336,1.971A11.773,11.773,0,0,1,32,44Z"/><path d="M32,41a9,9,0,1,1,9-9A9.01,9.01,0,0,1,32,41Zm0-16a7,7,0,1,0,7,7A7.008,7.008,0,0,0,32,25Z"/><path d="M33,37H31a3,3,0,0,1-3-3h2a1,1,0,0,0,1,1h2a1,1,0,0,0,0-2H31a3,3,0,0,1,0-6h2a3,3,0,0,1,3,3H34a1,1,0,0,0-1-1H31a1,1,0,0,0,0,2h2a3,3,0,0,1,0,6Z"/><rect x="31" y="26" width="2" height="2"/><rect x="31" y="36" width="2" height="2"/><path d="M59,33a1,1,0,0,1-1-1c0-2.176-3.212-3.022-3.245-3.03A1,1,0,0,1,55,27c2.176,0,3.022-3.213,3.03-3.245A1,1,0,0,1,59,23h0a1,1,0,0,1,.968.757C59.978,23.787,60.824,27,63,27a1,1,0,0,1,.243,1.97C63.212,28.978,60,29.824,60,32A1,1,0,0,1,59,33Zm-1.379-4.916A6.01,6.01,0,0,1,59,29.276a6.01,6.01,0,0,1,1.379-1.192A6.055,6.055,0,0,1,59,26.487,6.055,6.055,0,0,1,57.621,28.084Z"/><path d="M51,15a1,1,0,0,1-1-1c0-2.176-3.212-3.022-3.245-3.03A1,1,0,0,1,47,9c2.176,0,3.022-3.213,3.03-3.245A1,1,0,0,1,51,5h0a1,1,0,0,1,.968.757C51.978,5.787,52.824,9,55,9a1,1,0,0,1,.243,1.97C55.212,10.978,52,11.824,52,14A1,1,0,0,1,51,15Zm-1.379-4.916A6.01,6.01,0,0,1,51,11.276a6.01,6.01,0,0,1,1.379-1.192A6.055,6.055,0,0,1,51,8.487,6.055,6.055,0,0,1,49.621,10.084Z"/><path d="M5,33a1,1,0,0,1-1-1C4,29.824.788,28.978.755,28.97A1,1,0,0,1,1,27c2.176,0,3.022-3.213,3.03-3.245A1,1,0,0,1,5,23H5a1,1,0,0,1,.968.757C5.978,23.787,6.824,27,9,27a1,1,0,0,1,.243,1.97C9.212,28.978,6,29.824,6,32A1,1,0,0,1,5,33ZM3.621,28.084A6.01,6.01,0,0,1,5,29.276a6.01,6.01,0,0,1,1.379-1.192A6.055,6.055,0,0,1,5,26.487,6.055,6.055,0,0,1,3.621,28.084Z"/><path d="M13,15a1,1,0,0,1-1-1c0-2.176-3.212-3.022-3.245-3.03A1,1,0,0,1,9,9c2.176,0,3.022-3.213,3.03-3.245A1,1,0,0,1,13,5h0a1,1,0,0,1,.968.757C13.978,5.787,14.824,9,17,9a1,1,0,0,1,.243,1.97C17.212,10.978,14,11.824,14,14A1,1,0,0,1,13,15Zm-1.379-4.916A6.01,6.01,0,0,1,13,11.276a6.01,6.01,0,0,1,1.379-1.192A6.055,6.055,0,0,1,13,8.487,6.055,6.055,0,0,1,11.621,10.084Z"/></g></svg>
