<svg id="Capa_1" enable-background="new 0 0 512 512" height="512" viewBox="0 0 512 512" width="512" xmlns="http://www.w3.org/2000/svg"><g><g><path d="m146.711 354.817c-4.142 0-7.5 3.358-7.5 7.5v34.683c0 4.142 3.358 7.5 7.5 7.5s7.5-3.358 7.5-7.5v-34.683c0-4.142-3.358-7.5-7.5-7.5z"/><path d="m177.096 94.629c17.081 14.322 38.788 22.209 61.12 22.209 18.461 0 36.486-5.404 51.833-15.363 11.24 7.321 23.9 12.197 37.261 14.252.539.083 1.078.124 1.612.124 3.025 0 5.902-1.307 7.918-3.658 2.381-2.777 3.146-6.515 2.046-10.002-1.718-5.44-3.4-11.205-5.007-17.149 1.608-5.949 3.29-11.712 5.007-17.149 1.1-3.486.335-7.225-2.046-10.001-2.373-2.766-5.932-4.087-9.531-3.534-13.359 2.055-26.019 6.93-37.259 14.251-15.346-9.959-33.371-15.363-51.834-15.363-22.333 0-44.04 7.888-61.12 22.209-2.841 2.382-4.47 5.876-4.47 9.586-.001 3.71 1.628 7.205 4.47 9.588zm125.029-15.838c6.335-3.63 13.135-6.379 20.239-8.154-1.122 3.794-2.221 7.7-3.285 11.679-.001.002-.001.004-.002.006-.475 1.78-.474 3.661.002 5.444 1.064 3.978 2.163 7.884 3.285 11.68-7.104-1.776-13.905-4.525-20.24-8.154 1.084-1.878 1.682-4.023 1.682-6.251s-.597-4.372-1.681-6.25zm-63.909-10.546c17.799 0 35.122 5.944 49.118 16.796-13.997 10.853-31.32 16.797-49.118 16.797s-35.122-5.945-49.118-16.797c13.997-10.852 31.319-16.796 49.118-16.796z"/><circle cx="221.089" cy="85.042" r="7.5"/><circle cx="147.893" cy="85.042" r="7.5"/><circle cx="364.107" cy="85.042" r="7.5"/><path d="m499.5 105.279c6.893 0 12.5-5.607 12.5-12.5v-25.5c0-6.893-5.607-12.5-12.5-12.5h-100.02c-8.174-7.649-19.554-14.563-33.864-20.427-29.401-12.047-68.33-18.682-109.616-18.682s-80.215 6.635-109.617 18.682c-14.31 5.863-25.69 12.777-33.864 20.427h-100.019c-6.893 0-12.5 5.607-12.5 12.5v25.5c0 6.893 5.607 12.5 12.5 12.5h2.919v23.936h-2.919c-6.893 0-12.5 5.607-12.5 12.5v25.5c0 5.691 3.827 10.496 9.039 12.002v21.572c0 4.92 2.088 9.64 5.728 12.949l.652.593v239.922h-2.919c-6.893 0-12.5 5.607-12.5 12.5v17.078c0 6.893 5.607 12.5 12.5 12.5h487c6.893 0 12.5-5.607 12.5-12.5v-17.078c0-6.893-5.607-12.5-12.5-12.5h-2.919v-36.253c0-4.142-3.357-7.5-7.5-7.5s-7.5 3.358-7.5 7.5v36.252h-15.656v-191.47c0-6.893-5.607-12.5-12.5-12.5h-394.85c-6.893 0-12.5 5.607-12.5 12.5v191.47h-15.656v-226.285l7.644 6.949c2.397 2.18 5.403 3.27 8.409 3.27 3.005 0 6.012-1.09 8.408-3.269l21.524-19.568 21.523 19.568c2.397 2.18 5.403 3.27 8.409 3.27 3.005 0 6.012-1.09 8.408-3.269l21.524-19.568 21.523 19.568c2.397 2.18 5.403 3.27 8.409 3.27s6.012-1.09 8.408-3.269l21.524-19.568 21.523 19.568c2.397 2.18 5.403 3.27 8.409 3.27s6.012-1.09 8.408-3.269l21.528-19.572 21.524 19.568c2.396 2.179 5.402 3.269 8.408 3.269s6.012-1.089 8.408-3.269l21.524-19.568 21.524 19.568c2.396 2.179 5.402 3.269 8.408 3.269s6.012-1.089 8.408-3.269l21.524-19.568 21.524 19.568c2.396 2.179 5.402 3.269 8.408 3.269s6.012-1.089 8.408-3.269l21.524-19.568 21.524 19.568c2.396 2.179 5.402 3.269 8.408 3.269s6.012-1.089 8.408-3.269l7.645-6.95v155.034c0 4.142 3.357 7.5 7.5 7.5s7.5-3.358 7.5-7.5v-168.67l.651-.592c3.641-3.31 5.729-8.029 5.729-12.95v-21.572c5.212-1.506 9.039-6.311 9.039-12.002v-25.5c0-6.893-5.607-12.5-12.5-12.5h-2.919v-23.936h2.923zm-33.575 363.973h31.075v12.078h-31.075zm-15 12.078h-266.962v-45.66h266.962zm-140.982-83.165v22.505h-87.229v-22.505zm-76.797-15 6.661-22.699c.31-1.057 1.296-1.795 2.399-1.795h67.738v24.495h-76.798zm91.797-117.883h125.981v155.388h-23.424v-25.256c0-5.887-4.177-10.815-9.721-11.984l-4.624-15.76h15.845c5.79 0 10.5-4.71 10.5-10.5v-64c0-5.79-4.71-10.5-10.5-10.5h-46c-5.79 0-10.5 4.71-10.5 10.5v50.5h-47.557zm62.557 87.388v-55h37v55zm-62.557 6h47.677c.732 5.08 5.101 9 10.38 9h14.522l4.546 15.495h-77.125zm0 39.495h87.557v22.505h-87.557zm-263.868-132.883h107.888v28.405h-107.888zm0 43.405h107.888v5.313c0 4.142 3.358 7.5 7.5 7.5s7.5-3.358 7.5-7.5v-5.313-43.405h125.98v78.388h-67.738c-7.715 0-14.621 5.17-16.792 12.572l-7.91 26.958c-5.457.369-9.788 4.915-9.788 10.464v27.005h-23.752v-71.669c0-4.142-3.358-7.5-7.5-7.5s-7.5 3.358-7.5 7.5v79.17 53.159h-107.888zm90.995-260.455c27.639-11.325 64.549-17.562 103.93-17.562s76.29 6.237 103.93 17.562c25.147 10.304 39.57 23.721 39.57 36.81s-14.423 26.506-39.57 36.81c-27.64 11.325-64.549 17.562-103.93 17.562s-76.291-6.237-103.93-17.562c-25.147-10.304-39.57-23.721-39.57-36.81s14.423-26.506 39.57-36.81zm-19.6 80.983h-102.051v-23.936h73.512c5.8 8.803 15.43 16.909 28.539 23.936zm-117.47-38.936v-20.5h86.101c-2.373 4.923-3.601 10.03-3.601 15.263 0 1.761.144 3.507.417 5.237zm31.075 378.973v12.078h-31.075v-12.078zm22.829-267.357-22.433 20.394-21.615-19.65c-.52-.473-.818-1.147-.818-1.85v-21.074h44.865v22.18zm59.866 0-22.433 20.394-22.433-20.394v-22.18h44.865v22.18zm59.865 0-22.433 20.394-22.433-20.394v-22.18h44.865v22.18zm59.865 0-22.433 20.394-22.433-20.394v-22.18h44.866zm59.865 0-22.433 20.394-22.432-20.394v-22.18h44.865zm59.865 0-22.433 20.394-22.433-20.394v-22.18h44.865v22.18zm59.866 0-22.433 20.394-22.433-20.394v-22.18h44.865v22.18zm59.865-1.106c0 .703-.298 1.377-.818 1.85l-21.614 19.65-22.433-20.394v-22.18h44.865zm9.039-56.574v20.5h-482v-20.5h156.96c24.882 6.63 53.821 10.198 84.04 10.198s59.158-3.568 84.04-10.198h71.96c4.143 0 7.5-3.358 7.5-7.5s-3.357-7.5-7.5-7.5h-32.47c13.109-7.027 22.74-15.133 28.539-23.936h73.512v23.936h-34.581c-4.143 0-7.5 3.358-7.5 7.5s3.357 7.5 7.5 7.5zm-82.917-53.936c.273-1.73.417-3.476.417-5.237 0-5.233-1.228-10.339-3.601-15.263h86.101v20.5z"/></g></g></svg>