<?xml version="1.0" encoding="UTF-8"?>
<svg xmlns="http://www.w3.org/2000/svg" width="512" height="512" viewBox="0 0 128 128"><path d="M126.25,52.25H104.5V22.872a1.749,1.749,0,0,0-1.75-1.75h-8A1.749,1.749,0,0,0,93,22.872v4.354l-4.689.651a110.505,110.505,0,0,1-30.373,0l-4.688-.651V22.872a1.829,1.829,0,0,0-.617-1.334L27.758.413a1.75,1.75,0,0,0-2.266,0L.617,21.538A1.825,1.825,0,0,0,0,22.872V126.247A1.749,1.749,0,0,0,1.75,128h8a1.749,1.749,0,0,0,1.75-1.75V63.75H41.75v62.5A1.749,1.749,0,0,0,43.5,128h8a1.749,1.749,0,0,0,1.75-1.75V63.75H93v62.5A1.749,1.749,0,0,0,94.75,128h8a1.749,1.749,0,0,0,1.75-1.75v-7.954h12v7.954a1.749,1.749,0,0,0,1.75,1.75h8a1.749,1.749,0,0,0,1.75-1.75V54A1.749,1.749,0,0,0,126.25,52.25ZM96.5,24.622H101V52.25H96.5Zm-7.708,6.722L93,30.76V52.25H87.372V31.516C87.845,31.456,88.319,31.409,88.792,31.344ZM74.875,52.25V32.4q4.5-.069,9-.491V52.25Zm-12.5,0V31.905q4.489.426,9,.491V52.25Zm-4.92-20.906c.473.065.947.112,1.42.172V52.25H53.25V30.76ZM40.25,60.25V40.872a9.761,9.761,0,0,0-9.75-9.75H22.75A9.761,9.761,0,0,0,13,40.872V60.25H3.5V24.622H49.75V60.25ZM26.625,4.043,46.736,21.122H6.514ZM8,124.5H3.5V63.75H8ZM16.5,60.25V40.872a6.257,6.257,0,0,1,6.25-6.25H30.5a6.257,6.257,0,0,1,6.25,6.25V60.25ZM49.75,124.5h-4.5V63.75h4.5Zm3.5-68.747H124.5v4.5H53.25ZM116.5,86.681h-12V76.125h12Zm-12,3.5h12v10.556h-12Zm12-17.556h-12V63.75h12ZM101,124.5H96.5V63.75H101Zm3.5-9.7V104.237h12v10.556Zm20,9.7H120V63.75h4.5Z"/></svg>
