<?xml version="1.0"?>
<svg xmlns="http://www.w3.org/2000/svg" id="Layer_3" data-name="Layer 3" viewBox="0 0 64 64" width="512" height="512"><path d="M59,49.1V29.444A3.987,3.987,0,0,0,61,26a1,1,0,0,0-.052-.316l-3-9A1,1,0,0,0,57,16H47.647a10,10,0,1,0-17.294,0H21a1,1,0,0,0-.948.684l-3,9A1,1,0,0,0,17,26a3.987,3.987,0,0,0,2,3.444V41H17V40a1,1,0,0,0-1-1H2a1,1,0,0,0-1,1V62a1,1,0,0,0,1,1H12a1,1,0,0,0,1-1V61h3a1,1,0,0,0,1-1V59h6.7l5.748,3.832A1,1,0,0,0,30,63a1.038,1.038,0,0,0,.214-.023l32-7A1,1,0,0,0,63,55V54A5.009,5.009,0,0,0,59,49.1ZM11,61H3V41h8V61Zm4-2H13V41h2ZM59,26.146A2,2,0,0,1,55,26a.939.939,0,0,0-.043-.212l.02,0L53.247,18h3.032ZM26.8,18h3.081l-.877,7.89h.016A1,1,0,0,0,29,26a2,2,0,0,1-3.992.076Zm5.091.024A10.014,10.014,0,0,0,35,20.159V26a2,2,0,0,1-4,.03ZM37,20.8a10,10,0,0,0,4,0V26a2,2,0,0,1-4,0Zm6-.639a10.014,10.014,0,0,0,3.107-2.135L47,26.03A2,2,0,0,1,43,26ZM48.117,18H51.2l1.794,8.076A2,2,0,0,1,49,26a1,1,0,0,0-.022-.109h.016ZM39,3a8,8,0,1,1-8,8A8.009,8.009,0,0,1,39,3ZM21.721,18h3.032l-1.73,7.783.02,0A.939.939,0,0,0,23,26a2,2,0,0,1-4,.146ZM21,30a3.99,3.99,0,0,0,3-1.357,3.995,3.995,0,0,0,6,0,3.995,3.995,0,0,0,6,0,3.995,3.995,0,0,0,6,0,3.995,3.995,0,0,0,6,0,3.995,3.995,0,0,0,6,0A3.99,3.99,0,0,0,57,30V49H34.9a2.981,2.981,0,0,0-.618-1.212L33.6,47H54a1,1,0,0,0,1-1V42a1,1,0,0,0-1-1H53V32a1,1,0,0,0-1-1H46a1,1,0,0,0-1,1v9H43V34a1,1,0,0,0-1-1H36a1,1,0,0,0-1,1v7H33V36a1,1,0,0,0-1-1H26a1,1,0,0,0-1,1v5H21ZM31,41H27V37h4Zm22,2v2H31.888l-1.715-2ZM41,41H37V35h4Zm10,0H47V33h4ZM61,54.2,30.2,60.933l-5.646-3.765A1.006,1.006,0,0,0,24,57H17V43H27.54l5.22,6.089a1.01,1.01,0,0,1,.24.651V51a1,1,0,0,1-1,1H30.828a1,1,0,0,1-.707-.293l-4.414-4.414-1.414,1.414,4.414,4.414A2.978,2.978,0,0,0,30.828,54H32a3,3,0,0,0,3-3H58a3,3,0,0,1,3,3Z"/><path d="M38,14a1,1,0,0,1-1-1H35a3,3,0,0,0,3,3h0v1h2V16h0a3,3,0,0,0,0-6h0V8h0a1,1,0,0,1,1,1h2a3,3,0,0,0-3-3h0V5H38V6h0a3,3,0,0,0,0,6h0v2Zm0-4a1,1,0,0,1,0-2h0v2Zm2,2h0a1,1,0,0,1,0,2h0Z"/><path d="M6,27h6a1,1,0,0,0,1-1V15a3,3,0,0,1,3-3h2v2a1,1,0,0,0,1.65.759l7-6a1,1,0,0,0,0-1.518l-7-6A1,1,0,0,0,18,2V4H16A11.013,11.013,0,0,0,5,15V26A1,1,0,0,0,6,27ZM7,15a9.01,9.01,0,0,1,9-9h3a1,1,0,0,0,1-1V4.174L24.464,8,20,11.826V11a1,1,0,0,0-1-1H16a5.006,5.006,0,0,0-5,5V25H7Z"/></svg>
