<svg id="Layer_1" height="512" viewBox="0 0 128 128" width="512" xmlns="http://www.w3.org/2000/svg" data-name="Layer 1"><path d="m113.709 81.321a1.767 1.767 0 0 0 -1.29-.482c-6.546.3-12.3 2.446-17.866 4.52a83.53 83.53 0 0 1 -10.881 3.494v-49.117a14.423 14.423 0 0 1 14.406-14.406 5.75 5.75 0 0 0 0-11.5 25.935 25.935 0 0 0 -25.84 24.156h-27.959a14.42 14.42 0 0 1 14.289-12.656 5.75 5.75 0 1 0 0-11.5 25.935 25.935 0 0 0 -25.906 25.906v41.389c-10.9.979-17.625 5.087-18.094 5.382a1.749 1.749 0 0 0 -.818 1.481v24.432a1.75 1.75 0 0 0 3.5 0v-12.256c3.8-1.995 20.617-9.463 43.035.572a38.329 38.329 0 0 0 15.891 3.643c7.273 0 13.5-2.318 19.6-4.591 4.984-1.856 9.725-3.61 14.976-4.154v16.786a1.75 1.75 0 1 0 3.5 0v-29.833a1.749 1.749 0 0 0 -.543-1.266zm-15.631-63.991a2.25 2.25 0 0 1 0 4.5 17.926 17.926 0 0 0 -17.906 17.906v49.724a31.752 31.752 0 0 1 -4.5.257v-49.981a22.432 22.432 0 0 1 22.406-22.406zm-25.906 48.34v9.649h-28.01v-9.649zm-28.01-3.5v-2.017h28.01v2.017zm28.01-5.517h-28.01v-9.653h28.01zm-28.01 22.166h28.01v2.018h-28.01zm28.01-35.319h-28.01v-2.014h28.01zm0 40.834v5.108a37.193 37.193 0 0 1 -10.457-3.054c-1.747-.782-3.459-1.461-5.137-2.054zm-36.01-44.6a22.432 22.432 0 0 1 22.406-22.404 2.25 2.25 0 0 1 0 4.5 17.927 17.927 0 0 0 -17.906 17.906v41.285c-1.559-.1-3.057-.121-4.5-.089zm58.391 56.774c-9.866 3.674-19.183 7.145-32.838 1.032-21.631-9.681-38.215-4.175-44.465-1.287v-7.239c3.819-2 20.634-9.455 43.035.572 14.963 6.7 25.4 2.813 35.489-.948 4.985-1.856 9.723-3.621 14.976-4.165v7.651c-5.861.553-11.112 2.489-16.197 4.384z"/></svg>