<?xml version="1.0" encoding="UTF-8"?>
<svg xmlns="http://www.w3.org/2000/svg" width="512" height="512" viewBox="0 0 128 128"><path d="M126.25,114.5h-4.625A28.252,28.252,0,0,1,93.844,91.381l-1.287-6.968A41.754,41.754,0,0,0,53.25,50.289V22.872a1.829,1.829,0,0,0-.617-1.334L27.758.413a1.75,1.75,0,0,0-2.266,0L.617,21.538A1.829,1.829,0,0,0,0,22.872V126.247A1.75,1.75,0,0,0,1.75,128h8a1.75,1.75,0,0,0,1.75-1.75V63.75h5.625v62.5a1.75,1.75,0,1,0,3.5,0v-7.954h12v7.954a1.75,1.75,0,1,0,3.5,0V63.75H41.75v62.5A1.75,1.75,0,0,0,43.5,128h8a1.75,1.75,0,0,0,1.75-1.75V63.81A28.25,28.25,0,0,1,79.281,86.866l1.287,6.968A41.755,41.755,0,0,0,121.625,128h4.625a1.75,1.75,0,0,0,1.75-1.75v-10A1.75,1.75,0,0,0,126.25,114.5Zm-86-54.247V40.872a9.761,9.761,0,0,0-9.75-9.75H22.75A9.761,9.761,0,0,0,13,40.872V60.25H3.5V24.622H49.75V60.25ZM26.625,4.043,46.736,21.122H6.514ZM8,124.5H3.5V63.75H8ZM20.625,90.181h12v10.556h-12Zm12-3.5h-12V76.125h12Zm-12,28.112V104.237h12v10.556Zm12-42.168h-12V63.75h12ZM16.5,60.25V40.872a6.257,6.257,0,0,1,6.25-6.25H30.5a6.257,6.257,0,0,1,6.25,6.25V60.25ZM49.75,124.5h-4.5V63.75h4.5Zm74.75,0h-2.875A38.254,38.254,0,0,1,84.01,93.2L82.723,86.23A31.754,31.754,0,0,0,53.25,60.3V53.79A38.257,38.257,0,0,1,89.115,85.049L90.4,92.017A31.753,31.753,0,0,0,121.625,118H124.5Z"/></svg>
