<svg id="Capa_1" enable-background="new 0 0 512 512" height="512" viewBox="0 0 512 512" width="512" xmlns="http://www.w3.org/2000/svg"><g><g><path d="m91.004 109.5h-15c-4.143 0-7.5 3.357-7.5 7.5s3.357 7.5 7.5 7.5h15c4.143 0 7.5-3.357 7.5-7.5s-3.358-7.5-7.5-7.5z"/><circle cx="323.504" cy="107.5" r="7.5"/><circle cx="323.504" cy="129.5" r="7.5"/><path d="m498.947 75.482h-56.636c-10.259 0-18.605 8.347-18.605 18.605v9.157h-7.294c-11.591 0-21.572 8.265-23.733 19.651l-4.325 22.78h-35.154v-50.621c0-10.259-8.347-18.605-18.605-18.605h-55.525c-10.259 0-18.605 8.347-18.605 18.605v9.775c-1.964-.209-3.951-.329-5.96-.329-8.722 0-17.076 2.024-24.571 5.644v-7.144c0-4.143-3.357-7.5-7.5-7.5s-7.5 3.357-7.5 7.5v17.619c-7.038 6.794-12.367 15.378-15.181 25.058h-6.466v-23.039c0-10.259-8.346-18.604-18.604-18.604h-36.921v-6.938c0-7.196-5.855-13.052-13.053-13.052h-41.365v-26.09h55.159v20.255c0 5.79 4.71 10.5 10.5 10.5h41.73c5.79 0 10.5-4.71 10.5-10.5v-20.255h13.698v10.046c0 4.143 3.357 7.5 7.5 7.5s7.5-3.357 7.5-7.5v-11.993c0-7.197-5.855-13.053-13.053-13.053h-135.481c-7.197 0-13.053 5.855-13.053 13.053v28.037h-10.268c-7.197 0-13.053 5.855-13.053 13.052v48.581h-31.964c-4.07 0-7.833 1.847-10.323 5.065-2.491 3.22-3.333 7.326-2.312 11.266l42.649 164.357c1.494 5.754 6.689 9.773 12.635 9.773h246.955v16.65h-34.66c-4.143 0-7.5 3.357-7.5 7.5s3.357 7.5 7.5 7.5h87.018v12.763h-304.164c-3.519 0-6.381-2.863-6.381-6.382s2.862-6.381 6.381-6.381h182.146c4.143 0 7.5-3.357 7.5-7.5s-3.357-7.5-7.5-7.5h-182.146c-11.789 0-21.381 9.592-21.381 21.381 0 11.79 9.592 21.382 21.381 21.382h16.178l1.353 2.338c-7.835 7.529-12.719 18.096-12.719 29.785 0 22.813 18.59 41.371 41.439 41.371s41.438-18.559 41.438-41.371c0-11.689-4.884-22.255-12.719-29.784l1.353-2.339h146.575l1.352 2.338c-7.835 7.529-12.72 18.096-12.72 29.785 0 22.813 18.59 41.371 41.439 41.371s41.439-18.559 41.439-41.371c0-11.689-4.885-22.256-12.72-29.785l1.353-2.338h23.069c7.197 0 13.053-5.855 13.053-13.053v-16.658c0-7.197-5.855-13.052-13.053-13.052h-3.767v-16.701c8.428-.52 15.538-6.693 17.131-15.083l37.084-195.311c.819-4.316 4.604-7.449 8.997-7.449h82.535c7.197 0 13.053-5.855 13.053-13.053v-16.656c0-7.197-5.856-13.053-13.053-13.053zm-345.443-17.528h32.73v15.755h-32.73zm-43.653 337.598-12.743 22.027-12.743-22.027zm13.696 32.123c0 14.541-11.86 26.371-26.438 26.371-14.579 0-26.439-11.83-26.439-26.371 0-6.098 2.088-11.716 5.587-16.186l11.478 19.839c1.93 3.336 5.521 5.407 9.375 5.407s7.445-2.071 9.376-5.407l11.477-19.838c3.496 4.469 5.584 10.087 5.584 16.185zm193.023-32.123-12.743 22.026-12.743-22.026zm13.697 32.123c0 14.541-11.86 26.371-26.439 26.371s-26.439-11.83-26.439-26.371c0-6.098 2.088-11.717 5.587-16.187l11.477 19.839c1.93 3.336 5.521 5.407 9.375 5.407s7.445-2.071 9.376-5.407l11.477-19.839c3.498 4.471 5.586 10.089 5.586 16.187zm-84.833-223.688h63.137l-5.107 29.421h-59.346zm.671-15 1.267-28.311h68.717l-4.915 28.311zm29.359-93.933c0-1.988 1.617-3.605 3.605-3.605h55.525c1.988 0 3.605 1.617 3.605 3.605v50.623h-28.973c-4.947-17.021-17.653-30.662-33.763-37.114v-13.509zm-20.96 24.446c17.26 0 32.562 10.744 38.892 26.177h-77.783c6.329-15.433 21.63-26.177 38.891-26.177zm-152.5 69.487h-11.215l-6.069-28.311h68.454l1.673 28.311h-17.842c-4.143 0-7.5 3.357-7.5 7.5s3.357 7.5 7.5 7.5h18.729l1.738 29.421h-57.159l-6.307-29.421h8c4.143 0 7.5-3.357 7.5-7.5s-3.36-7.5-7.502-7.5zm72.676-69.954c1.987 0 3.604 1.617 3.604 3.604v23.039h-40.525v-26.644h36.921zm-114.657-19.989h62.736v46.633h-62.736zm-37.099 89.949-7.348-28.316h53.803l6.069 28.311h-52.444c-.027-.001-.053.005-.08.005zm3.891 14.994h51.849l6.307 29.421h-50.522zm19.161 73.842-7.635-29.421h49.845l6.307 29.421zm11.239 43.31-7.346-28.31h47.841l6.069 28.31zm46.312-72.731h54.83l1.738 29.421h-50.261zm15.592 72.731-6.069-28.31h47.931l1.673 28.31zm106.056 0h-47.495l-1.673-28.31h50.435zm1.939-43.31h-51.992l-1.738-29.421h55.048zm1.988-44.421h-56.605l-1.738-29.421h59.661zm1.989-44.421h-61.218l-1.673-28.311h64.158zm57.142 132.152h-48.043l1.267-28.31h51.69zm7.519-43.31h-53.623l1.317-29.421h57.414zm21.912 74.96v-16.65h20.536v16.65zm37.93-34.583c-.323 1.699-1.813 2.933-3.542 2.933h-48.594l4.915-28.31h52.04zm7.667-40.377h-52.284l5.107-29.421h52.763zm8.434-44.421h-53.007l5.107-29.421h53.486zm8.434-44.421h-53.73l4.915-28.311h54.191zm116.871-85.742h-58.294v-9.157c0-1.988 1.617-3.605 3.605-3.605h54.689z"/></g></g></svg>