<svg id="Layer_1" enable-background="new 0 0 512 512" height="512" viewBox="0 0 512 512" width="512" xmlns="http://www.w3.org/2000/svg"><g><g><path d="m488.5 407.5h-91v-56.924l13.712 20.805c4.177 6.336 11.205 10.119 18.8 10.119 4.404 0 8.68-1.285 12.368-3.715 5.019-3.308 8.448-8.371 9.658-14.259 1.21-5.887.055-11.893-3.253-16.911v.001l-29.413-44.626c14.633-7.774 27.346-18.878 37.058-32.428 2.413-3.366 1.64-8.052-1.727-10.465-3.366-2.412-8.052-1.642-10.465 1.727-8.641 12.055-20.039 21.86-33.164 28.577l-101.198-153.543c16.59-13.809 37.391-21.358 59.124-21.358 51.005 0 92.5 41.495 92.5 92.5 0 9.373-1.395 18.617-4.147 27.477-1.229 3.956.982 8.158 4.938 9.387.741.23 1.49.34 2.227.34 3.198 0 6.162-2.063 7.16-5.277 3.2-10.302 4.822-21.043 4.822-31.926 0-59.275-48.224-107.5-107.5-107.5-24.697 0-48.359 8.389-67.423 23.766l-26.79-40.647c-4.176-6.338-11.199-10.12-18.787-10.12s-14.611 3.782-18.787 10.118l-47.713 72.393v-52.511h4.5c4.142 0 7.5-3.357 7.5-7.5v-30c0-4.143-3.358-7.5-7.5-7.5h-84c-4.142 0-7.5 3.357-7.5 7.5v30c0 4.143 3.358 7.5 7.5 7.5h4.5v25.27c0 4.143 3.358 7.5 7.5 7.5s7.5-3.357 7.5-7.5v-25.27h45v75.27l-45 68.276v-86.071c0-4.143-3.358-7.5-7.5-7.5s-7.5 3.357-7.5 7.5v108.83l-51.285 77.811c-3.308 5.019-4.463 11.024-3.253 16.911 1.209 5.888 4.639 10.951 9.658 14.259 10.36 6.826 24.341 3.954 31.167-6.405l13.712-20.804v56.923h-91c-12.957 0-23.499 10.542-23.499 23.5s10.542 23.5 23.5 23.5h40.731c4.142 0 7.5-3.357 7.5-7.5s-3.358-7.5-7.5-7.5h-40.731c-4.687 0-8.5-3.813-8.5-8.5s3.813-8.5 8.5-8.5h465c4.687 0 8.5 3.813 8.5 8.5s-3.813 8.5-8.5 8.5h-392.731c-4.142 0-7.5 3.357-7.5 7.5s3.358 7.5 7.5 7.5h392.731c12.958 0 23.5-10.542 23.5-23.5s-10.542-23.5-23.5-23.5zm-371-320v-15h69v15zm-29.236 275.626c-2.275 3.45-6.936 4.41-10.39 2.134-1.672-1.102-2.815-2.79-3.219-4.752-.403-1.963-.018-3.965 1.084-5.638l173.999-263.998c1.392-2.111 3.733-3.372 6.262-3.372s4.871 1.261 6.262 3.372l173.998 263.998v.001c1.103 1.672 1.488 3.674 1.084 5.637-.403 1.962-1.546 3.65-3.219 4.753-1.23.811-2.653 1.239-4.113 1.239-2.537 0-4.883-1.262-6.276-3.374l-161.474-244.996c-1.388-2.105-3.741-3.373-6.262-3.373s-4.875 1.268-6.262 3.373zm81.236 44.374v-81h57v81zm72 0v-88.5c0-4.143-3.358-7.5-7.5-7.5h-72c-4.142 0-7.5 3.357-7.5 7.5v88.5h-25v-79.683l126.5-191.931 126.5 191.932v79.682z"/><path d="m345 311.5h-76c-4.142 0-7.5 3.357-7.5 7.5v58c0 4.143 3.358 7.5 7.5 7.5h76c4.142 0 7.5-3.357 7.5-7.5v-58c0-4.143-3.358-7.5-7.5-7.5zm-7.5 58h-61v-43h61z"/><path d="m298.5 236.652c0-23.435-19.065-42.5-42.5-42.5s-42.5 19.065-42.5 42.5 19.065 42.5 42.5 42.5 42.5-19.065 42.5-42.5zm-15.913-7.038h-19.087v-19.422c9.298 2.639 16.606 10.059 19.087 19.422zm-34.087-19.422v19.422h-19.087c2.481-9.363 9.789-16.783 19.087-19.422zm-18.825 34.422h18.825v18.499c-8.99-2.552-16.12-9.573-18.825-18.499zm33.825 18.499v-18.499h18.825c-2.705 8.926-9.835 15.947-18.825 18.499z"/></g></g></svg>