<svg id="Layer_1" enable-background="new 0 0 512 512" height="512" viewBox="0 0 512 512" width="512" xmlns="http://www.w3.org/2000/svg"><g><g><path d="m421.516 454h-23.083l-23.803-44.839c6.642-6.305 10.796-15.206 10.796-25.064 0-4.124-.74-8.157-2.142-11.958l74.485-28.385c3.261-1.242 5.843-3.681 7.271-6.865 1.427-3.185 1.528-6.734.286-9.995l-8.243-21.632c-1.476-3.869-5.81-5.813-9.68-4.338s-5.813 5.809-4.338 9.68l7.555 19.822-209.956 80.012-7.532-19.765c-.001-.003-.002-.006-.003-.009l-22.021-57.786 209.955-80.01 9.717 25.499c1.476 3.87 5.809 5.813 9.68 4.338 3.87-1.476 5.813-5.809 4.338-9.68l-10.407-27.309c-2.565-6.732-10.13-10.117-16.859-7.555l-256.446 97.727c-3.87 1.476-5.813 5.809-4.338 9.68l16.976 44.547c2.775 7.28 8.219 13.045 15.328 16.23 3.813 1.709 7.859 2.566 11.916 2.566 3.508 0 7.023-.642 10.399-1.928l10.417-3.97 5.554 14.575c1.243 3.26 3.681 5.842 6.864 7.269 1.708.766 3.521 1.149 5.338 1.149 1.571 0 3.146-.287 4.657-.863l74.458-28.375c5.074 13.04 17.633 21.906 32.195 21.906 3.811 0 7.476-.629 10.908-1.773l25.542 48.116c1.301 2.451 3.849 3.983 6.624 3.983h27.593c4.143 0 7.5-3.357 7.5-7.5s-3.359-7.5-7.501-7.5zm-215.493-61.035c-7.304 2.783-15.503-.894-18.284-8.193l-14.306-37.538 23.656-9.016 19.35 50.777zm126.669-1.547 36.576-13.938c.756 2.106 1.158 4.336 1.158 6.617 0 10.795-8.782 19.577-19.577 19.577-8.192 0-15.249-4.959-18.157-12.256z"/><path d="m192.506 262.39c25.226-33.086 55.295-84.371 55.295-140.796 0-67.047-55.581-121.594-123.901-121.594-24.802 0-48.739 7.169-69.22 20.732-3.454 2.286-4.399 6.94-2.112 10.394 2.285 3.454 6.939 4.398 10.394 2.112 18.017-11.931 39.09-18.238 60.938-18.238 60.048 0 108.9 47.817 108.9 106.594 0 50.96-27.178 98.127-49.977 128.721-26.465 35.514-52.132 56.023-58.924 59.416-6.792-3.393-32.459-23.902-58.924-59.416-22.797-30.594-49.975-77.761-49.975-128.721 0-24.566 8.296-47.648 23.992-66.751 2.63-3.201 2.167-7.927-1.033-10.557-3.201-2.628-7.925-2.168-10.557 1.033-17.671 21.507-27.402 48.595-27.402 76.275 0 56.425 30.069 107.71 55.295 140.796 22.591 29.632 56.323 62.648 68.605 62.648s46.015-33.017 68.606-62.648z"/><path d="m197.204 144.741c1.693 0 3.398-.192 5.09-.582 5.856-1.349 10.838-4.896 14.024-9.99 3.188-5.095 4.202-11.126 2.854-16.983-1.349-5.857-4.896-10.839-9.991-14.026l-73.346-45.9c-7.25-4.537-16.621-4.537-23.871 0l-73.346 45.9c-5.094 3.188-8.642 8.17-9.99 14.026-1.348 5.857-.334 11.889 2.854 16.981 4.14 6.617 11.275 10.567 19.088 10.567 3.05 0 6.047-.629 8.83-1.822v33.588h-6.5c-4.143 0-7.5 3.357-7.5 7.5s3.357 7.5 7.5 7.5h142c4.143 0 7.5-3.357 7.5-7.5s-3.357-7.5-7.5-7.5h-6.5v-33.584c2.795 1.203 5.778 1.825 8.804 1.825zm-87.304 31.683v-35h28v35zm31.5-50h-35c-6.341 0-11.5 5.159-11.5 11.5v38.576h-20.5v-42.648l49.5-30.977 49.5 30.977v42.648h-20.5v-38.576c0-6.341-5.159-11.5-11.5-11.5zm-90.83 3.31c-2.609 0-4.991-1.316-6.372-3.524-1.063-1.697-1.4-3.708-.951-5.66s1.632-3.612 3.33-4.676l73.345-45.9c2.418-1.512 5.539-1.512 7.957 0l73.346 45.9c1.698 1.063 2.881 2.724 3.33 4.676s.111 3.963-.952 5.662c-1.063 1.697-2.723 2.881-4.674 3.33-1.952.446-3.961.11-5.661-.952l-65.389-40.92c-1.217-.762-2.598-1.143-3.979-1.143s-2.762.381-3.979 1.143l-65.39 40.921c-1.194.748-2.564 1.143-3.961 1.143z"/><path d="m504.5 411h-13.923c-13 0-23.577 10.577-23.577 23.577v19.423h-9.903c-4.143 0-7.5 3.357-7.5 7.5s3.357 7.5 7.5 7.5h9.903v19.423c0 13 10.577 23.577 23.577 23.577h13.923c4.143 0 7.5-3.357 7.5-7.5v-86c0-4.143-3.357-7.5-7.5-7.5zm-7.5 86h-6.423c-4.729 0-8.577-3.848-8.577-8.577v-53.846c0-4.729 3.848-8.577 8.577-8.577h6.423z"/><path d="m367.912 294.523-100.92 38.46c-11.077 4.222-16.656 16.669-12.435 27.748 3.265 8.565 11.449 13.843 20.115 13.843 2.54 0 5.121-.453 7.632-1.409l100.92-38.459v-.001c5.367-2.045 9.615-6.058 11.964-11.298 2.349-5.241 2.516-11.083.471-16.449-4.221-11.078-16.67-16.65-27.747-12.435zm9.971 26.166-100.919 38.458c-3.355 1.273-7.115-.411-8.39-3.758-1.276-3.35.41-7.113 3.76-8.39l100.92-38.459c.759-.29 1.539-.427 2.308-.427 2.619 0 5.094 1.596 6.081 4.186 1.276 3.35-.411 7.113-3.76 8.39z"/></g></g></svg>