<?xml version="1.0"?>
<svg xmlns="http://www.w3.org/2000/svg" xmlns:xlink="http://www.w3.org/1999/xlink" xmlns:svgjs="http://svgjs.com/svgjs" version="1.1" width="512" height="512" x="0" y="0" viewBox="0 0 512 512" style="enable-background:new 0 0 512 512" xml:space="preserve" class=""><g><g xmlns="http://www.w3.org/2000/svg"><path d="m3.478 177.581c4.222 3.631 10.53 3.093 14.103-1.059l3.525-4.099 18.894 15.91v303.667h-10c-5.522 0-10 4.477-10 10s4.478 10 10 10h452c5.522 0 10-4.477 10-10s-4.478-10-10-10h-10v-303.878l18.23-16.471 4.188 4.87c3.6 4.186 9.913 4.664 14.103 1.062 4.188-3.601 4.662-9.915 1.062-14.103-1.332-1.548-83.327-96.892-86-100-1.097-1.275-2.496-2.252-4.07-2.843l-160-60c-2.266-.849-4.758-.849-7.023 0l-160 60c-1.574.59-2.974 1.568-4.07 2.843-.088.101-85.917 99.897-85.998 99.998-3.604 4.187-3.131 10.501 1.056 14.103zm448.522 88.419h-151c-5.522 0-10 4.477-10 10s4.478 10 10 10h85v206h-20v-175.996c-.004-5.559-4.542-10.05-10.072-10.004-8.405 0-190.853 0-199.851 0-5.539-.047-10.073 4.46-10.077 10.004v175.996h-20v-206h85c5.522 0 10-4.477 10-10s-4.478-10-10-10h-151v-78.479l68.915-76.465 127.085-47.655 127.085 47.656 68.915 76.465zm-146 121.883-33.27-61.883h66.54zm40-32.165v106.565l-28.646-53.283zm-80 0 28.647 53.282-28.647 53.283zm-20 106.565-28.646-53.283 28.646-53.282zm-40-74.4-33.27-61.883h66.54zm-11.353 21.117-28.647 53.283v-106.565zm11.353 21.118 33.27 61.882h-66.54zm100 0 33.27 61.882h-66.54zm-246-144.118h46v206h-46zm346 206v-206h46v206zm-304.089-413.536 154.089-57.784 154.089 57.783 67.095 78.018-14.46 13.066-66.416-73.693c-1.073-1.19-2.417-2.105-3.918-2.668l-132.879-49.83c-2.266-.849-4.759-.849-7.022 0l-132.88 49.83c-1.501.563-2.845 1.478-3.918 2.668l-66.646 73.948-14.897-12.545z" fill="#777777" data-original="#000000" style="" class=""/><path d="m246 236v-80c0-5.398-4.37-9.956-9.932-9.997-.023 0-.045-.003-.068-.003h-100c-.024 0-.047.003-.071.004-5.56.042-9.929 4.606-9.929 9.996v80c0 5.458 4.45 9.983 9.973 9.999.011 0 .023.002.034.002h.012l99.962-.01h.012c.011 0 .023-.002.034-.002 5.397-.015 9.973-4.405 9.973-9.989zm-100-59.194 23.993 19.194-23.993 19.194zm18.508-10.806h42.984l-21.492 17.194zm21.492 42.806 21.493 17.194h-42.984zm16.008-12.806 23.992-19.194v38.387z" fill="#777777" data-original="#000000" style="" class=""/><path d="m376.068 146.004c-.023 0-.045-.003-.068-.003h-100c-.024 0-.047.003-.071.004-5.538.041-9.929 4.587-9.929 9.995v80c0 5.57 4.574 9.99 10.007 9.99h.012c111.764-.001 99.013.009 100.009-.001 5.437-.015 9.972-4.419 9.972-9.989v-80c0-5.361-4.334-9.956-9.932-9.996zm-90.068 30.802 23.993 19.194-23.993 19.194zm18.508-10.806h42.984l-21.492 17.194zm21.492 42.806 21.493 17.194h-42.984zm16.008-12.806 23.992-19.194v38.387z" fill="#777777" data-original="#000000" style="" class=""/><circle cx="256" cy="276" r="10" fill="#777777" data-original="#000000" style="" class=""/></g></g></svg>
