<?xml version="1.0"?>
<svg xmlns="http://www.w3.org/2000/svg" xmlns:xlink="http://www.w3.org/1999/xlink" xmlns:svgjs="http://svgjs.com/svgjs" version="1.1" width="512" height="512" x="0" y="0" viewBox="0 0 512.002 512.002" style="enable-background:new 0 0 512 512" xml:space="preserve" class=""><g><g xmlns="http://www.w3.org/2000/svg"><g><path d="m502.002 0h-492.002c-5.522 0-10 4.477-10 10v80c0 5.523 4.478 10 10 10h40c5.522 0 10-4.477 10-10v-30h100v20h-70c-5.522 0-10 4.477-10 10v152.002c0 5.523 4.478 10 10 10h40c5.522 0 10-4.477 10-10v-22.002h20v122.002c0 5.523 4.478 10 10 10h172.002c5.522 0 10-4.477 10-10v-72.002c0-5.523-4.478-10-10-10h-40c-5.522 0-10 4.477-10 10v22.002h-72.002v-72.002h122.002c5.522 0 10-4.477 10-10v-40c0-5.523-4.478-10-10-10h-41.005c-5.522 0-10 4.477-10 10s4.478 10 10 10h31.005v20h-122.002c-5.522 0-10 4.477-10 10v92.002c0 5.523 4.478 10 10 10h92.002c5.522 0 10-4.477 10-10v-22.002h20v52.002h-152.002v-122.002c0-5.523-4.478-10-10-10h-40c-5.522 0-10 4.477-10 10v22.002h-20v-132.002h70c5.522 0 10-4.477 10-10v-40c0-5.523-4.478-10-10-10h-120c-5.522 0-10 4.477-10 10v30h-20v-60h472.002v292.001h-20v-142.001c0-5.523-4.478-10-10-10h-40c-5.522 0-10 4.477-10 10v242.002h-312.002v-100h20v70c0 5.523 4.478 10 10 10h252.002c5.522 0 10-4.477 10-10v-252.002c0-5.523-4.478-10-10-10h-30v-20h60v30c0 5.523 4.478 10 10 10h40c5.522 0 10-4.477 10-10v-80c0-5.523-4.478-10-10-10h-252.002c-5.522 0-10 4.477-10 10v40c0 5.523 4.478 10 10 10h62.002v20h-142.002c-5.522 0-10 4.477-10 10v40c0 5.523 4.478 10 10 10h80.997c5.522 0 10-4.477 10-10s-4.478-10-10-10h-70.997v-20h142.002c5.522 0 10-4.477 10-10v-40c0-5.523-4.478-10-10-10h-62.002v-20h232.002v60h-20v-30c0-5.523-4.478-10-10-10h-80c-5.522 0-10 4.477-10 10v40c0 5.523 4.478 10 10 10h30v232.002h-232.002v-70c0-5.523-4.478-10-10-10h-40c-5.522 0-10 4.477-10 10v120c0 5.523 4.478 10 10 10h332.002c5.522 0 10-4.477 10-10v-242.002h20v142.001c0 5.523 4.478 10 10 10h40c5.522 0 10-4.477 10-10v-312.001c0-5.523-4.478-10-10-10z" fill="#777777" data-original="#000000" style="" class=""/><path d="m502.002 372.002h-40c-5.522 0-10 4.477-10 10v70h-392.002v-302.002c0-5.523-4.478-10-10-10h-40c-5.522 0-10 4.477-10 10v352.002c0 5.523 4.478 10 10 10h492.002c5.522 0 10-4.477 10-10v-120c0-5.523-4.478-10-10-10zm-10 120h-472.002v-332.002h20v302.002c0 5.523 4.478 10 10 10h412.002c5.522 0 10-4.477 10-10v-70h20z" fill="#777777" data-original="#000000" style="" class=""/><path d="m255.993 160c-5.522 0-9.996 4.477-9.996 10s4.481 10 10.004 10 10-4.477 10-10-4.478-10-10-10z" fill="#777777" data-original="#000000" style="" class=""/></g></g></g></svg>
