<?xml version="1.0"?>
<svg xmlns="http://www.w3.org/2000/svg" xmlns:xlink="http://www.w3.org/1999/xlink" xmlns:svgjs="http://svgjs.com/svgjs" version="1.1" width="512" height="512" x="0" y="0" viewBox="0 0 512.003 512.003" style="enable-background:new 0 0 512 512" xml:space="preserve"><g>
<g xmlns="http://www.w3.org/2000/svg">
	<g>
		<path d="M509.072,484.741c-3.905-3.905-10.237-3.905-14.142,0c-9.665,9.666-25.393,9.666-35.058,0    c-8.459-8.46-19.708-13.119-31.671-13.119c-11.963,0-23.211,4.659-31.671,13.119c-9.665,9.666-25.393,9.666-35.058,0    c-8.459-8.46-19.708-13.119-31.671-13.119c-11.964,0-23.212,4.659-31.671,13.119c-9.665,9.666-25.393,9.666-35.058,0    c-17.464-17.463-45.879-17.463-63.343,0c-4.682,4.682-10.907,7.261-17.529,7.261c-6.621,0-12.846-2.579-17.528-7.261    c-8.46-8.459-19.708-13.119-31.671-13.119s-23.211,4.659-31.671,13.119c-4.682,4.682-10.907,7.261-17.528,7.261    c-6.622,0-12.847-2.579-17.529-7.261c-8.46-8.459-19.708-13.119-31.671-13.119c-11.963,0-23.212,4.66-31.672,13.119    c-3.905,3.905-3.905,10.237,0,14.143c3.905,3.905,10.237,3.905,14.143,0c9.665-9.666,25.392-9.666,35.058,0    c8.459,8.46,19.708,13.119,31.671,13.119s23.211-4.659,31.671-13.119c9.665-9.666,25.393-9.666,35.058,0    c8.459,8.46,19.708,13.119,31.671,13.119c11.964,0,23.212-4.659,31.671-13.119c9.665-9.666,25.393-9.666,35.058,0    c17.464,17.463,45.879,17.463,63.343,0c4.682-4.682,10.907-7.261,17.529-7.261c6.621,0,12.846,2.579,17.528,7.261    c8.46,8.459,19.708,13.119,31.671,13.119c11.963,0,23.211-4.659,31.671-13.119c4.682-4.682,10.907-7.261,17.528-7.261    c6.622,0,12.847,2.579,17.529,7.261c8.46,8.459,19.708,13.119,31.671,13.119c11.963,0,23.211-4.659,31.671-13.119    C512.977,494.979,512.977,488.647,509.072,484.741z" fill="#777777" data-original="#000000" style=""/>
	</g>
</g>
<g xmlns="http://www.w3.org/2000/svg">
	<g>
		<path d="M502.001,438H387.386l-31.392-23.996c-46.051-35.201-101.03-53.808-158.993-53.808c-0.874,0-1.745,0.018-2.618,0.026    V260.43c3.727,1.519,7.797,2.364,12.063,2.364c10.239,0,19.365-4.83,25.239-12.324l34.69,35.702    c1.919,1.975,4.521,3.032,7.174,3.032c1.203,0,2.416-0.217,3.581-0.665c3.736-1.434,6.257-4.957,6.41-8.955    c1.219-31.973-11.048-63.277-33.654-85.884c-5.126-5.126-10.702-9.713-16.627-13.738h85.506c3.976,0,7.573-2.354,9.164-5.998    c1.591-3.643,0.873-7.882-1.829-10.798c-21.747-23.471-52.555-36.932-84.526-36.932c-7.168,0-14.277,0.682-21.24,1.997    l60.362-60.362c2.811-2.811,3.69-7.021,2.239-10.721c-1.451-3.701-4.957-6.191-8.929-6.343    c-31.974-1.219-63.277,11.048-85.884,33.654c-5.125,5.125-9.713,10.702-13.739,16.628V10.001c0-3.976-2.355-7.573-5.998-9.164    c-3.642-1.592-7.883-0.874-10.798,1.829c-22.435,20.788-36.932,56.156-36.932,90.105c0,14.149,2.641,28.069,7.615,41.078    c-13.009-4.974-26.929-7.615-41.078-7.615c-31.971,0-62.779,13.461-84.526,36.931c-2.702,2.917-3.42,7.156-1.829,10.799    s5.188,5.998,9.164,5.998h85.505c-5.925,4.026-11.501,8.614-16.626,13.739c-22.606,22.607-34.873,53.911-33.654,85.883    c0.151,3.973,2.642,7.478,6.342,8.929c1.185,0.464,2.422,0.69,3.648,0.69c2.604,0,5.162-1.019,7.073-2.929l72.094-72.093v153.518    c-34.684,8.489-67.309,24.088-96.375,46.306l-34.08,26.051c-3.406,2.604-4.773,7.089-3.399,11.15    C1.904,455.268,5.714,458,10.001,458h317.667h56.333h118c5.523,0,10-4.477,10-10S507.524,438,502.001,438z M206.447,242.794    c-6.652,0-12.063-5.412-12.063-12.063s5.412-12.063,12.063-12.063s12.063,5.412,12.063,12.063S213.099,242.794,206.447,242.794z     M235.744,207.842c12.141,12.141,20.673,27.319,24.883,43.713l-22.186-22.833c-0.892-14.345-11.255-26.158-24.897-29.254    c0.494-2.232,0.762-4.547,0.762-6.925c0-0.263-0.014-0.523-0.02-0.785C222.104,196.048,229.346,201.444,235.744,207.842z     M241.574,146.233c17.444,0,34.469,4.85,49.197,13.728h-98.394C207.106,151.083,224.131,146.233,241.574,146.233z M202.265,98.601    c12.335-12.336,27.8-20.944,44.495-25.081l-69.576,69.576C181.321,126.403,189.93,110.935,202.265,98.601z M180.055,180.688    c2.735,0.339,5.449,0.799,8.135,1.372c3.646,2.078,6.116,5.994,6.116,10.483c0,6.652-5.412,12.063-12.063,12.063    s-12.063-5.412-12.063-12.063C170.18,186.639,174.446,181.722,180.055,180.688z M174.383,223.629v12.372h-20v-27.616    C158.652,215.862,165.836,221.467,174.383,223.629z M154.383,316.001v-20h20v20H154.383z M174.383,336.001v25.159    c-6.722,0.57-13.392,1.388-20,2.464v-27.623H174.383z M154.383,276.001v-20h20v20H154.383z M154.383,39.535v102.432    c-8.878-14.729-13.728-31.754-13.728-49.197C140.655,74.507,145.799,55.358,154.383,39.535z M37.996,159.961    c14.728-8.878,31.753-13.728,49.196-13.728s34.468,4.85,49.197,13.728H37.996z M133.026,187.253l-65.084,65.083    c4.137-16.692,12.746-32.161,25.08-44.495c11.558-11.557,25.871-19.836,41.361-24.236v2.522    C133.908,186.46,133.451,186.829,133.026,187.253z M327.668,438H39.55l10.604-8.106c86.462-66.091,207.233-66.091,293.694,0    L354.453,438H327.668z" fill="#777777" data-original="#000000" style=""/>
	</g>
</g>
<g xmlns="http://www.w3.org/2000/svg">
	<g>
		<path d="M412.806,210.001c-25.364,0-46,20.636-46,46c0,25.364,20.636,46,46,46s46-20.636,46-46S438.17,210.001,412.806,210.001z     M412.806,282.001c-14.336,0-26-11.664-26-26c0-14.337,11.664-26,26-26s26,11.664,26,26    C438.806,270.337,427.142,282.001,412.806,282.001z" fill="#777777" data-original="#000000" style=""/>
	</g>
</g>
<g xmlns="http://www.w3.org/2000/svg">
	<g>
		<path d="M501.988,246.001h-16.11c-5.523,0-10,4.477-10,10c0,5.523,4.477,10,10,10h16.11c5.523,0,10-4.477,10-10    C511.988,250.478,507.511,246.001,501.988,246.001z" fill="#777777" data-original="#000000" style=""/>
	</g>
</g>
<g xmlns="http://www.w3.org/2000/svg">
	<g>
		<path d="M339.734,246.001h-16.11c-5.523,0-10,4.477-10,10c0,5.523,4.477,10,10,10h16.11c5.523,0,10-4.477,10-10    C349.734,250.478,345.257,246.001,339.734,246.001z" fill="#777777" data-original="#000000" style=""/>
	</g>
</g>
<g xmlns="http://www.w3.org/2000/svg">
	<g>
		<path d="M412.806,319.073c-5.523,0-10,4.477-10,10v16.11c0,5.523,4.477,10,10,10s10-4.477,10-10v-16.11    C422.806,323.55,418.329,319.073,412.806,319.073z" fill="#777777" data-original="#000000" style=""/>
	</g>
</g>
<g xmlns="http://www.w3.org/2000/svg">
	<g>
		<path d="M412.806,156.819c-5.523,0-10,4.477-10,10v16.11c0,5.522,4.477,10,10,10s10-4.477,10-10v-16.11    C422.806,161.296,418.329,156.819,412.806,156.819z" fill="#777777" data-original="#000000" style=""/>
	</g>
</g>
<g xmlns="http://www.w3.org/2000/svg">
	<g>
		<path d="M482.938,311.992L471.546,300.6c-3.905-3.906-10.236-3.905-14.142,0c-3.905,3.905-3.905,10.237,0,14.142l11.392,11.392    c1.953,1.953,4.512,2.929,7.071,2.929s5.119-0.977,7.071-2.929C486.843,322.229,486.843,315.897,482.938,311.992z" fill="#777777" data-original="#000000" style=""/>
	</g>
</g>
<g xmlns="http://www.w3.org/2000/svg">
	<g>
		<path d="M368.207,197.259l-11.392-11.392c-3.905-3.905-10.237-3.905-14.143,0c-3.905,3.905-3.905,10.237,0,14.143l11.393,11.392    c1.953,1.953,4.512,2.929,7.071,2.929s5.119-0.976,7.071-2.929C372.112,207.497,372.112,201.165,368.207,197.259z" fill="#777777" data-original="#000000" style=""/>
	</g>
</g>
<g xmlns="http://www.w3.org/2000/svg">
	<g>
		<path d="M368.207,300.599c-3.905-3.905-10.237-3.905-14.142,0l-11.392,11.392c-3.905,3.905-3.905,10.237,0,14.143    c1.953,1.953,4.512,2.929,7.071,2.929s5.119-0.976,7.071-2.929l11.392-11.392C372.112,310.837,372.112,304.505,368.207,300.599z" fill="#777777" data-original="#000000" style=""/>
	</g>
</g>
<g xmlns="http://www.w3.org/2000/svg">
	<g>
		<path d="M482.939,185.868c-3.906-3.905-10.237-3.905-14.142,0l-11.392,11.392c-3.905,3.905-3.906,10.237,0,14.142    c1.952,1.953,4.511,2.929,7.071,2.929c2.559,0,5.119-0.977,7.071-2.929l11.392-11.392    C486.844,196.105,486.845,189.773,482.939,185.868z" fill="#777777" data-original="#000000" style=""/>
	</g>
</g>
<g xmlns="http://www.w3.org/2000/svg">
</g>
<g xmlns="http://www.w3.org/2000/svg">
</g>
<g xmlns="http://www.w3.org/2000/svg">
</g>
<g xmlns="http://www.w3.org/2000/svg">
</g>
<g xmlns="http://www.w3.org/2000/svg">
</g>
<g xmlns="http://www.w3.org/2000/svg">
</g>
<g xmlns="http://www.w3.org/2000/svg">
</g>
<g xmlns="http://www.w3.org/2000/svg">
</g>
<g xmlns="http://www.w3.org/2000/svg">
</g>
<g xmlns="http://www.w3.org/2000/svg">
</g>
<g xmlns="http://www.w3.org/2000/svg">
</g>
<g xmlns="http://www.w3.org/2000/svg">
</g>
<g xmlns="http://www.w3.org/2000/svg">
</g>
<g xmlns="http://www.w3.org/2000/svg">
</g>
<g xmlns="http://www.w3.org/2000/svg">
</g>
</g></svg>
