<?xml version="1.0"?>
<svg xmlns="http://www.w3.org/2000/svg" xmlns:xlink="http://www.w3.org/1999/xlink" xmlns:svgjs="http://svgjs.com/svgjs" version="1.1" width="512" height="512" x="0" y="0" viewBox="0 0 512 512" style="enable-background:new 0 0 512 512" xml:space="preserve" class=""><g><g xmlns="http://www.w3.org/2000/svg"><circle cx="272" cy="103.5" r="10" fill="#777777" data-original="#000000" style=""/><path d="m482 378.5h-10v-20h10c16.542 0 30-13.458 30-30s-13.458-30-30-30h-10.105c-2.6-68.38-58.258-123.399-126.895-124.962v-20.038h109c4.24 0 8.03-2.69 9.439-6.69 1.4-4 .12-8.47-3.189-11.12-16.99-13.59-36.021-24.13-56.55-31.34-20.53-7.2-41.971-10.85-63.73-10.85h-22.97c-5.51 0-10 4.49-10 10s4.49 10 10 10h22.97c28 0 55.88 6.91 80.63 20h-352.6v-20h159c5.51 0 10-4.49 10-10s-4.49-10-10-10h-67.726c-4.869-33.876-34.072-60-69.274-60-5.523 0-10 4.478-10 10v50h-22c-2.63 0-5.21 1.069-7.07 2.93-1.86 1.86-2.93 4.44-2.93 7.07v40c0 2.63 1.07 5.21 2.93 7.069 1.86 1.86 4.44 2.931 7.07 2.931h57v20h-5c-49.626 0-90 40.374-90 90v115h-10c-5.523 0-10 4.478-10 10v40c0 5.522 4.477 10 10 10h66.006c4.646 22.795 24.847 40 48.994 40s44.348-17.205 48.994-40h144.012c4.646 22.795 24.847 40 48.994 40s44.348-17.205 48.994-40h66.006c16.542 0 30-13.458 30-30s-13.458-30-30-30zm-382-323.995c19.561 3.987 35.008 19.434 38.996 38.995h-38.996zm347 323.995c-5.522 0-10 4.478-10 10v30h-21.006c-4.646-22.795-24.847-40-48.994-40s-44.348 17.205-48.994 40h-13.006v-60h30c5.522 0 10-4.478 10-10s-4.478-10-10-10h-30v-20h147v60zm-272-20h30c5.523 0 10-4.478 10-10s-4.477-10-10-10h-30v-20h110v100h-110zm-25-165h5v105h-75v-35c0-38.598 31.402-70 70-70zm135-20h-110v-20h110zm-110 20h110v105h-110zm317 135c0 5.514-4.486 10-10 10h-10v-20h10c5.514 0 10 4.486 10 10zm-40.112-30h-146.888v-105h37c58.978 0 107.263 46.659 109.888 105zm-126.888-145v20h-20v-20zm-190 0h20v20h-20zm-95 110c0-31.682 21.162-58.499 50.089-67.099-18.453 16.494-30.089 40.461-30.089 67.099v35h-20zm0 95h30c5.523 0 10-4.478 10-10s-4.477-10-10-10h-30v-20h115v70.027c-8.363-6.292-18.753-10.027-30-10.027-24.146 0-44.348 17.205-48.994 40h-16.006v-30c0-5.522-4.477-10-10-10h-10zm-20 60v-20h20v20zm105 40c-16.542 0-30-13.458-30-30s13.458-30 30-30 30 13.458 30 30-13.458 30-30 30zm242 0c-16.542 0-30-13.458-30-30s13.458-30 30-30 30 13.458 30 30-13.458 30-30 30zm115-40h-25v-20h25c5.514 0 10 4.486 10 10s-4.486 10-10 10z" fill="#777777" data-original="#000000" style=""/></g></g></svg>
