<?xml version="1.0"?>
<svg xmlns="http://www.w3.org/2000/svg" xmlns:xlink="http://www.w3.org/1999/xlink" xmlns:svgjs="http://svgjs.com/svgjs" version="1.1" width="512" height="512" x="0" y="0" viewBox="0 0 512 512" style="enable-background:new 0 0 512 512" xml:space="preserve" class=""><g><g xmlns="http://www.w3.org/2000/svg"><g><path d="m482.766 340.645c-5.523 0-10 4.478-10 10v141.355h-231.323l66.779-62.225c2.01-1.877 3.183-4.565 3.183-7.316v-148.963h114.882c5.523 0 10-4.478 10-10v-105.338c0-5.522-4.477-10-10-10h-114.882v-40.031h161.36v154.552c0 5.522 4.477 10 10 10s10-4.478 10-10v-164.552c0-5.522-4.477-10-10-10h-171.36v-78.127c0-5.522-4.477-10-10-10h-272.171c-5.523 0-10 4.478-10 10v412.459c0 5.522 4.477 10 10 10h176.808v69.52c0 5.448 4.551 10.021 10 10.021h266.724c5.523 0 10-4.478 10-10v-151.355c0-5.523-4.477-10-10-10zm-66.479-172.487v85.338h-104.882v-85.338zm-377.053-148.158h252.171v392.459h-252.171zm236.77 412.459-49.962 46.554v-46.554z" fill="#777777" data-original="#000000" style=""/><path d="m426.287 311.611h-81.915c-5.523 0-10 4.478-10 10s4.477 10 10 10h81.915c5.523 0 10-4.478 10-10s-4.477-10-10-10z" fill="#777777" data-original="#000000" style=""/><path d="m426.287 369.727h-81.915c-5.523 0-10 4.478-10 10s4.477 10 10 10h81.915c5.523 0 10-4.478 10-10s-4.477-10-10-10z" fill="#777777" data-original="#000000" style=""/><path d="m426.287 427.841h-81.915c-5.523 0-10 4.478-10 10s4.477 10 10 10h81.915c5.523 0 10-4.478 10-10s-4.477-10-10-10z" fill="#777777" data-original="#000000" style=""/><path d="m255.348 365.57v-124.261c0-5.522-4.477-10-10-10h-34.764l28.883-58.798c7.034-12.926 10.526-27.575 10.102-42.381-1.288-44.869-38.754-81.196-83.625-81.196-.154 0-.312 0-.465.001-45.859.258-83.169 37.781-83.169 83.646 0 13.116 3.139 26.215 9.079 37.888l29.911 60.84h-34.732c-5.523 0-10 4.478-10 10v124.261c0 5.522 4.477 10 10 10h158.78c5.523 0 10-4.477 10-10zm-146.109-204.12c-4.534-8.889-6.931-18.871-6.931-28.869 0-34.898 28.388-63.45 63.281-63.646.119-.001.235-.001.354-.001 34.141 0 62.653 27.638 63.632 61.771.326 11.334-2.358 22.538-7.76 32.399-.071.131-.14.263-.205.396l-50.372 102.542c-2.13 4.335-8.445 4.338-10.578.001l-51.356-104.46c-.02-.045-.043-.089-.065-.133zm126.109 194.12h-138.78v-104.261h34.563l11.583 23.562c9.313 18.945 37.175 18.93 46.48-.014l7.864-16.014 3.701-7.535h34.589z" fill="#777777" data-original="#000000" style=""/><path d="m205.236 131.773c0-21.458-17.458-38.916-38.917-38.916s-38.916 17.458-38.916 38.916c0 21.459 17.458 38.917 38.916 38.917s38.917-17.458 38.917-38.917zm-57.832 0c0-10.431 8.486-18.916 18.916-18.916 10.431 0 18.917 8.485 18.917 18.916s-8.486 18.917-18.917 18.917c-10.43 0-18.916-8.486-18.916-18.917z" fill="#777777" data-original="#000000" style=""/><path d="m130.139 311.358c-5.523 0-10 4.478-10 10s4.477 10 10 10h72.1c5.523 0 10-4.478 10-10s-4.477-10-10-10z" fill="#777777" data-original="#000000" style=""/><path d="m492 302.24c-2.093-5.028-8.019-7.502-13.06-5.41-5.031 2.088-7.501 8.022-5.41 13.06 2.086 5.026 8.029 7.498 13.06 5.41 5.024-2.086 7.508-8.028 5.41-13.06z" fill="#777777" data-original="#000000" style=""/></g></g></g></svg>
