<?xml version="1.0" encoding="utf-8"?>
<!-- Generator: Adobe Illustrator 23.1.0, SVG Export Plug-In . SVG Version: 6.00 Build 0)  -->
<svg version="1.1" id="Layer_1" xmlns="http://www.w3.org/2000/svg" xmlns:xlink="http://www.w3.org/1999/xlink" x="0px" y="0px"
	 viewBox="0 0 24 24" style="enable-background:new 0 0 24 24;" xml:space="preserve">
<style type="text/css">
	.st0{fill:#FFFFFF;}
	.st1{fill:#333333;}
</style>
<path class="st0" d="M23.2,18.8H0.8C0.4,18.8,0,19,0,19.1v1.7c0,0.2,0.3,0.4,0.8,0.4h22.5c0.4,0,0.8-0.2,0.8-0.4v-1.7
	C24,19,23.7,18.8,23.2,18.8z M23.2,9.7H0.8C0.3,9.7,0,9.9,0,10.1v1.7c0,0.2,0.3,0.4,0.8,0.4h22.5c0.4,0,0.8-0.1,0.8-0.4v-1.7
	C24,9.9,23.7,9.7,23.2,9.7z M23.2,0.3H0.8C0.3,0.3,0,0.5,0,0.7v1.7c0,0.2,0.3,0.4,0.8,0.4h22.5c0.4,0,0.8-0.2,0.8-0.4V0.7
	C24,0.5,23.7,0.3,23.2,0.3z"/>
<path class="st1" d="M23.1,21.3H0.7c-0.4,0-0.8,0.2-0.8,0.4v1.7c0,0.2,0.3,0.4,0.8,0.4h22.5c0.4,0,0.8-0.2,0.8-0.4v-1.7
	C23.9,21.5,23.6,21.3,23.1,21.3z M23.1,12.2H0.7c-0.5,0-0.8,0.2-0.8,0.4v1.7c0,0.2,0.3,0.4,0.8,0.4h22.5c0.4,0,0.8-0.1,0.8-0.4v-1.7
	C23.9,12.4,23.6,12.2,23.1,12.2z M23.1,2.8H0.7C0.2,2.8-0.1,3-0.1,3.2v1.7c0,0.2,0.3,0.4,0.8,0.4h22.5c0.4,0,0.8-0.2,0.8-0.4V3.2
	C23.9,3,23.6,2.8,23.1,2.8z"/>
</svg>
