<?xml version="1.0" encoding="utf-8"?>
<!-- Generator: Adobe Illustrator 21.0.2, SVG Export Plug-In . SVG Version: 6.00 Build 0)  -->
<svg version="1.1" id="Layer_1" xmlns="http://www.w3.org/2000/svg" xmlns:xlink="http://www.w3.org/1999/xlink" x="0px" y="0px"
	 viewBox="0 0 28.1 28.1" style="enable-background:new 0 0 28.1 28.1;" xml:space="preserve">
<path d="M27.7,23.6L18.1,14l9.6-9.5c0.4-0.4,0.4-1,0-1.4L25,0.3C24.8,0.1,24.6,0,24.3,0c-0.3,0-0.5,0.1-0.7,0.3L14,9.8L4.5,0.3
	C4.3,0.1,4,0,3.7,0C3.5,0,3.2,0.1,3,0.3L0.3,3c-0.4,0.4-0.4,1,0,1.4L9.9,14l-9.6,9.6C0.1,23.8,0,24,0,24.3c0,0.3,0.1,0.5,0.3,0.7
	l2.7,2.7c0.2,0.2,0.5,0.3,0.7,0.3c0.3,0,0.5-0.1,0.7-0.3l9.5-9.6l9.5,9.6c0.2,0.2,0.5,0.3,0.7,0.3c0.3,0,0.5-0.1,0.7-0.3l2.7-2.7
	c0.2-0.2,0.3-0.4,0.3-0.7C28,24,27.9,23.8,27.7,23.6z"/>
</svg>
