<?xml version="1.0"?>
<svg xmlns="http://www.w3.org/2000/svg" xmlns:xlink="http://www.w3.org/1999/xlink" xmlns:svgjs="http://svgjs.com/svgjs" version="1.1" width="512" height="512" x="0" y="0" viewBox="0 0 503.871 503.871" style="enable-background:new 0 0 512 512" xml:space="preserve"><g><g xmlns="http://www.w3.org/2000/svg"><g><g><path d="m217.601 256.625c2.278-4.934.126-10.782-4.808-13.06-33.015-15.247-54.348-48.58-54.348-84.923 0-51.551 41.94-93.492 93.492-93.492s93.492 41.94 93.492 93.492c0 36.346-21.335 69.681-54.353 84.925-4.934 2.278-7.088 8.126-4.809 13.06 1.661 3.599 5.222 5.719 8.941 5.719 1.381 0 2.783-.292 4.12-.908 39.962-18.451 65.785-58.801 65.785-102.796 0-62.404-50.769-113.174-113.174-113.174s-113.174 50.77-113.174 113.174c0 43.99 25.819 84.339 65.779 102.792 4.93 2.278 10.777.126 13.057-4.809z" fill="#777777" data-original="#000000" style=""/><path d="m496.547 143.067c-28.655-7.58-58.098-11.795-89.843-12.869-5.931-31.414-21.494-61.081-44.687-84.185-29.796-29.684-68.673-46.008-109.461-46.008-.193 0-.391 0-.584.001-41.079-.119-80.183 16.183-110.12 46.007-29.376 29.265-46.521 69.055-47.338 109.594-29.076-1.225-56.015-5.238-82.126-12.234-2.955-.793-6.111-.164-8.538 1.699-2.427 1.862-3.85 4.748-3.85 7.807v328.176c0 4.454 2.992 8.353 7.294 9.506 36.41 9.756 71.933 13.305 106.757 13.305 47.448-.001 93.59-6.593 138.836-13.057 80.355-11.482 156.251-22.327 238.625-.536 2.954.782 6.102.148 8.521-1.716 2.42-1.863 3.838-4.743 3.838-7.798v-328.177c0-4.466-3.007-8.372-7.324-9.515zm-370.724 120.463h-66.776v-51.453c14.733 1.661 29.753 2.591 45.507 2.841 5.203 15.763 12.347 32.103 21.269 48.612zm-66.776 71.48h40.303l29.343 109.508c-23.227.702-46.491-.15-69.645-3.51v-105.998zm89.76 108.528-32.4-120.916c-1.152-4.303-5.052-7.294-9.506-7.294h-47.854v-32.114h78.208c6.078 9.777 12.741 19.555 19.972 29.246.714.957 1.435 1.912 2.162 2.869h-3.158c-3.06 0-5.945 1.423-7.808 3.851-1.863 2.427-2.49 5.583-1.699 8.538l30.384 113.392c-9.413.979-18.85 1.808-28.301 2.428zm48.074-4.689-27.824-103.84h6.249c26.413 30.691 56.745 56.576 76.629 56.576 14.992 0 35.922-14.714 56.634-35.107l17.597 65.674c-26.049 2.476-52.968 6.106-81.631 10.202-15.766 2.253-31.668 4.523-47.654 6.495zm149.216-18.364-21.643-80.772c7.782-8.76 15.296-18.016 22.189-27.254 7.231-9.692 13.894-19.469 19.972-29.246h78.209v32.114h-80.82c-3.06 0-5.945 1.423-7.808 3.851-1.863 2.427-2.49 5.583-1.699 8.538l24.437 91.201c-10.87.237-21.794.779-32.837 1.568zm53.196-1.636-22.465-83.84h67.995v86.666c-15.284-1.708-30.398-2.593-45.53-2.826zm45.531-155.319h-66.776c13.868-25.661 23.461-50.924 28.114-74.223 13.434.497 26.191 1.624 38.661 3.42v70.803zm-289.081-203.572c26.08-25.981 60.029-40.268 95.722-40.268.168 0 .34 0 .508.001 35.819-.164 69.951 14.164 96.154 40.267 26.429 26.328 41.586 62.297 41.586 98.684 0 40.151-21.448 91.925-58.845 142.046-34.67 46.466-68.117 71.215-78.933 71.215s-44.263-24.748-78.933-71.215c-37.398-50.121-58.845-101.895-58.845-142.046.001-36.387 15.158-72.356 41.586-98.684zm328.446 408.24c-81.671-18.652-159.096-7.591-234.091 3.126-74.22 10.606-150.898 21.558-230.416 2.094v-307.939c24.194 5.607 49.158 8.852 75.808 9.871.75 6.411 1.919 13.01 3.48 19.758-16.768-.465-32.699-1.753-48.411-3.934-2.82-.389-5.67.457-7.816 2.326s-3.378 4.575-3.378 7.422v248.491c0 4.794 3.453 8.89 8.179 9.7 22.226 3.811 44.386 5.334 66.441 5.333 45.097-.001 89.721-6.376 133.336-12.608 75.968-10.854 139.377-18.431 206.005-9.271 2.817.388 5.665-.463 7.808-2.332s3.374-4.573 3.374-7.417v-248.509c0-4.802-3.465-8.902-8.199-9.703-15.311-2.591-30.884-4.196-47.381-4.885.301-3.763.469-7.464.469-11.078 0-2.889-.092-5.775-.257-8.655 26.376 1.077 51.073 4.445 75.05 10.254v307.958h-.001z" fill="#777777" data-original="#000000" style=""/><path d="m298.269 192.855-2.142-22.12 14.355-15.798c2.201-2.414 3.743-5.403 4.458-8.644 2.242-10.151-4.192-20.235-14.342-22.475l-21.687-4.796-10.568-18.498c-1.627-2.873-4.003-5.281-6.872-6.963-4.345-2.548-9.421-3.251-14.294-1.98-4.874 1.271-8.96 4.364-11.5 8.696l-11.254 19.131-20.915 4.345c-3.197.661-6.192 2.167-8.662 4.353-7.785 6.889-8.516 18.829-1.623 26.619l14.727 16.628-2.333 21.295c-.348 3.243.158 6.54 1.465 9.54 2.013 4.618 5.705 8.177 10.395 10.019 2.236.879 4.571 1.317 6.904 1.317 2.559 0 5.113-.527 7.529-1.58l20.357-8.865 19.469 8.775c2.961 1.338 6.26 1.882 9.536 1.572 10.35-.977 17.977-10.195 16.997-20.571zm-19.642-32.13c-1.867 2.055-2.78 4.803-2.512 7.568l2.426 25.042-22.163-9.99c-2.531-1.142-5.427-1.159-7.973-.051l-23.064 10.044 2.648-24.174c.303-2.759-.575-5.519-2.416-7.597l-16.677-18.828 23.799-4.944c2.719-.565 5.072-2.253 6.48-4.646l12.752-21.678 12.056 21.103c1.377 2.411 3.709 4.128 6.42 4.728l24.573 5.433z" fill="#777777" data-original="#000000" style=""/><path d="m251.936 252.133h-.008c-5.435 0-9.837 4.406-9.837 9.841s4.41 9.841 9.845 9.841 9.841-4.406 9.841-9.841-4.406-9.841-9.841-9.841z" fill="#777777" data-original="#000000" style=""/></g></g></g></g></svg>
