<?xml version="1.0"?>
<svg xmlns="http://www.w3.org/2000/svg" xmlns:xlink="http://www.w3.org/1999/xlink" xmlns:svgjs="http://svgjs.com/svgjs" version="1.1" width="512" height="512" x="0" y="0" viewBox="0 0 512.006 512.006" style="enable-background:new 0 0 512 512" xml:space="preserve" class=""><g><path xmlns="http://www.w3.org/2000/svg" d="m10.001 203.81c1.032 0 2.083-.162 3.118-.5l9.963-3.267v113.191c0 .024.003.048.004.072.001.099.008.198.012.297.003.071-.003.142.001.213l3.022 51.846c.174 15.629 12.941 28.29 28.61 28.29h123.838c15.67 0 28.438-12.661 28.61-28.291l3.022-51.845c.005-.088-.001-.175.002-.262.002-.07.009-.14.01-.21 0-.037.006-.073.006-.11v-113.19l9.961 3.266c1.035.339 2.085.5 3.118.5 4.205 0 8.119-2.674 9.5-6.887 1.721-5.248-1.139-10.897-6.387-12.618l-17.353-5.689-16.133-95.042c-2.56-15.795-16.034-27.259-32.04-27.259h-.113-89.161c-16.005 0-29.479 11.464-32.04 27.261l-15.386 95.058-17.299 5.672c-5.248 1.721-8.107 7.37-6.387 12.618 1.383 4.213 5.296 6.886 9.502 6.886zm36.173-35.854 8.375-51.747h22.574c10.932 0 20.116-8.184 21.363-19.029l2.416-20.867h30.692l2.415 20.858c1.248 10.853 10.432 19.037 21.364 19.037h22.725l8.809 51.527c-12.93-5.413-26.704-8.743-40.532-10.87-10.335-1.589-20.948-2.8-31.425-2.415-23.195.887-47.224 4.621-68.776 13.506zm74.488 6.466c20.446.805 41.756 4.279 60.55 12.62l-24.765 16.781h-79.596l-24.671-16.721c15.409-6.679 32.335-9.818 48.952-11.565 6.442-.676 13.039-1.371 19.53-1.115zm28.857 49.402v40.204h-65.741v-40.204zm20 45.952v-50.619l20.696-13.896-.002 84.453zm-105.741 0-20.693 19.937v-84.612l20.693 14.024zm14.034 14.252h77.674l19.935 19.207h-117.544zm109.369 81.312c0 4.749-3.863 8.612-8.612 8.612h-123.838c-4.749 0-8.612-3.863-8.612-8.612 0-.194-.006-.388-.017-.582l-2.42-41.521h145.937l-2.42 41.521c-.012.194-.018.388-.018.582zm-26.408-289.026c6.086 0 11.249 4.354 12.275 10.353l1.631 9.542h-19.306c-.766 0-1.408-.568-1.496-1.33l-2.15-18.566h9.046zm-89.162 0h9.158l-2.151 18.574c-.086.753-.729 1.321-1.495 1.321h-19.336l1.527-9.438c.983-6.058 6.154-10.457 12.297-10.457z" fill="#777777" data-original="#000000" style="" class=""/><path xmlns="http://www.w3.org/2000/svg" d="m285.595 184.305c-5.248 1.721-8.107 7.37-6.387 12.618 1.382 4.213 5.295 6.887 9.5 6.887 1.032 0 2.083-.162 3.118-.5l9.963-3.267v113.191c0 .024.003.048.004.072.001.099.008.198.012.297.003.071-.003.142.001.213l3.022 51.846c.174 15.629 12.941 28.29 28.61 28.29h123.838c15.67 0 28.438-12.661 28.61-28.291l3.022-51.845c.005-.092-.001-.183.002-.275.001-.026.003-.052.004-.078.002-.077.012-.152.012-.229v-113.19l9.961 3.266c1.035.339 2.085.5 3.118.5 4.205 0 8.119-2.674 9.5-6.887 1.721-5.248-1.139-10.897-6.387-12.618l-17.353-5.69-14.074-82.325-2.058-12.717c-2.561-15.794-16.035-27.258-32.04-27.258h-.113-20.269-48.51-20.382c-16.004 0-29.479 11.464-32.04 27.261l-15.386 95.058zm39.287-16.349 8.376-51.747h22.574c10.931 0 20.116-8.184 21.363-19.029l2.416-20.866h30.692l2.415 20.859c1.249 10.852 10.433 19.036 21.364 19.036h22.725l8.809 51.527c-17.744-7.424-37.075-11.116-56.178-12.73-3.999-.338-8.021-.612-12.036-.65-24.027-.399-50.314 4.445-72.52 13.6zm89.132 7.633c15.641 1.789 31.454 5.047 45.904 11.454l-24.764 16.781h-79.595l-24.672-16.722c17.854-7.742 37.776-10.9 57.069-12.282 8.793-.63 17.296-.232 26.058.769zm14.213 48.235v40.204h-65.741v-40.204zm20 45.952v-50.62l20.696-13.896-.002 84.453zm-105.741 0-20.694 19.938v-84.612l20.694 14.024zm14.034 14.252h77.674l19.935 19.207h-117.544zm109.369 81.312c0 4.749-3.863 8.612-8.612 8.612h-123.838c-4.749 0-8.612-3.863-8.612-8.612 0-.194-.006-.388-.017-.582l-2.42-41.521h145.937l-2.42 41.521c-.012.194-.018.388-.018.582zm-26.409-289.026c6.086 0 11.25 4.354 12.276 10.353l1.631 9.542h-19.306c-.766 0-1.409-.568-1.496-1.329l-2.149-18.566zm-89.161 0h9.158l-2.15 18.573c-.086.754-.729 1.322-1.495 1.322h-19.337l1.527-9.437c.982-6.059 6.154-10.458 12.297-10.458z" fill="#777777" data-original="#000000" style="" class=""/><path xmlns="http://www.w3.org/2000/svg" d="m502.003 454.512c5.523 0 10-4.477 10-10s-4.477-10-10-10h-236v-73.79c0-5.523-4.477-10-10-10s-10 4.477-10 10v73.79h-236c-5.523 0-10 4.477-10 10s4.477 10 10 10h88.4v22.328h-88.4c-5.523 0-10 4.477-10 10s4.477 10 10 10h492c5.523 0 10-4.477 10-10s-4.477-10-10-10h-88.4v-22.328zm-383.6 0h78.4v22.328h-78.4zm98.4 0h78.4v22.328h-78.4zm98.4 0h78.4v22.328h-78.4z" fill="#777777" data-original="#000000" style="" class=""/><path xmlns="http://www.w3.org/2000/svg" d="m235.295 35.166h10.708v232.785c0 5.523 4.477 10 10 10s10-4.477 10-10v-232.785h10.241c5.523 0 10-4.477 10-10s-4.477-10-10-10h-40.949c-5.523 0-10 4.477-10 10s4.477 10 10 10z" fill="#777777" data-original="#000000" style="" class=""/><path xmlns="http://www.w3.org/2000/svg" d="m264.313 308.803c-2.989-4.561-9.355-5.751-13.86-2.76-4.545 3.018-5.763 9.331-2.76 13.86 3.013 4.543 9.336 5.772 13.86 2.76 4.535-3.02 5.777-9.332 2.76-13.86z" fill="#777777" data-original="#000000" style="" class=""/></g></svg>
