<?xml version="1.0"?>
<svg xmlns="http://www.w3.org/2000/svg" xmlns:xlink="http://www.w3.org/1999/xlink" xmlns:svgjs="http://svgjs.com/svgjs" version="1.1" width="512" height="512" x="0" y="0" viewBox="0 0 512.002 512.002" style="enable-background:new 0 0 512 512" xml:space="preserve" class=""><g><g xmlns="http://www.w3.org/2000/svg"><g><path d="m419.638 189.278h-36.505c16.992-15.017 27.099-36.863 27.119-59.996.003-3.579-1.906-6.886-5.008-8.673-14.504-8.357-31.066-11.797-47.261-10.332 5.967-20.654 3.471-43.251-7.506-62.301-1.786-3.098-5.09-5.007-8.665-5.007-.003 0-.006 0-.009 0-17.108.015-33.509 5.553-46.968 15.307-.603-23.443-13.443-45.14-33.826-56.932-3.098-1.793-6.918-1.793-10.016 0-20.383 11.792-33.223 33.489-33.826 56.932-13.459-9.755-29.86-15.293-46.969-15.308-.003 0-.006 0-.009 0-3.575 0-6.88 1.909-8.665 5.008-10.976 19.05-13.471 41.647-7.505 62.301-16.194-1.465-32.756 1.974-47.26 10.332-3.102 1.787-5.011 5.094-5.008 8.673.02 23.133 10.127 44.978 27.119 59.996h-36.505c-14.537 0-26.364 11.827-26.364 26.364v40.909c0 11.481 7.38 21.266 17.644 24.875l31.584 189.494c4.096 24.573 21.212 41.083 42.591 41.083h196.363c21.38 0 38.496-16.51 42.591-41.083l31.584-189.494c10.263-3.608 17.644-13.393 17.644-24.875v-40.909c-.001-14.537-11.827-26.364-26.364-26.364zm-163.637-34.25c-5.522 0-10 4.477-10 10v24.25h-7.388c-4.987-8.906-7.606-18.932-7.606-29.254 0-19.351 9.444-37.521 24.993-48.725 15.549 11.204 24.993 29.374 24.993 48.725 0 10.323-2.619 20.347-7.606 29.254h-7.387v-24.25c.001-5.523-4.476-10-9.999-10zm133.947-19.805c-1.928 19.068-12.941 36.332-29.7 46.008-12.774 7.374-27.693 9.637-41.806 6.823l16.464-9.505c4.783-2.761 6.422-8.877 3.66-13.66-2.761-4.783-8.877-6.422-13.66-3.66l-16.466 9.506c4.619-13.63 14.04-25.419 26.813-32.794 16.759-9.676 37.217-10.583 54.695-2.718zm-54.084-71.951c7.599 16.887 6.984 36.547-1.793 52.973-3.006 1.269-5.953 2.722-8.816 4.375-8.228 4.75-15.409 10.877-21.338 17.985l13.538-23.449c2.762-4.783 1.123-10.899-3.66-13.66-4.784-2.764-10.9-1.122-13.66 3.66l-9.256 16.033c-2.211-3.977-4.756-7.767-7.614-11.323 1.322-5.909 3.522-11.579 6.591-16.894 9.675-16.757 26.94-27.771 46.008-29.7zm-79.863-41.278c11.762 8.962 18.862 23.041 18.862 38.007 0 10.043-3.154 19.672-8.862 27.676v-16.835c0-5.523-4.478-10-10-10s-10 4.477-10 10v16.835c-5.708-8.004-8.862-17.634-8.862-27.677 0-14.965 7.101-29.044 18.862-38.006zm-79.863 41.278c19.068 1.928 36.333 12.942 46.009 29.7 3.07 5.318 5.269 10.988 6.59 16.896-2.857 3.555-5.401 7.344-7.612 11.321l-9.257-16.033c-2.761-4.783-8.878-6.422-13.66-3.66-4.783 2.761-6.422 8.877-3.66 13.66l13.538 23.448c-5.928-7.108-13.11-13.235-21.337-17.985-2.864-1.653-5.811-3.106-8.818-4.376-8.776-16.424-9.391-36.084-1.793-52.971zm-54.084 71.951c17.479-7.865 37.937-6.957 54.694 2.718 12.773 7.375 22.194 19.164 26.813 32.794l-16.465-9.506c-4.784-2.763-10.899-1.123-13.66 3.66-2.762 4.783-1.123 10.899 3.66 13.66l16.465 9.506c-14.113 2.814-29.033.55-41.807-6.824-16.759-9.676-27.772-26.94-29.7-46.008zm-36.053 80.419c0-3.45 2.914-6.364 6.364-6.364h327.272c3.449 0 6.363 2.914 6.363 6.364v40.909c0 3.449-2.914 6.363-6.363 6.363h-327.272c-3.45 0-6.364-2.914-6.364-6.363zm291.044 251.99c-1.873 11.242-8.984 24.37-22.862 24.37h-196.363c-13.877 0-20.989-13.128-22.862-24.371l-24.121-144.716h46.525c5.522 0 10-4.477 10-10s-4.478-10-10-10h-49.858l-3.334-20.001h303.663z" fill="#777777" data-original="#000000" style=""/><path d="m202.359 302.916c-5.522 0-10 4.477-10 10s4.478 10 10 10h.007c5.522 0 9.997-4.477 9.997-10s-4.482-10-10.004-10z" fill="#777777" data-original="#000000" style=""/></g></g></g></svg>
