<?xml version="1.0"?>
<svg xmlns="http://www.w3.org/2000/svg" xmlns:xlink="http://www.w3.org/1999/xlink" xmlns:svgjs="http://svgjs.com/svgjs" version="1.1" width="512" height="512" x="0" y="0" viewBox="0 0 512 512" style="enable-background:new 0 0 512 512" xml:space="preserve"><g><g xmlns="http://www.w3.org/2000/svg"><path d="m501.923 60c5.522 0 10.077-4.477 10.077-10v-40c0-5.523-4.555-10-10.077-10h-215c-5.523 0-9.923 4.477-9.923 10v40c0 5.523 4.4 10 9.923 10h30.077v40h-30.077c-5.522 0-9.923 4.477-9.923 10v40c0 5.523 4.4 10 9.923 10h19.709c-7.267 9.65-17.52 18.901-28.01 27.168l-20.396-24.307c-3.55-4.231-9.857-4.782-14.088-1.233l-9.138 7.667v-19.295c0-5.523-4.555-10-10.077-10h-29.923v-30h29.923c5.522 0 10.077-4.477 10.077-10v-40c0-5.523-4.555-10-10.077-10h-29.923v-40c0-5.523-4.555-10-10.077-10h-40c-5.523 0-9.923 4.477-9.923 10v40h-35v-40c0-5.523-4.555-10-10.077-10h-40c-5.523 0-9.923 4.477-9.923 10v40h-30.077c-5.523 0-9.923 4.477-9.923 10v40c0 5.523 4.4 10 9.923 10h30.077v30h-30.077c-5.523 0-9.923 4.477-9.923 10v40c0 5.523 4.4 10 9.923 10h30.077v30h-30c-5.523 0-10 4.477-10 10v40c0 5.523 4.477 10 10 10h30v30h-30c-5.523 0-10 4.477-10 10v40c0 5.523 4.477 10 10 10h30v32h-30.077c-5.523 0-9.923 4.477-9.923 10v40c0 5.523 4.4 10 9.923 10h30.077v30c0 5.523 4.4 10 9.923 10h40c5.522 0 10.077-4.477 10.077-10v-30h35v30c0 2.63 1.03 5.21 2.89 7.07s4.4 2.93 7.03 2.93h40c2.64 0 5.25-1.07 7.11-2.93 1.869-1.86 2.97-4.44 2.97-7.07v-14.35c0-5.316.655-10.506 1.976-15.65h48.024v10c0 5.523 4.4 10 9.923 10h80c5.522 0 10.077-4.477 10.077-10v-40c0-5.523-4.555-10-10.077-10h-29.57c1.265-11.157 6.079-18.409 23.529-18.409 5.522 0 10-4.477 10-10s-4.478-10-10-10c-23.235 0-33.776 10.564-38.527 19.426-3.358 6.264-4.635 12.986-5.124 18.983h-30.308c-5.522 0-9.923 4.477-9.923 10v10h-39.389c5.889-9.668 14.334-19.416 25.669-29.62 8.01-7.23 16.54-13.88 24.08-19.76 3.74-2.91 7.275-5.66 10.555-8.33 13.63-11.09 34.967-28.01 55.618-44.37 3.107-2.463 6.18-4.899 9.207-7.298l19.724 23.506c1.704 2.032 4.146 3.303 6.789 3.534.291.025.581.038.871.038 2.342 0 4.62-.823 6.428-2.34l30.642-25.712c4.23-3.55 4.783-9.857 1.232-14.088l-18.845-22.459c9.009-7.435 18.405-15.514 27.881-24.541 1.939-1.84 3.04-4.33 3.099-7 .07-2.67-.91-5.2-2.76-7.14-1.9-2-4.47-3.1-7.24-3.1-2.569 0-5.02.98-6.88 2.75-.01 0-.01.01-.02.01-12.11 11.54-24.261 21.61-35.591 30.76-11.72 9.47-28.739 22.97-46.77 37.25-20.75 16.44-42.2 33.44-56.02 44.69-3.04 2.49-6.5 5.18-10.171 8.03-11.369 8.84-25.52 19.84-37.899 33.1-9.29 9.97-16.2 19.76-21.2 29.92-6.01 12.2-9.01 24.92-9.01 37.82v4.35h-20v-7.47c0-13.81 3.14-27.13 9.66-40.73 8.05-16.79 21.11-33.53 39.969-51.19 12.091-11.34 24.73-21.38 35.89-30.25 3.63-2.88 7.054-5.6 10.285-8.22 12.64-10.28 32.198-25.77 51.118-40.75 19.07-15.1 38.789-30.72 51.638-41.17 11.021-8.97 31.539-25.68 48.53-46.65 9.11-11.25 16-22.09 20.98-33.15 5.9-13.12 8.93-26.26 8.93-39.07v-133.35h20v137.47c0 13.07-3.03 26.63-8.93 40.31-2.19 5.06.129 10.95 5.19 13.14 1.26.55 2.59.82 3.95.82 4 0 7.635-2.37 9.224-6.03 6.618-15.319 10.17-30.683 10.53-45.71h29.958c5.522 0 10.077-4.477 10.077-10v-40c0-5.523-4.555-10-10.077-10h-29.922v-40zm-29.923-40h20v20h-20zm-277 50h20v20h-20zm-155 382h-20v-20h20zm0-92h-20v-20h20zm0-90h-20v-20h20zm0-90h-20v-20h20zm0-90h-20v-20h20zm225 362h60v20h-60zm97.044-134.299 12.633 15.055-15.321 12.856-12.947-15.43c5.642-4.488 10.913-8.693 15.635-12.481zm-65.044-277.701v-20h20v20zm0 100v-20h20v14.352c0 1.88-.201 3.764-.57 5.648zm-47.667 43.377 13.209 15.742c-3.553 2.52-6.957 4.878-10.086 7.046-2.088 1.446-4.049 2.818-5.893 4.112-.154.108-.326.229-.483.34l-12.069-14.384zm-54.333-23.377h20v20h-20zm0 40h16.273c.289.499.614.98.99 1.428l17.496 20.851c-10.299 7.475-22.547 16.582-34.759 26.156zm-40-180h20v244.123c-7 5.631-14 11.194-20 16.476zm-55 270h35v8.804c-2 1.92-3.898 3.884-5.93 5.901-8.966 8.902-19.07 18.903-29.07 29.872zm35-20h-35v-20h35zm-35-200h35v20h-35zm0 40h35v30h-35zm0 50h35v20h-35zm35 40v30h-35v-30zm-75-180h20v338.197c-3 3.777-5.778 7.628-8.514 11.57-4.272 6.157-8.486 12.252-11.486 18.301zm75 432h-34.362c.9-6.877 2.627-13.544 5.014-20h29.348zm0-40h-19.69c5.655-9.544 12.69-18.566 19.69-27.093zm19.841-77.903c-1.988 1.946-13.527 14.027-15.441 16.049-26.687 28.187-59.4 65.646-59.4 112.502v29.352h-20v-33.47c0-55.518 45.465-102.199 80.25-136.779.967-.961 14.118-13.952 16.958-16.539 23.793-21.671 66.995-54.5 95.028-74.484 2.004-1.429 15.367-10.724 17.349-12.108 27.551-19.241 67.415-49.191 67.415-84.268v-114.352h20v118.47c0 39.243-43.946 73.447-76.67 96.287-3.847 2.685-19.263 13.229-22.752 15.713-27.552 19.617-77.4 58.816-102.737 83.627zm20.159 60.059c-.239.263-.482.52-.72.784-7.581 8.445-13.967 16.757-19.28 25.119v-57.262c1-1.61 16-16.306 20-20.232zm114.524-96.456c-18.96 15.01-38.562 30.53-51.342 40.92-3.189 2.6-6.671 5.37-10.371 8.29-9.946 7.898-21.396 16.99-32.811 27.361v-49.404c24.439-20.51 53.584-43.333 72.878-57.16l23.761 28.317c-.705.559-1.411 1.118-2.115 1.676zm17.794-14.104-22.924-27.32c5.15-3.535 10.7-7.379 16.438-11.526l22.146 26.393c-4.953 3.951-10.228 8.143-15.66 12.453zm97.512-99.386c-6.021 13.42-16.041 27.47-29.741 41.76-11.409 11.91-23.659 22.22-34.14 30.73-.764.622-1.557 1.265-2.37 1.923l-21.773-25.948c24.41-19.416 48.578-43.856 57.031-72.675h37.8c-.833 7.894-3.121 16.012-6.807 24.21zm7.17-44.21h-35v-20h35zm0-40h-35v-40h35zm0-60h-35v-20h35zm80 80v20h-20v-20z" fill="#777777" data-original="#000000" style=""/><circle cx="428.944" cy="240.13" r="10" fill="#777777" data-original="#000000" style=""/></g></g></svg>
