<?xml version="1.0"?>
<svg xmlns="http://www.w3.org/2000/svg" xmlns:xlink="http://www.w3.org/1999/xlink" xmlns:svgjs="http://svgjs.com/svgjs" version="1.1" width="512" height="512" x="0" y="0" viewBox="0 0 512 512" style="enable-background:new 0 0 512 512" xml:space="preserve" class=""><g><g xmlns="http://www.w3.org/2000/svg"><path d="m256 302.7c-5.51 0-10 4.489-10 10.01 0 5.51 4.49 9.99 10 9.99s10-4.48 10-9.99c0-5.521-4.49-10.01-10-10.01z" fill="#777777" data-original="#000000" style="" class=""/><path d="m508.639 454.494c-1.943-1.724-4.518-2.618-7.099-2.513-2.824 0-28.212-.638-48.144-22.725-11.771-13.044-78.343-136.38-120.218-216.099-.087-.166-.179-.329-.275-.489-14.207-23.712-28.803-39.922-44.623-49.556-13.445-8.188-27.809-12.013-46.28-12.311v-103.108c0-5.522-4.477-9.693-10-9.693h-30.791l-22.813-25.682c-7.056-7.943-16.43-12.318-26.396-12.318s-19.34 4.375-26.396 12.317l-22.813 25.683h-30.791c-5.523 0-10 4.171-10 9.693v174.307h-16c-2.63 0-5.21.98-7.07 2.84s-2.93 4.34-2.93 6.979v225.289c-20.57 4.58-36 22.962-36 44.892 0 5.522 4.477 10 10 10h112c5.523 0 10-4.478 10-10 0-21.93-15.43-40.312-36-44.892v-80.188c.01-14.7 5.73-28.521 16.11-38.93 10.4-10.391 24.21-16.11 38.89-16.12 14.68.01 28.49 5.729 38.89 16.12 10.38 10.409 16.1 24.229 16.11 38.93v80.188c-20.57 4.58-36 22.962-36 44.892 0 5.522 4.477 10 10 10h112c5.523 0 10-4.478 10-10 0-21.93-15.43-40.312-36-44.892v-100.398c0-5.521-4.49-10.01-10-10.01s-10 4.489-10 10.01v99.29h-20v-79.08c0-10.13-1.98-19.96-5.9-29.21-3.77-8.94-9.18-16.96-16.07-23.851-6.88-6.899-14.9-12.31-23.83-16.09-9.25-3.91-19.07-5.899-29.2-5.899s-19.95 1.989-29.2 5.899c-8.93 3.78-16.95 9.19-23.83 16.09-6.89 6.891-12.3 14.91-16.08 23.851-3.91 9.25-5.89 19.08-5.89 29.21v79.08h-20v-214h190v25.71c0 5.51 4.49 9.99 10 9.99 5.52 0 10-4.48 10-9.99 0-.01 0-.021 0-.021v-25.516c8.257.893 15.344 5.417 19.342 12.617 0 0 2.837 5.516 4.22 8.218 26.281 51.364 95.656 185.08 117.814 209.633 32.965 36.531 80.761 39.359 94.624 39.359 5.523 0 10-4.489 10-10.011v-40.016c0-2.859-1.224-5.581-3.361-7.479zm-252.639 21.506c10.795 0 20.075 6.612 24 16h-88c3.925-9.388 13.205-16 24-16zm-170 0c10.795 0 20.075 6.612 24 16h-88c3.925-9.388 13.205-16 24-16zm54.557-450.4c3.208-3.61 7.271-5.6 11.443-5.6s8.236 1.989 11.443 5.601l18.557 20.89v31.509h-60v-31.51zm-58.557 32.4h20v20h-20zm100 164h-60v-54.226c0-16.558 13.458-30.027 30-30.027s30 13.47 30 30.027zm40 0h-20v-54.226c0-27.585-22.43-50.027-50-50.027s-50 22.442-50 50.027v54.226h-20v-124h140zm0-144h-20v-20h20zm270 413.516c-17.259-1.549-47.747-7.885-69.776-32.295-16.828-18.647-71.91-121.371-115.392-206.412-1.084-2.12-3.88-7.5-3.896-7.528-8.031-14.635-22.973-23.281-39.969-23.281h-20.967v-51.205c26.557.503 48.375 9.91 73.603 51.915 11.403 21.705 105.779 200.925 122.944 219.945 18.432 20.426 40.853 26.638 53.453 28.518z" fill="#777777" data-original="#000000" style="" class=""/></g></g></svg>
